/* XPM */
static char *result[] = {
/* columns rows colors chars-per-pixel */
"64 64 69 1 ",
"  c #632D8F",
". c #653090",
"X c #642F8F",
"o c #632C8F",
"O c #663092",
"+ c #662998",
"@ c #653190",
"# c #663290",
"$ c #673490",
"% c #663191",
"& c #693692",
"* c #65308F",
"= c #642E8F",
"- c #673390",
"; c #653091",
": c #683194",
"> c #632E8F",
", c #64308F",
"< c #652C94",
"1 c #673491",
"2 c #663190",
"3 c #663390",
"4 c #662C96",
"5 c #68348F",
"6 c #69338E",
"7 c #662F93",
"8 c #672E95",
"9 c #672E96",
"0 c #673292",
"q c #652F90",
"w c #662E92",
"e c #672F95",
"r c #840E20",
"t c #CC5850",
"y c #DE6E66",
"u c #540000",
"i c #A8322A",
"p c #FF865B",
"a c #E4AF83",
"s c white",
"d c #F6E0B8",
"f c #7B0000",
"g c #992700",
"h c #663291",
"j c #683293",
"k c #683591",
"l c #693691",
"z c #EA893E",
"x c #F69A53",
"c c #F6A765",
"v c #F9C498",
"b c #FBD2B1",
"n c #673391",
"m c #FFCDA3",
"M c #FFCF52",
"N c #BC4840",
"B c #FBCCA7",
"V c #DB6426",
"C c #B03E36",
"Z c #FFF5AC",
"A c #964D15",
"S c #FF9E85",
"D c #F5C39D",
"F c #683492",
"G c #683294",
"H c #683393",
"J c #E7CFA3",
"K c #C94E1D",
"L c #683094",
/* pixels */
"       .......XXXXXXX       oooooooXXXXXXX              OOOOOOO+",
"       .......XXXXXXX       oooooooXXXXXXX              OOOOOOO+",
"       .......XXXXXXX       oooooooXXXXXXX              OOOOOOO+",
"       .......XXXXXXX       oooooooXXXXXXX              OOOOOOO+",
"       .......XXXXXXX       oooooooXXXXXXX              OOOOOOO+",
"       .......XXXXXXX       oooooooXXXXXXX              OOOOOOO+",
"       .......XXXXXXX       oooooooXXXXXXX              OOOOOOO+",
"@@@@@@@       XXXXXXX#######.......$$$$$$$..............%%%%%%%&",
"@@@@@@@       XXXXXXX#######.......$$$$$$$..............%%%%%%%&",
"@@@@@@@       XXXXXXX#######.......$$$$$$$..............%%%%%%%&",
"@@@@@@@       XXXXXXX#######.......$$$$$$$..............%%%%%%%&",
"@@@@@@@       XXXXXXX#######.......$$$$$$$..............%%%%%%%&",
"@@@@@@@       XXXXXXX#######.......$$$$$$$..............%%%%%%%&",
"@@@@@@@       XXXXXXX#######.......$$$$$$$..............%%%%%%%&",
"*******@@@@@@@=======@@@@@@@-------#######XXXXXXX.......;;;;;;;:",
"*******@@@@@@@=======@@@@@@@-------#######XXXXXXX.......;;;;;;;:",
"*******@@@@@@@=======@@@@@@@-------#######XXXXXXX.......;;;;;;;:",
"*******@@@@@@@=======@@@@@@@-------#######XXXXXXX.......;;;;;;;:",
"*******@@@@@@@=======@@@@@@@-------#######XXXXXXX.......;;;;;;;:",
"*******@@@@@@@=======@@@@@@@-------#######XXXXXXX.......;;;;;;;:",
"*******@@@@@@@=======@@@@@@@-------#######XXXXXXX.......;;;;;;;:",
">>>>>>>,,,,,,,#######$$$$$$$$$$$$$$#######*******=======<<<<<<<+",
">>>>>>>,,,,,,,#######$$$$$$$$$$$$$$#######*******=======<<<<<<<+",
">>>>>>>,,,,,,,#######$$$$$$$$$$$$$$#######*******=======<<<<<<<+",
">>>>>>>,,,,,,,#######$$$$$$$$$$$$$$#######*******=======<<<<<<<+",
">>>>>>>,,,,,,,#######$$$$$$$$$$$$$$#######*******=======<<<<<<<+",
">>>>>>>,,,,,,,#######$$$$$$$$$$$$$$#######*******=======<<<<<<<+",
">>>>>>>,,,,,,,#######$$$$$$$$$$$$$$#######*******=======<<<<<<<+",
"$$$$$$$11111112222222#####3$$$$3333XXXXXXX222222233333334444444+",
"$$$$$$$11111112222222#####-$$$$$333XXXXXXX222222233333334444444+",
"$$$$$$$11111112222222#####-$56$$333XXXXXXX222222233333334444444+",
"$$$$$$$11111112222222#####3$$$$3333XXXXXXX222222233333334444444+",
"$$$$$$$11111112222222#######3333333XXXXXXX222222233333334444444+",
"$$$$$$$11111112222222#######3333333XXXXXXX222222233333334444444+",
"$$$$$$$11111112222222#######3333333XXXXXXX222222233333334444444+",
"XXXXXXX       *******@@@@@@@11111111111111#######777777788888889",
"XXXXXXX       *******@@@@@@@11111111111111#######777777788888889",
"XXXXXXX       *******@@@@@@@11111111111111#######777777788888889",
"XXXXXXX       *******@@@@@@@11111111111111#######777777788888889",
"XXXXXXX       *******@@@@@@@11111111111111#######777777788888889",
"XXXXXXX       *******@@@@@@@11111111111111#######777777788888889",
"XXXXXXX       *******@@@@@@@11111111111111#######777777788888889",
"@@@@@@@22222220000000qqqqqqq2222222XXXXXXXwwwwwww8888888eeeeeee:",
"@@@@@@@22222220000000qqqqqqq2222222XXXXXXXwwwwwww8888888eeeeeee:",
"@@@@@@@22222220000000qqqqqqqrrrrr22XXXXXXXwwwwwww8888888eeeeeee:",
"@@@@@@@22222220000000qqqqqrrtttyyrrXXXXXXXwwwwwww8888888eeeeeee:",
"@@@@@@@22222220000000qqqqrttyytttttrXXXXXXwwwwwww8888888eeeeeee:",
"@@@@@@@22222220000000qqquttytttrrriprXXXXXwwwwwww8888888eeeeeee:",
"@@@@@@@22222220000000qqqutptytrasdffffgfXXwwwwwww8888888eeeeeee:",
"hhhhhhhjjjjjjjkkkkkkkllryptytrasdfzxcvbcgfnnnnnnn2222222.......*",
"hhhhhhhjjjjjjjkkkkkkkllutmytiusdfvbvcMxvxcfnnnnnn2222222.......*",
"hhhhhhhjjjjjjjkkkkkkklluNptNudsgzxccvxxzBVfnnnnnn2222222.......*",
"hhhhhhhjjjjjjjkkkkkkklluiCiiuaaVxccZxvVgffnnnnnnn2222222.......*",
"hhhhhhhjjjjjjjkkkkkkkllrCiCiusfbbcMczVgdaAnnnnnnn2222222.......*",
"hhhhhhhjjjjjjjkkkkkkklluiCiudafVzvbzVgdsdAnnnnnnn2222222.......*",
"hhhhhhhjjjjjjjkkkkkkkllrtSNudAgzzzVDgsdaAFnnnnnnn2222222.......*",
"GGGGGGGHHHHHHHkkkkkkk$$rtNuAAJVDDVVgddsA                        ",
"GGGGGGGHHHHHHHkkkkkkk$$$ru$$@fxzzDVgasA                         ",
"GGGGGGGHHHHHHHkkkkkkk$$$$$$$@fcMcVgdAA                          ",
"GGGGGGGHHHHHHHkkkkkkk$$$$$$$@gccKgAA                            ",
"GGGGGGGHHHHHHHkkkkkkk$$$$$$$@@KK@@@                             ",
"GGGGGGGHHHHHHHkkkkkkk$$$$$$$@@@@@@@                             ",
"GGGGGGGHHHHHHHkkkkkkk$$$$$$$@@@@@@@                             ",
":::::::LLLLLLL-------                                           "
};
