/* XPM */
static char *result[] = {
/* columns rows colors chars-per-pixel */
"64 64 69 1 ",
"  c #010101",
". c #070309",
"X c #0A050D",
"o c #0A0A0B",
"O c #0D0713",
"+ c #0F0816",
"@ c #100716",
"# c #110817",
"$ c #14091B",
"% c #131313",
"& c #18121C",
"* c #1B1B1B",
"= c #170C21",
"- c #1A0D25",
"; c #1F0E2D",
": c #1F102C",
"> c #20102D",
", c #220F31",
"< c #241232",
"1 c #271238",
"2 c #2C163D",
"3 c #232323",
"4 c #2C2C2C",
"5 c #333333",
"6 c #3C3C3C",
"7 c #2E1642",
"8 c #321846",
"9 c #361A4D",
"0 c #391C4F",
"q c #3B1C53",
"w c #3F2059",
"e c #401E5C",
"r c #432F53",
"t c #42205E",
"y c #462163",
"u c #492466",
"i c #4C256B",
"p c #4E2370",
"a c #512674",
"s c #532975",
"d c #55277B",
"f c #562A7A",
"g c #5A2D7E",
"h c #434343",
"j c #4C4C4C",
"k c #545454",
"l c #5E5E5E",
"z c #606060",
"x c #6A6A6A",
"c c #5D2C83",
"v c #5F2B89",
"b c #5F3085",
"n c #602E87",
"m c #632E8F",
"M c #603184",
"N c #65318F",
"B c #662D95",
"V c #662998",
"C c #663290",
"Z c #683393",
"A c gray52",
"S c #B2B2B2",
"D c #BFBFBF",
"F c #DDA1A1",
"G c #CBCBCB",
"H c #DCDCDC",
"J c #E9E9E9",
"K c #F4F4F4",
"L c #FEFEFE",
/* pixels */
"mmmmmmvBNNNCBNmmNBvNmmvCBvBvmmmmmmmmmmmmNBmmmmmmvmvBvBmBCCCCBCCV",
"mmmmBvCCmCNNNNmNNCCNBmBvvBmCmmVvvVmmmmmBmNmmvmBvBmmmmmmvCBBCCBBV",
"BvmmmmvNCNNBBCNmBvNCvvCBmmmmmvvmmmmmmmmmmmmmBvBmBvmvBmBvCCBCCCCV",
"mBmmBvBBCBNNNCmNNmNvCmBvmmmmmmBBmmmmmmmmmmmmmmmmmmmBvmmmBCCBBBCV",
"mvmmmmBCvBNNNBvNBvCBCvBvmmmmmmBvmmmmNmNmNmmmmmmmmvvBmmBmCCCBCCBV",
"mBmmvmvCCCNBNCmCNCNNCmmmmmmmmmvBmmmNmNNmmNmmmmmmmBmBvmvBBBCCBCCV",
"mmmmBvBNCCCCCCNmNvvNBvNmmvmmvmmvmmmNNNmNNNmmmmmmmmmvBmmvCBCBBCCV",
"mmNCBNNmmmmBvvBNBNCBCCNZBCCCBBBmmmNZNZZZZNmmmBNNmCBNNNCCCCCCCCCZ",
"CCCCCmmmmmmmmmmmmNmNBNNNNZZNNNNNmNCZZZZZZZMZCmCNBCNBNBCNCCCCCBCZ",
"CmCCCCCmmmmmvmmBNmNmNNZCNNNNZNNNmNNCZZgZZZMZNNCBvNNCNCmNCCBCCCZZ",
"CNCCCCCmmmmmCvmmmNNmNCCCZNCZNNCNNNNZZZZZMZZZBNBCCCCCNCCBCBCCCZZZ",
"CNCmCCmmmmmmmBvBmNmNNCNCZNCCCCCCCCCCMZZMZZZZNNNNCCCCvBCCCCCCCZZZ",
"NNNCCCmmmmvBmmmBNmNmNCCCNCCCZCCCCmNZCCZZZZCCMZNNCNNBNCBCBCCCCCCZ",
"NCNNCmCmmmCvmmCvBNmNNCCCCCCZMZCCCCNZCZZCZMCZCZBCBNCvNNvCCCCCCCZZ",
"mCCmCCmCCCCmCCBvmmmNNNNCNCCCMZZZZCCCCCCCZMZMNNNCvNCCCBCvCBBCCBCC",
"CmCCmCCCmCCCCCmCmNmNNNNNCNCNZZZZCCZCCCCCZZZZNNNMCBCCCCCBCNCBCCCZ",
"CmCmCCCCCCmmCCmCmmmmmCCCNCNCCCMZZMZCCCCCCCNmNmmNCCBNmCCNCBCBNNNC",
"mCCCCvCCCmCCCmmmmCmmmCCCNCCNCCZCZZZCCCCCNmNmmmCmmCNNCNBNNNCNCBBC",
"CCmvNCCCCCCCCmmCmmmmmCCNCNCCCZCZZZCCZNCZMCmmNmCmvBBNNNNBCCBBBCCC",
"CmCCNNCmNCCCCCmmmmmNmCCCCCCCCCZCZMCCCNCCCCmmmCmNNCNNBNNCBNNCCCCB",
"CmCCNCvCNNCCNCCCNNCCmCCNCCNCCCCZZMZZNZNCCCCmmCmmNCNNCCCCCmmCCmBC",
"mmmmmmmCmNNNNNCZCCCCCCCCCZCZZCCCZZZZCCCCCCNCNNNNNBmmmmmmBBVVBBVV",
"mmmmmmmCNNNNNNCCCCCCCZCCM7*gMCCZZMMZCCCCgnNNNCNNNBmmmmmmBmVmmBBV",
"mmmmmmmmNNNNNNCCCCCCCZbi8. >MMZZZZZZCNNiOengNNNNNvNmmmmmBVmBVmBV",
"mmmNCCNNNNNNCCCZCCCCZNgO    tMbMZZCCCMso .9vNNmNCmmmmmNNmVVBVVmV",
"mmmmbCNNNNNNCbCbCCCCNNw     XuNbZZCCMu+    9nNZNCmmmNmmNBBmBmBBV",
"mNmmZCMZNNNNCCCCCCCCCsO      Xqssfgs8.     .yNNmCmNmmmbCmmVVBmVV",
"mmmmMCZMNmNNCMCCCCCbs=          ooo         OmNNmmmmmmCCVBBmVVmV",
"CCCCCZZZCCZZZZCCCCbiX     .%%%******%%o.     7CCCbZZCZCCBBBVVVBV",
"CCZCZZZZZCZbZZCCCCi-   o%3446hhhh6555443*%.  .uCCCCZCCZCVVBBmBBV",
"CZCZMZZZZCCCZZCCCC-  %*45hjklllllllllklkh64*  %fCCCCCCCCBBBVBVVV",
"CZCCZZMZZZCZCCMb0%o.*5jklzlllzlllllllllllzk5*. =sCCCCCCNBVBVBBBV",
"ZZCZCCCZCCCCNNy+   *hllllllzlzllllllllllzlll53o #fNNNCCCZCVBBVBV",
"MCCCCCZCZZCZZs.   *jlllllllzllllllllllllzzllz63o =NZZNCCBVBBVBBV",
"ZZCCCZCZCZZNN#   .kllllkjjjklllzllllzllkkkklllh4. $CZZZZVBBVBBVV",
"CZNNCCCvMCmNs    klkj4%  .oo4hkkllllh4*%o .o%3hh*  +pBCBCBBBBBBB",
"MCNNCmmBNCvC,   6k4o  %453*o  4lllz4  %*5jzj3  lh%  :CBCBBBZBZBB",
"CCCNmCCvvCvB   oj4*4AGKLLLS x* 5ll4 4 DLLLLLKK zl4   pBCBBBBBBBB",
"CvMCvCmmmmB0   lk J    LLLH*GK3.6j 5H*GLL o  Llllj%  0BBBBBBBBBB",
"CCNCBmmmmmvO  5lllLh65    KLLLJ*.j GLL oo5kkjLllll5o 1vCVZBZBBBB",
"CmmCmvCmmmd   llllLlzzlh5oo   LK z.H.%3jjlzzzLLlllj* $cBZBZVZBBV",
"CmmmmCmmmmy  hlllLLlzzllzlkhj4o. z 56kllzzlzlLLlzll4  cBBBVZVZVZ",
"CCmCCCCCCCq  jlllLLlllllzlzllzllllllllzlllllzxzllllh. pBBZVVZVZZ",
"mCCCmCCCCCt *llllzllllllzllzzzzllllllzlllzlllzzlllzk* tBZVZZZZVZ",
"NCCmCCCCNNs.*llzlzllzllllllllllllllllzlllllzlzzlllll4 qBZVVZVZZZ",
"CCCCCCmCBCn<*llllllllllzzllllzlllllllllllzllllllzlzl5 tBVZZVZVVZ",
"NNCCmCCCCCMy*zllllzllllllllllllllzllllllllllllllllll5 abZZZZZZZZ",
"NCCCCCCCCCns%lllzlllzlllllllllzl   lllllllzlllzlllll%+crBVVZVVZV",
"NCCNCCCCCCmcX hlllzlzlllllzlzll  F  lllzllllllzlzllh 8nBBBVBBBBZ",
"CCCCCCCZZZZZ9  6lllllzzllllllll FFF llllzllzllllllj4oyZNNCCmCNNZ",
"CZCCBCCZZZZZC#  3jlzlllllllllll     llllllllzlllk644&gCCCNCCCmCN",
"CCCCCCCZZZZBZc+   %5lllllllzllllkllllzlllllllllh44* emNCCCmCCCCN",
"ZZCCCCBZZZZZZCc$    o*6kkklllllllllllljjkkkjh64*%o $cmNNmCCCmCCm",
"NZZCCCCZZZZZZZZNi4=o     ..o*6h6h65433333*%%oo    .fNCZNCmCNCmmC",
"ZZCCCCZZCZZZZZZZZMMf0O                          78nCZZNCCmBNCCCC",
"ZNNZCCCZZZZZZZZZCZZCCb0=o      O-><$     .-qugNBCNCCNNCCNBmCmmCm",
"BZVZZZZZZZZZZZZZZZZMZZZZZZCCCCCmNCNmmmmmmmmmvmmmmmmmmmVvmmmmmmmm",
"ZZZZZZZZZZZZZZZZZZZZZZZZCZZCCCCCCNCmvBBvvVmmmmmmmmvmmmmmmmmmmmmV",
"ZZZZZZZZZZZZZZZCZZZZxZZZCCCCmCCCCCCmBvBvmmmmmmVmVvVmmmmmmmmmmmmm",
"BZZZZBZZZZZZZZCZZZZZZZZZCCCCCCCCCCCmvBvBmmmmmmvmmmvmmmmmmmmmmmmm",
"ZZZVZZZZZZZZZZZZZZZZZZCCCZMZCCCCNCCCCvBmmmVmmmmvmmmmmmmvvmmmmmmm",
"ZZZZZZZZZZZZZZZZxZZZMZCCZCZZmCCmCCCvmmmmmmvmmmmmmmmmmmmmVmmmmmmm",
"ZZZZZZZZZZZZZZZZZZMZZZZCZCZZmCCmmCCBBBvBmvvmmmmmmmmmvVmmmmmmvmmm",
"ZVZZZZZZZZCZZZZZZZZZZCCZMCCMmmmmmmvBvvmmmmVmmmmVvmVvmmmmmmmmVmmv"
};
