/* XPM */
static char *result[] = {
/* columns rows colors chars-per-pixel */
"64 64 77 1 ",
"  c #010101",
". c #080707",
"X c #060309",
"o c #09050D",
"O c #0B0B0B",
"+ c #0D0612",
"@ c #100716",
"# c #100817",
"$ c #13091B",
"% c #131313",
"& c #1B1B1B",
"* c #241A1A",
"= c #170B21",
"- c #1E0E2B",
"; c #210F2F",
": c #211327",
"> c #22102F",
", c #251234",
"< c #2B153C",
"1 c #232323",
"2 c #2A2121",
"3 c #2C2C2C",
"4 c #333333",
"5 c #3F3030",
"6 c #3C3C3C",
"7 c #463535",
"8 c #2F1642",
"9 c #2E1841",
"0 c #301744",
"q c #321947",
"w c #351A4C",
"e c #381B4F",
"r c #3B1C54",
"t c #3E1E59",
"y c #3C214C",
"u c #3E2056",
"i c #411E5D",
"p c #43215D",
"a c #472167",
"s c #482366",
"d c #4C256D",
"f c #512A6D",
"g c #533065",
"h c #4F2670",
"j c #512674",
"k c #532A75",
"l c #572C7A",
"z c #5A2A7F",
"x c #444444",
"c c #4C4C4C",
"v c #545454",
"b c #5E5E5E",
"n c #606060",
"m c gray42",
"M c #5D2D85",
"N c #5F2D88",
"B c #5E3084",
"V c #632E8F",
"C c #65308F",
"Z c #662D95",
"A c #662998",
"S c #663190",
"D c #683393",
"F c #868686",
"G c #9B9B9B",
"H c #A5A5A5",
"J c gray68",
"K c #DD9191",
"L c #D69D9D",
"P c #E49494",
"I c #DDA1A1",
"U c #D5D5D5",
"Y c #DCDCDC",
"T c #E2E2E2",
"R c gray92",
"E c #F4F4F4",
"W c #FFFFFF",
/* pixels */
"VVVVVNZCCCCSZCVCCVCVCVVVVVVVNAVAVNVVVVVVCVVVVVVVVVVVVVVVAVVVDVDA",
"VVVVVZVZSCCCCCCVVCVCVVVVVVVVVAVNVAVVVVVVVVVVVVVVVVVVVVVVZVVSZDVA",
"VVVVVNNCZCCCZSVCCVCVCVVVVVVVVNVVVVNVVCVVVVVVVVVVVVVVVVVVVSZZDDZA",
"VVVVVVZZCCSZCSCVZCVCVVVVVVVVVVVVNAAVCVCCVVVVVVVVNVVVVVVVZSSSVVDA",
"VVVVVVVSCZCZCSVVCVSCVVVVVVVVVVVVVVVCVCVCCSVVVVVVAVVVVVVVZDDDZDDA",
"VVVVVVVVCSCSCCVCVCVVCVVVVVVVVVVVVVVCCVCVVCVVVVVVVVVVVVVVVDVVDVDA",
"VVNVVVNCCCSSZSCVCVCVVVCVNVVVVVVVVVCCCCVCSVVVVVVVVVVVVVVVDDVDDVZA",
"ZVZCZVSZNVNZNVVSVCVCCCSSZZVCVZVVVVCDSDSCDCVZVVDCVVVVVVVZZZDVDDVD",
"CSSCSSSVZVZVNNZVCSVVCDSSSSSSCCSSVCCDzDDDDDCCSVSCSCCZSCZSCCCSDCDD",
"SSCCVVSVVVNZZZVCVCVCVCSSSSDSCCSSVVCDDDDDmDCDSVSVZCCSCCCCVDDCZCSD",
"SSCSSSSZNNZNZNCVCVCVCCCSSCCDCCCCCCCDSSDDDDCDSSSSCCVSZCCCDDCDDSSD",
"SSSSSVSNZZNZVVVCVCVCCDDCCDCDSSCCCCCSSSDDSDCVVSVVCCSSCCCZDVDVSSSD",
"CSSCSSCZZNNZVVVCCVCVCSCCSDSSSCSCCCCSDDDDSDVSSVSSSCCCZCCSSSSSSCDD",
"SSSSSCSNNZZNNZCVVCVCCCCCDCSSSSSCCDSSSSDzCDSSSSVSZCZSSCCCSSSCSDSD",
"CSVCCCZSSSCSSSVVCVVVCC,0SCCSSSSSCDSSSSz$:CSVVSVCVSCCCCSCZSSZSSSD",
"CCCVCCCSSSSSSSVVVVVVCBO#gSSSSDSDDDSSSCg@OsSCVVCVCVSCCZSCZSSCZCDD",
"VCSSSSVSCSSCSCVVCVVZV8o+ohSSSSDDDSDCCz,=++jVCVCVVZCCVVDCVDSZCZCS",
"CSNSSSCSSSCSSCVSVCVNr X X+dSDSSSDSSCe+   #>NVCVCCSSCSSSVDVSCSSZD",
"CSSSCCCSSSSSCSVVCVMiX     ohSSDSSSC<+.   X+,VCCVVSZCVCSDZZCZCZSS",
"SVVSSCVSVSSSSCVVVM,         pCSSSSwX     o#$wVVCVCCCDCVCCSSSSSZD",
"SVSSVCCSCCSSSSCCVw          OzCDDu.         $VCVCSSSSZCCVSSVSZVS",
"VVVVVVVCCCCCCCCSV+          o,,,:.          ojCCCVVVVVVVZVAAZZZA",
"VVVVSNVCCCSSCCDCp            XX             $rCCCVVVVVCVZAAVVAZZ",
"VVVVVZNSCVSNSCSS<       ..O%%&&%&&%%OO.    X+,CCCVVVVVVVVVZVAZZA",
"VVVVVVCCCCCCCCSD$     .%1336xxxx6644333&%.   ozCCVVVCCCVAZZVAACA",
"VVVVVVVCCCCCCCSNo   %&34xcvbbbbbbbbbbvvc43%  +NCCVCVVVCVAVAVVAZA",
"VVVVVVVCCVVCCCCq   &4cvbbbbbbbbbbbbbbbbbbv4&. <NCVCVVCSNVVAZZAZA",
"VVVVVVVSVCCVCCd   1xx114cbbnbbbbbbnbbbbvbnn41O <jVVCCVSSAZVAVVZA",
"SSDDBDmDDDDDDB.  &c3 OO  %4vnbbbbbbnb6&O&4vbx1O +kSSDDDDZAAZAAZA",
"SSDSDDDDDDDBwO  &v4.cRTJc%.O1xbbbbb6O .O  O4vx3.  NSSSBDZZZZZZZA",
"SSSSDBDDDSSq.  6vO bEWWWWRG1  &bnb&  mUUUF1 O6x&  :DSSSSAZZAZAAA",
"DDDDDDDDDSfO  3nv EWWWWWWWWEF  %vc  YWWWWWWH  &6%  SSSSSAZZAZZZA",
"DDDBSDSDSS-   cnx WWWWWWWWWWWY  4nO WWWWWWWWE  b3  gSSSSSDZZAAZA",
"DDDDDSDDDkX  &bn6 WWWWWWWWW WW  &b%WW WWWWWWWW bc%  SSDSZZAZZZZA",
"DBSSSDCSS,   cbbv W    WWWWWWWW Ob&WWWWWW O  Wbbb4. kSCCZZZZAZAA",
"SDCCCCVVNO  1bbbbbEx64    WWWWWW.b&WWW O.6vvcWbbbc&  NSCZZZZZZZZ",
"BCCCVCVVao  xbbbbbWbnnbx4.O   WW n.Y %1vcbnnnWbbbb4O qZZDADZZZZD",
"DDCCCVCVr   cbvnbWWbbnbnnbbxc3O. n 36bvbbnnbbWbbbb6%  VSADAAZZZZ",
"CCCCVCVVe  %bbbbbWWbbnbbnbbbnnbbbbbbbnbbnbbbbWWbbbv6  yZDAADADZZ",
"CCCCVVVZ8  xbbbbbWWbbbbbbbbbnbbbbbbbbnbbbbbbbWWbbbbb&  VADDADZDZ",
"CCCCSVCV,  vbbbbbbbbbbnbnbbbbbbbbbbbbbnbbbnbnWWbbbbbc  wDAZDZZZD",
"CCCCVCZN- ovbbbbbnbbbbbbbbbbbnbbb bbbbbbbbbbbbbbnbbbbx&+ZDZZDZDA",
"CCCSSSSS;  vbbbbbbbbbbbbbbbbb    I bbbbbbbbbbbnbbbbnbc1 ZZZZADAD",
"CCCCSSSS, .6bbbbbbnnbbnbbbb   IIIII*   bbnbbbbbbbbbbbv3.kZZZDADD",
"SSSSSCSS<  .cbbbnbnbbbnbbbbbbb IIILP.bbbbbbbbbbbbbbbbv1 hZADDADD",
"CSVVSSSSw   6bbbbnbbbbbbbbbnbb.LLLLK.bbnnbbbnbbbbnbbbv% hZDZADAD",
"CSSSCSVSd   Ovbbbbbbnbbbnbbbbc.%75224bbbbbbnbbbnbbbbbx% ZZZDDADD",
"SCSVSSSSZk   3bbbnnnbbbbbbbbnv%   OO4bbbbbbbbbbbbbbnc4.-ZZZDADAD",
"CSSSSSSSSSu   xbbbbnnbbbbbbbbbbcccvbbbbbbnbbbbbbbbbc31.iZVDDZDZD",
"SSSSSSSDDDD9  .ybbbbnbnbbbnbnbbbbbbbbbbbbbbbbbnbbbc43OoMDCSCZVVZ",
"SSSDDSSDDDDV#   1cbbbbbbnbbbbbbbbbbbbbbbbbbbbbbbv631O qCVVCVSCVC",
"SDSSSSDDDSDDfO   O&xbbbbbbbbbbbbbbbnbbbbbbnbbbbx43&. #CCVDCDZVDC",
"SSSSDSSDDDDDDro    .%4ccvbbbbbbbbbbbbbccvvvcx63&O.  +kCDCCCVCCSV",
"DSSDDSDDDDDDDS9X         .OO1xccc64311111&%%OO     ,MZCDVVDDCCDC",
"SSSSSDSDDDDDDDCu.             O%OOO..           9,lCCCCCDVVCVDVC",
"SSDSSSSDDVDDDDSClur<+oO%o                  $-iNASCSCCCDCVDVDCVSC",
"DZDDDDZDDDDDDDDDSDDDDDDBSSSSSCSVCSCNZZVVVVVVVVVVNAVVVVVVVVVVVVVV",
"DDDDZDDDDDDDDDDDSDDDSmDDDDDSSSSSSSZVVNZNVVANNAVVNVVVVVVNVVVVVVVV",
"DDDDDDDDDDDDDDDDDDDDDSDSDSSSCSVSSSSVVVVVANVVNVVVVVVVVVVAVVVVVVVV",
"DZZDDDDDDDDDDDDDDDDDDDDSDSDSSSSSCSSVNVZNVVVVVVVVVVVVVVVVVVVVVVVV",
"DDADDDDDDDDDDDDDDDDDDDDSDDDDSSSSSSSNZZNZVVAVVVVVVVANNVVVVVVNVVVV",
"DDDDDDDDDDDDDDDDmDDDDDBDDBDDSSSVSSSZZNZNVVNVVNAVVVVVAVVVVVVANAVN",
"DDDDDDDDDDDDDDDDDDDDDDDSDDDDSSCZSSVNVVNZVVANVVVVAVVVVVNVVNVVVVVV",
"DADDDSDDDDDDDDDDDDDDDBSDBDBBNZNVVVZZNZNVVVNVVVVVNVVVVVVAVVVVVNAV"
};
