/* XPM */
static char *result[] = {
/* columns rows colors chars-per-pixel */
"64 64 65 1 ",
"  c #010101",
". c #07030A",
"X c #09040D",
"o c #0A0A0A",
"O c #0D0612",
"+ c #110817",
"@ c #130A1B",
"# c #121212",
"$ c #1C1C1C",
"% c #170C20",
"& c #190D24",
"* c #1D0E29",
"= c #1C1421",
"- c #1F102C",
"; c #210F2E",
": c #241232",
"> c #2A153B",
", c #232323",
"< c #2C2C2C",
"1 c gray20",
"2 c #3C3C3C",
"3 c #403F3F",
"4 c #2F1743",
"5 c #321945",
"6 c #33174A",
"7 c #361A4D",
"8 c #391D4F",
"9 c #3B1D54",
"0 c #3F1D5B",
"q c #411E5E",
"w c #40205A",
"e c #472464",
"r c #482366",
"t c #4B246B",
"y c #532776",
"u c #532974",
"i c #56267C",
"p c #552A79",
"a c #592B7E",
"s c #573375",
"d c #444444",
"f c #4C4C4C",
"g c #545454",
"h c #5D5D5D",
"j c #606060",
"k c #6A6A6A",
"l c #5D2D84",
"z c #5F2D88",
"x c #632E8F",
"c c #603186",
"v c #65318F",
"b c #68368F",
"n c #67388D",
"m c #662E95",
"M c #662998",
"N c #663290",
"B c #683393",
"V c gray52",
"C c #B2B2B2",
"Z c #BFBFBF",
"A c #CBCBCB",
"S c #DCDCDC",
"D c #E9E9E9",
"F c #F4F4F4",
"G c #FEFEFE",
/* pixels */
"xxxxxxzxvxmvvvxvNxxNxxxxxxxxMzzzxMxxxxxxmzmxxxxxxxxxxxxxMxNmNNmM",
"xxxxmzmmNNvvvmvxxxNzxxxxxxxxxzxMxzxxmxxxNzxxxxxxxxxxxxxxxxmNNmNM",
"xxxxxxxvmxvvvNxvxNxNxxxxxxxxxMxxMMzmxvxxxmxxxxxxxzxxxxxxmNmNNmNM",
"xxxxmzxmvvNmNvxxxNxxNxxxxxxxzMxxzxzxxxvxxxxxxxxxxzMxxxxxNmNmNNmM",
"xxzmxxxvvmmNmxxvzNxxxxxxxxxxxxxxxxxvvxvxNNxxxxxxxxxxxxxxmNNmmNNM",
"xxxxmzxvvNvNvvvxNxxNxxxxxxxxxxxxxxxxxvvxzvxxxxxxxxxxxxxxNmNNNmmM",
"xzmxxxxmxvNmvvxvNxxxNxvzxxxxxMxxxzxxvvxvvvmzxxzmMxxxxxxxNmNmmNNM",
"mxxmxNmzmzzmzmzmxxNxxBNNxxxNxxxxxmmbbBNNvvmmxxvvzxxmxxxmNNNNNNNB",
"NNNNNNxxxxxxxxxxxxNNxNNNBxNNNNxNxvxbNbNNbNNNNmvvNxxNxNNxNNNNmNNB",
"NxNNNNNxxxxxxxxxNzxxxNNNNNNNxNNNmxNNbNbbNbNNNNvmxNNNNxNNmNNNNNNB",
"xNxNxNxxxxxxxxxxxNxNNNNNNNNNNxNNvvNNNbbNNNNNzNvmNNmNNxNNNNNNNBNB",
"xNNNNNNxxxxxxxxxxNxxxNNNNNNNNNxNmvmbNbNNbNvmmvvvNxxNxNmxNNmNNBBB",
"NNNNNNNxxxxmxxxxxNxxvNNNNNNNNNxxvvvBbbbbNbvvmvvvxxNxNxNNNmNNNNNB",
"NNNxNNxxxxxzxxxxxNxNxNNNNNNNNNNNmvvBNbbBbNvmvvmNNNNmxNNxNNNmNNBB",
"xNxxNNxNxNxNNNxxxxzxxNvvNNNNNNNBbbNvNNvNNNNNzmzxxNNNNxxNNNNxmNNm",
"NNxNzNNNxNmNNNzmxxNxxvvxNNNNNNBNvvBvNNNNNNvvmvNNxxNxNxNNmNNxNNNB",
"NxxNxzNNNNxvNvxxxxxNxNNxNNxxNNBnBNNNbNNNNvxvmvxvNNxNNvmvmvNNxxNm",
"NNNNNvNNNNNNvvxxxxxxxNNNNNNNnNNNbNbvNNbNvvxxvxvxxNNxxvvvmNNxNNNm",
"vNzxzNNNxNNNvNxxxNxxxNNNNxNNnNnNvBBbNNNNcvxNxxvxxmNxmvvmvNNmNNmB",
"xvNNNNxNNNNNNNxxxxxxxxNNNNNnNNBNvbNNNvNNNNzvxvxvxNxNNvvvNxxNNNBm",
"NxNNNNNNNNNNBxxxxxxxxNNNNNnxnNnNbvBvNNNNNNvvxvxxxNNNNmvNmxxNxNNm",
"zxxxxxxxxxxxxxBNnNNNNnNNNNNNBNBBbNBvNbNvNNNvxvvvNxzmxxxxMmmxmMmM",
"xxxxxxxxxNxxnxNNNNNNNNnNNNnnvxnNbNbvNNNNNNvxvvvxxxNxmxvxxMxMMmmM",
"xxxxxxxxnxxnxxNnNNNNNnNNnNxxncnnNbbBNNNNNNvvvmvNNxxxzmxxxmMmxxMM",
"xxxNxxxNxNxxxnNxNNNNNnNnNBNBnnNNNBNNbNNNNNvxNvvvNxxNxxxxMmxmMMxM",
"xxxxxxxNxxxNxxNxNNNNNNNNnnnNNNNNbbNNNNNbNNvvNvxNNxxxxxxxxMMmxmmM",
"xxxxxxxNvNNvxnNNNnNNNNnNNnNvNNnBbNBvNNNNNNNxzNNvxxxxxxNxmmMxxMMM",
"xxxxxxxxvxvvxxNNNNNNNnNnNNNnnNBnNNbbNbNNNNNxNNNxxxNxxxNNMxxMMmxM",
"nNnBNnnBNNNBBBNNNNxNNNNNNNNNNNNNNNNxvvxvxxNNNNNNNxnNNNNnmmmMmmmM",
"NnNBNBNBNnBnBBNxNNNNNNNvnNNnnNNnNNNvxxNxxxNNNNNNNNnNNNNNMMmmmMMM",
"nnBnnnBnNnBnnnNNNNNNNNzvNNnxNNNNbNNvxvxxxxNNNNNxNNNNNnNxmMmmMmmM",
"BNNNBNNBNNNBBBNNNNNNNNNNNz4ezNNNNNNxNxxvltNNNlNNnNNNNNNNmmMmmMmM",
"bbbNNbBvbBbBBbvvbvvvvvvvl> OuNBNNbNNvxxu9O9NmNbmvvBvNNvNNMMmmMmM",
"bBNNNbbBBbBBBBvvmvvxNvvl>   =aNNNNNxxlp@O..7NNxBbvbNNNNbNMmMMmmM",
"NNbNBbBbvBNNbbvvxbNNNNv>     *pccNNxll;    X9NNvvbNNbNNNMmmmmmMM",
"vvvxxvxxxxxxxxxccxvvvNO       +9uspu0+     .OaBvvmmNmmNNmmmmmmmm",
"vmvxxxxxxxxxxxxxxvvvx                       .:vvNmmNmNmmBMBMmmmm",
"xvxvxxxxxxxxxxxxxxvx                          4lNNxNmmNmMBMBmmmm",
"xvxvxxxxzxxxxxvvxbv                            *pmBmNNmmBMmMmmmm",
"vxvxxxxxxxxxxxvvxx     hhhhhhhhhhhhhhhhhhhh     +tmlmmmNMBBmmmmm",
"xxxvmNzmxxxxxxvvb   hjjjhhhhhhhhhhhhhhhhhhhjhh   XqmmmmmBMMBMBBm",
"xvmzzNmxxxxxxxvvX hhhjhgfffhhhhhhhhhhjhhgggghhh    0zmBBBBBMBMMm",
"NvNNNNvvmvNNxNm@ hhgf1+  ooo,fhghhhhf<$ooooo#,fh   XiBmmmBBBBMBB",
"NNNNNNNvNNvNxNO  h<o  #<1,$o  ,hhhh< .o$1fjf,  hh   6mmmmMmMMBMB",
"NNxNxxNNNvNNN*  f<,<VAFGGGC k$ 1hh< , ZGGGGGFF hh   +NmmmmBMBmBB",
"NNNNNNNNbxNNc* gg D.   GGGS$AF,.2f 2S,AGG o  Ghhhh   mmmBBMBBmBM",
"xNNNNxxNxBvvl: hhhFd21    GGGGD$.foZGG #.2gffGhhhhh .mmBMBBMMBMB",
"NNNxNNNNbxBxx4  jhGhhhhd1..   GF j.S #,gfhjjjGGhhhh oMBMBMBMBMBB",
"NNNxNNNNNNNNNr.  GGjjjjjjhgdf<o. h 12hghhjhjjGGhhhj  mmmmmNmmmmm",
"NNNNNNNBBmBBNN:  GGhjjhhjhjjhjhhhhhhhjhhhhhhhkjhhhf  vbvNNxmNNNv",
"BnNNNBNBBBmBBBz&,fghhhhhhhjhjjjhhhhhhhhhhjjhhjjhg2<,=vNNNvvNvvNv",
"NNNNNBNmBBBBBBbe o#2hhhhhjhhhhhhhhhhhhhhhhhhhhhd1<$5amNNNmxNxmNN",
"NBNNNmNBBBBBBBNN:    $dfghhhhhhhhhhhhhffgggfd2<$#.;xvbNNxvNNNvvv",
"NNNNBNNBBBBBBBNbc>@.      .o$2ddd31<<,,,,$##oo   .aNbxvNvvmxvmNx",
"BNNNNNNBBBBBBBbbbNcs8+        .                 4uNNxbvNNmvvvvvx",
"NNNNNNBBmBmBBBBbNbNbbc8=O      X@;:@     .&9tavMNNNNBxNNvvmNvmNv",
"BMBBBBMBBBBBBBBBbBnBnBBNNBNnxNNNNNvxzxzmzMxzMxxxxxxxxxxxxxxxxxxx",
"BBBBBBBBBBBBBBBBBbBnbbBBnnNNNvNNNNxmmxzmxxxxxxxxxzMxxzxMxxxxxxxx",
"BBBBBBBBBBBBBBBbbBbBBbBnBNnNNxNxlNNmxzmzxxMxzxxxxxxxxxxzxxxxxzxx",
"BBBBBMBBBBBBBBbBBbBBnBnBBnNNNNxNNNvzxmzmxxzxMxzxzxxzMxxxxxxxxMxx",
"BBMBBBBBBBBBBBbbBbBbnBNBNNNnNxNNvmxxxxxxxxxxzMxxMxzMxxxzxxxxxxMz",
"BBBBBmBBBBBBBBbBbbbBBnNnnBNBNxNNvxmxxxxxxzxxxxxxxxxxxxxMxzxMxxxx",
"BBBBBmBBBBBBBBbBnbnBnBNNNNnBxNNNNzxxxxxxxxxxxxzxxxzxzxxxxMxzxzxx",
"MBBMBmBBmBmBmBbbNNBNBxxxxxxNxxxxxmzMxxxxMzxMzxMxxxxxMxxxxzxxxMxx"
};
