/* XPM */
static char *result[] = {
/* columns rows colors chars-per-pixel */
"64 64 120 2 ",
"   c #632D8F",
".  c #653090",
"X  c #642F8F",
"o  c #632C8F",
"O  c #663092",
"+  c #662998",
"@  c #653190",
"#  c #663290",
"$  c #673490",
"%  c #663191",
"&  c #693692",
"*  c #66348F",
"=  c #67348F",
"-  c #65328F",
";  c #65308F",
":  c #642E8F",
">  c #65318F",
",  c #64318F",
"<  c #673390",
"1  c #653091",
"2  c #683194",
"3  c #63308E",
"4  c #642E8E",
"5  c #66328F",
"6  c #64318D",
"7  c #62308A",
"8  c #64318E",
"9  c #632F8E",
"0  c #67338F",
"q  c #622E8D",
"w  c #66338F",
"e  c #632E8F",
"r  c #64308F",
"t  c #652C94",
"y  c #65338D",
"u  c #623289",
"i  c #65338E",
"p  c #66338E",
"a  c #613188",
"s  c #64338C",
"d  c #62308B",
"f  c #642F8D",
"g  c #673491",
"h  c #663190",
"j  c #663390",
"k  c #63328B",
"l  c #662C96",
"z  c #64328D",
"x  c #66318F",
"c  c #65338F",
"v  c #642F8E",
"b  c #65308E",
"n  c #632F8B",
"m  c #663490",
"M  c #622C8D",
"N  c #622D8E",
"B  c #64308E",
"V  c #5E2D85",
"C  c #662F93",
"Z  c #672E95",
"A  c #672E96",
"S  c #602C8B",
"D  c #632D8E",
"F  c #632F8D",
"G  c #64328C",
"H  c #613189",
"J  c #612C8C",
"K  c black",
"L  c #673292",
"P  c #652F90",
"I  c #662E92",
"U  c #672E94",
"Y  c #672F95",
"T  c #663291",
"R  c #683293",
"E  c #683591",
"W  c #693691",
"Q  c #683590",
"!  c #683491",
"~  c #683492",
"^  c #673391",
"/  c #65338C",
"(  c #693690",
")  c #5F3084",
"_  c #4B2669",
"`  c #44235E",
"'  c #371C4D",
"]  c #2E1740",
"[  c #261335",
"{  c #1F102C",
"}  c #1E0F2A",
"|  c #361B4C",
" . c #603186",
".. c #66348E",
"X. c #3F2158",
"o. c #0A050E",
"O. c #050207",
"+. c #3E1F57",
"@. c #673590",
"#. c #68358F",
"$. c #20112C",
"%. c #070309",
"&. c #67358F",
"*. c #030104",
"=. c #603087",
"-. c #66348C",
";. c #21112D",
":. c #20102D",
">. c #67358E",
",. c #502970",
"<. c #231230",
"1. c #020103",
"2. c #0B0610",
"3. c #170C20",
"4. c #160B1F",
"5. c #180C22",
"6. c #5A2D7F",
"7. c #683294",
"8. c #683393",
"9. c #683094",
/* pixels */
"              . . . . . . . X X X X X X X               o o o o o o o X X X X X X X                             O O O O O O O + ",
"              . . . . . . . X X X X X X X               o o o o o o o X X X X X X X                             O O O O O O O + ",
"              . . . . . . . X X X X X X X               o o o o o o o X X X X X X X                             O O O O O O O + ",
"              . . . . . . . X X X X X X X               o o o o o o o X X X X X X X                             O O O O O O O + ",
"              . . . . . . . X X X X X X X               o o o o o o o X X X X X X X                             O O O O O O O + ",
"              . . . . . . . X X X X X X X               o o o o o o o X X X X X X X                             O O O O O O O + ",
"              . . . . . . . X X X X X X X               o o o o o o o X X X X X X X                             O O O O O O O + ",
"@ @ @ @ @ @ @               X X X X X X X # # # # # # # . . . . . . . $ $ $ $ $ $ $ . . . . . . . . . . . . . . % % % % % % % & ",
"@ @ @ @ @ @ @               X X X X X X X # # # # # # # . . . . . . . $ $ $ $ $ $ $ . . . . . . . . . . . . . . % % % % % % % & ",
"@ @ @ @ @ @ @               X X X X X X X # # # # # # # . . . . . . . $ $ $ $ $ $ $ . . . . . . . . . . . . . . % % % % % % % & ",
"@ @ @ @ @ @ @               X X X X X X X # # # # # # # . . . . . . . $ $ $ * $ $ $ . . . . . . . . . . . . . . % % % % % % % & ",
"@ @ @ @ @ @ @               X X X X X X X # # # # # # # . . . . . . . $ $ = $ $ $ $ . . . . . . . . . . . . . . % % % % % % % & ",
"@ @ @ @ @ @ @               X X X X X X X # # # # # # # . . . . . . . $ $ $ $ $ $ $ . . . . . . . . . . . . . . % % % % % % % & ",
"@ @ @ @ @ @ @               X X X X X X X # # # # # - # . . . . . . . $ $ $ $ $ $ $ . . . . . . . . . . . . . . % % % % % % % & ",
"; ; ; ; ; ; ; @ @ @ @ @ @ @ : : : : : : : @ > , @ @ @ @ < < < < < < < # # # # # # # X X X X X X X . . . . . . . 1 1 1 1 1 1 1 2 ",
"; ; ; ; ; ; ; @ @ @ @ @ @ @ : : : : : : : > @ 3 @ @ @ @ < < < < < < < # # # # # # # X X X X X X X . . . . . . . 1 1 1 1 1 1 1 2 ",
"; ; ; ; ; ; ; @ @ @ @ @ @ @ : : : : : : 4 @ @ @ > @ @ @ < < < < < < < # 5 # # # # 5 X X X X X X X . . . . . . . 1 1 1 1 1 1 1 2 ",
"; ; ; ; ; ; ; @ @ @ @ @ @ @ : : : : : : : @ @ @ @ , @ @ < < < < < < < # # # # # 6 6 X X X X X X X . . . . . . . 1 1 1 1 1 1 1 2 ",
"; ; ; ; ; ; ; @ @ @ @ @ @ @ : : : : : : : @ @ @ @ @ @ @ < < < < < < < # # # # # 7 8 9 X X X X X X . . . . . . . 1 1 1 1 1 1 1 2 ",
"; ; ; ; ; ; ; @ @ @ @ @ @ @ : : : : : : : @ @ @ @ @ @ @ 0 < < < < < < # # # # # # # q X X X X X X . . . . . . . 1 1 1 1 1 1 1 2 ",
"; ; ; ; ; ; ; @ @ @ @ @ @ @ : : : : : : : @ @ @ @ @ @ @ < < < < < w < # # # # # # # X X X X X X X . . . . . . . 1 1 1 1 1 1 1 2 ",
"e e e e e e e r r r r r r r # # # # # # # $ $ $ $ $ $ $ $ $ $ $ = $ $ # # # # # 5 # ; ; ; ; ; ; ; : : : : : : : t t t t t t t + ",
"e e e e e e e r r r r r r r # # # # # # # $ $ y = $ * y u y $ = $ $ $ # # # # # # # ; ; ; ; ; ; ; : : : : : : : t t t t t t t + ",
"e e e e e e e r r r r r r r # # # # # # # $ y i y $ p y y a $ $ $ $ $ # # # # # # # ; ; ; ; ; ; ; : : : : : : : t t t t t t t + ",
"e e e e e e e r r r r r r r # # # # # # # $ $ $ * = $ = p s $ $ $ $ $ # # # # # # # ; ; ; ; ; ; ; : : : : : : : t t t t t t t + ",
"e e e e e e e r r r r r r r # d # # # # # $ $ $ $ $ = i * i $ $ $ $ $ # # # # # # # ; ; ; ; ; ; ; : : : : : : : t t t t t t t + ",
"e e e e e e e r r r r r r r - # # # # # # $ $ $ $ $ = u i = $ $ $ $ $ # # # # # # # ; ; ; ; ; ; ; : : : : : : : t t t t t t t + ",
"e e e e e e e r r r r r r r # # # # # # # $ $ $ = = = i $ $ $ $ $ $ $ # # # # # # # ; ; ; ; ; ; f : : : : : : : t t t t t t t + ",
"$ $ $ $ $ $ $ g g g g g g g h h h h h h h # # 5 5 # # # j j j j j j j X X X X X X X h h h h h h h k j j j j j j l l l l l l l + ",
"$ $ $ $ $ $ $ g g g g k g g h h h h h h h # # 8 # # # 5 j j j j j j j X X X X X X X h h h h h h h j z j j j j j l l l l l l l + ",
"$ $ $ $ $ $ $ g g g g g g g h h h h h h x # 6 # # # # # j j j j j j j X X X X X X X h h h h h h h j j j j j j j l l l l l l l + ",
"$ $ $ $ $ $ $ g g g g g g g h h h h h > x # # # # # # # c j j j j j j X X X X X v X h h h h h h h j j j j j j j l l l l l l l + ",
"$ $ $ $ $ $ $ g g g g g g g h h h h > > > # # # # # # # j j j j j j j X X X X X X X h h h h h h h j j j j j j j l l l l l l l + ",
"$ $ $ $ $ $ $ g g g g g g g > h h b x n h # # # # # # # j j j j j j j X X X X X X X h h h h h h h j j j j j j j l l l l l l l + ",
"$ $ $ $ $ $ $ g $ g g g g m b > b x > h h # # # # # # # j j j j j j j X X X X X X X h h h h h h h j j j j j j j l l l l l l l + ",
"X X X X X X X   M         N b B V b ; ; ; @ @ @ @ @ @ @ g g g g g g g g g g g g g g # # # # # # # C C C C C C C Z Z Z Z Z Z Z A ",
"X X X X X X X   M       S D ; F F ; ; ; ; @ @ @ @ @ @ @ g g g g g g g g g g g g g g # # # # # # # C C C C C C C Z Z Z Z Z Z Z A ",
"X X X X X X X           D   ; b ; ; ; ; b @ @ @ @ @ @ @ g G c g g g g g g g g g g g # # # # # # # C C C C C C C Z Z Z Z Z Z Z A ",
"X X X X X X X         N     f ; ; ; ; b ; @ @ @ @ @ @ @ w H i g g g g g g $ m c $ $ # # # # # # # C C C C C C C Z Z Z Z Z Z Z A ",
"X X X X X X X             J ; ; ; ; ; ; ; @ @ @ @ @ > @ $ g g g g g g g g g g g g w # # # # # # # C C C C C C C Z Z Z Z Z Z Z A ",
"X X X X X X X               ; ; ; ; ; ; ; @ @ @ @ @ @ @ g g g g g g g g g g g g g g # # # # # # # C C C C C C C Z Z Z Z Z Z Z A ",
"X X X X X X X               ; ; ; ; ; ; ; @ @ @ @ @ @ @ g g g g g g g K g g g g g g # # # # # # # C C C C C C C Z Z Z Z Z Z Z A ",
"@ @ @ @ @ @ @ h h h h h h h L L L L L L L P P P P P P P K h h h h h h K X X X X X X I I I I I I I Z Z Z U Z Z Z Y Y Y Y Y Y Y 2 ",
"@ @ @ @ @ @ @ h h h h h h h L L L L L L L P P P P P P P h K h h h h h K X X X X X X I I I I I I I Z Z Z Z Z Z Z Y Y Y Y Y Y Y 2 ",
"@ @ @ @ @ @ @ h h h h h h h L L L L L L L P P P P P P P h K h h h h K X X X X X X K K I I I I I I Z Z Z Z Z Z Z Y Y Y Y Y Y Y 2 ",
"@ @ @ @ @ @ @ h h h h h h h L L L L L L L P P K P P P P h K h h h h K X X X X X X K I I I I I I I Z Z Z Z Z Z Z Y Y Y Y Y Y Y 2 ",
"@ @ @ @ @ @ @ h h h h h h h L L L L L L L P P P K P P P h K h h h h K X X X X X K X I I I I I I I Z Z Z Z Z Z Z Y Y Y Y Y Y Y 2 ",
"@ @ @ @ @ @ @ h h h h h h h L L L L L L L P P P P K P P h h h h h h h X X X X K X X I I I I I I I Z Z Z Z Z Z Z Y Y Y Y Y Y Y 2 ",
"@ @ @ @ @ @ @ h h h h h h h L L L L L L L P P P P K P P h h h h h h h X X X K X X X I I I I I I I Z Z Z Z Z Z Z Y Y Y Y Y Y Y 2 ",
"T T T T T T T R R R R R R R E E * E E E E W W W W W K W E E Q E Q Q = g ! ~ ~ ~ ~ ~ ^ K K ^ ^ ^ ^ h h h h h h h . . . . . . . ; ",
"T T T T T T T R R R R R R R E = / E E E E K K W W W W ( ) _ ` ' ] [ { } | < ~ ~ ~ K K ^ ^ ^ ^ ^ ^ h h h h h h h . . . . . . . ; ",
"T T T T T T T R R R R R R R E  ...E E E E W W K K W W X.o.O.K K K K K K K +.~ ~ K ~ ^ ^ ^ ^ ^ ^ ^ h h h h h h h . . . . . . . ; ",
"T T T T T T T R R R R R R R E = @.E E E E W W W W W #.$.K K K K K K K K K %.G ~ ~ ~ ^ ^ ^ ^ ^ ^ ^ h h h h h h h . . . . . . . ; ",
"T T T T T T T R R R R R R R E E E E E E E W W W W W &.$.K K K K K K K K K *.=.~ ~ ~ ^ ^ ^ ^ ^ ^ ^ h h h h h h h . . . . . . . ; ",
"T T T T T T T R R R R R R R E E E E E E E W W W W W -.;.O.K K K K K K K K :.j ~ ~ ~ ^ ^ ^ ^ ^ ^ ^ h h h h h h h . . . . . . . ; ",
"T T T T T T T R R R R R R R E E Q E E E E W W W W W ( >.,.<.1.2.3.{ <.4.5.6.~ ~ ~ ~ ^ ^ ^ ^ ^ ^ ^ h h h h h h h . . . . . . . ; ",
"7.7.7.7.7.7.7.8.8.8.8.8.8.8.E E E E E E E $ $ $ $ $ $ $ @ @ @ @ @ @ @                                                           ",
"7.7.7.7.7.7.7.8.8.8.8.8.8.8.E E E E E E E $ $ $ $ $ $ $ @ @ @ @ @ @ @                                                           ",
"7.7.7.7.7.7.7.8.8.8.8.8.8.8.E E E E E E E $ $ $ $ $ $ $ @ @ @ @ @ @ @                                                           ",
"7.7.7.7.7.7.7.8.8.8.8.8.8.8.E E E E E E E $ $ $ $ $ $ $ @ @ @ @ @ @ @                                                           ",
"7.7.7.7.7.7.7.8.8.8.8.8.8.8.E E E E E E E $ $ $ $ $ $ $ @ @ @ @ @ @ @                                                           ",
"7.7.7.7.7.7.7.8.8.8.8.8.8.8.E E E E E E E $ $ $ $ $ $ $ @ @ @ @ @ @ @                                                           ",
"7.7.7.7.7.7.7.8.8.8.8.8.8.8.E E E E E E E $ $ $ $ $ $ $ @ @ @ @ @ @ @                                                           ",
"2 2 2 2 2 2 2 9.9.9.9.9.9.9.< < < < < < <                                                                                       "
};
