/* XPM */
static char *result[] = {
/* columns rows colors chars-per-pixel */
"64 64 67 1 ",
"  c #010101",
". c #060309",
"X c #09050D",
"o c #0B0B0B",
"O c #0D0612",
"+ c #0F0815",
"@ c #100716",
"# c #110817",
"$ c #13091B",
"% c #131313",
"& c #1A1313",
"* c #1B1B1B",
"= c #231A1A",
"- c #170B20",
"; c #1A0D25",
": c #1E0F2A",
"> c #200E2E",
", c #201227",
"< c #251234",
"1 c #2A143C",
"2 c #242424",
"3 c #2D2D2D",
"4 c #343434",
"5 c #3C3C3C",
"6 c #2F1742",
"7 c #2E1841",
"8 c #301744",
"9 c #321947",
"0 c #321748",
"q c #351A4B",
"w c #3C1D54",
"e c #3E1D59",
"r c #3C214C",
"t c #3E2056",
"y c #3F2058",
"u c #421E5F",
"i c #42215C",
"p c #462263",
"a c #482366",
"s c #4D266D",
"d c #533065",
"f c #512673",
"g c #542A75",
"h c #56297A",
"j c #5A2C7E",
"k c #444444",
"l c #4C4C4C",
"z c #545454",
"x c #5E5E5E",
"c c #606060",
"v c #5D2D84",
"b c #5F2D88",
"n c #632E8F",
"m c #603187",
"M c #65308F",
"N c #662D95",
"B c #662998",
"V c #663190",
"C c #683393",
"Z c #D69D9D",
"A c #DA9F9F",
"S c #E28383",
"D c #E49494",
"F c #DDA1A1",
"G c #DDDDDD",
"H c gray97",
"J c #FFFFFF",
/* pixels */
"nnnnbNnMMnMMMnnMMnMnMnnnbnnbnnbnbBnnnnnnMnnnnnbNnbNNbNNbNNNVVVVB",
"nnnnnnnNVMMNVVMnMnnMnnnnNnnNnBBnnnnnnnnnnMnnnnnnnnNbnnbNVVVVNVNB",
"nnnnNnbMVVVVVVnMnMnMnnnnbNnbnbnnbnbnnMnMMnnnnNnNnNbNbNnnNNVNVVVB",
"nnnnbnNMnVnVNVnMMnMnMnnnNbNNnnnnbBBnMnMnnNbnnbnbbbNbnnnnVVVVVNVB",
"nnnnnnnNNMMNMMnMMnMMnnnnbNnnnnnnnnnnnMMnnMNnnnnnNnnnnnnnCNVNNNVB",
"nnnnbnnVMVMVMMMnNMnMnnnnNbnnnnnnnnnMMnnMMnnnnnnnnnnnnnnnNVVVVVVB",
"nnnnNbNMMMNVVVnMnMnMnnnnnnnnnnnnnnMMMMnshVnnnnnnbnnnnnbnVVNVNVVB",
"NnnMNMMnnnbnnnMnMnMnnv<9nMMVNnnnnnVVVMw.$MMnnNVMNNnMNnNMVVVCVVCC",
"VMMVVVVnnnNbNbNnMnMnMp .uVVVMMVVnMVCMp. .gVVMVNMMNMMVVMMVCNVCVVC",
"VVMMVnVNNbbNnnnMMnnMn<  .aVVMVVVnMMCs.  .iVVMMMMMVMMNMMNVNVVVVCC",
"VMMVnVVbnNNbnnMnnMnnm+   $mMMMmVMVMjX    1VVMMMMMMVNMMMVVVCVVMCC",
"VVVMVVVnnbbNnnnMMnnnw.   .1VVMVVVMVq     -MNNVVMVVMVMMMMVVVVCCVC",
"VVVVVVVNNNNbnnnnnnMm$     XhVVVVMCM,     XhNnMNMnNMMMVVMVVVVVVVC",
"VMVVVVMbbbnMnnMnnnnw.     .1VVVVMnM@      #vMMVMVVMMMMNMVVVVVVCC",
"MMMMMMMVVVVVMMNnnnj#       #jCVVCCj.       ;nnMMnMVMNMMMVNNVVVVC",
"MMMMVMMVVVVVMMnnnN1        .iCVVVCu         wnMnMMNVVMVNVVVVNVVC",
"MMMMMMMVVMVMVVnnnvO         9CCMVV:         OhMnnVMVVMVMVVVVNVNV",
"nVVnVMMVMVVVVVnMn0          <MCCCsX          <nMMMMNMMNMMNVMMVVV",
"MVnVMMMVVMMVMVMnb+          #1<<<#           OMnnNMMMMnCMNMNNVVV",
"VMVVMMMVMVMMVVnnu            ..              .nMMVVMNVMMVVVVVVVN",
"MMMMMVMVVVVVVVMM1       ..o%%*%***%%%o.       MnMMMMVMCnVnnnVVVV",
"nnnnNbnMMnnMMMMM$     .%*345kkkk55543322%.    MMMnnnnnnMNNNBBNBB",
"nnnnnnnVnMMVMMVMX   %*35klzxcxcxxxxxxzzk53%   vnMnnnnnnnBnnNNNNB",
"MnnnnnnnMMMMMMV9   *4lzxxxcxxxxxxxxxxxxxxz42..1vMnnnnMnnBNBNnNNB",
"nnMMVVMMMMnMMna   *kzcxxxxxxxxxxxxxxxxxxxxx42o 1fVnnnbMMnNNBnnNB",
"nnMMmCMMMMMnMv.  *lxcccxxxxxxxxxxxxxxxcxxxxxk2o +sMnNMMMnBNnNBBB",
"nnbnmmCmVnMmq.  %zxcczx  .lxccxxxxxxxxxxxxcxxk2o  bnnnMMNNBBNNbB",
"nnnnCCmCMnn9   %zxxx.   J  ozccxxxxxxx  ooxzxxk*  ;MNnVmBnnNNNBB",
"VVmCCCmCVVgo  .zccz  JJJJJJ olxcxxxx   JJ  xzxc5%  MCCmCNBBNBNBB",
"CVCCCmCCCV,   5cxz  JJJJJJJJ ozxxxx3 JJJJJ  cxxx3  dCmCCNNNNNNNB",
"CmCCCCCCCgo  *zcx  HJJJJJJJJ  2xxc4  JJJJJJ  cxxl*  CCVVBNNBBnNB",
"CCCCCCmCC<   zccl JJJJJJJJJJJ  %zx* JJJJJJJJ  xxx4. gVVMNNNBBNBB",
"mCCCVVCCMX  *xxck JJJJJJJJJJJJ  5x% JJJJJJJJJ  xxl*  mMCVNBNNNBB",
"CCCmCVCCs.  kxxc5 JJJJJJJJJ JJ  *x%JJ JJJJJJJJ xxx3. 9MCNNNNBNNB",
"CmVCVCMVt  .zxxxz J    JJJJJJJJ oz*JJJJJJ o  Jxxxck%  MMNNNBNBNB",
"CCVVVmnnq  %zxxxxJHk54    HJJJJJ.c*JJJ oo4zzlJJxxcz5  rNNNNNNNVB",
"mmCVnMnn9  kxxxxxJJxccxk4o.   JJ c.G %2zlxcccJJxxxxx*  nCBNNVNNN",
"CVMMMnMn<  zxxxxxxxxccxxcxzkl3o. c 35xzxxccxxxxxcxxcl  qBCCNNNNN",
"MMMMnMnn:  zxxxxxcxxxxxxccccxcxxxxxxxcxxxxxxxxxxxxxxx* XNNNNCBNC",
"MMmMMMNn> .lxxxxxxxxxxxxxxccccxxxxxxxcxxxxcxxxxxxxxxx5. NCBCBCBC",
"MnnMnnMN< .5ccxxxxxcxxxxxxcxxxxxxxxxxxxxxxxxxxxxxxxxxxo fBCBCNNB",
"nMMMMMnn1  3xxxxxxxccxxxxxxxxxxxx xxxxcxxxxcxxxcxxxcxx* aBNNBCBC",
"MVVVVVMMq  *zxxccxxxcxxxxxxxx    F xcxxxxxxxxxxxxcxxxz2 sVNNCBCC",
"VVMVVVMMs  %xxxxcxcxccxxxxx   FFFFF=   xcxxxcxxxxxxccz3 NNCNNCBC",
"MVVMMVVMn  .lxxxcccxxxcxxxxcxx FFFZD.xxxxxxxxxxxxxxxxz2 CCCBNCNC",
"VVVVVVVVC.  5xxxxxxxxxxxxxxxxx FAFFD.xcxxxxxxcxcxxcxxz* BBCCNNNC",
"VVVVVVVVV$  ozxxxxcxxxxxcxxxcx=FSSSD xxxxxxxxxxxxxxxxk$$CBNCCCNC",
"MVVMVVVMVf   3xxxccxcxxxxxxxxxoSSSSS cxxxxcxxxxxxxxxl3o>CCBCBNNC",
"VVVMVVVVVVy   kxxxxccxxxxxxxxx &SSS xxxxcxxxxxxxcxxl4=.eVCVNNNVN",
"VVVVCVVCCVV7   5xxxxxccxxxxcxxx     xxcxxxxxxxxxxxl33oXvVNMMVVVV",
"MCVCVCVCCCCM#   2lzcxxxxxxxxxxxxxxxxxxxxxxxxcxxxz533o 8VNMVMVMVV",
"VVCVCVVCCCCCsX   o2kxxxxxxxxxxxxxxcxxxxxxxxxxxxk33*  $mVMMVNVMMN",
"CVVCVCVCCCCCCe.    .%3llzxxxxxxxxxxxcxllzzzlk53*%.  +fVVVVMMNMMM",
"VVCVCVCVVCCCCV7.         .oo2klll54322222*%%oo     <vMVVNMMNMMVM",
"VVVCmCVCCVCCCCMt.            .o%ooo..           1<gCMMMVMMMVMNVn",
"CVVVCVCVNCCCCCCMgtt1#X%%o                  #:umNCVVVVCVVMMMMMVVM",
"CCCCCCCCCCCCCCCCCCCCCCCCCmCVVMVMVMMnnnnbNNbNbNnnnNnnbnNbnnnnnnnn",
"CCNCCCCCCCCCCCCCCCCCCCCCCCCVMVMVVVVnnnNNbnNbNbnnnbnNNnnnnnnnnnnn",
"CCCNCCCCCCCCCCCCCCCCCCCCCmCVMVVVVVVnbNbNNnNbnNnBbBnbnnNnnnnnnBnn",
"CBCCCBCCCCCCCCCCCCCCCcCCCCCCVMnVVMVnNbNbbnnnnbnbnnnnBbbnnnnnnbnn",
"CCCCCCCCCCCCCCCCCCCCCCCmCCmCVVVVVMVnnNnnnbBnNbnNnNnnnnbnNbNbnnnn",
"CCCCCCCCCCCCCCCCmCCcCCCCCCCCnVnVVVVNnbNbnNnnnnnbnbNbnNBnnnnnbBNb",
"CBCBCCCCCCCCCCCmCCCCCmCCCCmCVVVVVVVbNbNbnbbnnbnnnnnnnbnnnbnnnnnn",
"CCCCCCCCCCCCCCCCCCCmCCVmCmmCNbNbNbnNbNbNnnNnnBNbnBbnnNbnnBNbnBbn"
};
