/* XPM */
static char *result[] = {
/* columns rows colors chars-per-pixel */
"64 64 215 2 ",
"   c #632D8F",
".  c #653090",
"X  c #642F8F",
"o  c #632C8F",
"O  c #663092",
"+  c #662998",
"@  c #653190",
"#  c #663290",
"$  c #673490",
"%  c #663191",
"&  c #693692",
"*  c #66348F",
"=  c #67348F",
"-  c #65328F",
";  c #65308F",
":  c #642E8F",
">  c #65318F",
",  c #64318F",
"<  c #673390",
"1  c #653091",
"2  c #683194",
"3  c #63308E",
"4  c #642E8E",
"5  c #66328F",
"6  c #64318D",
"7  c #62308A",
"8  c #64318E",
"9  c #632F8E",
"0  c #67338F",
"q  c #622E8D",
"w  c #66338F",
"e  c #632E8F",
"r  c #64308F",
"t  c #652C94",
"y  c #65338D",
"u  c #623289",
"i  c #65338E",
"p  c #66338E",
"a  c #613188",
"s  c #64338C",
"d  c #62308B",
"f  c #642F8D",
"g  c #673491",
"h  c #663190",
"j  c #663390",
"k  c #63328B",
"l  c #662C96",
"z  c #64328D",
"x  c #66318F",
"c  c #65338F",
"v  c #642F8E",
"b  c #603185",
"n  c #65308E",
"m  c #632F8B",
"M  c #663490",
"N  c #622C8D",
"B  c #622D8E",
"V  c #64308E",
"C  c #5E2D85",
"Z  c #642F90",
"A  c #662F93",
"S  c #672E95",
"D  c #672E96",
"F  c #602C8B",
"G  c #632D8E",
"H  c #632F8D",
"J  c #64328C",
"K  c #613189",
"L  c #612C8C",
"P  c #5D2F83",
"I  c #652F91",
"U  c #612F8A",
"Y  c #673292",
"T  c #652F90",
"R  c #662E92",
"E  c #672E94",
"W  c #672F95",
"Q  c #622F8A",
"!  c #562979",
"~  c #522773",
"^  c #4B246A",
"/  c #4C246C",
"(  c #542777",
")  c #5D2C85",
"_  c #622E8C",
"`  c #5D2B84",
"'  c #42205E",
"]  c #29143A",
"[  c #1A0D25",
"{  c #110818",
"}  c #0E0713",
"|  c #050207",
" . c #030104",
".. c #020102",
"X. c #0B050F",
"o. c #12081A",
"O. c #210F2F",
"+. c #391B51",
"@. c #56297B",
"#. c #632E8D",
"$. c #662E93",
"%. c #371A4E",
"&. c #0E0714",
"*. c #040205",
"=. c black",
"-. c #0D0612",
";. c #2F1643",
":. c #59287F",
">. c #652E91",
",. c #56287B",
"<. c #1C0D28",
"1. c #0C0612",
"2. c #522575",
"3. c #59297E",
"4. c #160A20",
"5. c gray37",
"6. c #261137",
"7. c #642D90",
"8. c #29133B",
"9. c #120819",
"0. c #602B89",
"q. c #663291",
"w. c #683293",
"e. c #683591",
"r. c #693691",
"t. c #592E7B",
"y. c #110918",
"u. c #585858",
"i. c gray30",
"p. c gray27",
"a. c #464646",
"s. c gray35",
"d. c #5B5B5B",
"f. c #4C4C4C",
"g. c #444444",
"h. c #3C3C3C",
"j. c #505050",
"k. c #0F0715",
"l. c #5C2D81",
"z. c #673391",
"x. c #623188",
"c. c #65338C",
"v. c #68358F",
"b. c #391D4F",
"n. c #151515",
"m. c #010101",
"M. c #020202",
"N. c #1E1E1E",
"B. c gray36",
"V. c #5D5D5D",
"C. c #222222",
"Z. c gray1",
"A. c #0C0611",
"S. c #562B7A",
"D. c #563075",
"F. c #603186",
"G. c #66348E",
"H. c #613286",
"J. c gray28",
"K. c gray11",
"L. c #191919",
"P. c gray14",
"I. c gray33",
"U. c #484848",
"Y. c gray18",
"T. c #3A3A3A",
"R. c #5A5A5A",
"E. c #0B0610",
"W. c #592C7D",
"Q. c #673590",
"!. c #5D3081",
"~. c #0A050E",
"^. c #555555",
"/. c gray31",
"(. c #0F0714",
"). c #5F2F85",
"_. c #67358E",
"`. c #241332",
"'. c #060606",
"]. c gray4",
"[. c #1D1D1D",
"{. c gray26",
"}. c gray25",
"|. c #3F3F3F",
" X c gray21",
".X c #2C2C2C",
"XX c gray15",
"oX c #252525",
"OX c #232323",
"+X c gray13",
"@X c #202020",
"#X c #241233",
"$X c #65328E",
"%X c #572D79",
"&X c #08040B",
"*X c #020201",
"=X c #030302",
"-X c #020200",
";X c #040206",
":X c #42215D",
">X c #683590",
",X c #552C76",
"<X c #1A0E24",
"1X c #020103",
"2X c #170C20",
"3X c #1F102C",
"4X c #231230",
"5X c #150A1D",
"6X c #000001",
"7X c #070309",
"8X c #20102D",
"9X c #5E2F84",
"0X c #683294",
"qX c #683393",
"wX c #683094",
/* pixels */
"              . . . . . . . X X X X X X X               o o o o o o o X X X X X X X                             O O O O O O O + ",
"              . . . . . . . X X X X X X X               o o o o o o o X X X X X X X                             O O O O O O O + ",
"              . . . . . . . X X X X X X X               o o o o o o o X X X X X X X                             O O O O O O O + ",
"              . . . . . . . X X X X X X X               o o o o o o o X X X X X X X                             O O O O O O O + ",
"              . . . . . . . X X X X X X X               o o o o o o o X X X X X X X                             O O O O O O O + ",
"              . . . . . . . X X X X X X X               o o o o o o o X X X X X X X                             O O O O O O O + ",
"              . . . . . . . X X X X X X X               o o o o o o o X X X X X X X                             O O O O O O O + ",
"@ @ @ @ @ @ @               X X X X X X X # # # # # # # . . . . . . . $ $ $ $ $ $ $ . . . . . . . . . . . . . . % % % % % % % & ",
"@ @ @ @ @ @ @               X X X X X X X # # # # # # # . . . . . . . $ $ $ $ $ $ $ . . . . . . . . . . . . . . % % % % % % % & ",
"@ @ @ @ @ @ @               X X X X X X X # # # # # # # . . . . . . . $ $ $ $ $ $ $ . . . . . . . . . . . . . . % % % % % % % & ",
"@ @ @ @ @ @ @               X X X X X X X # # # # # # # . . . . . . . $ $ $ * $ $ $ . . . . . . . . . . . . . . % % % % % % % & ",
"@ @ @ @ @ @ @               X X X X X X X # # # # # # # . . . . . . . $ $ = $ $ $ $ . . . . . . . . . . . . . . % % % % % % % & ",
"@ @ @ @ @ @ @               X X X X X X X # # # # # # # . . . . . . . $ $ $ $ $ $ $ . . . . . . . . . . . . . . % % % % % % % & ",
"@ @ @ @ @ @ @               X X X X X X X # # # # # - # . . . . . . . $ $ $ $ $ $ $ . . . . . . . . . . . . . . % % % % % % % & ",
"; ; ; ; ; ; ; @ @ @ @ @ @ @ : : : : : : : @ > , @ @ @ @ < < < < < < < # # # # # # # X X X X X X X . . . . . . . 1 1 1 1 1 1 1 2 ",
"; ; ; ; ; ; ; @ @ @ @ @ @ @ : : : : : : : > @ 3 @ @ @ @ < < < < < < < # # # # # # # X X X X X X X . . . . . . . 1 1 1 1 1 1 1 2 ",
"; ; ; ; ; ; ; @ @ @ @ @ @ @ : : : : : : 4 @ @ @ > @ @ @ < < < < < < < # 5 # # # # 5 X X X X X X X . . . . . . . 1 1 1 1 1 1 1 2 ",
"; ; ; ; ; ; ; @ @ @ @ @ @ @ : : : : : : : @ @ @ @ , @ @ < < < < < < < # # # # # 6 6 X X X X X X X . . . . . . . 1 1 1 1 1 1 1 2 ",
"; ; ; ; ; ; ; @ @ @ @ @ @ @ : : : : : : : @ @ @ @ @ @ @ < < < < < < < # # # # # 7 8 9 X X X X X X . . . . . . . 1 1 1 1 1 1 1 2 ",
"; ; ; ; ; ; ; @ @ @ @ @ @ @ : : : : : : : @ @ @ @ @ @ @ 0 < < < < < < # # # # # # # q X X X X X X . . . . . . . 1 1 1 1 1 1 1 2 ",
"; ; ; ; ; ; ; @ @ @ @ @ @ @ : : : : : : : @ @ @ @ @ @ @ < < < < < w < # # # # # # # X X X X X X X . . . . . . . 1 1 1 1 1 1 1 2 ",
"e e e e e e e r r r r r r r # # # # # # # $ $ $ $ $ $ $ $ $ $ $ = $ $ # # # # # 5 # ; ; ; ; ; ; ; : : : : : : : t t t t t t t + ",
"e e e e e e e r r r r r r r # # # # # # # $ $ y = $ * y u y $ = $ $ $ # # # # # # # ; ; ; ; ; ; ; : : : : : : : t t t t t t t + ",
"e e e e e e e r r r r r r r # # # # # # # $ y i y $ p y y a $ $ $ $ $ # # # # # # # ; ; ; ; ; ; ; : : : : : : : t t t t t t t + ",
"e e e e e e e r r r r r r r # # # # # # # $ $ $ * = $ = p s $ $ $ $ $ # # # # # # # ; ; ; ; ; ; ; : : : : : : : t t t t t t t + ",
"e e e e e e e r r r r r r r # d # # # # # $ $ $ $ $ = i * i $ $ $ $ $ # # # # # # # ; ; ; ; ; ; ; : : : : : : : t t t t t t t + ",
"e e e e e e e r r r r r r r - # # # # # # * $ $ $ $ = u i = $ $ $ $ $ # # # # # # # ; ; ; ; ; ; ; : : : : : : : t t t t t t t + ",
"e e e e e e e r r r r r r r # # # # # # # $ $ $ = = = i $ $ $ $ $ $ $ # # # # # # # ; ; ; ; ; ; f : : : : : : : t t t t t t t + ",
"$ $ $ $ $ $ $ g g g g g g g h h h h h h h # # 5 5 # # # j j j j j j j X X X X X X X h h h h h h h k j j j j j j l l l l l l l + ",
"$ $ $ $ $ $ $ g g g g k g g h h h h h h h # # 8 # # # 5 j j j j j j j X X X X X X X h h h h h h h j z j j j j j l l l l l l l + ",
"$ $ $ $ $ $ $ g g g g g g g h h h h h h x # 6 # # # # # j j j j j j j X X X X X X X h h h h h h h j j j j j j j l l l l l l l + ",
"$ $ $ $ $ $ $ g g g g g g g h h h h h > x # # # # # # # c j j j j j j X X X X X v X h h h b h h h j j j j j j j l l l l l l l + ",
"$ $ $ $ $ $ $ g g g g g g g h h h h > > > # # # # # # # j j j j j j j X X X X X X X h h h h h h h j j j j j j j l l l l l l l + ",
"$ $ $ $ $ $ $ g g g g g g g > h h n x m h # # # # # # # j j j j j j j X X X X X X X h h h h h h h j j j j j j j l l l l l l l + ",
"$ $ $ $ $ $ $ g $ g g g g M n > n x > h h # # # # # # # j j j j j j j X X X X X X X h h h h h h h j j j j j j j l l l l l l l + ",
"X X X X X X X   N         B n V C n ; ; ; @ @ @ @ @ @ @ g g g g g g g g g g g g g g # # # # # # # Z A A A A A A S S S S S S S D ",
"X X X X X X X   N       F G ; H H ; ; ; ; @ @ @ @ @ @ @ g g g g g g g g g g g g g g # # # # # # # A A A A A A A S S S S S S S D ",
"X X X X X X X           G   ; n ; ; ; ; n @ @ @ @ @ @ @ g J c g g g g g g g g g g g # # # # # # # A 9 A A A A A S S S S S S S D ",
"X X X X X X X         B     f ; ; ; ; n ; @ @ @ @ @ @ @ w K i g g g g g g $ M c $ $ # # # # # # # A A A A A A A S S S S S S S D ",
"X X X X X X X             L ; ; ; ; ; ; ; @ @ @ @ @ > @ $ g g g g g g g g g g g $ w # # # # # # # A A P A A A A S S S S S S S D ",
"X X X X X X X               ; ; ; ; ; ; ; @ @ @ @ @ @ @ g g g g g g g g g g g g g g # # # # # # # A A A I A A A S S S S S S S D ",
"X X X X X X X               ; ; ; ; ; ; ; @ @ @ @ @ @ @ g g g g g g g g g g g g g g # # # # # # # A A A U A A A S S S S S S S D ",
"@ @ @ @ @ @ @ h h h h h h h Y Y Y Y Y Y Y T T T T T T T h h h h h h x v X X X X X X R R R R R R R S S S E S S S W W W W W W W 2 ",
"@ @ @ @ @ @ @ h h h h h h h Y Y Y Y Y Y Y T T T T T T T x V Q C ! ~ ^ / ( ) _ 9 X X R R R R R R R S S S S S S S W W W W W W W 2 ",
"@ @ @ @ @ @ @ h h h h h h h Y Y Y Y Y Y Y T T T T T 4 ` ' ] [ { } |  ...X.o.O.+.@.#.R R R R R R R S S S S E $.S W W W W W W W 2 ",
"@ @ @ @ @ @ @ h h h h h h h Y Y Y Y Y Y Y T T T T ` %.&.*.=.=.=.=.=.=.=.=.=.=.=.-.;.:.>.R R R R R S S S S S S S W W W W W W W 2 ",
"@ @ @ @ @ @ @ h h h h h h h Y Y Y Y Y Y Y T T T ,.<.=.=.=.=.=.=.=.=.=.=.=.=.=.=.=...1.2.R R R R R S S S S S S S W W W W W W W 2 ",
"@ @ @ @ @ @ @ h h h h h h h Y Y Y Y Y Y Y T T 3.4.=.=.=.=.5.5.5.5.5.5.5.5.5.5.=.=.=.=.6.7.R R R R S S S S S S S W W W W W W W 2 ",
"@ @ @ @ @ @ @ h h h h h h h Y Y Y Y Y Y Y T #.8.=.=.=.5.5.5.5.5.5.5.5.5.5.5.5.5.5.=.=.9.0.R R R R S S S S S S S W W W W W W W 2 ",
"q.q.q.q.q.q.q.w.w.w.w.w.w.w.e.e.* e.e.e.e.r.t.y.=.5.5.u.i.p.a.s.5.5.5.d.f.g.h.j.5.5.=.k.l.z.z.z.z.h h h h x.h h . . . . . . . ; ",
"q.q.q.q.q.q.q.w.w.w.w.w.w.w.e.= c.e.e.e.e.v.b.=.5.5.u.n.m.m.M.N.B.5.V.C.Z.Z.M.N.d.5.=.A.S.z.z.z.z.h h h D.h h h . . . . . . . ; ",
"q.q.q.q.q.q.q.w.w.w.w.w.w.w.e.F.G.e.e.e.e.H.&.=.5.5.5.J.K.L.P.I.5.5.5.U.Y.T.U.R.5.5.=.E.W.z.z.z.z.h h h h h h h . . . . . . . ; ",
"q.q.q.q.q.q.q.w.w.w.w.w.w.w.e.= Q.e.e.e.e.!.~.=.^.s.B.V.V.5.V.5.5.5.5.V.V.R./.i.^.=.=.(.).z.z.z.z.h h h h h h h . . . . . . . ; ",
"q.q.q.q.q.q.q.w.w.w.w.w.w.w.e.e.e.e.e.e.e._.`.=.=.Z.'.].[.h.{.}.{.|. X.XXXoXOX+X@X=.=.#X$Xz.z.z.z.h h h h h h h . . . . . . . ; ",
"q.q.q.q.q.q.q.w.w.w.w.w.w.w.e.e.e.e.e.e.e.r.%X&X=.=.=.=.=.=.m.M.m.m.m.m.m.m.*X=X-X=.;X:Xz.z.z.z.z.h h h h h h h . . . . . . . ; ",
"q.q.q.q.q.q.q.w.w.w.w.w.w.w.e.e.>Xe.e.e.e.r.r.,X<X=.=.=.=.=.1XE.2X3X4X5X1X=.=.=.6X7X8X9Xz.z.z.z.z.h h h h h h h . . . . . . . ; ",
"0X0X0X0X0X0X0XqXqXqXqXqXqXqXe.e.e.e.e.e.e.$ $ $ $ $ $ $ @ @ @ @ @ @ @                                                           ",
"0X0X0X0X0X0X0XqXqXqXqXqXqXqXe.e.e.e.e.e.e.$ $ $ $ $ $ $ @ @ @ @ @ @ @                                                           ",
"0X0X0X0X0X0X0XqXqXqXqXqXqXqXe.e.e.e.e.e.e.$ $ $ $ $ $ $ @ @ @ @ @ @ @                                                           ",
"0X0X0X0X0X0X0XqXqXqXqXqXqXqXe.e.e.e.e.e.e.$ $ $ $ $ $ $ @ @ @ @ @ @ @                                                           ",
"0X0X0X0X0X0X0XqXqXqXqXqXqXqXe.e.e.e.e.e.e.$ $ $ $ $ $ $ @ @ @ @ @ @ @                                                           ",
"0X0X0X0X0X0X0XqXqXqXqXqXqXqXe.e.e.e.e.e.e.$ $ $ $ $ $ $ @ @ @ @ @ @ @                                                           ",
"0X0X0X0X0X0X0XqXqXqXqXqXqXqXe.e.e.e.e.e.e.$ $ $ $ $ $ $ @ @ @ @ @ @ @                                                           ",
"2 2 2 2 2 2 2 wXwXwXwXwXwXwX< < < < < < <                                                                                       "
};
