/* XPM */
static char *result[] = {
/* columns rows colors chars-per-pixel */
"64 64 97 2 ",
"   c #632D8F",
".  c #653090",
"X  c #642F8F",
"o  c #632C8F",
"O  c #663092",
"+  c #662998",
"@  c #653190",
"#  c #663290",
"$  c #673490",
"%  c #663191",
"&  c #693692",
"*  c #66348F",
"=  c #67348F",
"-  c #65328F",
";  c #65308F",
":  c #642E8F",
">  c #65318F",
",  c #64318F",
"<  c #673390",
"1  c #653091",
"2  c #683194",
"3  c #63308E",
"4  c #642E8E",
"5  c #632E8F",
"6  c #64308F",
"7  c #652C94",
"8  c #62308B",
"9  c #63328A",
"0  c #65338E",
"q  c #673491",
"w  c #663190",
"e  c #663390",
"r  c #662C96",
"t  c #63328B",
"y  c #64318E",
"u  c #66328F",
"i  c #64318D",
"p  c #65338F",
"a  c #642F8E",
"s  c #622C8D",
"d  c #662F93",
"f  c #672E95",
"g  c #672E96",
"h  c #66338F",
"j  c #663490",
"k  c #673292",
"l  c #652F90",
"z  c #662E92",
"x  c #672E94",
"c  c #672F95",
"v  c #632F8B",
"b  c #64308E",
"n  c #632E8D",
"m  c #663291",
"M  c #683293",
"N  c #683591",
"B  c #693691",
"V  c #683590",
"C  c #683492",
"Z  c #673391",
"A  c #5F3084",
"S  c #4B2669",
"D  c #44235E",
"F  c #371C4D",
"G  c #2E1740",
"H  c #261335",
"J  c #1F102C",
"K  c #1E0F2A",
"L  c #361B4C",
"P  c #41225A",
"I  c #0A050E",
"U  c #050207",
"Y  c black",
"T  c #3E1F57",
"R  c #683690",
"E  c #20112C",
"W  c #070309",
"Q  c #64328C",
"!  c #68358F",
"~  c #030104",
"^  c #603087",
"/  c #66348C",
"(  c #21112D",
")  c #20102D",
"_  c #693690",
"`  c #67358E",
"'  c #502970",
"]  c #231230",
"[  c #020103",
"{  c #0B0610",
"}  c #170C20",
"|  c #160B1F",
" . c #180C22",
".. c #5A2D7F",
"X. c #683294",
"o. c #683393",
"O. c #683094",
/* pixels */
"              . . . . . . . X X X X X X X               o o o o o o o X X X X X X X                             O O O O O O O + ",
"              . . . . . . . X X X X X X X               o o o o o o o X X X X X X X                             O O O O O O O + ",
"              . . . . . . . X X X X X X X               o o o o o o o X X X X X X X                             O O O O O O O + ",
"              . . . . . . . X X X X X X X               o o o o o o o X X X X X X X                             O O O O O O O + ",
"              . . . . . . . X X X X X X X               o o o o o o o X X X X X X X                             O O O O O O O + ",
"              . . . . . . . X X X X X X X               o o o o o o o X X X X X X X                             O O O O O O O + ",
"              . . . . . . . X X X X X X X               o o o o o o o X X X X X X X                             O O O O O O O + ",
"@ @ @ @ @ @ @               X X X X X X X # # # # # # # . . . . . . . $ $ $ $ $ $ $ . . . . . . . . . . . . . . % % % % % % % & ",
"@ @ @ @ @ @ @               X X X X X X X # # # # # # # . . . . . . . $ $ $ $ $ $ $ . . . . . . . . . . . . . . % % % % % % % & ",
"@ @ @ @ @ @ @               X X X X X X X # # # # # # # . . . . . . . $ $ $ $ $ $ $ . . . . . . . . . . . . . . % % % % % % % & ",
"@ @ @ @ @ @ @               X X X X X X X # # # # # # # . . . . . . . $ $ $ * $ $ $ . . . . . . . . . . . . . . % % % % % % % & ",
"@ @ @ @ @ @ @               X X X X X X X # # # # # # # . . . . . . . $ $ = $ $ $ $ . . . . . . . . . . . . . . % % % % % % % & ",
"@ @ @ @ @ @ @               X X X X X X X # # # # # # # . . . . . . . $ $ $ $ $ $ $ . . . . . . . . . . . . . . % % % % % % % & ",
"@ @ @ @ @ @ @               X X X X X X X # # # # # - # . . . . . . . $ $ $ $ $ $ $ . . . . . . . . . . . . . . % % % % % % % & ",
"; ; ; ; ; ; ; @ @ @ @ @ @ @ : : : : : : : @ > , @ @ @ @ < < < < < < < # # # # # # # X X X X X X X . . . . . . . 1 1 1 1 1 1 1 2 ",
"; ; ; ; ; ; ; @ @ @ @ @ @ @ : : : : : : : > @ 3 @ @ @ @ < < < < < < < # # # # # # # X X X X X X X . . . . . . . 1 1 1 1 1 1 1 2 ",
"; ; ; ; ; ; ; @ @ @ @ @ @ @ : : : : : : 4 @ @ @ > @ @ @ < < < < < < < # # # # # # # X X X X X X X . . . . . . . 1 1 1 1 1 1 1 2 ",
"; ; ; ; ; ; ; @ @ @ @ @ @ @ : : : : : : : @ @ @ @ , @ @ < < < < < < < # # # # # # # X X X X X X X . . . . . . . 1 1 1 1 1 1 1 2 ",
"; ; ; ; ; ; ; @ @ @ @ @ @ @ : : : : : : : @ @ @ @ @ @ @ < < < < < < < # # # # # # # X X X X X X X . . . . . . . 1 1 1 1 1 1 1 2 ",
"; ; ; ; ; ; ; @ @ @ @ @ @ @ : : : : : : : @ @ @ @ @ @ @ < < < < < < < # # # # # # # X X X X X X X . . . . . . . 1 1 1 1 1 1 1 2 ",
"; ; ; ; ; ; ; @ @ @ @ @ @ @ : : : : : : : @ @ @ @ @ @ @ < < < < < < < # # # # # # # X X X X X X X . . . . . . . 1 1 1 1 1 1 1 2 ",
"5 5 5 5 5 5 5 6 6 6 6 6 6 6 # # # # # # # $ $ $ $ $ $ $ $ $ $ $ $ $ $ # # # # # # # ; ; ; ; ; ; ; : : : : : : : 7 7 7 7 7 7 7 + ",
"5 5 5 5 5 5 5 6 6 6 6 6 6 6 # # # # # # # $ $ $ $ $ $ $ $ $ $ $ $ $ $ # # # # # # # ; ; ; ; ; ; ; : : : : : : : 7 7 7 7 7 7 7 + ",
"5 5 5 5 5 5 5 6 6 6 6 6 6 6 # # # # # # # $ $ $ $ $ $ $ $ $ $ $ $ $ $ # # # # # # # ; ; ; ; ; ; ; : : : : : : : 7 7 7 7 7 7 7 + ",
"5 5 5 5 5 5 5 6 6 6 6 6 6 6 # # # # # # # $ $ $ $ $ $ $ $ $ $ $ $ $ $ # # # # # # # ; ; ; ; ; ; ; : : : : : : : 7 7 7 7 7 7 7 + ",
"5 5 5 5 5 5 5 6 6 6 6 6 6 6 # 8 # # # # # $ $ $ $ $ $ * = * $ $ $ $ $ # # # # # # # ; ; ; ; ; ; ; : : : : : : : 7 7 7 7 7 7 7 + ",
"5 5 5 5 5 5 5 6 6 6 6 6 6 6 - # # # # # # $ $ $ $ $ $ 9 0 $ $ $ $ $ $ # # # # # # # ; ; ; ; ; ; ; : : : : : : : 7 7 7 7 7 7 7 + ",
"5 5 5 5 5 5 5 6 6 6 6 6 6 6 # # # # # # # $ $ $ $ $ = 0 $ $ $ $ $ $ $ # # # # # # # ; ; ; ; ; ; ; : : : : : : : 7 7 7 7 7 7 7 + ",
"$ $ $ $ $ $ $ q q q q q q q w w w w w w w # # # # # # # e e e e e e e X X X X X X X w w w w w w w e e e e e e e r r r r r r r + ",
"$ $ $ $ $ $ $ q q q q t q q w w w w w w w # # y # # # u e e e e e e e X X X X X X X w w w w w w w e e e e e e e r r r r r r r + ",
"$ $ $ $ $ $ $ q q q q q q q w w w w w w w # i # # # # # e e e e e e e X X X X X X X w w w w w w w e e e e e e e r r r r r r r + ",
"$ $ $ $ $ $ $ q q q q q q q w w w w w w w # # # # # # # p e e e e e e X X X X X a X w w w w w w w e e e e e e e r r r r r r r + ",
"$ $ $ $ $ $ $ q q q q q q q w w w w w w w # # # # # # # e e e e e e e X X X X X X X w w w w w w w e e e e e e e r r r r r r r + ",
"$ $ $ $ $ $ $ q q q q q q q w w w w w w w # # # # # # # e e e e e e e X X X X X X X w w w w w w w e e e e e e e r r r r r r r + ",
"$ $ $ $ $ $ $ q $ q q q q q w w w w w w w # # # # # # # e e e e e e e X X X X X X X w w w w w w w e e e e e e e r r r r r r r + ",
"X X X X X X X   s           ; ; ; ; ; ; ; @ @ @ @ @ @ @ q q q q q q q q q q q q q q # # # # # # # d d d d d d d f f f f f f f g ",
"X X X X X X X   s           ; ; ; ; ; ; ; @ @ @ @ @ @ @ q q q q q q q q q q q q q q # # # # # # # d d d d d d d f f f f f f f g ",
"X X X X X X X               ; ; ; ; ; ; ; @ @ @ @ @ @ @ q q q q q q q q q q q q q q # # # # # # # d d d d d d d f f f f f f f g ",
"X X X X X X X               ; ; ; ; ; ; ; @ @ @ @ @ @ @ q q q q q q q q q q $ h q $ # # # # # # # d d d d d d d f f f f f f f g ",
"X X X X X X X               ; ; ; ; ; ; ; @ @ @ @ @ @ @ q q q q q q q q q q q q q j # # # # # # # d d d d d d d f f f f f f f g ",
"X X X X X X X               ; ; ; ; ; ; ; @ @ @ @ @ @ @ q q q q q q q q q q q q q q # # # # # # # d d d d d d d f f f f f f f g ",
"X X X X X X X               ; ; ; ; ; ; ; @ @ @ @ @ @ @ q q q q q q q q q q q q q q # # # # # # # d d d d d d d f f f f f f f g ",
"@ @ @ @ @ @ @ w w w w w w w k k k k k k k l l l l l l l w w w w w w w X X X X X X X z z z z z z z f f f x f f f c c c c c c c 2 ",
"@ @ @ @ @ @ @ w w w w w w w k k k k k k k l l l l l l l w w w w w w w X X X X X X X z z z z z z z f f f f f f f c c c c c c c 2 ",
"@ @ @ @ @ @ @ w w w w w w w k k k k k k k l l l l l l l w w w w w w w X X X X X X X z z z z z z z f f f f f f f c c c c c c c 2 ",
"@ @ @ @ @ @ @ w w w w w w w k k k k k k k l l l l l l l w w w w w w w X X X X X X X z z z z z z z f f f f f f f c c c c c c c 2 ",
"@ @ @ @ @ @ @ w w w w w w w k k k k k k k l l l l l l l w v w w w w b X X X X X X X z z z z z z z f f f f f f f c c c c c c c 2 ",
"@ @ @ @ @ @ @ w w w w w w w k k k k k k k l l l l l l l w w w w w w w X X X X X X X z z z z z z z f f f f f f f c c c c c c c 2 ",
"@ @ @ @ @ @ @ w w w w w w w k k k k k k k l l l l l l l w w w w w w w X X X n X X X z z z z z z z f f f f f f f c c c c c c c 2 ",
"m m m m m m m M M M M M M M N N N N N N N B B B B B B B N N V N V V = q C C C C C C Z Z Z Z Z Z Z w w w w w w w . . . . . . . ; ",
"m m m m m m m M M M M M M M N N N N N N N B B B B B B B A S D F G H J K L < C C C C Z Z Z Z Z Z Z w w w w w w w . . . . . . . ; ",
"m m m m m m m M M M M M M M N N N N N N N B B B B B B P I U Y Y Y Y Y Y Y T C C C C Z Z Z Z Z Z Z w w w w w w w . . . . . . . ; ",
"m m m m m m m M M M M M M M N N N N N N N B B B B B R E Y Y Y Y Y Y Y Y Y W Q C C C Z Z Z Z Z Z Z w w w w w w w . . . . . . . ; ",
"m m m m m m m M M M M M M M N N N N N N N B B B B B ! E Y Y Y Y Y Y Y Y Y ~ ^ C C C Z Z Z Z Z Z Z w w w w w w w . . . . . . . ; ",
"m m m m m m m M M M M M M M N N N N N N N B B B B B / ( U Y Y Y Y Y Y Y Y ) e C C C Z Z Z Z Z Z Z w w w w w w w . . . . . . . ; ",
"m m m m m m m M M M M M M M N N N N N N N B B B B B _ ` ' ] [ { } J ] |  ...C C C C Z Z Z Z Z Z Z w w w w w w w . . . . . . . ; ",
"X.X.X.X.X.X.X.o.o.o.o.o.o.o.N N N N N N N $ $ $ $ $ $ $ @ @ @ @ @ @ @                                                           ",
"X.X.X.X.X.X.X.o.o.o.o.o.o.o.N N N N N N N $ $ $ $ $ $ $ @ @ @ @ @ @ @                                                           ",
"X.X.X.X.X.X.X.o.o.o.o.o.o.o.N N N N N N N $ $ $ $ $ $ $ @ @ @ @ @ @ @                                                           ",
"X.X.X.X.X.X.X.o.o.o.o.o.o.o.N N N N N N N $ $ $ $ $ $ $ @ @ @ @ @ @ @                                                           ",
"X.X.X.X.X.X.X.o.o.o.o.o.o.o.N N N N N N N $ $ $ $ $ $ $ @ @ @ @ @ @ @                                                           ",
"X.X.X.X.X.X.X.o.o.o.o.o.o.o.N N N N N N N $ $ $ $ $ $ $ @ @ @ @ @ @ @                                                           ",
"X.X.X.X.X.X.X.o.o.o.o.o.o.o.N N N N N N N $ $ $ $ $ $ $ @ @ @ @ @ @ @                                                           ",
"2 2 2 2 2 2 2 O.O.O.O.O.O.O.< < < < < < <                                                                                       "
};
