/* XPM */
static char *result[] = {
/* columns rows colors chars-per-pixel */
"64 64 93 2 ",
"   c #010101",
".  c #060309",
"X  c #09040D",
"o  c #0B0B0B",
"O  c #0D0613",
"+  c #0F0815",
"@  c #100716",
"#  c #110917",
"$  c #13091B",
"%  c #141414",
"&  c #1B1B1B",
"*  c #170B20",
"=  c #190C24",
"-  c #1D0E2A",
";  c #200F2D",
":  c #22112F",
">  c #210F30",
",  c #231132",
"<  c #291634",
"1  c #261138",
"2  c #2A143C",
"3  c #242424",
"4  c #2D2D2D",
"5  c #333333",
"6  c #3C3C3C",
"7  c #540000",
"8  c #5E0101",
"9  c #5E1212",
"0  c #5E1919",
"q  c #7B0000",
"w  c #5E2222",
"e  c #5E2D2D",
"r  c #5E3636",
"t  c #5E3C3C",
"y  c #2E1741",
"u  c #2E1841",
"i  c #301744",
"p  c #35194C",
"a  c #3B1D54",
"s  c #3E1E59",
"d  c #3E2056",
"f  c #411E5D",
"g  c #42205D",
"h  c #462164",
"j  c #482267",
"k  c #4C246D",
"l  c #4F2570",
"z  c #522774",
"x  c #542977",
"c  c #562A7A",
"v  c #592B7F",
"b  c #434343",
"n  c #4B4B4B",
"m  c #5E4646",
"M  c #5E4A4A",
"N  c #545454",
"B  c #5E5454",
"V  c #5E5E5E",
"C  c #606060",
"Z  c #992700",
"A  c #840E20",
"S  c #A8322A",
"D  c #B03E36",
"F  c red",
"G  c #964D15",
"H  c #C94E1D",
"J  c #DB6426",
"K  c #BC4840",
"L  c #CC5850",
"P  c #DE6E66",
"I  c #EA893E",
"U  c #FF865B",
"Y  c #F69A53",
"T  c #F6A765",
"R  c #FFCF52",
"E  c #5C2C83",
"W  c #5F2D88",
"Q  c #632D8F",
"!  c #65308F",
"~  c #662D95",
"^  c #662998",
"/  c #663190",
"(  c #683393",
")  c #FF9E85",
"_  c #E4AF83",
"`  c #F5C39D",
"'  c #F9C498",
"]  c #E7CFA3",
"[  c #FDCDA5",
"{  c #FBD2B1",
"}  c #FFF5AC",
"|  c #F6E0B8",
" . c white",
/* pixels */
"Q Q Q Q Q Q W ! ! ! ! ! ! Q ! Q Q ! Q Q ! Q ~ W ~ Q Q Q Q W ^ Q Q Q Q Q Q Q Q Q E E ~ W ~ Q Q Q W Q Q Q Q Q Q Q ~ ~ / ~ / ~ / ^ ",
"Q Q Q Q Q Q ~ ~ / ! ! ~ / / Q ! ! Q ! ! ~ z k W W ~ Q Q Q Q Q Q W W Q Q Q Q Q k O O s ~ W Q ~ W ~ Q Q W Q Q Q Q / Q / ~ / / / ^ ",
"Q Q Q Q W ~ Q ! ~ ! ! / / / ! ! ! ! ! ! v # . p W Q Q Q ^ Q Q Q ^ ^ Q Q Q Q j @ .   @ E ~ ~ W ~ Q Q Q Q Q Q Q Q / / / / / ~ ~ ^ ",
"Q ~ Q Q Q Q Q ! ! ! / ! / / W ~ Q ! Q Q ;     X k Q Q Q Q Q W Q Q W W ^ Q Q X   . . . a ~ W ~ W Q Q Q Q Q Q Q Q ~ / ~ / / / / ^ ",
"Q Q Q Q Q Q Q ~ ! ! / / / ! Q ! Q ! ! h .       - Q Q Q Q Q Q Q Q Q Q Q ! f     X     * W Q Q Q Q Q Q Q Q Q Q Q / ~ ~ / / / ~ ^ ",
"Q Q Q Q Q Q Q ! / ! ~ ~ ~ ! Q ! ! Q E O         X j ~ W Q Q ~ W Q Q Q ! ! -         . . f Q Q Q Q Q Q Q Q Q Q Q ( / / / ~ / / ^ ",
"Q Q Q Q Q Q Q ! / Q / / ~ / ! Q Q ! a           . 1 Q ~ Q W ~ Q Q Q Q Q l X             > ~ Q Q ^ W ~ Q Q Q Q Q ~ / / ~ ~ / ( ^ ",
"Q Q ! / ~ ! ! Q Q Q W Q Q W ! ! Q ~ -           . @ W / ~ Q ~ Q Q Q ! ! $       X X     O E / ! ~ Q Q Q ~ Q Q ! / / / ( / / / ( ",
"! / / / ! / / Q Q Q Q Q W Q Q Q Q E X           . . d k l l j h a a f $           .       s / ~ / ! ! ~ / ! ! ~ / / / / / / / ( ",
"/ / / / ! ! / Q W Q ~ W ~ Q Q Q Q 2         .         .                                   O z / / ! ! / ! ! ! / ( / ~ / / ( ( ( ",
"/ / / ! / ! / ~ ~ ~ W ~ Q Q / Q W .     .               . . .                               # k Q / / ! / ~ Q / ~ / / ( ! ( ! ( ",
"! / / / / / / W ~ W ~ W Q Q Q ! p               o & 3 4 4 4 4 4 4 4 3 4 3 & % o o             $ l / ! ! ! ! / / / / / / ( ! ( ( ",
"! ! / ! / / ! ~ ~ W Q Q Q Q Q W #         . & 4 4 5 5 5 4 4 4 4 4 4 4 5 4 4 5 4 4 4 % .         2 / / ~ / ~ ! ! / / / / ! / / ( ",
"/ ! ! / / / / W ~ Q Q ! Q Q ~ a       % 3 5 6 n N N N N N N n n b b b b b 6 5 4 4 4 4 4 o       O l ! ! ! / ! ! / / / / ( ! ( ( ",
"/ ! ! / ! ! ! / ! ! ! ! ! ! h .   o 3 4 6 V V V V V V V V V V V V V V V V V V n 6 5 4 5 4 &       p ! / ! ! / / ~ / / / / / ! ( ",
"Q ! / ! ! ! ! / ! ! ! ! E p     % 4 4 n V V V V V V V V V V V V V V V V V V V V V N b 5 5 4 & o   * W ! ! ! ~ ! ~ / ~ / / / / ( ",
"/ / ! ! ! ! ! ! / / ! W p .   % 4 5 N V V V V V V V V V V V V V V V V V V V V V V V V N 6 5 4 3   X l / ! ! ! / ~ ! ~ ! / / / / ",
"! ! ! ! ! ! ! / / ! / k o   & 4 5 V V V V V V V V V V V V V V V V V V V V V V V V V V V V 6 4 5 &   y / ~ / ! / / ! / / / Q ~ / ",
"! ! ! ! / ! ! / / / ( i   . 4 5 V V V V V M t r r t M V V V V V V V V B M t r r t M V V V V 6 4 4 o $ E / ! ! ~ / ! / ! / / / / ",
"! ! ! ! ! ! ! / / / ! :   & 4 n V V V m r 0 8 8 8 8 0 r M V V V V V M t 0 8 8 8 8 0 r M B V V 6 4 3 . h ! ! ! / / ~ / ~ / / / ~ ",
"! ! / ! ! ! ! / / / E $ o 3 5 V V V M e 8 8 F F F F 8 8 w m V V V m w 8 8 F F F F 8 8 w M V V V 5 4 . 2 ! ! / / / Q ! ~ ~ / ! / ",
"Q Q Q Q ! Q Q ! / ! E O o 3 n V V V t 8 F F F F F F F F 8 0 m B m 0 8 F F F F F F F F 8 t V V V n 3   # E ! Q Q ~ ~ ~ ^ ^ ~ ^ ^ ",
"Q Q Q Q Q Q Q ! ! ! !     4 V V V V t 8 F F F F F F F F F 8 w r w 8 F F F F F F F F F 8 m V V V N 4   . k Q Q Q Q ^ Q Q Q ~ ~ ^ ",
"Q Q Q Q Q ! Q ! ! ! !     b V V V V M w 8 F F F F F F F F F 9 e 9 F F F F F F F F F 8 w M V V V V b o   p Q Q Q Q ~ ~ ~ ^ ~ ~ ^ ",
"Q Q Q Q Q Q Q / / ! > . % n C C V V V m 0 8 F F F F F F F 8 w r w 8 F F F F F F F 8 0 m B V V V V N 3   > W ! Q ^ ~ Q ^ Q Q ^ ^ ",
"Q Q Q Q W / Q / / ! O   3 n V V V V V B m w 8 8 F F F 8 8 w m B m w 8 8 F F F 8 8 w m V V V V V V V 5 . $ E Q Q Q ~ ~ ^ ^ ^ / ^ ",
"Q Q Q Q ! W / / ! /   . 4 N V V V V V V B M t 0 8 8 8 0 r M V V V m r 0 8 8 8 0 r M V V V V V V V V b % . c ! Q ^ ^ Q Q ^ Q ^ ^ ",
"Q Q Q Q ! ! ! / ! /   o 4 V V V V V V V V V V M t r t M V V V V V V V m t r t M V V V V V V V V V V n 3 . l ! ! ~ Q ^ ~ / ^ Q ^ ",
"( ( ( ( / / / / / :   & 6 V V C V V V V V V V C V V V V V V V V V V V V V V V V V C V V V V V V V V N 5 o d ! / ~ ~ ~ ^ ^ ~ ~ ^ ",
"/ / ( / ( ( ( ( / .   3 6 V V V V V V V V V V V V V V V V V V V V V V V V V V V V V V V V V V V V V V 5 o > / / ^ ^ ~ ~ ~ ^ ^ ^ ",
"/ ( ( / / ( ( ( /   o 3 n V V V V V V V V V V V V V V V V V V V V V V V V V V V V V V V V   V V V V N 5 & O / / ~ ~ ~ ~ ~ ^ ~ ^ ",
"/ ( ( / / C ( ( (   o 3 n V V V V V V V C V V V V V V V V V V V V V V V V V V V V V V V     V V V V V 6 & o E Q ~ ^ ^ ~ ~ ~ ~ ^ ",
"( / / / ( / ( ( !   o 4 N V C V V V     V V V V V V V V V V V V V V V V V V V V V V         V V V V V 6 3   l ( / ~ ^ ~ ~ ~ ^ ^ ",
"( ( / / ( ( ( / /   o 5 V V V V V    . . .    V V V V V V V V V V V V V V C V V        .    V V V V V b 4 o g ( ~ ~ ~ ~ ^ ~ ~ ^ ",
"( ( ! ( ( ! / / /   o 6 V V V V V      .   .    V V V V V V V V V V C V V V V    . . . .    V V V V V n 5 % p / ~ ~ ~ ^ ~ ^ ~ ^ ",
"( v ! ! ! ! Q Q !   o b V V V V V V    .   . .      V V V V V V V V V V V V    .   . .    V V V V V V N 5 & < ~ ~ ~ ~ ~ ~ ~ / ^ ",
"/ ! ! W ! ! Q Q Q   o n V V V V V V V        . .   .  V V V V V V V V        . .   .      V V V V V C V 6 3   W ^ ( ^ ( ~ ~ ( ~ ",
"/ / / / Q ! / Q Q   o n V V V V V V V        . .   . .                   .   . .       .  V V V V V V V 6 4 o p ( ^ ( ^ ~ ~ ( ~ ",
"! ! / ! ! Q ! Q Q   o b V C V V V V V V  .   .     . . .   . . .   . . . .   .       . .  V V C V V V V n 4   O ~ ~ ^ ( ^ ( ^ ( ",
"! ! ! ! ! Q ! Q Q     b V V V V V V V V              .     . . .     . .         .   .  V V V V V V V V n 6 .   ^ ( ( ^ ( ^ ( ^ ",
"! ! ! ! ! ! ! W Q   . 4 V V V V V V V C V  .                 .       .         . .    V V V V V V C V V V N o   ( ^ ~ ~ ~ ~ ~ ^ ",
"! ! ! ! ! ! ! ! Q     3 N V V V V V V C V    .   .                       .     .  V V V C V V V V V V V V V &   ^ ( ~ ~ ( ~ ~ ( ",
"! ! ! ! ! ! ! ( !     & 6 V V V C V V V C V    . . .     .   .   .     . . .    V V V V V V V V V V V V V N 3   ( ^ ( / ~ ~ ( ~ ",
"! ! ! ! / ( ! ! !     % 4 N V V C C V V V V V      .   . . .   . . .   . .    V V V V V V V V V V V V C V N 3 . ~ ( ^ ( ~ ( ^ ( ",
"! ! / / / ! / / /     . 4 n V V C C V V V V C V V      .A A A A A           V V V V V V V V V V V C V V V N 3   ^ ( ~ ~ ~ ~ ~ ( ",
"/ / ! / / / / / / .     & 6 V V C C C V V V V V V V A A L L L P P A A V V V V V V V V V V V V V V V V V V N %   ( ^ ( ( ~ ( ~ ( ",
"! ! / / / / / / / $     o 3 n V V C C C V V V V V A L L P P L L L L L A V V V V V V V V V V V V V V V V V b % $ ( ^ ~ ~ ~ ( ~ ( ",
"! / / ! / / / ! / z       % 5 V V V C C C V V V 7 L L P L L L A A A S U A V V V V V V V V C V V V V V V n 5 o 1 ^ ( ~ ( ~ ~ ~ ( ",
"/ / ! / / / / / / / d .     & 6 V V V V V V V C 7 L U L P L A _  .| q q q q Z q V V V V V V V V V V V N 5 & o ~ ( ~ / ~ ~ ~ ( ( ",
"/ / / / / / / ( ( ( ( u       & N V V V C V V A P U L P L A _  .| q I Y T ' { T Z q V V V V V V V V n 5 4 o . ! / / ! ~ / / Q ~ ",
"( / / / ( / ( ( ( ( ( W #       6 N V V V V V 7 L [ P L S 7  .| q ' { ' T R Y ' Y T q V V V C V V 5 5 3 o   u ! ~ ! ! / / Q ! ! ",
"/ / / ( / / / ( ( ( ( ( z .       4 n N V V N 7 K U L K 7 |  .Z I Y T T ' Y Y I [ J q V V V n 5 4 3 & .   # ! ! ! ! ! / / / / ! ",
"/ / ( / / / / ( ( ( ( ( / d .         o & 4 3 8 S D S S 7 _ _ J Y T T } Y ' J Z q q b b 5 4 3 & %       + z ! ( ! ! ~ / / / ~ ! ",
"/ ( / / / ( / ( ( ( ( ( ( ! 2 .               A D S D S 7  .q { { T R T I J Z | _ G % o o o           , E ! ( ! / ! ! ! Q / ! ! ",
"/ / / / / / ( ( ( ( ( ( ( ( ( d .             8 S D S 7 | _ q J I ' { I J Z |  .| G             2 < x ! ! ! ( ! / Q ! / ~ / ! ! ",
"/ ( / ( / ( / ( ( ( ( ! ( ( ( ( x d d 2 # X $ w L ) K 7 | G Z I I I J ` Z  .| _ G     # - d Q ~ ( ( / ! ( ! ! ( / / ! ! ! ! ! ! ",
"( ~ ( ~ ( ( ( ( ( ( ( ( ( ( ( ( ( ( ( ( ( ( ( Z L K 7 G G ] J ` ` J J Z | |  .G Q Q Q Q Q Q Q Q Q Q Q Q W Q Q ^ Q Q Q Q Q Q Q ~ ",
"( ( ( ( ( ( ( ( ( ( ( ( ( ( ( ( ( ( ( ( ( ( v ( A 7 ( / / q Y I I ` J Z _  .G Q Q Q Q Q ^ Q Q Q Q Q Q Q Q Q Q Q Q Q Q Q Q Q Q Q ",
"( ( ( ( ( ( ( ( ( ( ( ( ( ( ( ( ( C ( ( ( ( ( ( ( / / ( ! q T R T J Z | G G Q Q ^ W Q Q W W Q Q Q Q W Q Q Q W Q Q Q Q Q Q Q Q Q ",
"~ ( ( ^ ( ( ( ( ( ( ( ( ( ( ( ( ( ( ( ( ( ( ( ( / ( / / ! Z T T H Z G G Q Q Q Q Q Q Q Q W ^ ^ W W ^ ^ Q Q Q Q Q Q Q Q Q Q Q Q Q ",
"( ( ( ~ ( ( ( ( ( ( ( ( ( ( ( ( ( ( ( ( / ( ( ( ( ( / / ! / H H Q / Q Q Q Q ~ Q Q Q Q Q Q Q ^ Q Q Q Q Q Q Q Q Q Q Q Q Q W Q Q Q ",
"( ( ( ( ( ( ( ( ( ( ( ( ( ( ( ( ( ( ( / / ( ( / / ( / / / / / / / / / Q Q Q ~ W Q Q Q Q Q Q W Q Q Q Q Q W ^ Q Q ^ Q Q Q Q Q Q Q ",
"( ( ( ( ( ( ( ( ( ( ( ( ( ( ( ( ( ( ( ( ( C / / / / ( ( / / ! / / / Q Q Q ~ Q Q Q Q Q Q Q Q Q Q Q Q Q Q Q Q Q Q W Q Q Q Q Q Q Q ",
"( ( ( ^ ( ( ( ( ( ( ( / ( ( ( / ( ( ( ( ( / / W / / / W Q Q Q Q Q Q Q Q Q W Q Q Q Q Q Q Q Q Q Q Q Q W ^ Q Q Q Q Q Q Q W ^ Q Q Q "
};
