/* XPM */
static char *result[] = {
/* columns rows colors chars-per-pixel */
"64 64 81 1 ",
"  c #000001",
". c #060309",
"X c #09040D",
"o c #0B0B0B",
"O c #0D0613",
"+ c #0F0815",
"@ c #100716",
"# c #110917",
"$ c #13091B",
"% c #131313",
"& c #1C1C1C",
"* c #170B20",
"= c #190C24",
"- c #1D0E2A",
"; c #200F2D",
": c #22112F",
"> c #210F30",
", c #231132",
"< c #291634",
"1 c #261138",
"2 c #2A143C",
"3 c #242424",
"4 c #2D2D2D",
"5 c #333333",
"6 c #3B3B3B",
"7 c #540000",
"8 c #7B0000",
"9 c #2E1741",
"0 c #2E1841",
"q c #301744",
"w c #35194C",
"e c #3B1D54",
"r c #3E1E59",
"t c #3E2056",
"y c #411E5D",
"u c #42205D",
"i c #462164",
"p c #482267",
"a c #4C246D",
"s c #4F2570",
"d c #522774",
"f c #542977",
"g c #562A7A",
"h c #592B7F",
"j c #434343",
"k c #4B4B4B",
"l c #545454",
"z c #5E5E5E",
"x c #992700",
"c c #840E20",
"v c #A8322A",
"b c #B03E36",
"n c #964D15",
"m c #C94E1D",
"M c #DB6426",
"N c #BC4840",
"B c #CC5850",
"V c #DE6E66",
"C c #EA893E",
"Z c #FF865B",
"A c #F69A53",
"S c #F6A765",
"D c #FFCF52",
"F c #5C2C83",
"G c #5F2D88",
"H c #632D8F",
"J c #65308F",
"K c #662D95",
"L c #662998",
"P c #663190",
"I c #683393",
"U c #FF9E85",
"Y c #E4AF83",
"T c #F5C39D",
"R c #F9C498",
"E c #E7CFA3",
"W c #FDCDA5",
"Q c #FBD2B1",
"! c #FFF5AC",
"~ c #F6E0B8",
"^ c white",
/* pixels */
"HHHHHHGJJJJJJHJHJHJJHKKGKHGKHLGLGHHHHHHHFFGKGKGLHHHHHHHHKHPPKPKL",
"HHHHHHKKPJJKPPHJHJJHJdaGGKHHHHHHHLHHHHHaOOrKKGHHHHKGHHHHJKKPPPPL",
"HHHHGKHJKJJPPPJJHJJHhO.wHHHHHHHHHHHHJHp@..$FGHGHLGHHHKHHPPPPKPPL",
"HKHHHHHJJJPJPPGKJHJH;. XpKGHHHHHGLFHHHX .X.wKHKHHHHHHHHHPKPKPPKL",
"HHHHHHHKJJPPPJHJHJJp.   -HHHHHHHHHHHJy  X .$GHHHHHHHHHHHKIPPPPIL",
"HHHHHHHJPJKKKJHJJHFO   .XpHHHHHHHHHJH;    ..rHHHHHHHHHHHPPKKPKKL",
"HHHHHHHJPHPPKPJHJJw     .1KHHHHHHHHHa.     .>KHHHHHHHHHHKPPPIPPL",
"HHJPKJJHHHGHHGJJHH-.    .@GJKHHHJHJJ$.  .X  OGPJHHKHHHPHPPPPKPPI",
"PPPPPPPHHHHHGHHHHFX  .   otadapieey*    ..   tPKPPJJPHJJPPPPPJPI",
"PPPHPPPHGHKGKHHHH2    .   ..                 +fPHJJKPPPJIPPPIKII",
"PPPPHPPHKKGKHHPHF.  .      ....               $aPPJPKJKJPKPPIJJI",
"PPPHPPPGKGKGHHHJw.     .o&&4444444343&%oo      $sKPJJJPJPPPIJIII",
"PHPPPJPKHKHHHHHG$    o&4455444544445454544&.    2JPPJPPPPPPPJIJI",
"PPPPPPPGHGHJHHKe   %356lllllllkkjjjj66555444o   XdPPJJHPPPPPIJII",
"PGJJJJJPPPJJJJi. o346lzzzzzzzzzzzzzzzzzk65445&  .wHPKJJJPKPKPPJI",
"PPJJJJJPPPJJFq. %45kzzzzzzzzzzzzzzzzzzzzzlj544&. *GPPJPKPPPPPPPI",
"PHJPJJJPJPPGw. &45lzzzzzzzzzz         zzzzzl6543 XaPJJJHPPPKJKGP",
"PPJJJJJPPPPao %46lzzzzzzzz     ^^^^ ^^   zzzz645& 9PJKPPPKPJPPPI",
"GPPJJJJPPPPq o45lzzzzzzz  ^^^^  ^^^  ^^^   zzz644o$FJPJJPJPJPPPI",
"PPPJJJJPPPJ;.%4kzzzzzz .  ^^^^  ^^   ^^  ^^ zzz643.iPJJKPKPKPKKI",
"PPJPJPJPPPF* 36zzzzzz  ^^  ^^   ^^   ^^  ^^^ zzz54.2JJPPPHHKKHPP",
"HPGHKGHJJJFOo3kzzzzzz ^^^  ^^   ^^   ^   ^^   zzk3 #FJJHKLKHKKKL",
"HHHHGKGPJJJ  4zzzzzz  ^^^  ^^   ^    ^   ^^ ^^ zz3 .aHHHKKLKHHLL",
"HHHHKGKPJJJ ojzzzzzk^^^^    ^            ^  ^  zzjo wHHHKKHKLKKL",
"HHHHHHHPPP: %kzzzzz   ^^                        zl& >GPHHHLLKKHL",
"HHHHHGHHHP+ 3kzzzzz   ^^                        zz5.$FJHLLHHHLLL",
"HHHHJJJPJJ o4lzzzz    ^^                        zzj%.gHHKHLKLHHL",
"HHPHJJJPJJ o5zzzzz     ^                        zzk3.sJJKHLKKKLL",
"PPPPPIIIP: &5zzzzz                              zzz5otPPKKKKLKKL",
"IIPIPIIIP. 3jzzzz                               zzl5o:PPLKLKHLLL",
"PIPIPzIII o4kzzzz                               zzz5&+PPKKKLKLKL",
"PIPIIIIIP  4kzzzz                               zzz6&.FPKLKLKKKL",
"IIPPIIIII .4lzzzz                               zzz63oaJPKKKLKLL",
"IIIPJPIII o4zzzzz                               zzzj4.uJKKLKKKKL",
"hIJPIPJPI o6zzzz                                zzzk5%wPKKKKKLKL",
"IIJJJJHHJ %kzzzz                                zzzl5&<PKKKKKKIL",
"PPPJHJHHJ %kzzzz                                zzzz64 HILILKKKK",
"PGJJJJJHJ %jzzzz                                zzzz64.wLILIKKKK",
"JJGPJHHHP ojzzzz6                               zzzzk4.oILILLIKK",
"JJPPKJJHH  6zzzz5                ^              zzzzk6. KIKLIKIK",
"JJJJJJJGH .5zzzz6               ^^              zzzzll% ILLILIKL",
"JJJJJJJJH  3lzzz6.         ^    ^^              zzzzzz& LIILILLI",
"JJJPPPPPP  &6zzz6o        ^^   ^^^^  ^    ^     zzzzzz3.IILIILII",
"JJJJPPPPJ  %4lzzjo    ^   ^^^  ^^^^  ^    ^^   zzzzzzl3 KKIKKILI",
"PJPJJJPPP  .4kzzzo   ^^  ^^^ccccc^^ ^^^   ^^^  zzzzzzl3 ILKIIKII",
"PPPPPJPPI.  &6zzz%  ^^^^ ^ccBBBVVcc ^^^^ ^^^^&zzzzzzzl& KIKLLILI",
"PJPPPJJPP$  .3lzz4  ^^^^ cBBVVBBBBBc^^^^ ^o.%kzzzzzzzj%$ILKILIKI",
"PPJPJPPPPd   %5lzl% ^^^^7BBVBBBcccvZc  ..o%3kzzzzzzzk4o,LIILIILI",
"PPPPPPPPPPto  &6zzj     7BZBVBcY^~8888x84jzzzzzzzzzz5&.JKKKKIKKI",
"PPPPPIPIIPI0   &lzzk33&cVZBVBcY^~8CASRQSx8zzzzzzzzk54ooPJIJJKIHI",
"IPPPIPPIIIIG#   6zzzzzz7BWVBv7^~8RQRSDARAS8zzzzzl553o qPJJJJJJJJ",
"PPPPPPPIIIIIsX   4klzlz7NZBN7~^xCASSRAACWM8zzzk544%o #JPJJKJJJJJ",
"IPPPIPIIIIIIIt.    o3447vbvv7YYMASS!ARMx88jj543&%o  #dPPJPJJKJJJ",
"PIPPIPPPIIIIIP2.     ..8bvbv7^8QQSDSCMx~Yn%%oo.    ,FJPPPJJKIKPJ",
"IPPPPIPIIIIIIIJt.     .7vbv7~Y8MCRQCMx~^~n      21fPPPPPKJKIJJJJ",
"PPPIIPIPIIIIIIIIgte2#o%cBUN7~nxCCCMTx^~Yn  $-tHKIPJPPPPPJJJJJJJJ",
"IIIKIKIIIIIIIIIIIIIIIIhxBN7nnEMTTMMx~~^nHHHLHHGHHHHLHHHLHHHHHHHH",
"IIIIKIIIIIIIIIIIIIIIIIIIc7IIP8ACCTMxY^nHHHHGHHHHHHHGHHHGHHHHHHHH",
"IIIIIIIIIIIIIIIIIzIIIIIIPIIIG8SDSMx~nnHHGLHHHLHHGLHHGLHHHHHHHHHH",
"IKIIKIIIIIIIIIIIIIIIIIIIPIPPPxSSmxnnHHHHHHHHHGHHHHHHHHHHHHHHHHHH",
"IIIIIIIIIIIIIIIIIPIIPIIIIPIIPPmmHPHHHHHKHHHLHHGLHHGHHHGHHHHHHHHH",
"IKIIIIIIIIIIIIIIIIIIPIIPPPPPJPPPPPPHHHKGHHHGHHHHHHHHHHLHLHHHLHHH",
"IIILIIIIIIIIIIIIIIIIIzIPPPIIPPJPPPHHKGHHGLHHHHHHHHHHHHHHGHHHHHHH",
"LIIIIIIIIIIIPIIPIIIIIIGJPPPGHHHHHHHHHHHHHHHHHHHHHHHHHHHHHHHHHHHG"
};
