/* XPM */
static char *result[] = {
/* columns rows colors chars-per-pixel */
"64 64 93 2 ",
"   c #010101",
".  c #070309",
"X  c #09050D",
"o  c #0C0C0C",
"O  c #0D0712",
"+  c #0F0815",
"@  c #100716",
"#  c #110917",
"$  c #13091A",
"%  c #141414",
"&  c #1C1C1C",
"*  c #3C0E0E",
"=  c #301818",
"-  c #190C23",
";  c #1D0E2B",
":  c #200F2E",
">  c #20102C",
",  c #241133",
"<  c #271139",
"1  c #2C163D",
"2  c #242424",
"3  c #2D2424",
"4  c #2C2C2C",
"5  c #3C2222",
"6  c #392C2C",
"7  c #343434",
"8  c #3D3D3D",
"9  c #4F0000",
"0  c #550000",
"q  c #5D0101",
"w  c #520D0D",
"e  c #5E0D0D",
"r  c #481A1A",
"t  c #541717",
"y  c #5D1414",
"u  c #5D1B1B",
"i  c #6D0C0C",
"p  c #700000",
"a  c #700C0C",
"s  c #701C1C",
"d  c #5E2626",
"f  c #5E2E2E",
"g  c #4D3333",
"h  c #433E3E",
"j  c #533737",
"k  c #5E3434",
"l  c #543B3B",
"z  c #5D3C3C",
"x  c #2F1742",
"c  c #2E1841",
"v  c #301744",
"b  c #311845",
"n  c #361B4C",
"m  c #3C1D55",
"M  c #3F1F59",
"N  c #3E2056",
"B  c #3F2059",
"V  c #41205B",
"C  c #461F66",
"Z  c #462163",
"A  c #4D256D",
"S  c #512772",
"D  c #542977",
"F  c #562C79",
"G  c #582C7B",
"H  c #444444",
"J  c #4D4D4D",
"K  c #5E4444",
"L  c #504949",
"P  c #5E4B4B",
"I  c #545454",
"U  c #5D5454",
"Y  c #5E5E5E",
"T  c #616161",
"R  c #820909",
"E  c #940000",
"W  c #821414",
"Q  c #B50000",
"!  c #B80000",
"~  c #C60000",
"^  c #C80000",
"/  c #DB0000",
"(  c red",
")  c #5D2D83",
"_  c #5F2D88",
"`  c #5F3085",
"'  c #602F87",
"]  c #632E8F",
"[  c #65308F",
"{  c #662D95",
"}  c #662998",
"|  c #663290",
" . c #683393",
/* pixels */
"] ] ] ] _ { { ] [ | | { [ [ ] [ [ [ ] [ ] ] ] _ { _ { { ] ] } } _ ] } ' ] ] ] ] [ ] ] ] ] ] ] ] ] ] ] ] ] ] ] } ] ] ]  .] { ] } ",
"] ] ] ] ] ] _ { [ { [ [ [ [ [ ] ] [ [ ] ] ] ] ] ] ] { _ ] ] _ ] } ] ] ] ] ] ] ] ] ] ] ] ] ] ] ] ] ] ] ] ] ] ] ] ] ] {  . . . .} ",
"] ] ] ] _ { ] [ [ | | [ { | [ ] [ ] [ ] [ ] ] ] ] { _ { ] ] ] ] _ _ } ] ] ] ] ] ] ] ] ] ] ] ] ] ] ] ] ] ] ] ] ] }  .] ] {  .{ } ",
"] ] ] ] ] ] ] [ [ [ { [ [ | ] [ ] [ ] [ ] ] ] ] ] _ { _ ] ] ] ] _ } _ ] ] ] ] ] ] ] } ] ] ] ] ] ] _ ] ] ] ] ] ] { ]  .{ | ] | } ",
"] ] ] ] _ { ] [ [ { [ [ [ | ] ] { [ ] [ ] ] ] ] _ { ] ] ] ] ] ] ] ] ] [ ] [ ] ] [ [ ] ] ] ] ] ] ] ] ] ] ] ] ] ]  .] | | { { | } ",
"_ ] ] ] ] ] ] ] [ | | { [ | [ ] [ [ [ ] [ ] ] ] ] ] ] ] ] ] ] ] ] ] ] [ ] | [ | ] [ ] ] ] ] ] ] ] ] ] ] ] ] ] ] { {  .{ | | | } ",
"} ] ] ] _ ] ] { [ [ { | | | ] [ [ ] [ ] [ ] [ [ _ { ] ] _ ] ] ] ] ] [ [ [ [ [ [ [ [ ] ] ] ] ] ] ] ] ] ] ] ] ] ] | ] { |  .| { } ",
"] { [ [ { | | ] _ ] _ { _ ] ] [ ] [ ] [ ] | [ [ { | [ [ { { ] ] ] ] [ | |  .| | | | [ [ [ ] | { ] } ] ] ] ] ] ]  .| | | | | |  .",
"| ] | | | ] | ] { ] ] ] _ ] ] ] [ ] [ ] [ [ [  .| | | | | ' | | ] ] | |  . .G  . . . .T { | [ [ [ [ | [ [ { [ [ | |  .|  .| |  .",
"| | | | | | | ] _ ] { _ { ] ] ] [ ] ] [ [ [  .[ | | | | | | | | ] | | |  . . . . . . . .[ [ [ [ [ [ { [ [ | [ [ ]  .] | ]  .|  .",
"| | ] | ] | | ] { { _ { ] ] ] ] ] [ ] [ [ | | [ | | | | | | | | | | | |  . . .|  . . . .{ [ [ { | | [ [ [ [ | {  . .|  .| | |  .",
"| | | | ] | { _ { _ { _ ] ] | [ [ ] [ [ [ | [  .| | | | | | |  .| | | |  .G  .| |  . . .[ [ [ [ [ { { | [ | | [ | ]  .] |  . . .",
"] | | | | | | { ] { ] ] _ _ { ) [ ] [ ] | | | | | | | | `  . .` | ] [ |  .|  . . .| [ [  .[ [ [ [ | { [ [ | { [  .]  .] | |  . .",
"| | | [ | | | _ ] _ ] ] { { ] { ] [ ] [ | | | | | | | |  . . . .[ | |  .|  .| | |  .[ [ | [ [ [ [ [ [ [ [ [ [ [ |  .| | | |  . .",
"| | ] | [ [ [ ] | | | | [ [ ] ] [ ] [ [ '  .| | | | | |  .`  . .|  . .| | | | | | | | [ [ [ [ [ ] [ [ | { [ [ [ ]  .]  .| { |  .",
"| _ | ] ] | [ | | | | | [ [ ] ] ] [ [ [ [ | ' | | | | |  . . .` | | | | | | | | | | | ' [ [ [ ] [ [ { | | [ [ { | ]  .] | | ]  .",
"] | | | { [ [ [ [ | [ [ [ | [ ] ] { ] ] | | | | | | | `  . . . . . .| | | | | | | | [ ] ] [ | ] ] [ | { ] | | ]  .{ [ | | [ |  .",
"] | | _ [ [ [ | | [ [ | | [ ] ] [ ] ] ] ] | | [ | | | | |  . . .G  . .| | | | | | | [ [ [ ] ] [ [ [ [ [ | ] ] | [ | { | { [ {  .",
"| | | | [ [ [ | | | | | [ | [ ] ] { ] ] ] [ [ [  .|  . . . . .`  . .| | | | |  .| | [ ] [ ] [ ] ] [ [ [ ]  .| ] | [ | | | | { | ",
"_ | | | | [ [ | ] | | | [ | ] ] ] ] [ ] ] | [ |  .`  . . .`  . . . .| | | | | | [  .] [ ] [ ] ] [ { | | | | ]  .{ [ { [ { { | | ",
"| | | ] ] [ [ | | | | | |  .| | | | | ` ] | | |  .`  .`  .| | |  .G  . . .| | |  . .[ [ ] ] [ | ] [ [  .[ [ | ] { ] { ] [ ] |  .",
"] | _ ] ] ] ] [ _ | | ] | _ | | | | | | | | | |  . . . . .| | |  . . . .| | | | [ [ [ [ | ] | ] [ ] ] ] ] ] ] | { { ] } { { { } ",
"] ] ] ] ] ] ] [ ] | | | ] | | | | | | | |  .| | `  . .` | |  .|  . . . .| | [ [ [  .[ [ | | [ [ [ ] [ ] ] ] ] ] ] { ] { } ] { } ",
"] ] ] ] ] ] ] [ | | ] _ | ] | | | | | | |  . .|  . . . . . . . . . .G  .| [  . .[ [ [ [ ] | [ [ [ ] ] ] ] ] ] ] { { } ] { { { } ",
"] ] ] ] | ` | | | | | [ | | | | | | | | [  . . . . .| | ' ` [ [  . . . .[  .[  .[ [ [ [ [ [ [ [ [ [ ] ] ] ] { _ { ] { } ] ] { } ",
"] ] ] ] | ` | | ` | [ [ _ [ | | | | | | [ [ F V 1 > # % O O o + % & $ ; , b N S [ | [ [ [ [ [ [ [ ] ] ] [ ] ] | } { ] } { } } } ",
"] ] ] ] | | `  .[ [ [ [ [ [ | | |  .| ` m - O . . . o # $ X . . o o . . .     . . # ; b Z ) [ ] [ ] { ] { ] [ ] ] ] { { { ] ] } ",
"] ] ] ]  .`  .` [ [ [ [ [ [ | | | ` B % . . O O + . . O O       o                           . @ : , n ) ] ] | | { } } ] } } { } ",
"| | |  . . . . .| |  . . .|  .` n +             Y Y Y Y Y Y Y Y T Y Y Y Y Y Y Y                   . . # n _  .| { } } { } { { } ",
"| | |  . .`  . .| |  . .| ` c o           T Y Y Y Y T Y Y Y Y Y Y Y Y Y Y Y Y Y T Y Y Y Y .         . X X b | | ] { { { } ] } } ",
"|  .|  . .`  . . . . .` N o         Y Y Y Y Y T Y Y Y Y Y Y Y Y Y Y Y Y Y Y Y Y Y Y Y Y Y Y Y 2           B | | { { } { { { } } ",
"|  .| |  . . . . . .` > o       Y Y Y Y H % & I Y Y Y Y Y Y T Y Y Y Y Y Y Y I 4 8 Y Y Y Y Y Y Y Y o       . ) | { { { { } } } } ",
" .|  .| | |  . .| ) $       Y Y Y Y Y H o     2 I Y T Y Y Y Y T Y Y Y Y J 7 % . 2 T T Y Y Y T Y Y Y Y J     A  .| { { } { { { } ",
"| |  . .|  . .| | B     Y Y Y Y Y T 8 o       . 7 Y Y Y Y Y Y Y T Y Y I 7       % 2 I Y T Y Y Y Y Y T I 7 2 - [ { { { { { } } } ",
" .|  . .|  .| |  .    J Y Y Y Y Y Y % o o       . H Y Y Y Y Y Y Y Y H o .       .   7 Y Y Y Y Y Y Y Y Y 7 2   A { { { { { { { } ",
" .` '  .' | ] ] ]   o J Y Y T Y Y Y o .           4 Y Y Y T Y Y Y Y 8           . o J Y Y Y Y Y Y Y Y Y J 4 . ; { { { { { { { { ",
"| | | | [ | ] ] ]   o H Y Y Y Y Y Y &             7 Y Y Y Y T Y Y Y I o         o H Y Y Y Y Y T Y Y Y Y Y 4   .  .{ {  .{ { { { ",
"| ' | ' ] [ ] ] ]     8 Y Y Y Y Y Y 7           % I Y Y Y Y Y Y Y T T H o       7 Y Y Y Y Y Y Y Y Y Y Y Y H .   A { { { { { { { ",
"[ [ | [ [ ] [ ] [   . 4 Y Y Y Y Y T Y 2     . . H Y Y Y Y Y Y Y Y Y Y Y &     2 Y Y Y Y Y T Y Y Y Y Y Y T Y o   ; { { { { { { { ",
"[ [ [ [ ] [ ] ] [     2 Y Y Y Y Y T T I & .   2 Y Y Y Y Y T Y Y Y Y Y T 7 . 4 I Y Y Y Y Y Y Y Y Y Y Y T Y Y &   ; { {  .{ { { { ",
"[ [ _ | | | | ] ]     7 Y Y Y Y Y Y Y Y I 4 2 I Y Y Y Y Y Y Y Y T Y Y Y I H I Y Y Y Y Y Y Y T Y Y Y Y Y T I 2 . < {  .{  .{ { { ",
"[ [ [ [ { _ ] ] ]     H Y Y Y Y T T Y Y T T Y T Y Y Y Y Y Y Y Y Y Y Y Y Y Y Y Y Y Y Y Y Y Y Y Y Y Y Y Y Y I 2   C { { { { { { { ",
"[ [ [ | [ [ | | |     4 Y Y Y Y T T T Y Y Y T Y Y Y Y Y Y Y Y T Y Y T Y Y T Y Y Y Y Y Y Y Y Y Y Y Y Y Y Y I 2   { { { {  .{ {  .",
"[ [ | | | { | | [     % Y Y Y Y Y T T Y Y Y Y Y Y Y Y Y Y Y Y Y Y Y Y Y Y Y Y T Y Y Y T Y Y T Y Y Y Y Y Y I &   {  .{ { { { {  .",
"| ] | | | | ] | |       I Y Y Y Y T T T Y Y Y Y P z k z P Y Y Y Y T T Y P z k z P Y Y Y Y Y Y Y Y Y Y Y Y Y 4   }  .{  .{  .}  .",
"| | | | ] | | | | .     8 Y Y Y Y Y T T T Y P f y q q q u K U T Y Y U K u q q q u z U Y Y Y Y Y Y T Y Y Y Y 2    .}  .}  .{ }  .",
"| | ] | | ] | | | $     % I Y Y T Y Y T T P d E ! ( ( ( E R k U Y U k R E ( ( ( ! E k P Y Y Y Y Y Y Y Y Y I o $  .} }  . .}  . .",
"_ | | | | | | | [ D       7 Y Y Y Y Y Y Y K e ( ( ( ( ( ( / p k P k p / ( ( ( ( ( ( y K Y Y Y Y Y Y Y Y Y 2   , }  . . .}  .}  .",
"| | | | | | | | | | M .   . H Y Y Y Y Y Y P u ! ( ( ( ( ( ( / W K W / ( ( ( ( ( ( ! u P T Y Y Y Y Y Y Y 4     {  .{ { {  .{  . .",
" .| | | | | |  . .{  .c     % J Y Y Y Y Y Y z i Q ( ( ( ( ( Q s K s ! ( ( ( ( ( ! a z U Y Y Y Y Y Y I 2     X | [ { | | { [ ] { ",
"| | | |  .| |  . . . .] $     % H Y Y T Y Y U z u 0 ~ ( ~ 0 r g L j t 0 ~ ( ^ 0 d l I Y Y Y T Y Y Y 4       v | [ { [ [ [ { [ [ ",
"| | | | | |  . . . . . .S X       % J Y Y Y Y Y P f e 9 * 5 3 4 4 4 3 = w 0 y k P I I I Y Y T I H 2 o     $ ' | | | [ [ [ | [ [ ",
" .|  .| | | |  . . . . .| B .       % I Y I I Y I h 3 .     o % o o . o 6 l K I I I I I I I 2           + S | | [ [ { | [ | { [ ",
" .| | | | | |  . . . . .| | 1 .     . 7 J I J J 7 o                       o 7 H J J J H 2             , ) | | | | [ [ [ [ | [ [ ",
"|  .| | | | |  . . . . . . .[ N                                                                 1 , F | { | | | | { [ [ | ] [ [ ",
"| | |  . .| |  .{  . . . .|  . .F N m 1 % o o % O                                     # ; V ) } | | | | [ [ | | [ [ [ { | | [ [ ",
"}  . . . . . . . . . . . . . . . . . . . .T  . . . .|  .| | | ] [ | | _ { { { _ _ } _ ] ] ] ] ] _ ] } _ ] ] ] ] ] ] ] ] ] ] ] _ ",
" . . . . .{  . . . . . . . . . . . . . . . . . .| |  .| ] ] | | | [ | ] ] _ _ { ] ] ] ] ] ] } _ { ] ] ] ] ] ] ] ] ] ] ] ] ] ] } ",
" . . . . . . . . . . . . . . . . . . . . . . . . .| | |  .] | | | | ] ] ] ] { _ ] ] _ ] _ ] ] ] ] ] ] ] _ } ] ] ] ] ] ] _ ] ] _ ",
" . . . .}  . . . . . . . . .|  . . . . . . . . .|  .| | | | | | | | | ] _ { _ { ] ] } ] } ] ] ] } _ } _ ] ] ] ] ] ] ] ] } ] ] { ",
" . . .}  . . . . . . . . . . . . . . . . . .|  .| |  . .| | _ | [ { ] ] { _ { { _ } ] ] ] ] ] ] ] _ ] ] _ } ] _ ] } ] ] ] { ] ] ",
" . . . . . . . . . . . . . . . .T  . . . . .| ` | |  . .| | | | [ | | ] ] ] { _ ] ] ] ] ] ] ] ] ] ] ] ] ] ] ] ] ] _ ] ] ] _ _ ] ",
" . . . . . . . . . . . . . . . . . . . . . .|  . . .`  .| | | | [ [ ] ] ] { _ { ] ] } _ ] ] ] ] ] ] ] ] _ { } _ ] _ ] ] ] ] } ] ",
"}  . .}  . . . . . . . . . .`  . .`  . . .` | | `  .`  .] { _ ] ] ] } _ ] _ { _ ] ] ] _ ] ] ] ] ] ] ] ] ] ] ] ] ] } ] ] ] ] _ ] "
};
