/* XPM */
static char *result[] = {
/* columns rows colors chars-per-pixel */
"64 64 105 2 ",
"   c #010101",
".  c #0C0202",
"X  c #060308",
"o  c #09040C",
"O  c #0B0B0B",
"+  c #100303",
"@  c #1C0505",
"#  c #180F0F",
"$  c #0D0612",
"%  c #100716",
"&  c #110917",
"*  c #140A1B",
"=  c #131313",
"-  c #1B1B1B",
";  c #260606",
":  c #280707",
">  c #2E0808",
",  c #330808",
"<  c #3B0A0A",
"1  c #361F1F",
"2  c #190C23",
"3  c #1E0E2B",
"4  c #1F102A",
"5  c #200E2E",
"6  c #201227",
"7  c #20102E",
"8  c #251234",
"9  c #2A143B",
"0  c #242424",
"q  c #2D2D2D",
"w  c #323232",
"e  c #3A3A3A",
"r  c #420B0B",
"t  c #4C0C0C",
"y  c #540000",
"u  c #540E0E",
"i  c #541919",
"p  c #7B0000",
"a  c #2F1642",
"s  c #2E1841",
"d  c #301744",
"f  c #321847",
"g  c #351A4B",
"h  c #381B4E",
"j  c #3B1D54",
"k  c #3E1D59",
"l  c #3C214C",
"z  c #3E2056",
"x  c #3F2058",
"c  c #42215D",
"v  c #472067",
"b  c #4C256C",
"n  c #533065",
"m  c #512673",
"M  c #542A75",
"N  c #572B7B",
"B  c #434343",
"V  c #4C4C4C",
"C  c #555555",
"Z  c #5E5E5E",
"A  c #7D4F4F",
"S  c #6D5757",
"D  c #655B5B",
"F  c #616161",
"G  c #941818",
"H  c #A31F1F",
"J  c #992700",
"K  c #840E20",
"L  c #A8322A",
"P  c #B03E36",
"I  c #C50E0E",
"U  c #C71010",
"Y  c #CA1313",
"T  c #D41E1E",
"R  c #D72121",
"E  c #D92323",
"W  c #964D15",
"Q  c #C94E1D",
"!  c #DB6426",
"~  c #BC4840",
"^  c #CC5850",
"/  c #DE6E66",
"(  c #EA893E",
")  c #FF865B",
"_  c #F69A53",
"`  c #F6A765",
"'  c #FFCF52",
"]  c #5D2D84",
"[  c #632E8F",
"{  c #603187",
"}  c #65308F",
"|  c #662D95",
" . c #662998",
".. c #663190",
"X. c #683393",
"o. c #FF9E85",
"O. c #E4AF83",
"+. c #F5C39D",
"@. c #F9C498",
"#. c #E7CFA3",
"$. c #FDCDA5",
"%. c #FBD2B1",
"&. c #FFF5AC",
"*. c #F6E0B8",
"=. c white",
/* pixels */
"[ [ [ [ [ [ [ | ......[ ..} [ } } [ } [ } [ [ [ [ [ [ [ [ [ [ [  .] [ [ [ [ [ [ [ } [ [ [ [ ] | [ | ] | | ] | [ | | ....| | .. .",
"[ [ [ [ [ [ ] | } | ..} ..| [ } } [ [ } [ [ [ [ [ [ [ [ [ [  .] [  .[ [ [ [ [ [ } [ [ [ ] | | | ] | ] | | ] [ [ | [ | ........ .",
"[ [ [ [ | [ ] } } ..| } } } } [ [ } [ } } [ [ [ ] | [ [ [ [ [ [ [  .[ [ [ [ [ [ [ } [ [ | | ] ] | ] | | | | [ [ } | ....| .... .",
"[ [ [ [ ] | | } } } } } ..} [ } } [ } } [ [ [ [ |  .] [ [ [ [ [ [ ] [ [ [ [ [ [ [ [ [ [ ] | | | [ | | ] ] [ [ [ ......| ....|  .",
"[ [ ] | [ [ [ | ..} } | ..} } [ } [ } [ [ [ [ [ | ] [ [ [ [ [ [ [ [ [ } [ } [ } } [ [ [ | | [ [ ] | [ [ [ [ [ [ ..| | ......|  .",
"[ [ [ [ [ [ [ ..} } } ..| } [ } [ } [ } } [ [ [ [ | [ [ [ [ [ [ [ [ [ } } [ } [ } } [ [ ] ] [ [ ] | [ [ ] [ [ [ X.......| .... .",
"[ [ ] | [ [ [ } ..| [ } ..} } [ [ } [ } [ [ } } [ [ [ [ [ [ [ [ [ [ } } } ..} [ } } [ [ | | [ [ | ] | [ | [ [ [ | ....| | .... .",
"| [ | ..| [ } [ | ] | | ] [ } } } [ } } } } X...| } } } | [ [ [ [ [ } X.............[ } } [ } } | | [ | | [ } } ..........X...X.",
"} ..} ....} } | [ [ | ] | ] | | | } } [ } } ............} ..} } [ | } ..X.X.X.X.X.X.X.X.} } } | ....} } [ ..} } ....X.........X.",
"} } ..........| [ [ | ] [ [ [ [ } [ [ } } } ..................} [ } ....X.X.S X.X.X.X.X.} | ..} | } } | ....} } | ........| X.X.",
"..} ..[ [ ....] [ | | | [ [ [ } [ } } [ } } X.....X.......} } } ....} ..X.X.X.X.X...} } ....} } } } } ....| ..| ......| } X...X.",
"} ......[ ..} | [ ] ] | [ [ } [ } [ } } } } } } ........} } ....} ....X.N X.X.X.X...] ..[ ....} } } } } } } ..} X.......X.} X.X.",
"............} | | | | ] [ [ [ [ } [ } [ } 4 ] } ....X...........} } ..X.....{ X.X...2 ......| } } | } } ..| } } ..............X.",
"} ..} ........] ] ] | [ [ [ [ [ } } [ } [   4 ] ..........X.....} } } X...X.X.X.X.    * ..} ........} } } } } } ............X.X.",
"} ..} } ..} ..........} ....[ [ [ [ [ [       7 { ......X.{ X.X.....X.........X.        } } } [ } } ..[ } } ..} | ....| ......X.",
"} } } } } } [ ..| ..........} [ [ [ [ [         l ......X.X.{ ....X.X.......X.{           } } } [ | ....| ..} } | ....| ......X.",
"} } } } } } ......} ....} ..} [ [ [ [             N ............X.....X.....}             [ } [ } } } ..} ..| } ....| } } | } ..",
"} ....} } } } ..} ..} } ....[ [ [ ..|               } ..} ....X.X.....X.....8               } } [ } | ....} } } } | ............",
"....[ } } } } ..[ ..[ ......[ [ [ [ [                 { X.} } X.{ X.X.} ..X.9               } [ [ ..} } } } ..} ..} ..} ..| | ..",
"[ ......} } } ..........} ..[ [ [ ....                o X X X         X * b                   [ } } } } } | ......| ..| ........",
"[ ..[ ..} ..................} } [ } ]           X O O = = - - = - - = = = O X                 [ [ ......| } } } ..[ ..[ | | ....",
"[ [ [ [ ] | ] | ] ....| } } ......          X = - q q q q w w e e e e w q q 0 - = X             } [ } [ [ [ [ [  .| [  .| | |  .",
"[ [ [ [ [ ..| } } } } } } } ..} c $     O 0 q q w w q e B V C Z Z Z C C V V B e w 0 =           } [ [ [ [ } [ [ [  . .[ | [ |  .",
"[ [ [ [ [ | ] ..} } } ..} } ..g o   X - q q q e B V Z Z Z F Z Z Z Z Z Z Z Z Z Z C B q 0 X       } [ [ [ [ [ [ [ [ | | [  . .|  .",
"[ [ [ [ { ........} } } } } b X     - w w e V C Z Z Z Z Z Z Z Z Z Z Z Z Z Z Z Z Z Z V w 0 O     ..} [ [ [ [ } .. .[  .| [ [  . .",
"[ [ } [ ......{ ..} } } [ ]       = q w B C Z Z F Z Z Z Z Z Z Z Z Z Z Z Z Z Z Z Z Z F Z B 0 O   } [ [ [ } [ } ..|  .[  . .| |  .",
"} [ [ [ X.{ { X.} } } ] g X       q q B Z Z Z Z Z Z Z Z Z Z Z Z Z Z Z Z Z Z Z Z Z Z Z Z Z B 0 X     } } [ [ ..{ [ [  ... .[ [  .",
"[ [ [ [ { X.X.{ } } ..f         - w B Z Z Z Z Z F Z Z Z Z F Z Z Z Z Z D P D Z Z Z Z Z Z Z Z B 0     4 [ [ [ ..{  .| [  .| |  . .",
"....X.X.X.X.X.X.....M O       = q e Z Z Z Z Z Z Z Z   # I I D Z Z Z S Y L r   Z Z Z Z Z Z Z Z B =     } X.......| | |  . . .|  .",
"....X.X.X.{ X.{ X.X.4         q V Z Z Z Z Z Z Z Z   : U E E Y . Z 1 T E E G . Z Z Z Z Z Z Z Z Z q     n X.......|  .| | | | |  .",
"......{ X.X.X.X...M O       - C Z Z Z Z Z Z Z Z Z   u H E E T r Z i R E R G X   Z Z Z Z Z Z Z Z V =     ........ .|  .|  .| |  .",
"X...X.X.X.{ X.X...8       O e Z Z Z Z Z Z Z Z Z     . , r , t @ Z ; u < < @       Z Z Z Z Z Z Z Z w O   M ...... .| | | | |  . .",
"{ X.X.{ ....X.X.{ o       0 C Z F Z Z Z Z Z Z                   Z                 Z Z Z Z Z Z Z Z V -     ] } X...| |  .|  .|  .",
"X.X.X.X.....X.X.b o     = e Z Z Z Z Z Z Z Z Z                 Z Z Z             O Z Z Z Z Z Z Z Z Z q O   f ..X.| | |  .| | |  .",
"X.X.....X.X.} ..x     X 0 C Z Z Z Z Z Z Z Z Z                 Z Z Z               Z Z Z Z Z Z Z Z Z B =     { ..| | | | | |  . .",
"X.{ ......{ [ [ j     O q C Z Z Z Z Z Z Z Z Z               Z Z Z Z Z             Z Z Z Z Z Z Z Z Z C e X   l ..| | | | | | | | ",
"X...{ ..[ } [ [ a     = e C Z Z Z Z Z Z Z Z Z             Z Z F Z Z Z Z         X Z Z Z Z Z Z F Z F Z Z -     [ |  .X. .| | | | ",
"{ X.} } } [ } [ 8     - e Z Z Z Z Z Z Z Z Z Z Z         Z Z Z Z Z Z Z Z Z       Z Z Z Z Z Z Z Z Z Z Z Z V     g X.X. .X.| | | | ",
"} } } } [ } } [ 7   X 0 B Z Z F F Z Z Z Z Z Z Z Z Z Z Z Z Z Z Z F Z Z Z Z Z Z Z Z Z Z Z Z Z Z Z Z Z Z Z Z =   $  .X.| X. .X.| | ",
"} } } } } } [ | 5     0 B Z Z F Z Z Z F Z Z Z Z Z Z Z Z Z Z Z Z Z Z Z Z Z F Z Z F Z Z Z Z Z Z Z Z Z Z Z Z B X   |  .| | |  .X.X.",
"{ | [ } [ } } [ 8   X 0 B Z Z F F Z F Z Z Z Z Z Z Z Z Z Z Z Z Z Z Z Z Z Z Z Z Z F Z Z Z Z Z Z Z Z Z F Z Z C =   m | | | | | | | ",
"} } } } } [ [ [ 9     0 B Z Z F F Z Z Z F Z Z Z Z Z Z Z Z Z Z Z Z Z Z Z Z Z Z Z Z Z Z Z Z Z Z Z Z Z Z Z Z Z -   v | | | | X.| | ",
"} ..} ..} ......g     - e C F Z F Z Z Z F Z Z Z   Z Z Z Z Z Z F   Z Z Z Z Z Z Z Z   Z Z Z Z Z Z Z Z Z Z Z C 0   m | ..| X. .| X.",
"} } ............b     = q C Z Z F F Z Z Z F Z Z   Z Z Z Z Z Z Z   F Z Z Z Z Z Z Z   Z Z F Z Z Z Z Z Z F F C q   [ | | X.| X.| X.",
"............} ..}     X q V Z F F F Z Z Z Z F Z   Z Z Z K K K K K   Z Z Z Z Z Z Z   Z Z Z Z Z Z Z Z Z Z Z C 4   | X.| X.X. .X.X.",
"..} ..............X     - e Z Z F F Z Z Z Z Z Z Z   K K ^ ^ ^ / / K K Z Z Z Z Z Z   Z Z Z Z Z Z Z Z Z Z Z C -   | | | |  .X. .X.",
"[ ..} } | ....} ..*     X 0 V Z Z F F F Z Z Z Z Z K ^ ^ / / ^ ^ ^ ^ ^ K Z Z Z     Z Z Z Z Z Z Z Z Z Z Z Z B = * X.| X.| | | X.X.",
"....} } } ........M       = e C Z Z F F F Z Z Z y ^ ^ / ^ ^ ^ K K K L ) K     Z Z Z Z Z Z F Z Z Z Z Z Z V w o 8 X.| | | X.| | | ",
"} ..} ..............x       - e Z Z Z Z Z F Z Z y ^ ) ^ / ^ K O.=.*.p p p p J p Z Z Z Z Z Z Z Z Z Z Z C w 0   k | | | | ....| X.",
"..............X.X.X.X.s       - C C Z Z Z Z Z K / ) ^ / ^ K O.=.*.p ( _ ` @.%.` J p Z Z Z F Z Z F Z V w q O o { [ ....} ..| | ..",
"........X...X.X.X.X.X.[ &       e Z Z Z Z Z Z y ^ $./ ^ L y =.*.p @.%.@.` ' _ @._ ` p Z Z Z Z Z C w q 0 O   d ........| } } ..} ",
"..............X.X.X.X.X.m o       q V C Z Z Z y ~ ) ^ ~ y *.=.J ( _ ` ` @._ _ ( $.! p Z F C V w q 0 - O   * { ....[ } } } ..[ ..",
"....X...X.....X...| X.X...k X         O - q q y L P L L y O.O.! _ ` ` &._ @.! J p p B B w q 0 - = O     & m ....} } } ..} ....} ",
"X.........X.X.X.X.X.X.X.X...s X               K P L P L y =.p %.%.` ' ` ( ! J *.O.W = = O O X         8 ] } ....| } } ..} | } } ",
"..X...X.X.X.{ X.X.X.X.X...X.{ x               y L P L y *.O.p ! ( @.%.( ! J *.=.*.W             9 8 N } } } ........} | ..| } } ",
"....X.......X.X.X.X.X.X.X.X.X.X.N z z 9 & o & K ^ o.~ y *.W J ( ( ( ! +.J =.*.O.W     & 5 k { | X...} ..} X.....} } } } } } } } ",
"X. .X.X.X.X.| X.X.X.X.X.X.X.X.X.X.X.X.X.X.X.X.G ^ ~ y W W #.! +.+.! ! J *.*.=.W ]  .[ [ [ [ [ [ [ [ ]  .[  .[ [ [ [ [ [ [ [ [ [ ",
"X.X.X.X.X.| X.X.X.X.X.X.X.X.X.X.X.X.X.X.X.X.X.X.K y ..X...p _ ( ( +.! J O.=.W [ [ [ [ [ [ [ [ [ [ [  . .[ ] [ [ [ [ [ [ [ [ [ [ ",
"X.X.X.X.X.X.X.X.X.X.X.X.X.X.X.X.X.X.X.F X.X.X.X.X...X.....p ` ' ` ! J *.W W [ [ [ [ [ [ [  .] [ [ [ [ ] [ [ [ [ [ [ [ [ [ [ [ [ ",
"X.X.X.X.X.| X.X.X.X.X.X.X.X.X.X.X.X.X.X.X.X.F X...X.....[ J ` ` Q J W W [ [ [ [ [ [ [  .]  .| [ [ [ [ [ [ [ [ [ [ [ [ [ [ [ [ [ ",
" .X.X.X.X.X.X.X.X.X.X.X.X.X.X.X.X.{ X.X.X.X.......X.X.{ ....Q Q ..} | [ [ [ [ [ [ [ [ ] ]  .[ [ [ [ [ [ [ [ [  .[ [  .[ [ [ [ [ ",
"X.X.X.X.X.X.X.X.X.X.X.X.X.X.X.X.X.X.X.X.X...X.X...X.X.X...} ..[ ..} } [ [ [ [ [ [ [ [ [  . .] [ ]  .[ [ [ [ [ ] [ [ ] [ [ [ [ [ ",
"X. . .X.X.X.X.X.X.X.X.X.X.X.X.X.X.X.X.X.X.X.X.{ X...X.{ } ......} ..| [ ] | [ [ [ [ [ [ [ [ [ [ [  .[ [ [ [ ]  .[ [ [ [ [ [ [ [ ",
"X.X.X.X.X.X.X.X.X.X.X.X.X.X.X.{ X.X.{ X.X.{ ..X.{ X.{ X.| | ] [ [ [ ] | |  .] [  .] [ [ [ [ [ [ [ ] [ [  .]  .]  .[ [ [ [ [ [ [ "
};
