/* XPM */
static char *result[] = {
/* columns rows colors chars-per-pixel */
"64 64 198 2 ",
"   c #000000",
".  c #06090A",
"X  c #150607",
"o  c #160A1F",
"O  c #071517",
"+  c #170C21",
"@  c #190D23",
"#  c #1E0F28",
"$  c #161126",
"%  c #1C1126",
"&  c #16142A",
"*  c #1B142A",
"=  c #16192E",
"-  c #18192E",
";  c #161D33",
":  c #1C1E34",
">  c #22122D",
",  c #23192E",
"<  c #261237",
"1  c #281437",
"2  c #241B32",
"3  c #2B163B",
"4  c #2E183C",
"5  c #321A3E",
"6  c #16243B",
"7  c #1A243A",
"8  c #232439",
"9  c #29253C",
"0  c #232137",
"q  c #2A2530",
"w  c #311743",
"e  c #331A44",
"r  c #351A49",
"t  c #3B1D4C",
"y  c #381D45",
"u  c #3D1D57",
"i  c #2C1440",
"p  c #182C44",
"a  c #17334B",
"s  c #1A334C",
"d  c #163B54",
"f  c #1C3953",
"g  c #292941",
"h  c #222D43",
"j  c #3D204D",
"k  c #273D56",
"l  c #303751",
"z  c #41204F",
"x  c #442355",
"c  c #4A265B",
"v  c #4E2B5E",
"b  c #45235B",
"n  c #50285F",
"m  c #4F2860",
"M  c #4B2568",
"N  c #522B64",
"B  c #592E6B",
"V  c #552C6A",
"C  c #5C316E",
"Z  c #573067",
"A  c #592C77",
"S  c #5F3171",
"D  c #613373",
"F  c #653479",
"G  c #69377C",
"H  c #673B79",
"J  c #19435D",
"K  c #174A65",
"L  c #174A65",
"P  c #17506B",
"I  c #175672",
"U  c #175A76",
"Y  c #185B77",
"T  c #25526D",
"R  c #265471",
"E  c #17617E",
"W  c #426F7E",
"Q  c #C80000",
"!  c #D40102",
"~  c #DD0001",
"^  c #EF0001",
"/  c #5D2B84",
"(  c #5D3082",
")  c #632D8F",
"_  c #6E3A82",
"`  c #65308F",
"'  c #713A85",
"]  c #753D89",
"[  c #793F8D",
"{  c #662E93",
"}  c #682F96",
"|  c #662998",
" . c #692E98",
".. c #663191",
"X. c #693394",
"o. c #6E3996",
"O. c #6E3499",
"+. c #6F3898",
"@. c #71369C",
"#. c #743A9B",
"$. c #793D9E",
"%. c #733B97",
"&. c #7639A2",
"*. c #7B3EA3",
"=. c #7839A4",
"-. c #176583",
";. c #176986",
":. c #196986",
">. c #176E8B",
",. c #1A6D8C",
"<. c #186482",
"1. c #17718F",
"2. c #1A718F",
"3. c #1D6F90",
"4. c #177291",
"5. c #1A7492",
"6. c #1F7895",
"7. c #226C8A",
"8. c #246687",
"9. c #26718E",
"0. c #237693",
"q. c #227996",
"w. c #267C98",
"e. c #2A7E9A",
"r. c #2B7A95",
"t. c #3A7E9B",
"y. c #79428E",
"u. c #744089",
"i. c #7D4293",
"p. c #7A419D",
"a. c #477A8A",
"s. c #7D41A3",
"d. c #813FAA",
"f. c #824496",
"g. c #844599",
"h. c #854B9C",
"j. c #8244A6",
"k. c #8B4CA3",
"l. c #8545AA",
"z. c #8649A9",
"x. c #8B4BAD",
"c. c #8648A6",
"v. c #944EAD",
"b. c #8F51A7",
"n. c #9451AD",
"m. c #8E4CB1",
"M. c #8B46B1",
"N. c #914DB3",
"B. c #954DB9",
"V. c #9451B4",
"C. c #9956B5",
"Z. c #9A54B9",
"A. c #9E59BB",
"S. c #9751B8",
"D. c #A25ABF",
"F. c #A560BF",
"G. c #A55DC1",
"H. c #AC62C6",
"J. c #B066CA",
"K. c #018591",
"L. c #2E819C",
"P. c #2E8C9F",
"I. c #32839E",
"U. c #38829F",
"Y. c #3786A0",
"T. c #3986A1",
"R. c #3C89A3",
"E. c #378CA2",
"W. c #2F90A1",
"Q. c #4F8697",
"!. c #4386A2",
"~. c #438DA6",
"^. c #4A8BA7",
"/. c #488FA8",
"(. c #4C92AA",
"). c #4A90A7",
"_. c #5591A6",
"`. c #5296AD",
"'. c #5994AC",
"]. c #5699AF",
"[. c #5B99AE",
"{. c #5D9CB2",
"}. c #5F95B0",
"|. c #558FA3",
" X c #6799B3",
".X c #7AA2BB",
"XX c #89A9C2",
"oX c #9CB2CA",
"OX c #ACBAD2",
"+X c #AFBBD2",
"@X c #BEC3D9",
"#X c #C5C6DC",
"$X c #CECADF",
"%X c #CECAE0",
"&X c #D3CDE2",
"*X c #D9CFE4",
"=X c #DBD1E6",
"-X c white",
/* pixels */
") ) ) ) ) ) ) { ` ` ........{ ` ` ` ` ` ` ) ) ) ) ) ) ) ) ) ) ) | ) ` } ` X.X.X.{ ) ) ) ) ) ) ) ) ) ) ) ) ) ) ) { ..X.{ { { ..| ",
") ) ) ) ) ) ) ....` ............X.X.X.......) ) ) ) ) ) ) ) ) ) | ) ` } O.O.%.X.o.{ ..) { ) ) ) ) ) ) ) ) ) ) ) ..{ ..........| ",
") ) ) ) ) ) ) ) ` ` ` ....X.O.+.o.@.@.o.o...{ ) { ) ) ) ) ) ) ) ) ` } @.$.$.$.$.@.%...{ ) ) ) ) ) ) ) ) ) ) ) ) ....{ { ....X.| ",
") ) ) ) ) ) ) ....{ ....X.o.@.$.*.s.s.$.#.O.O.{ ` ) ) ) ) ) ) ) ) } @.f.d.c.x.d.j.&.%.O...{ ) ) ) ) ) ) ) ) ) ) ..} ....{ { { | ",
") ) ) ) ) ) ) ..........o.@.$.j.p.p.x.z.j.*.@.+.....) ) ) ) ) { ` } #.s.o o y g.V.l.*.%.O.{ ..) ) ) ) ) ) ) ) ) ....{ X.....{ | ",
") ) ) ) ) ) ) ` { ......O.#.s.o o 1 y.c.B.x.s.#.O.O.{ ) ) ) ) ) { O.&.l.@ ,.1.+ _ V.x.s.#.+...) { ) ) ) ) ) ) ) { { ....X.{ ..| ",
") ) ) ) ) ) ) ..` ` ....+.$.j.o 4.4.6 + o V.m.s.#.+.{ ` ) ) ) ` ` O.#.l.k.+ 1.,.o Z x.m.d.#.O...) ` ) ) ) ) ) ) X.{ ..{ ......| ",
"....{ ` ` ` ..) ) ) { { X.#.j.V.@ ;.>.-.- > b.V.j.$.+.X.....` { ` O.$.l.V.+ P 4.1.o j k.N.j.$.o.X.......{ ` ` ` ............` O.",
"..` ` ........) ) ) ) ..O.@.j.N.D.o >.4.;.= 1 n.V.j.$.o.........X.X.$.j.V.H.+ ;.1.1.o 5 n.m.s.$.o...........) ............{ ..X.",
"........` ` ..) ) ) ) ) ) +.*.x.D.@ L 1.4.<.$ 5 C.m.s.$.+.O.o...X.O.%.j.V.D.o $ 1.1.E $ x V.x.s.@.O.X...) ` ..............X...X.",
"` ....` ....` ) ) ) ) { ) O.$.l.Z.o @ Y 1.>.J o C A.x.j.$.#.#.#.#.$.$.j.n.G.J.$ 1.1.1.6 + D Z.l.p.+...........) ........` ` ..X.",
"` ....` ..` ..) ) ) ) ) ) { %.j.x.b.o d >.>.-.; + C.D.N.x.l.j.j.j.j.j.x.' h.C.$ 1.1.1.;.$ > u.V.j.#.O.....` ..` ......X...X.` X.",
"............` ) ) ) ) ) ) { +.c F g.o : ;.;.>.U & o H.F.D.C.Z.Z.V.V.C.A.h.v.+ o >.1.1.1.-.o # u.M.s.+.X.......................X.",
"` ......` ....) ) ) ) ` { ..+.c F g.v.@ E ;.;.1.L $ + k.u.Z v v v v G F.H.n.+ p >.1.1.1.1.& o C C.s.#.X.......{ ..........X.` o.",
"........` ` ) ......` ....X.+.*.F g.n.o P ;.1.1.:.d + + o o $ @ @ @ + % y ] o p 1.1.1.1.1.;.o o A.z.&.o.....{ ..{ ..........` ..",
"..( ..` ` ` ` ..` ....` X.+.#.j.V.b.o o J 1.1.1.;.:.s 8 9 9 9 g 9 g 9 0 , > : I 1.1.1.1.1.1.= o G.m.s.+.........{ ............X.",
"` ` ` ` ` ` ` ..........o.#.s.m.G.o + + Y 4.>.4.1.5.1.1.2.2.2.2.3.3.3.7.8.R R 1.1.>.1.>.4.>.-.o h.S.j.#.X.....` ....{ ` ........",
"` ` ` ` ` ` ` ......X.o.#.s.M.A.y.% + d 4.4.4.4.4.4.5.5.5.6.5.1.5.4.1.5.4.5.5.2.2.,.3.5.5.5.5.K + A.x.*.+.` ..{ ` { ......{ { ..",
"` ` ` ) ` ` ` ......o.#.s.x.Z.S @ + a e.oXXX5.5.5.5.6.6.q.6.6.6.5.5.5.4.4.4.5.4.5.0.0.5.0.5.5.,.$ C.m.s.o.O.......` ............",
"` ` ` ..` ` ......o.#.s.x.A.y.+ + d t.%X=X&X5.5.6.6.q.w.L.w.w.q.q.5.5.5.5.5.4.6.6.w.0.w.e.e.0.5.$ u.Z.l.$.+.......{ ..{ ..{ ....",
"........` ......O.o.s.x.Z.k.o & L t.$X=X=X+X5.5.6.w.L.L.T.I.I.L.e.w.0.5.5.6.6.6.e.L.Y.Y.I.e.e.q.> o D.b.s.+.X...{ ......{ ......",
") ../ ) ) ) ..X.o.s.z.m.Z + = I 2.OX=X=X+Xq.5.q.q.L.E.P./.).^.~.T.e.w.q.6.6.w.L.Y.T.~.~.~.R.U.e.8.% y.n.j.@...{ { ) | ) | { | | ",
") ) ) ) ) ....o.$.j.V.C o $ P >.!.&X=XoX6.4.5.q.w.Y.E.      ].(.~.T.L.e.w.L.L.T.~.(.`.    ^.R.I.7.% + A.x.*.o.{ { { { | { | { | ",
") ) ) ) ....X.+.s.m.h.@ o f >.t.#X=X#Xw.4.5.5.q.L.E.W.O Q Q     (.(.R.Y.Y.T.R./._.    Q Q   /.T.L., + h.V.s.%.} | | { | { { { | ",
") ) ) ) ....X.p.s.A.g & ; -.2.oX&X#X X4.4.4.6.6.L.E.W.  Q Q   . Q.].(./.~./.(.].Q..   Q ~   (.T.L.T @ 4 Z.l.$.o...| | ) | ) | | ",
") ) ) ) ....p.p.N.s.+ & I >.e.#XOXr.4.4.1.5.6.L.L.W.`.  Q Q Q Q     {.[.`.].{.    ! ~ Q Q   `.~.I.9.% @ n.N.*.@.} } { { { { | | ",
") ) ..) ..o.s.s.Z.w + d >.>.q.).I.4.4.4.5.5.6.q.I.~.`.  Q Q Q Q Q     a. Xa.  O Q Q Q Q Q   ].~.I.r.k @ y.C.l.#.O.} | { { { ) | ",
"..) ) ....p.s.s.b.+ + -.>.4.4.4.5.4.4.4.4.5.6.L.I./.].[.    Q Q Q       {.  X Q ~ Q Q     [.{.(.R.L.9.* + C.x.*.@.} } { { ..| | ",
"........p.p.s.A.H + ; >.4.4.4.4.4.4.4.4.5.6.q.L.R.)._.{.{.  . X Q ^ Q   {.  Q Q !   . a.{.[._.`.~.I.w.k @ F C.c.=.O. . .| } { | ",
"......X...o.s.A.j + a 1.4.4.4.4.4.4.4.4.4.6.w.L.R.a.  W {.'.K.  Q Q   _.{._.  Q Q   a.'.{.      /.E.e.7.@ + A.V.=.@. . .| | { | ",
"......X.o.p.s.A.5 + d 1.4.4.4.4.4.4.4.5.5.6.L.I.~.      {.{.{.        {. X{.      {.{.{.{.  -X  (.T.L.6.K + H Z.M.=. . .| | { | ",
"u.....u.o.p.s.F.* @ K 4.4.4.4.4.4.4.4.4.5.6.L.P./.    -X  {.{.{.{.{.{.{.{.{.{.{.{.{.{.{.  -X-X  (.T.L.6.4.$ + A.M.=.@. . .{ | | ",
"....X._ o.p.x.n.@ + K 4.4.4.4.4.4.4.4.4.5.6.L.I.~.].  -X-X      {.{.{.{.{.{.{.{.{.{.[.  -X  -X  (.T.L.6.5.s + S S.s.&. .| | | | ",
"....X.X.+.s.b.b.@ + I 4.4.5.4.4.4.4.4.4.4.6.q.I.~.`.  -X-X  -X  {.{.{.{.{.{.{. X{.    -X-X    ]./.Y.w.6.5.R + > Z.M.=. . .| } | ",
"..u.` X.o.s.x.b.@ + <.4.4.4.4.4.4.4.4.4.4.6.q.L.R.(.    -X  -X                    -X  -X-X    `.R.L.w.6.5.8.# + B.M.=.@.} | | | ",
"` ` ` ` O.p.l.v.@ + <.4.^.OX X3.4.4.4.4.4.5.6.w.I./.].      -X-X-X  -X-X-X-X-Xq -X-X  -X    {.(.R.L.6.5.4.,.2 + g.M.*.&.} } } ..",
"` ` ) ..X.$.l.S.< o K 1. X=X&Xe.4.4.4.4.5.5.5.w.I.R.`._.    -X-X-X  -X-X-X-X-X  -X-X        ].~.I.e.5.5.5.4.4.+ X.B.=.&. .} } } ",
"` ) ) ..X.#.j.Z.e o = :.e.%X=XoX5.4.4.4.4.5.5.q.w.I./.].      -X    -X-X-X-X    -X         X(.R.L.q.5.5.4.4.4.@ _ B.s.@.O.} { } ",
") ` ` ..X.#.d.M.S + + :.4..X=X*X'.4.4.4.4.5.5.5.L.L.R.(.{.            -X-X          -X    {./.Y.w.6.5.4.4.4.4.@ p.V.s.@.} } } | ",
"` ) ) ..{ +.$.l.f.+ + I 4.6.@X=X%X!.4.4.4.4.4.1.6.L.I.).{.  -X          -X          -X-X  (.R.L.w.5.5.4.4.3.4.@ h.m.s.@. .} ..} ",
") ` ) ` ..X.p.s.[ @ + f >.4.^.&X=XOX0.4.4.4.4.5.5.w.Y.~.].  -X-X  -X      -X    -X  -X  {./.Y.e.0.5.4.4.4.7.1.+ k.M.=.@. .| {  .",
"` ) ` ) ..X.+.p.' 5 + = <.>.4.oX=X&X@XXXw.4.4.4.5.q.e.R.(.    -X  -X-X  -X-X  -X-X  -X  `.~.e.w.5.5.4.4.4.8.2 @ S.M.*.O.O.{ O.{ ",
"..........X.+.p.F G @ o d >.>.t.#X=X*X&XXX4.4.4.5.q.e.T./.].  -X  -X-X  -X-X  -X-X-X  ].^.T.e.q.5.5.4.5.4.T * 5 m.l.&.O.O...{ ..",
"..` ` ......+.+.B ' D o + d ,.4.`.&X=X=X%X X4.4.5.5.w.e.R.(.    -X-X-X  -X-X  -X-X  {.(.R.e.q.6.5.5.4.4.,.5 @ S j.j.#.O.} |  ...",
"............X.p.V S [ N + + a >.4.XX=X=X*X#X0.4.4.5.q.e.I.!.(.].                    (.R.Y.q.q.5.4.4.4.,.l > < ] p.s.+. .} } ..} ",
"` ............X.A n F i.3 + @ K 4.q.oX&X*X*X+Xt.4.5.5.q.e.I.R./.(.`.`.].].].].`.(.~.R.Y.e.q.5.5.5.4.3.k > + v _ +.&.O. .} } } } ",
"` ` ............X.x N _ _ # + $ U 4.q.}..X+X@XR.4.4.5.5.q.w.L.E.T.R.~.~.~.~.R.~.R.T.I.w.q.6.5.4.>.R 4 @ + 3 ] S o.@.O.} ..} ..} ",
"..` ............X.t u V ' S # + # K 4.4.4.6.q.5.4.5.4.5.6.q.q.r.L.L.L.L.L.I.I.e.e.e.w.0.5.5.,.k 2 # + + 1 G F m ..O.} } } } } X.",
"` ................k j u C u.c % @ o ; P ;.>.1.4.4.4.1.>.2.2.0.q.q.0.0.r.0.9.9.9.0.0.0.5.;.f % + + + + z ' F N b O.X.} } { { } X.",
"..............o. .( r t c S _ B % o o @ $ : 6 p p 6 - - 7 7 h h 9 8 8 8 0 : 7 * - p 7 7 * @ + + c x _ ' S m z u X.{ ..........) ",
"..............o.X.X.A w t c B H G Z C v 4 > > # % o o o o o @ o + + o o o @ @ + + @ o > e C g.f.[ G S V c t e V ......` ......` ",
"..................X...M w t b m C G G u.u.y.f.f.g.g.g.g.g.g.g.f.h.h.g.g.g.g.g.g.g.f.f.y.u.' H S B m c z r e w ) ....{ ..) ) ..` ",
"..................O.X...r w r j x b N N C C C S D D D D D D D D C D D D D D D D D D B B V m v x z t r w 5 < M ` ` ..........) ` ",
"X.....X...............X.( w 3 e e j j j j x x b x x x x x c c b x x x x x c b x x x x x j j r e w i 4 4 < r ` ` ....) ) ..` ..` ",
"..............o.X.....O...M 4 3 3 3 3 5 e e e e e 5 e e e e e e e e y e e r e w e e w e w w i 3 3 < < < w A X...) ............` ",
"X.........o.......O.X...X.` M 3 3 3 3 3 1 3 3 3 4 4 4 3 4 2 4 3 3 3 3 4 3 3 3 3 3 3 3 1 < < 1 < 1 1 < u ) ) { ..` ..` ..) ` ..) ",
"X.X.X. .X.X.X.X.X.X.X.X...X...M g < 3 1 < 1 < < 1 1 1 1 < < < < < < 1 < < < < < < < < < < < < < u u A ) ) ) ) ) ) ) ) ) ) ) ) ) ",
"X...X.X.X.X.X.X.X.X.X...X.X...o.( k M M r 3 < g 3 1 3 2 < < < : < 3 < < < < < < < < < i r M / ) | / | ) ) ) ) ) ) ) ) ) ) ) ) ) ",
"X.X.X... ...X...X.X.X.X.X.X...u...o.o......._ ..` ` X...........` ` ..) / { / | { { { { | ) ) ) { { ) ) ) ) ) ) ) ) ) ) ) ) ) ) ",
"X.X. .X...X.X.X...X...X.X.X.....o....._ X...X.....X...` ..............) { { / { / ) ) / / | ) ) | / ) ) ) ) ) ) ) ) ) ) ) ) ) ) ",
"X.X. .......X.X.X.....X.X.X.....o...................X...........) ....) { { { ) ) ) / { ) { ) ) ) ) ) ) ) ) ) ) ) ) ) ) ) ) ) ) ",
" ...X.X. . .X...X.X.X.X...X.X.u.o.( ..o.....u...X._ ..X.) ............) { / ) ) ) ) { { ) | / ) ) ) ) ) ) ) ) ) ) ) ) ) ) ) ) ) ",
"X... ...X. .X.X.X...X.X.X.X.X.X...o.o.....o...........u...............) ) ) ) ) ) ) ) ) ) ) ) ) ) ) ) ) ) ) ) ) ) ) ) ) ) ) { ) ",
"X. .X.X.X.X.X.....X.....X.X...............` ) ` ` ) ) ) ) ) ) ) { / ) ) ) ) ) ) ) ) ) ) ) ) ) ) ) ) ) ) ) ) ) ) ) ) ) ) ) ) ) ) "
};
