/* XPM */
static char *result[] = {
/* columns rows colors chars-per-pixel */
"64 64 199 2 ",
"   c #000000",
".  c #06090A",
"X  c #150607",
"o  c #160A1F",
"O  c #071517",
"+  c #170C21",
"@  c #190D23",
"#  c #1E0F28",
"$  c #161126",
"%  c #1C1126",
"&  c #16142A",
"*  c #1C132A",
"=  c #16192E",
"-  c #18192E",
";  c #161D33",
":  c #1C1E34",
">  c #22122C",
",  c #23192E",
"<  c #261237",
"1  c #281437",
"2  c #241B32",
"3  c #2B153B",
"4  c #2F183D",
"5  c #2D1837",
"6  c #321A3E",
"7  c #16243B",
"8  c #1A243A",
"9  c #232439",
"0  c #29253C",
"q  c #232137",
"w  c #2A2530",
"e  c #2D1640",
"r  c #341A44",
"t  c #351A4A",
"y  c #3B1D4C",
"u  c #311742",
"i  c #3D1E53",
"p  c #3E1D5A",
"a  c #182C44",
"s  c #17334B",
"d  c #1A334C",
"f  c #163B54",
"g  c #1C3953",
"h  c #292941",
"j  c #222D43",
"k  c #3D204D",
"l  c #273D56",
"z  c #303751",
"x  c #442355",
"c  c #4A265B",
"v  c #4E2B5E",
"b  c #46235A",
"n  c #41204F",
"m  c #4D256D",
"M  c #4B2664",
"N  c #532B64",
"B  c #5A2E6C",
"V  c #562C69",
"C  c #5C316E",
"Z  c #573067",
"A  c #5A2D77",
"S  c #5F3171",
"D  c #613373",
"F  c #66347A",
"G  c #69367B",
"H  c #673A78",
"J  c #19435D",
"K  c #174A65",
"L  c #174A65",
"P  c #17506B",
"I  c #175672",
"U  c #175A76",
"Y  c #185B77",
"T  c #25526D",
"R  c #265471",
"E  c #17617E",
"W  c #426F7E",
"Q  c #C80000",
"!  c #D40102",
"~  c #DD0001",
"^  c #EF0001",
"/  c #5C2A83",
"(  c #5D3082",
")  c #632D8F",
"_  c #602E86",
"`  c #6E3A82",
"'  c #65308F",
"]  c #6B3688",
"[  c #723A85",
"{  c #753D89",
"}  c #793E8D",
"|  c #662D93",
" . c #682F96",
".. c #662998",
"X. c #692E98",
"o. c #663191",
"O. c #693394",
"+. c #6E3996",
"@. c #6E3499",
"#. c #6F3898",
"$. c #71359C",
"%. c #743A9C",
"&. c #793D9E",
"*. c #753D93",
"=. c #7739A2",
"-. c #7C3EA4",
";. c #7839A4",
":. c #176583",
">. c #176986",
",. c #196986",
"<. c #176E8B",
"1. c #1A6D8C",
"2. c #186482",
"3. c #17718F",
"4. c #1A718F",
"5. c #1D6F90",
"6. c #177291",
"7. c #1A7492",
"8. c #1F7895",
"9. c #226C8A",
"0. c #246687",
"q. c #26718E",
"w. c #237693",
"e. c #227996",
"r. c #267C98",
"t. c #2A7E9A",
"y. c #2B7A95",
"u. c #3A7E9B",
"i. c #7A428E",
"p. c #754089",
"a. c #7D4292",
"s. c #7A419D",
"d. c #477A8A",
"f. c #7D41A3",
"g. c #813FAA",
"h. c #824496",
"j. c #844599",
"k. c #854B9C",
"l. c #8144A6",
"z. c #8649A5",
"x. c #8B4DA3",
"c. c #8545AA",
"v. c #8649A9",
"b. c #8B4BAD",
"n. c #8847AB",
"m. c #954EAD",
"M. c #9551AD",
"N. c #9254A6",
"B. c #8B47B1",
"V. c #8E4CB1",
"C. c #914DB4",
"Z. c #954EB9",
"A. c #9451B4",
"S. c #9956B4",
"D. c #9A54BA",
"F. c #9E59BB",
"G. c #8F50AB",
"H. c #A25BBE",
"J. c #A55DC1",
"K. c #AB62C6",
"L. c #B066CA",
"P. c #018591",
"I. c #2E819C",
"U. c #2E8C9F",
"Y. c #32839E",
"T. c #38829F",
"R. c #3786A0",
"E. c #3986A1",
"W. c #3C89A3",
"Q. c #378CA2",
"!. c #2F90A1",
"~. c #4F8697",
"^. c #438DA6",
"/. c #4A8BA7",
"(. c #4488A4",
"). c #4C92AA",
"_. c #4A90A7",
"`. c #5591A6",
"'. c #5296AD",
"]. c #5994AC",
"[. c #5699AF",
"{. c #5B99AE",
"}. c #5D9CB2",
"|. c #5F95B0",
" X c #558FA3",
".X c #6799B3",
"XX c #7AA2BB",
"oX c #89A9C2",
"OX c #9CB2CA",
"+X c #ACBAD2",
"@X c #AFBBD2",
"#X c #BEC3D9",
"$X c #C5C6DC",
"%X c #CECADF",
"&X c #CECAE0",
"*X c #D3CDE2",
"=X c #D9CFE4",
"-X c #DBD1E6",
";X c white",
/* pixels */
"..| o.o.o.| o.o.| / ) ) ) ) ) ) ) ) ) ) ) ) ' | O.O.O.| ' '  .) ) ) ) ) ) ) ) ) ) ) ) ' ' ' ) ) ' ) O.' ) ' o.o.' ) ) ) ) ) ) ) ",
"..o. .o. .o.o. .| | ) ) ) ) ) ) ) ) ) ) ) o.O.O.+.O.@.+.O.'  .) ) ) ) ) ) ) ) ) ) ' | o. .O.O.O.O.O.O.' O.' o.) o.) ) ) ) ) ) ) ",
"..o.o.| o.o.o.o.) ) ) ) | | ) ) ) ) ) | O.O.#.$.%.&.&.%.%. . .' ) ) ) ) ) ) ) )  .'  .O.#.+.#.$.#.O.O.O.) ' ' ' | ) ) ) ) ) ) ) ",
".. .o.o.| o. .| ) ) ) ) ) / | ) ) | ) | O.$.&.l.n.n.n.l.%.%. .| ) ) ) ) ) ) ) ..'  .#.%.&.g.j.-.&.$.+.O.O.O.' o.' ) ) ) ) ) ) ) ",
"..| o. .o.| o.o.) ) ) ) ) ) ) ) | o.o.O.$.f.v.G.j.r + o f.$.O.| | | ) ) ) ) |  .O.%.&.l.b.b.s.%.l.&.%.O.O.o.' | ' ) ) ) ) ) ) ) ",
"..o. .o.o.o.| o.) ) ) ) ) ) / | | o.@.&.f.n.A.p.o 7.6.# c.=.O.| | ) ) ) ) ) ] @.$.g.B.S.z.i.< + o l.%.O.o.O.' ' o.) ) ) ) ) ) ) ",
"..o.o.o.o. .o. ./ | ) ) ) )  .| o.@.=.f.V.G.v + 1.3.o x.c.&.O.| ) ) ) ) ) | @.&.l.V.Z.o o ; 6.6.o l.&.$.O.| o.' | ) ) ) ) ) ) ) ",
"O.o.o.o.o.o.o.o.o.o.| o.o.o.o.O.+.%.v.C.z.k + 3.3.P o S.z.%.@.O.' ) ' '  .*.&.g.C.N.> ; :.7.>.$ C.l.%.O.' ) ) ) ) ' o.o.' o.o.) ",
"@.o.o.o.o.o.o.o.o.| o.' o.o.o.@.$.f.C.G.k o <.3.<.$ K.A.z.%.O.O.' '  .O.+.%.f.C.M.2 = <.3.3.+ F.A.f.$.O.o.o.) ) ) ' o.' o.o.o.' ",
"O.o.o.o.o.o.o.o.' o.' ' o.o.O.%.f.b.S.x + E 3.3.+ + H.G.f.%.@.O.O.O.O.*.s.f.G.F.r $ E 6.3.L + J.V.f.@.| ) ) ) ) ) ' o.' o.' o.o.",
"O.O.o.o.o.o.o.o.o.o.' | o.O.#.f.n.D.S + 7 3.3.3.$ L.K.V.z.f.&.$.$.%.%.&.z.b.F.C o J 3.3.U + + D.f.f.O.o.) ) ) ) ) o.o.o.' o.' o.",
"O.o.o.o. .o.o.o.o.) o.o.o.+.%.f.A.p.> $ >.3.3.3.$ L.F.i.S N l.l.l.l.n.B.A.F.S.o ; :.<.<.f o N.Z.f.o.o.) ) ) ) ) ) o.' o.o.o.' o.",
"O.o.o.o.o.o.o.o.o.o.' o.O.$.f.b.p.# o :.3.6.3.>.o o M.j.} [ A.A.S.S.D.H.J.L.o & I <.>.>.7 o F.j.M k 1 o.) ) ) ) ' o.' ' o.o.' o.",
"O.o.o.o.o.o.o.o.) ' o.O.O.%.l.A.C o $ <.6.3.3.<.a o M.M.x.G v v v N V { k.o $ L 3.>.>.Y + m.j.D b r 3 ) ) ) ) ) ) ' ' ' ' o.' o.",
"o.o.o.o.o.) o.o.o.o.o.O.O.=.n.F.o o >.6.3.3.3.3.s o { 6 # + + @ @ @ @ o @ o g >.3.3.<.P o m.j.F M t O.o.o.o.o.o.' ' ' o.' ' ' ' ",
"O.o.o.o.o.o.) | o.' o.O.%.f.V.J.o = 3.6.3.3.3.4.I : % , 2 0 h h 0 0 0 0 q d ,.>.3.3.3.J o o m.` Z %.#.o.o.o.' ' o.' ' ' ' ' o.' ",
"O.o.| | | o.o.o.o.) O.O.%.l.A.k.+ :.6.3.3.3.<.3.4.R R 0.9.9.5.7.4.4.4.3.4.7.3.4.3.3.7.Y o o o j.F f.$.+.O.o.o.o.o.' ' ' ' ' ' ' ",
"o.o.| o.o.o.o.| ' ' O.+.&.b.H.o J 7.7.4.4.4.1.4.4.6.7.6.6.6.7.7.7.3.8.3.7.6.7.7.7.6.6.7.g o # H a.b.f.%.O.O.o.o.o.' ' ' o.' ' ' ",
" .o.o.o.) o.o.o.) O.O.$.g.m.F.$ 4.8.8.w.w.w.8.7.6.7.6.3.6.7.7.7.8.8.8.8.8.8.7.7.6.7.oXOXy.d o o S D.b.f.%.+.O.o.o.' ' ' ' ' o.' ",
"o.o.o.o.o.o.| ) | O.O.%.l.F.` @ 4.e.e.r.r.e.e.e.8.7.7.6.7.7.7.8.e.r.I.r.I.e.e.7.7.7.*X-X*Xu.J o @ p.F.b.f.%.O.O.o.o.o.' ' ' ' ' ",
"o.| | ) o.) | o.o.O.%.j.x.H.@ , w.r.Y.Y.R.Y.I.t.e.8.8.8.7.8.e.I.Y.Y.Y.Q.I.I.r.e.7.7.+X-X-X%XT.L = + x.D.b.f.#.+.o.o.' ) o.' ' ' ",
"..| | | | | | | ' O.%.l.S.h.@ E t.Y.W.^.^.^.W.R.I.r.8.8.e.r.I.Y.(./.).^.U.U.I.r.8.7.8.@X-X-X+X4.I = + V M.v.f.#.o.o.o.) ) ) ) ) ",
"..| | ..| ..| ..| @.&.b.F.o @ 9.Y.W./.    [.).^.W.I.I.I.I.I.W.^.).[.      Q.Y.I.e.7.7.8.OX*X%X(.<.P + o C A.v.%.#.o.o.) ) ) ) ) ",
"....| | | | | | O.#.l.C.k.@ 8 y.R./.  Q Q     _._.W.Y.Y.Y.W._._.    Q Q O U.Q.I.e.7.6.3.I.$X-X$Xu.<.f o + k.V.f.%.o.o.o.' ) ' ) ",
"..| | | | | ..X.O.%.f.D.5 % T I.W.).  ~ Q   . ~.{.)._.^./.).[.~.    Q Q   !.Q.I.e.8.6.6.7..X#X*XOX3.E ; o k D.n.f.O.o.| | | | o.",
"..| ..| | ..| X.s.f.V.A.o % q.Y.^.'.  Q Q ~ !     }.[.'.}.}.    Q Q Q Q   '.Q.Y.e.7.6.6.3.7.8.#X#XI.3.I $ + z.G.f.#.o.o./ o.o./ ",
"..| | | ..| ..X.%.c.D.i.% l I.Y./.[.  Q Q Q Q Q O   ~.}.d.    Q Q Q Q Q   [.^.Y.e.8.8.6.7.6.6.I./.8.3.>.f o 6 D.v.%.O.o.o.) | ) ",
"..) ......X.X.;.f.V.S.$ % q.I.W.).}.{.    Q Q ! Q X   }.      Q Q Q     {.[.^.R.I.8.8.6.6.6.6.6.3.3.3.3.E $ + N.b.=.#.o.) o.) ) ",
"..| | X.X.X.X.;.v.D.H @ l r.Y.^.).].{.}.d..   ! Q Q   }.  Q ^ Q X .   }.}.`._.W.I.e.8.7.6.6.6.6.7.3.6.3.>.7 o H A.s.s.+.o.O.o.o.",
"....| ....X.;.f.V.F.o @ 9.I.U._.      }.`.d.  Q Q   `.}. X  Q Q   P.].}.W   d.W.I.r.8.6.7.6.6.6.6.7.6.6.3.s o k D.f.s.+.o.O.o.o.",
"..| ..| X.X.f.B.D.H $ J 8.I.Y.).  ;X  }.}.}.{.      }.}.}.        }.}.}.      ^.Y.I.8.8.6.6.6.6.6.6.6.6.3.J o 0 F.f.s.o.p.o.p.o.",
"....| ..X.$.;.f.S.$ $ 4.e.I.T.'.  ;X;X  }..X}.}..X}.}.}.}.}.}.}.}.}.}.  ;X    ^.Y.t.8.w.P.6.6.6.6.6.6.6.7.J o 7 J.f.s.s.o.o.o.o.",
".. . ...X.=.g.Z.D @ d 7.8.t.E.).  ;X  ;X  {.}.}.}.}.}.}.}.}.}.}.      ;X;X  [./.R.r.8.7.6.6.6.6.6.6.6.6.5.K + @ x.V.s.+.O.O.O.o.",
"..| ..X.X.;.g.D.> @ I 7.8.r.E._.}.    ;X;X    }.}.}.}.}.}.}.}.}.  ;X  ;X;X  '.W.u.r.8.6.6.6.6.6.6.6.6.6.7.I + + p.V.f.+.O.] O.] ",
"......X.$.;.B.D.@ # 0.7.8.r.R.W.'.    ;X;X  ;X                    ;X  ;X    '.Q.t.r.7.7.6.6.6.6.6.6.6.7.7.2.+ @ [ z.f.+.o.o.O.o.",
" .| X.X.$.g.C.s.o - 7.7.7.8.t.E.).}.    ;X  ;X;Xw ;X;X;X;X;X  ;X;X;X      [._.Y.t.8.7.6.6.6.6.6.6.}.+X).5.Y o @ { *.%.+.o.' ' o.",
" . . . .@.-.Z.` @ 3.7.3.7.7.t.R.^.[.        ;X;X  ;X;X;X;X;X  ;X;X;X    `.'.W.I.r.8.6.6.6.6.6.6.t.*X-X.X6.L o > i._ s.O.o.o.' ' ",
" .|  .X.=.c.Z.] @ 7.3.6.7.7.e.t.W.)..X        ;X    ;X;X;X;X    ;X      [.^.Y.I.8.5.7.6.6.6.6.6.OX-X&Xt.5.= o r p.C +.O.o.o.' ' ",
" . . .O.$.-.Z.a.+ 6.5.6.7.7.8.r.Y./.[.    ;X          ;X;X            }.).W.I.r.7.7.5.6.6.6.5.].-X-XXX6.:.+ + A ` N O.O.' ) ' ' ",
" . . .X.@.-.Z.s.# 6.5.6.6.7.7.r.I.W.'.  ;X;X          ;X          ;X  }._.Y.I.8.7.6.6.6.6.6.(.&X-X#X8.6.I + + &.F c ' o.' ' ' ) ",
"|  . . .$.-.B.b.o 4.9.4.6.6.7.8.I.Q._.[.  ;X  ;X    ;X      ;X  ;X;X  [.^.R.r.8.6.7.6.6.5.8.+X=X*X/.6.<.d o @ i.B b ' o.' ) ' ' ",
" .|  . .@.-.B.D.% , ,.7.6.7.7.8.r.I.(.'.  ;X  ;X;X  ;X;X  ;X;X  ;X    ).W.t.e.7.6.6.6.r.oX#X*X=XOX7.<.:.; o 4 [ N i ( o.) ' ' ) ",
" .|  . .@.;.c.D.r > T 7.6.6.6.7.8.t.R._.[.  ;X;X;X  ;X;X  ;X;X  ;X  [.^.R.t.8.7.6.6.3.oX*X-X-X$XR.5.,.f o @ G F b y ' o.' o.o.o.",
"o. .|  .O.=.f.Z.[ % 6 ,.6.6.6.7.8.e.t.W.).}.  ;X;X  ;X;X  ;X;X;X    ).W.t.r.7.7.6.3.|.&X=X-X*X'.6.<.f + + D [ N n y ' o.o.o.' o.",
"o.o.o.X.@.$.-.B.Z.> > z <.6.6.6.5.e.r.R.W.).                    {.).(.Y.r.8.7.3.6.e.&X=X=X=XoX7.<.f o + N } B c h i o.o.o.o.' o.",
"X.X.X.X. .@.=.c.Z.B @ > z 1.6.5.7.7.e.r.Y.W.^.).'.'.[.[.[.'.'.).^.W.Y.t.e.8.7.7.u.@X=X-X*XOXe.6.K @ o 1 } F M y u m o.' ' o.o.o.",
"o.X.X.o.X.@.$.-.B.x.3 + # 0 T <.6.7.7.e.t.t.W.W.W.(.^.^.^.W.Q.W.R.t.t.e.8.7.6.6.W.@X@XXX|.e.5.U $ o > ` ` N i r e ) o.o.o.' ) o.",
"o.X.o.X.X.X.X.=.g.l.] 3 + + # 2 l <.7.8.r.r.t.t.Y.I.I.Y.I.Y.I.I.r.r.e.8.7.6.6.6.7.r.e.7.6.6.K $ @ # B [ B x t 4 3 o.o.' o.o.o.' ",
"o.X.o.X.| o. .$.=.f.F [ i + + + @ $ g ,.8.8.w.w.q.q.q.w.w.y.q.w.w.8.4.4.1.3.3.3.6.6.1.,.P - o @ # c [ B b y 4 3 t | ' ' o.' o.o.",
"o.o.o.o.o.o.o.O.#.=.B S [ ` x c + + @ & 8 8 a * * 8 8 q 9 9 9 j j j 8 8 - - 7 a a 7 ; $ + @ o # B [ S c i e 3 3 / | ' O.O.' o.o.",
") o.o.o.o.o.o.o.O.#.A b N D G i.h.h.C r > @ o @ o o o o o o @ o % o o o o o o % * > > 5 v C V H G B c y u e 3 m O.o.o.o.O.' o.O.",
") o.o.o.o.o.o.o.O.O.+.i n b v B S G ` p.a.a.h.j.k.j.j.j.j.j.j.j.j.j.j.j.h.k.j.k.h.a.a.p.{ ` H C N x y r e 3 M O.O.' o.O.o.O.o.o.",
"' o.) o.o.) o.' O.o.O.M r t y n x c N N B S S S D D D D D D D D D D D D D S D D D C C C V N c x y r e e 3 t | o.O.o.o.o.o.o.O.o.",
") o.o.o.o.o.o.) o.o.o.) t 4 4 u r t k k i i b b x x x c c c c x x x x x x x b x x x x k i y r r u 4 3 3 e A O.O.O.o.o.o.o.o.o.o.",
"' o.) ' ) o.o.o.] o.) o./ r < 3 3 4 4 4 r r t e r r r r r r r r r r r r r r r r r u u u e e 4 4 3 3 1 e m O.o.o.o.o.o.o.o.o.o.o.",
"' o.o.o.o.' ) o.o.' O.' o._ p < 1 3 3 1 3 3 < < 4 3 3 3 1 1 3 3 4 5 4 5 3 3 4 5 5 4 5 1 3 3 2 5 1 1 4 b ..o.O.O.O.o.p.o.o.o.o.o.",
") ) ) ) ) ) ) ) ) ) ) ) ) ) ) / p p < < < < < < < < < < < < < : < 1 < < < 1 1 1 2 2 2 3 3 < q 5 3 e R o.O.O.O.O.O.o.O.| O.| O.O.",
") ) ) ) ) ) ) ) ) ) ) ) ) ) ) ) ) ) ) / m t e < < < < < < < < ; 1 < < < 1 1 1 1 9 8 e e e u p m m ( X.O.o.O.O.O.O.O.O.O.O.O.O.O.",
") ) ) ) ) ) ) ) ) ) ) ) ) ) ) ) ..) ) ) ..) ) ) ) ) ) ) ..o.o.o.o.o.o.o.o.o.o.O.o.o.( +.O.] O.o.o.o.o.O.O.O.O.o.O.O.O.O.O.| O.O.",
") ) ) ) ) ) ) ) ) ) ) ) ) ) ) ) ) ) ) ) / ..) ) ) ) ) ) ) o.o.o.o.o.o.o.p.o.o.o.o.o.+.o.O.O.O.o.O.O.O.O.O.o.O.O.o.O.O.O.O.O.O.O.",
") ) ) ) ) ) ) ) ) ) ) ) ) ) ) ) ) ) ) ) ) ) ) ) ) ) ) ) ) ) o.o.o.o.o.o.o.o.o.p.( +.o.o.+.o.+.o.o.o.O.O.o.O.O.O.O.O.X.O.O.o.o.O.",
") ) ) ) ) ) ) ) ) ) ) ) ) ) ) ) ) ) ) ) ) ) ) ) ) ) ) ) ) o.o.o.o.o.o.o.o.o.o.o.+.o.o.+.o.o.o.o.p.o.O.O.O.O.O.o.O.O.o.O.X.X.O.O.",
") ) ) ) ) ) ) ) ) ) ) ) ) ) ) ) ) ) ) ) ) ) ) ) ) ) ) ) ) o.o.o.o.o.o.o.o.o.o.o.o.o.( +.+.o.o.p.O.o.O.o.o.o.o.o.o.O.X.o.O.O.X.o.",
") ) ) ) ) ) ) ) ) ) ) ) ) ) ) ) ) ) ) ) ) ) ) ) ) ) ) ) ) ) ) ) ) ( ) ) o._ o.o.o.o.o.o.o.o.o.O.o.o.O.O.X.O.O.X.X.O.O.o.X.o.X.O."
};
