/* XPM */
static char *result[] = {
/* columns rows colors chars-per-pixel */
"64 64 202 2 ",
"   c #010102",
".  c #060409",
"X  c #09050C",
"o  c #04090C",
"O  c #090B0E",
"+  c #150707",
"@  c #0E0713",
"#  c #050E12",
"$  c #0D0913",
"%  c #0F0F1C",
"&  c #110916",
"*  c #130A1A",
"=  c #190E1E",
"-  c #100717",
";  c #0A131C",
":  c #071519",
">  c #1B0E25",
",  c #140C21",
"<  c #0A1B22",
"1  c #0D1F2A",
"2  c #0E1624",
"3  c #191426",
"4  c #181E32",
"5  c #211227",
"6  c #25132D",
"7  c #2E1936",
"8  c #2C1637",
"9  c #331C3D",
"0  c #0A2A33",
"q  c #0D2E39",
"w  c #0B2631",
"e  c #172738",
"r  c #14323E",
"t  c #0B282F",
"y  c gray14",
"u  c #37194E",
"i  c #381B4F",
"p  c #371E42",
"a  c #3A1D52",
"s  c #3F1E59",
"d  c #1A2E43",
"f  c #0D3945",
"g  c #173748",
"h  c #153E50",
"j  c #3C2145",
"k  c #3D214B",
"l  c #3E2055",
"z  c #3F2158",
"x  c #411D5D",
"c  c #41244D",
"v  c #422255",
"b  c #44225B",
"n  c #48265D",
"m  c #4E2B5C",
"M  c #492856",
"N  c #502C5D",
"B  c #4A2562",
"V  c #4D2863",
"C  c #4C256B",
"Z  c #4E286D",
"A  c #522B64",
"S  c #552C6C",
"D  c #542B6C",
"F  c #5C326D",
"G  c #4E2570",
"H  c #5B2E73",
"J  c #562A79",
"K  c #5E3274",
"L  c #613474",
"P  c #64357B",
"I  c #68397C",
"U  c #0E424D",
"Y  c #14424E",
"T  c #0E4854",
"R  c #1B4558",
"E  c #154556",
"W  c #25485A",
"Q  c #184D61",
"!  c #125365",
"~  c #16566A",
"^  c #18596B",
"/  c #155E71",
"(  c #235163",
")  c #235C70",
"_  c #17677B",
"`  c #23677A",
"'  c #416F7E",
"]  c #C80000",
"[  c #D40102",
"{  c #DD0001",
"}  c #EF0001",
"|  c #5D2C83",
" . c #632D8F",
".. c #602F86",
"X. c #6A3782",
"o. c #6D3A82",
"O. c #65308F",
"+. c #663487",
"@. c #713C86",
"#. c #733D8A",
"$. c #662E94",
"%. c #692F96",
"&. c #662998",
"*. c #692E98",
"=. c #663191",
"-. c #693394",
";. c #6D3895",
":. c #6E3499",
">. c #6F3898",
",. c #71359B",
"<. c #743A9C",
"1. c #783D9E",
"2. c #763E93",
"3. c #7639A1",
"4. c #7B3DA2",
"5. c #7939A4",
"6. c #166C82",
"7. c #1B6E82",
"8. c #1B6F88",
"9. c #16758D",
"0. c #18768B",
"q. c #16798E",
"w. c #1A7488",
"e. c #177491",
"r. c #1A7593",
"t. c #177A91",
"y. c #1D7994",
"u. c #23758A",
"i. c #23798E",
"p. c #227B96",
"a. c #257C98",
"s. c #297E9A",
"d. c #307E9C",
"f. c #76418B",
"g. c #79428F",
"h. c #724085",
"j. c #7C4293",
"k. c #7B419A",
"l. c #467A8A",
"z. c #7E41A3",
"x. c #823FAA",
"c. c #83469B",
"v. c #844A99",
"b. c #8243A6",
"n. c #8B4CA3",
"m. c #8544AA",
"M. c #8846AD",
"N. c #8749AA",
"B. c #8B4AAD",
"V. c #854AA4",
"C. c #9251AD",
"Z. c #8E4BB1",
"A. c #8A47B2",
"S. c #924EB3",
"D. c #954DB9",
"F. c #9551B4",
"G. c #9A54BA",
"H. c #9A55B7",
"J. c #9051AD",
"K. c #A45BC2",
"L. c #A95FC4",
"P. c #018591",
"I. c #228097",
"U. c #2D819C",
"Y. c #2E8C9F",
"T. c #32849E",
"R. c #36899E",
"E. c #3686A0",
"W. c #3B86A2",
"Q. c #3C8AA3",
"!. c #378CA2",
"~. c #2F90A1",
"^. c #4C8699",
"/. c #438EA6",
"(. c #4C8DA8",
"). c #4690A7",
"_. c #4D91A6",
"`. c #4790A8",
"'. c #4B93AA",
"]. c #5395AC",
"[. c #5599AF",
"{. c #5B9AAF",
"}. c #5592A5",
"|. c #5C9DB2",
" X c #669AB3",
".X c #79A4BC",
"XX c #81A8BF",
"oX c #8AABC4",
"OX c #9BB3CA",
"+X c #94AFC7",
"@X c #AABAD1",
"#X c #B4BFD5",
"$X c #BBC2D9",
"%X c #B8C0D7",
"&X c #C2C6DC",
"*X c #C6C8DD",
"=X c #C9C9DE",
"-X c #CECBE1",
";X c #D2CDE3",
":X c #D6D0E4",
">X c #DBD2E6",
",X c white",
/* pixels */
" . . . . . . . .O.O.$.O.O.O. . .$.O.-.>.<.4.z.b.4.1.<.:.O.O. . . . .%.2.x.x.x.o.;.4.<.:.$. . . . . . . . . . . .$.$.$. .-.$.O.&.",
" . . . . . . .$.O.=.=.O.O.=.O.=.$.-.>.1.b.b.8 8 k.M.x.<.:.%.%. .O.%.%.c.x.n.K > p B.b.<.-.-.O. . . . . . . . . .O.$.-.O. .-.=.&.",
" . . . . . . .=.=.=.=.=.$.O. .=.=.;.<.b.B.k     - c.B.b.,.%.O.$.%.%.<.x.S.@.- . , c.N.z.>.%.O. . . . . . . . . .$.$.-.$.=.$.-.&.",
" . . . . . . .O.=. . .=.O.=.=.=.-.<.z.B.F     o   X L M.b.,.%.O.%.2.x.B.j.=       c F.m.<.:.O.$. . . . . . . . .-.O. .-.=.=.$.&.",
" . . . . . . .O. .=.O.$.O.=.=.=.;.3.N.F.$   T _ o   > N.m.1.:.-.:.3.M.n.6 . . 0 . X j.F.4.,.-.$. . . . . . . . .=.$.=.=.$.=.$.&.",
" . . . . . . .O.=.=.O.=.O.=.=.-.<.z.S.M   : 9.e.f   . L Z.4.,.-.,.4.Z.K X   t 9.:   * k.M.<.:.=.$. . . . . . . .=.=.%.$.=.=.-.&.",
" . . . . . . .$.=.O.-.$.=.=.=.:.4.B.C.$   T e.e.6..   M D.x.<.>.<.m.G.p   o / 9./ .   p B.b.:.-.$.O. . . . . . .=.$.=.=.=.=.$.&.",
"$.O.O.=.=.=.O. .$.| |  .$.=.-.<.b.S.F   . 6.e.e.r.:   & H.Z.x.1.b.B.K.&   0 e.e.t.e   . j.N.4.-.O.O.$.O.O.O.$.O.-.=.=.=.-.=.O.-.",
"=.O.O.O.=.O.O. .$.$. . .$.$.;.3.M.C.*   w 9.e.e.e.! .   j F.B.N.B.G.n..   / e.t.t.~ .   m J.z.<.-.=. .=.-.| =. .=.=.=.=.-.=.=.-.",
"O.O.O.O.=.=.=. .$.| $.$. .=.<.z.S.f..   / 9.e.e.e.t.Y   . I H.F.G.L.9   < t.e.e.e.6.*   * G.N.1.;.=.=.O.=.=.=.=.=.=.=.=.$.=.=.-.",
"=.=.=.O.=.O.=. .$.$. .| $.-.<.b.G.j   # 9.e.e.e.e.e.0.2   6 L.L.L.h..   T t.e.e.e.r.~     j.B.z.:.-.=.=.$.=.=.O.=.=.-.=.=.=.=.;.",
"=.O.=.O.=.=.=. .| $. .$.$.;.z.B.C.$   0 e.e.e.e.e.e.q.^ . X L H.h.X   < 8.e.e.e.e.e.t.<   6 F.b.<.-.=.$.=.=.=. .=.=.=.=.=.O.O.-.",
"=.=.=.=.=.=.O. . . .$.$.-.<.b.D.j..   ~ e.e.e.e.e.e.e.9.2   . . .   # 6.t.e.e.e.e.e.e.!   o C.m.<.;.-.=.O.=. .=.=.=.=.=.=.=.=.;.",
"=.=.=.=.=.=.=.O. . . .=.;.3.B.G.8   : t.e.e.e.e.e.e.e.9.! X       . T q.e.e.e.e.e.e.9.0.#   F N.4.-.=.=.=.=.=.=.=.=.=.O.=.-.O.;.",
"O.O.O.O.O.O.O.=.O.=.=.;.1.V.F.n..   ! y.e.e.e.e.e.e.e.e.0.^ Q g r R q.t.e.e.e.e.e.e.e.t.f   9 S.4.<.-.=.=.O.$.=.=.=.=.$.=.=.O.=.",
"O.O.O.O.O.O.O.=.=.=.-.<.z.B.F.j   . 9.T.e.r.e.e.e.e.e.e.t.q.I.t.q.t.t.e.e.e.e.e.e.r.e.t._   = F.m.<.;.-.=.O. .=.$.=.=.=.$.$.=.-.",
"O.O.O.O.O.O.O.=.=.-.>.z.z.G.@.X   ; p.OX}.r.r.r.r.r.r.r.r.r.e.e.e.e.r.e.r.r.e.r.r.r.r.t.w.. O g.Z.z.<.-.-.O.O.O.-.$.=.$.O.$.=.=.",
"O.O.O.O. .O.O.=.=.>.k.z.H.k.3   . ! OX>X:XW.r.p.p.r.r.r.r.r.e.r.e.r.e.r.r.r.r.y.y.r.r.q.0..   9 G.B.z.>.-.O.$.O.O. .=.=.=.=.$.-.",
"O.O.O.O.O.O.=.=.-.<.z.Z.J.6     1 (.>X>XOXT.p.a.a.s.a.p.p.r.r.r.r.r.r.r.y.a.a.a.s.p.p.r.t.3 .   I G.b.1.;.-.-.O.=.$.=.O.=.O.=.-.",
"O.O.O.O.O.O.=.-.>.k.N.F.A o   ; 8.;X>XOXd.a.U.U.E.E.R.T.s.p.p.r.r.r.p.p.s.s.T.E.T.U.U.a.p.W %   X v.F.z.<.:.-.O.=.=.=.$. .$.$.-.",
"=. .O.O.=.=.=.;.<.b.F.f.    $ ^ oX>X:XW.p.s.E.Y./.)./.Q.R.s.a.p.p.p.a.s.E.!./././.Q.R.a.p.i.W     * H.B.z.>.-.O.=.=.=.=.=. .=.=.",
" . . . .O.=.$.;.1.B.F.$     h p.>X&X(.p.s.R.!.      [.'./.R.T.s.a.s.E.E./.'.].    /.Q.T.a.y.u.3   . c F.b.<.:.O.&. .&. .$.$.&.&.",
" . . . . .=.-.<.b.F.M     # 6.Q.>X}.r.p.s.!.Y.: ] ]     }.`.Q.!.R.E.Q.`.}.    ] ]   /.E.s.y.r.` o   @ H.B.1.,.-.&. .$.&. .&.$.&.",
" . . . .=.$.-.z.N.n..   . Q e.y.d.r.r.p.U.!.~.  ] ]     ^.|.'.)./.'.'.[.^.    ] {   ].Q.U.p.r.e.E   . v.G.m.<.-.*.*. .&.$.$.$.&.",
"=. . .=.=.-.,.z.C.8   . d w.e.e.e.r.r.a.T.!.].  ] ] ] ]     |.[.].[.|.    [ { ] ]   ].Q.T.a.y.r.t.:   $ K.B.4.;.*.$.=.&. .&.=.&.",
" . . . .=.-.<.m.f..   , E e.e.e.e.e.r.a.T./.[.  ] ] ] ] ]     l.|.l.  $ ] ] ] ] ]   [.).E.I.p.r.e.f   o C.G.b.<.*.*.&.$.&. .&.&.",
" . . .=.$.-.1.N.k   X 4 9.e.e.e.r.r.p.s.R.`.[.{.    ] ] ]       |.  + ] { ] ]     {.{.'.Q.U.p.r.r._ # o - F.A.z.,.*.&.$. .&. .&.",
"O. . .O.$.;.z.b.&   - / e.e.e.e.r.r.a.s.!.`.}.{.{.  O O ] } ]   |.. ] ] ]   o l.|.|.}.'./.T.p.r.e.e.q   $ F G.N.3.:.*.=.&.=.&.&.",
"=.=.+.=.;.k.V.m . . e 8.e.e.e.e.e.r.a.s./.l.  ' |.].P.  ] ]   }.|.}.  ] ]   l.}.|.      `.E.s.y.r.e._ o . $ H.J.5.,.*.*.*.$.&.&.",
"=.=.;.=.=.k.V.4 . & E e.e.e.e.e.r.p.a.E./.      |.|.|.        |.|.|.      {. X|.|.  ,X  '.Q.s.y.r.e.q.U .   j H.A.5.:.*.*.&.$.&.",
"=.=.;.;.;.>.z.3 @ 3 Q e.e.e.e.e.r.y.s.E./.    ,X  {.|.|.|.|.|.|.|.|.|.|.|.|.|.|.  ,X,X  '.Q.U.y.e.e.t.t.Y   o J.A.5.:.*.*.$.$.&.",
";.+.+.=.;.k.z.w . 3 / e.e.e.e.e.r.r.a.E.`.].  ,X,X      |.|.|.|.|.|.|.|.|.|.{.  ,X  ,X  '.E.U.y.e.e.e.t.t.#   b D.z.3.*.&.$.&.&.",
"-.+.+.-.>.k.N.7 . % / r.r.e.e.e.r.r.p.E./.].  ,X,X  ,X  |.|.|.|.|.|.|.|.|.    ,X,X    [.`.E.s.r.r.s. XT.I.<   & G.A.5.*.*.&.*.&.",
"-.-.-.-.;.k.N.A   X Q r.e.e.e.e.r.r.p.U.!.'.    ,X  ,X                    ,X  ,X,X    ]./.U.a.r.r. X-XXXt.r   O F.A.5.:.*.&.*.&.",
"+.;.=.;.;.1.N.v..   h p.e.p.e.e.e.r.r.s.R.`.|.      ,X,X,X  ,X,X,X,X,Xy ,X,X  ,X    |.'.!.s.p.r.p.oX;X#XY.R   X c.A.5.*.*.*.&.&.",
"O.O. .=.-.<.m.F.&   2 (.d.a.e.e.e.e.r.a.d.E.'.}.    ,X,X,X  ,X,X,X,X,X  ,X,X        ]./.T.a.r.r.p.*X:X:XoXW . . @.S.x.3.-.*.$.$.",
" .O.O.O.-.>.b.S.6   # ^.$X%XT.e.e.e.r.y.s.T.`.[.      ,X    ,X,X,X,X    ,X        |.'.!.d.p.r.e.r.&X:X>XOX(   . 2.Z.4.:.*.*.$.*.",
"O. . .O.$.>.x.C.F   . 7.T.%X#Xp.e.e.r.r.p.U.Q.'.|.            ,X,X          ,X    |.`.T.a.p.r.e.e.@X:X;X{.W . X F.D.4.3.-.*.$.$.",
"O.O.O.O.-.>.4.B.n..   r t.oX;X.Xe.e.e.r.p.s.!.`.{.  ,X          ,X          ,X,X  '.W.d.p.r.e.e.e.OX>X-Xp.e   + K.Z.4.,.*.*.*.$.",
" . .O. .O.:.<.m.V.@   o _ /.=X%Xr.e.e.r.r.p.T.Q.[.  ,X,X  ,X      ,X    ,X  ,X  |.`.W.a.p.r.e.e.e.$X>X#X_ O   * K.A.5.:.-.$.$.*.",
"O. . .=.=.;.>.z.c.8 .   q r.@X;X.Xe.e.e.e.p.s.W.'.    ,X  ,X,X  ,X,X  ,X,X  ,X  './.U.a.r.r.e.e. X:X>XXXY   X 6 G.A.5.:.*.$.%.$.",
" .O.=. . .=.;.z.#.@.-   O _ ).*X-X(.e.e.e.p.s.E./.[.  ,X  ,X,X  ,X,X  ,X,X,X  [.`.R.s.p.r.e.e./.=X>X;X/.3   - i S.x.<.:.%.&.$.%.",
"=.=.=.=.=.-.;.<.X.c.L X   1 0..X-X&X(.e.r.r.p.d.Q.'.    ,X,X,X  ,X,X  ,X,X  |.'.Q.s.p.r.r.e.s.&X>X>XoX) O   , L m.x.,.:.-.$.%.-.",
"=.O. .=.=.=.;.>.P X.c.p     q i..X-X.Xe.r.r.p.a.T.Q.'.[.                    '.Q.E.a.p.r.e.d.*X>X:X+Xi.;   & 6 c.b.4.,.%.*.$.$.-.",
"=.=.=.=.=.=.=.;.+.K #.c.*   . q 7.R.U.e.e.e.r.p.U.T.!./.'.[.].].].[.[.].'.).!.T.s.p.r.r.e./.-X-X.X_ 2   X * A 2.z.3.;.*.*.$.*.-.",
"=.=.=.=.=.=.=.-.:.A P 2.@.-     # q _ q.r.t.y.y.y.U.U.R.!.Q.Q./.Q././.R.Q.R.U.U.p.r.r.r.e.e.T.u.0 o     * 8 2.X.4.,.*.-.$.-.$.-.",
"=.=. .=.=.=.=.-.-.n D P j.F -       X g _ w.t.t.I.y.p.a.s.U.T.T.T.T.U.T.U.a.a.p.r.r.r.t.r.6.f #   . $ * 8 o.#.K 3.:.*.*.$.*.*.-.",
"=.=.=.=.=.=.=.=.%.B B D P v.m = . .     X 2 h ^ _ w.t.I.p.I.I.I.I.I.p.p.i.u.` ) ( W R g ; .     . * > c j.;.K G ,.*.-.*.$.-.$.$.",
"=.=.=.=.=.=.=.=.=...z B J o.g.K 3 2 @         . % e d E R ~ ( ^ ( W d d e 4 3 > = & .       . - A M #.2.X.H Z D :.*.-.%.%.%.%.-.",
"=.=.=.=.=.=.=.-.-.;.| z V Z I f.h.F K k * X .     . . . X % * , - & = & - $ @ X .     . * A V.n.c.#.o.P S m b J O.$.O.$. .O.O. .",
"=.=.=.=.=.-.=.-.-.-.-.Z z V Z K I h.g.j.v.n.g.j & .                       . . . & 6 m g.v.f.#.X.P L D A M x x +.-.O.$.O.=.=.O.O.",
"=.=.=.=.=.=.=.=.-.=.-.=.z z z V S K K I X.@.f.g.v.v.@.N j 6 5 = = = = 5 5 7 p A I @.X.P P K H S A V x x x x G -.O.O.O.O.O. .=.O.",
"=.=.;.+.=.=.=.;.-.-.=.-...z l z z n V V S S S K L P I o.#.f.f.j.j.j.g.#.@.X.P K H D D A B B B b x x a a a x O.O.$.=.O.O.=.O.O.O.",
"=.=.=.=.=.=.=.=.=.-.-.-.;.J l l l l z z z z B n V A D S S K K K K K K H S D V V n n b x z z a a i i i a x ..O.O.O.O.O.$.$.O.=.O.",
"=.;.=.=.=.-.=.=.-.-.-.=.-.=.Z k i i l l l l z z x v M M n n V V V V n B B b v v x a a a a i a u i i i B ..O.O.O.O.O.O.=.O.$. .O.",
"=.=.=.=.=.=.=.;.-.-.=.-.-.=.=.J l i i i k l i k i x i l l l l l l l v l v a a a i a i i a a u u Z B ..$.O.$.O.-.O.=.=.O.O.=.=.O.",
"-.=.*.=.-.-.-.-.-.=.-.-.-.-.-.-...) J C z a l k a i i i i i i a i i a u u u u u u u u u x G | &. . . . . . . . . . . . . . . .$.",
"*.-.-.-.-.-.-.-.-.-.=.-.-.=.=.-.+.;.;.-.=.=.=.J Z z l l l u a a i i u u a x G | &. .| &. .&. . . . . . . . . . . . . . . . .$.| ",
"-.-.*.-.*.=.-.-.-.-.-.-.=.=.=.;.+.=.=.;.-.+.-.+.=.+.=...| | J G C C C G | |  . . . . . . . . . . . . . . . . . . . . . .$.$.$.| ",
"-.-.=.-.-.-.-.-.-.=.-.-.;.=.;.=.;.=.;.=.-.-.=.;.=.=.=.=. . .O.O.=.=.=.$. . . . . . . . . . . . . . . . . . . . . . . . .| | $.&.",
"-.-.-.-.-.-.*.=.-.-.-.-.=.f.-.-.+.;.+.=.;.=.;.=.=.=.;.+.=.=.=.=.=.=.$. . . . . . . . . . . . . . . . . . . . . . . . . .$.| $.$.",
"-.-.=.*.=.*.=.-.-.=.-.=.=.=.=.-.;.=.=.;.=.=.+.=.;.=.;.=.=.=.=.=.=. .=. . . . . . . . . . . . . . . . . . . . . . . . . .$.$.$.| ",
"*.-.-.-.-.-.-.-.=.-.-.-.=.=.;.=.=.;.=.;.=.;.=.=.=.=.+.=.=.=.=.=. .=. . . . .&.|  . . . . . . . . . . . . . . . . . . . . . .$. .",
"=.-.=.*.-.=.-.=.-.-.-.-.-.=.;.=.;.=.=.=.=... ...=.=.=.=.|  . . . . . . . . . .&. . . . . . . . . . . . . . . . . . . . . . . . ."
};
