/* XPM */
static char *result[] = {
/* columns rows colors chars-per-pixel */
"64 64 200 2 ",
"   c #020103",
".  c #060409",
"X  c #09050C",
"o  c #04090C",
"O  c #090B0E",
"+  c #0D0713",
"@  c #050E12",
"#  c #0C0A14",
"$  c #0F0D1A",
"%  c #110916",
"&  c #130A1A",
"*  c #190E1E",
"=  c #100717",
"-  c #07151A",
";  c #0A131C",
":  c #150C21",
">  c #1C0E25",
",  c #0A1B22",
"<  c #0D1F2A",
"1  c #0E1624",
"2  c #1B1022",
"3  c #161728",
"4  c #151E33",
"5  c #211227",
"6  c #25132D",
"7  c #291533",
"8  c #2E1936",
"9  c #2F173A",
"0  c #2F183B",
"q  c #331C3D",
"w  c #102027",
"e  c #0A2A33",
"r  c #0D2E39",
"t  c #0B2631",
"y  c #162738",
"u  c #14323E",
"i  c #082C34",
"p  c #361D41",
"a  c #37194E",
"s  c #381B4F",
"d  c #3A1F45",
"f  c #3A1D52",
"g  c #3F1E59",
"h  c #0D3945",
"j  c #163647",
"k  c #153E52",
"l  c #152D42",
"z  c #3C2145",
"x  c #3D214B",
"c  c #3E2055",
"v  c #3F2158",
"b  c #411D5D",
"n  c #41244D",
"m  c #422255",
"M  c #44225B",
"N  c #48265D",
"B  c #4E2B5C",
"V  c #492856",
"C  c #502C5D",
"Z  c #4A2562",
"A  c #4D2863",
"S  c #4C256B",
"D  c #4E286D",
"F  c #522B64",
"G  c #51276C",
"H  c #552C6C",
"J  c #582F6C",
"K  c #5C326D",
"L  c #4E2570",
"P  c #5B2E73",
"I  c #562A7A",
"U  c #562A79",
"Y  c #5E3274",
"T  c #613474",
"R  c #64357B",
"E  c #68397C",
"W  c #0E424D",
"Q  c #14424E",
"!  c #0E4854",
"~  c #154253",
"^  c #1C475A",
"/  c #174858",
"(  c #254759",
")  c #174D61",
"_  c #1C4E61",
"`  c #135365",
"'  c #16566A",
"]  c #135A6C",
"[  c #1D576A",
"{  c #155E71",
"}  c #234E62",
"|  c #255060",
" . c #1B6479",
".. c #16697C",
"X. c #17677A",
"o. c #206477",
"O. c #5D2C83",
"+. c #632D8F",
"@. c #602F86",
"#. c #623285",
"$. c #6A3782",
"%. c #6D3A82",
"&. c #65308F",
"*. c #6B378B",
"=. c #713C86",
"-. c #733D8A",
";. c #662E94",
":. c #692F96",
">. c #662998",
",. c #692E98",
"<. c #663191",
"1. c #693394",
"2. c #6D3895",
"3. c #6E3499",
"4. c #6F3898",
"5. c #71359B",
"6. c #743A9C",
"7. c #783D9E",
"8. c #763E93",
"9. c #7639A1",
"0. c #7B3DA2",
"q. c #7939A4",
"w. c #166C82",
"e. c #1B6E82",
"r. c #1B6F88",
"t. c #167185",
"y. c #1A7287",
"u. c #16768C",
"i. c #1A748A",
"p. c #16798E",
"a. c #1D798E",
"s. c #167391",
"d. c #1B7693",
"f. c #167A91",
"g. c #1B7A93",
"h. c #24748C",
"j. c #237B95",
"k. c #2D7E9B",
"l. c #267A98",
"z. c #307E9C",
"x. c #76418B",
"c. c #79428F",
"v. c #724085",
"b. c #7C4293",
"n. c #7B419A",
"m. c #7E41A3",
"M. c #823FAA",
"N. c #824B94",
"B. c #83469B",
"V. c #894A9F",
"C. c #834899",
"Z. c #8243A6",
"A. c #854AA4",
"S. c #8B4CA3",
"D. c #8544AA",
"F. c #8846AD",
"G. c #8749AA",
"H. c #8B4AAD",
"J. c #904EAF",
"K. c #8F53AA",
"L. c #9251AD",
"P. c #8E4BB1",
"I. c #8A47B2",
"U. c #924EB3",
"Y. c #954DB9",
"T. c #9551B4",
"R. c #9853B6",
"E. c #9C58B6",
"W. c #9A54BA",
"Q. c #9B54BB",
"!. c #A45BC2",
"~. c #A95FC4",
"^. c #2C849B",
"/. c #33829D",
"(. c #36899E",
"). c #3F85A3",
"_. c #47869C",
"`. c #448BA4",
"'. c #4C8DA8",
"]. c #5793AC",
"[. c #669AB3",
"{. c #79A2BB",
"}. c #7EA8BE",
"|. c #75A2BA",
" X c #81A8BF",
".X c #8BACC4",
"XX c #85A8C1",
"oX c #9AB2CA",
"OX c #94AFC7",
"+X c #AABAD1",
"@X c #B4BFD5",
"#X c #BBC2D9",
"$X c #B8C0D7",
"%X c #C2C6DC",
"&X c #C6C8DD",
"*X c #C9C9DE",
"=X c #CECBE1",
"-X c #D3CEE3",
";X c #D7D0E5",
":X c #DBD1E6",
/* pixels */
"+.+.+.+.+.+.+.+.&.&.;.&.&.&.+.+.<.<.1.2.6.0.m.Z.m.0.5.2.:.&.&.+.+.;.:.8.6.M.Z.=.2.m.6.2.;.;.+.+.+.+.+.+.+.+.+.+.+.;.&.1.;.;.<.>.",
"+.+.+.+.+.+.+.;.&.<.<.&.&.<.&.<.<.1.3.7.Z.Z.0 6 n.F.M.6.1.:.;.+.&.:.:.B.M.J.Y > p F.m.6.1.;.+.+.+.+.+.+.+.+.+.+.<.;.;.<.&.1.;.>.",
"+.+.+.+.+.+.+.<.<.<.<.<.;.&.+.<.1.3.6.Z.H.x     = B.H.Z.5.1.;.<.:.:.6.M.U.-.= . * B.F.m.4.1.;.<.+.+.+.+.+.+.+.+.;.<.;.;.1.&.&.>.",
"+.+.+.+.+.+.+.&.<.+.+.<.&.<.<.<.1.4.m.P.K     .   + Y F.Z.5.:.<.:.8.M.H.b.&       n T.D.6.1.;.<.+.+.+.+.+.+.+.+.<.;.&.1.;.;.1.>.",
"+.+.+.+.+.+.+.&.+.<.&.;.&.<.<.<.4.0.D.L.#   ! ..o   > H.D.6.:.:.3.9.F.S.6   o e . X b.P.Z.5.1.;.;.+.+.+.+.+.+.+.;.<.<.;.<.1.;.>.",
"+.+.+.+.+.+.+.&.<.<.&.<.&.<.<.1.6.m.T.V   - u.s.h   . T U.0.6.1.5.0.P.Y X   t u.;   & C.D.6.1.;.+.+.+.+.+.+.+.+.<.<.;.1.;.&.&.>.",
"+.+.+.+.+.+.+.;.<.&.1.;.<.<.<.3.0.G.L.#   W s.s...    V Y.D.6.5.6.D.W.p   . ] u.] .   q H.M.6.1.;.<.+.+.+.+.+.+.<.;.<.<.;.1.1.>.",
";.&.&.<.<.<.&.+.;.O.O.+.;.<.1.6.m.T.K   . ..s.s.u.-   % R.H.M.7.m.P.!.%   e f.s.p.r   . b.H.7.1.;.&.<.<.<.+.<.<.<.1.<.<.&.&.&.1.",
"<.&.&.&.<.<.<.+.;.;.+.+.;.;.2.9.G.L.&   t u.s.s.s.`     z T.H.D.H.W.S..   ] f.s.f.' X   V T.m.6.1.<.&.&.;.<.;.<.<.<.1.;.&.<.<.1.",
"<.<.&.&.&.<.&.+.;.O.;.;.+.<.6.m.U.x.    { s.s.s.s.p.~ . . %.R.T.Q.~.q   , f.s.s.s.w.&   & R.G.6.1.<.<.;.&.<.<.1.<.<.<.<.<.<.&.2.",
"&.<.&.&.<.<.<.+.;.;.+.O.;.1.6.Z.W.d   @ u.s.s.s.s.s.u.;   6 ~.~.~.v.    ! f.u.d.s.s.'     b.P.0.4.1.<.<.+.<.<.O.<.<.<.<.<.<.<.1.",
"&.<.&.<.<.&.&.+.O.;.+.;.;.2.m.H.L.+   e s.s.s.s.s.s.p.' . . T E.v.X   , i.s.s.s.s.s.p.,   6 T.Z.6.1.<.&.<.<.<.<.<.1.<.<.<.&.&.2.",
"<.<.<.<.<.&.<.+.+.+.+.;.1.6.Z.Y.C.    ] s.s.s.s.s.s.s.u.,     . o   O t.s.s.s.s.s.s.u.'   . L.G.6.1.1.<.&.&.<.<.<.<.<.<.<.<.<.2.",
"<.&.<.<.<.<.<.+.+.+.<.<.2.9.H.Q.6   - f.s.s.s.s.s.s.s.u.` o         ! f.s.s.s.s.f.s.u.p.@   K F.0.2.<.<.&.;.&.+.<.<.<.<.<.<.<.1.",
"&.&.&.&.&.&.&.<.<.<.1.2.6.A.T.S..   ` g.s.s.s.s.s.s.f.s.u.' _ j u ^ p.f.s.s.s.s.s.s.s.f.h   q U.m.6.1.1.<.<.<.&.;.<.<.<.<.<.<.1.",
"&.&.&.&.&.&.&.&.<.1.1.6.m.H.T.z   X u./.s.d.s.s.s.s.s.s.p.p.^.p.p.f.p.s.s.s.s.s.s.s.s.f.X.  * L.Z.6.3.<.<.+.<.<.;.<.&.;.<.;.<.1.",
"&.&.&.<.+.&.&.<.<.1.4.m.m.Q.v.X   - j.oX].s.s.s.s.s.s.s.s.s.s.d.s.s.s.s.s.s.s.s.s.s.s.f.t.. X c.P.m.6.1.1.<.<.<.<.+.&.1.+.;.&.1.",
"&.&.&.&.&.&.<.<.<.4.n.m.R.n.2     ` oX:X-X).s.s.s.s.s.s.s.s.s.s.s.s.s.s.s.s.s.s.s.s.s.f.u.X   q Q.G.m.4.1.<.<.<.<.<.&.;.<.<.;.1.",
"&.&.&.&.&.&.<.<.4.4.m.H.K.6     < '.:X:XoXl.s.s.s.s.s.s.s.s.s.s.s.s.s.s.s.s.s.s.s.s.s.s.u.2     %.R.Z.0.4.1.<.<.<.+.;.+.<.&.<.<.",
"&.&.&.&.&.&.<.1.4.n.G.R.J     - r.-X:XoXl.s.s.s.s.s.s.s.s.s.d.s.s.s.s.s.s.s.s.s.s.s.s.s.p.( &   o C.T.m.6.2.;.<.;.<.<.<.<.;.;.1.",
"&.<.<.<.&.<.<.1.6.m.T.x.    # ] .X:X:Xz.s.s.s.s.s.s.s.s.s.s.d.f.s.s.s.s.s.s.s.s.s.s.s.s.s.u.k     % R.H.m.2.1.1.;.+.;.+.<.&.<.1.",
"+.+.+.+.&.<.<.4.m.F.T.#     k g.:X%X'.s.s.s.s.s.u.d.s.s.s.s.s.s.s.s.s.s.s.s.s.s.s.s.s.s.s.s.i.3   o n T.D.6.1.1.;.;.;.;.>.;.;.>.",
"+.+.+.+.<.<.1.6.Z.T.V     @ w.).:X'.s.s.s.s.s.s.s.s.d.s.d.s.s.s.s.s.s.s.s.s.s.s.s.s.s.s.s.s.s.{ X   + !.H.0.2.;.;.;.+.>.;.>.;.>.",
"+.+.+.+.+.<.1.m.F.S.    o / f.j.z.d.s.s.s.d.s.s.s.s.s.s.s.s.s.s.s.s.s.s.s.s.s.s.s.s.s.s.s.s.s.s.Q     N.R.D.6.:.>.;.;.>.+.;.;.>.",
"+.+.+.+.<.1.3.m.J.7   o y i.s.s.s.s.s.s.s.s.s.s.s.s.s.s.s.s.s.d.s.s.s.s.s.s.s.s.s.s.s.s.s.s.s.s.p.-   # !.F.m.3.:.;.;.;.;.;.;.>.",
"+.+.+.+.<.1.6.Z.c..   : ) s.s.s.s.s.s.s.s.s.s.s.s.s.s.s.d.s.s.s.s.s.s.s.s.s.s.s.s.s.s.s.s.s.s.s.s.h   o L.W.Z.6.3.>.>.;.;.;.>.>.",
"<.<.<.+.<.3.n.H.z   X 4 i.s.s.s.s.s.s.s.s.s.s.s.s.r.s.s.s.s.s.s.s.s.s.s.s.s.s.s.s.s.s.s.s.s.s.s.s...@ o % T.P.m.3.3.>.;.;.+.>.>.",
"<.+.+.<.<.3.m.m.%   = { s.s.s.s.s.s.s.s.s.s.s.s.s.d.s.s.s.s.s.s.s.s.s.s.s.s.s.s.s.s.s.s.s.s.s.s.s.u.r   # K R.Z.9.3.;.;.>.>.+.>.",
"<.<.2.<.2.c.A.A   X y t.s.s.s.s.s.s.s.s.s.s.s.s.s.s.s.s.s.s.s.s.s.s.s.s.s.s.s.s.s.s.s.s.s.s.s.s.s.s.X.o   # E.U.q.5.,.,.;.>.>.>.",
"<.<.<.#.1.n.G.> X % / s.s.d.s.s.s.s.s.s.s.s.s.s.s.s.s.s.s.s.s.s.s.s.s.s.s.s.s.s.s.s.s.s.s.s.s.s.s.s.u.W     z E.I.q.3.,.>.;.<.>.",
"<.*.<.2.2.n.m.1 X 3 / s.s.s.s.s.s.s.s.s.s.s.s.s.s.s.s.s.s.s.s.s.s.s.s.s.s.s.s.s.s.s.s.s.s.s.s.s.s.s.s.f.~     K.I.q.5.,.,.>.>.>.",
"<.<.2.<.2.n.m.t X 3 { d.s.s.s.s.s.s.s.s.s.s.s.s.s.s.s.s.s.s.s.s.s.s.s.s.s.s.s.s.s.s.s.s.s.s.s.s.s.s.f.f.f.@   v Y.I.5.,.,.<.>.>.",
"2.<.*.2.2.6.G.8   ; { d.d.s.s.s.s.s.s.s.s.s.s.s.s.s.s.s.s.s.s.s.s.s.s.s.s.s.s.s.s.s.s.s.s.s.s.s.s.z.[.z.^.,   % Q.F.q.,.,.>.>.>.",
"*.<.&.1.2.n.H.C   # ^ d.d.d.s.s.s.s.s.s.s.s.s.s.s.s.s.s.s.s.s.s.s.s.s.s.s.s.s.s.s.s.s.s.s.s.s.s.s.].-X{.p.u   o Y.I.q.5.,.>.>.>.",
"<.<.&.1.2.n.G.V..   k j.s.d.s.s.s.s.s.s.s.s.s.s.s.s.s.s.s.s.s.s.s.s.s.s.s.s.s.s.s.s.s.s.s.s.s.s.d.XX-X@X^.(   X B.I.q.3.:.:.;.>.",
"&.&.;.<.1.6.D.R.%   < `./.l.s.s.s.s.s.s.s.s.s.s.s.s.s.s.f.s.s.s.s.s.s.s.s.s.s.s.s.s.s.s.s.s.s.s.l.=X;X;X.X|   . =.U.M.5.3.>.1.:.",
"&.&.+.+.1.5.Z.U.6   # _.%X$X^.d.s.s.s.s.s.s.s.s.s.s.s.s.s.s.s.s.f.s.s.s.s.s.s.s.s.s.s.s.s.s.s.s.s.%X;X:XoX} . X n.I.0.5.>.>.1.>.",
"&.&.+.&.1.4.Z.J.J   o  ./.$X$Xd.s.s.s.s.s.s.s.s.s.s.s.s.s.s.s.d.d.s.s.d.s.s.s.s.s.s.s.s.s.s.s.s.s.+X;X-X].(   X T.Y.m.5.3.1.;.1.",
"&.<.+.<.;.4.0.H.S.    u p..X-X|.s.s.s.s.s.s.s.s.s.s.s.s.s.s.s.s.s.s.s.s.d.s.s.s.s.s.s.s.s.s.s.s.s.oX:X-Xl.y   X !.I.0.3.:.>.>.1.",
"&.+.+.&.1.1.6.D.S.+   o ..`.*X$Xs.s.s.s.s.s.s.s.s.s.s.s.s.s.s.s.s.s.s.f.s.s.s.s.s.s.s.s.s.s.s.s.d.@X:X@Xe.O   % !.P.0.5.:.;.1.>.",
"&.&.<.+.<.1.n.m.B.7     r g.+X;X[.s.s.s.s.s.s.s.s.s.s.s.s.s.s.s.d.s.s.s.s.s.s.s.s.s.s.s.s.s.s.s.[.;X:X}.k   + 6 W.I.9.3.,.,.;.,.",
"&.&.@.&.+.<.1.m.-.=.=   o  .`.&X-Xz.s.s.s.s.s.s.s.s.s.s.s.s.s.s.u.s.s.d.s.s.s.s.s.d.s.s.s.s.s.`.*X:X;X`.w   = d P.M.9.3.;.;.;.;.",
"+.<.<.<.1.1.2.m.$.C.T .   < i.|.;X%X'.s.s.s.s.s.s.s.s.s.s.s.s.s.s.s.s.s.s.s.s.s.s.s.s.s.s.s.k.%X:X:X.X| .   : Y D.M.5.3.3.;.,.1.",
"+.<.<.<.<.<.1.1.#.=.B.p     r j.XX&X{.s.s.s.s.s.s.s.s.s.s.s.s.s.s.s.s.s.s.s.s.s.s.s.s.s.s.z.%X:X:X.Xh.;   % 6 B.Z.0.5.1.;.;.;.1.",
"<.<.<.<.<.<.<.1.*.P -.B.%     y e.(.^.s.s.s.s.s.s.s.s.s.s.s.s.s.s.s.s.s.s.s.s.s.s.s.s.s.s.).=X-X}...,   X & F 8.m.9.3.1.;.>.1.1.",
"<.<.<.<.<.<.<.1.1.F R 8.=.+     # r w.f.s.s.d.s.s.s.s.s.s.s.s.s.s.s.s.s.s.s.s.s.s.s.s.s.s.d.z.h.r o   . % 0 b.$.m.5.3.:.:.1.>.1.",
"<.<.<.<.<.<.<.1.1.Z H E b.T =       o l  .y.s.f.f.f.s.s.s.s.s.s.s.s.s.s.s.s.s.s.s.s.s.f.f.w.h @     X % 8 =.*.Y 9.3.:.:.>.1.1.1.",
"<.<.<.<.<.<.<.<.;.Z Z H $.b.C & o       X 1 k ' ..t.u.f.f.f.s.f.u.s.p.u.i.w. .[ } ( ^ j - .     X & * m n.*.Y L 3.,.:.:.<.1.>.;.",
"<.<.<.<.<.<.<.<.<.@.v Z D #.c.T < : #         X & y u k ~ ` [ _ } k j y 4 3 3 : & + .       . $ F M -.8.%.P G G 5.,.,.;.1.;.1.1.",
"<.<.<.<.<.<.<.2.2.<.O.v D J $.x.v.K Y z & o       .   . + # % $ = % & % & + + .       . % F V.S.C.-.=.R H A M I 1.;.<.&.;.&.;.+.",
"<.<.<.<.<.<.<.<.<.1.1.D v A D T %.v.c.n.V.S.x.z % X                           X & 6 B b.C.-.=.$.R Y H A V b b &.&.;.&.<.&.;.&.&.",
"<.<.<.<.<.<.<.2.<.1.1.<.v v v B D K T E E =.x.c.C.b.=.C z 6 2 * * * & 5 5 8 d F E -.$.R R Y P H F N N b b f G 1.&.&.&.&.&.<.&.&.",
"<.<.<.<.<.2.<.2.1.<.1.1.@.v v v v B A A D J K T T E $.=.v.x.c.b.c.8.c.-.=.$.R Y P H H F Z Z Z v b b f f f b @.1.;.<.&.&.&.<.;.&.",
"2.<.<.<.<.<.<.<.1.1.1.1.1.I c c f c v v v N N v A F F J H Y Y Y T T T P H G A A N N M b g v c f f d f f b O.&.1.&.&.<.&.<.&.&.&.",
"<.<.<.<.<.<.<.<.1.<.<.1.1.<.D c f x f f c c c c M M M M N N Z B A N A N N N m b m f s f f f a a f a a Z @.1.&.&.&.&.<.;.&.;.&.&.",
"<.<.<.<.<.<.2.<.<.1.1.1.1.1.<.D f f f f x f f f f f f c c c c v m m c b m f f f f f s s f a a a S S @.+.1.+.&.&.&.<.&.&.&.<.&.&.",
"1.1.,.1.,.1.1.1.1.1.1.1.1.1.x.<.#.} O.S v c f f s s s s s s a a s s f a a a a a a a a a b I O.>.+.+.+.+.+.+.+.+.O.;.+.+.+.+.+.+.",
"1.1.<.1.<.1.<.1.1.1.<.1.<.1.<.<.<.<.2.1.<.<.#.O.D v c c f a c c s s a a f b L O.+.+.+.+.+.>.+.+.+.+.+.+.>.+.+.+.+.+.+.+.+.+.+.+.",
";.1.1.1.1.1.1.1.1.1.1.1.1.1.2.<.<.2.2.2.2.*.<.*.<.<.&.@.O.O.I L S S S L O.O.+.+.+.+.+.+.+.+.+.+.+.+.+.+.O.>.+.+.+.+.+.+.+.+.+.+.",
";.1.,.1.1.1.1.1.<.1.<.1.1.<.2.<.<.2.#.#.<.<.<.<.<.<.<.<.<.<.&.&.<.<.<.;.+.+.+.+.+.+.+.+.+.+.+.+.+.+.+.+.+.+.+.+.+.+.+.+.+.+.+.+.",
"1.<.,.1.1.;.;.1.<.1.1.1.1.<.<.2.2.<.<.2.<.<.<.#.<.2.#.2.+.<.<.&.&.<.;.+.+.+.+.+.+.+.+.+.+.+.+.+.+.+.+.+.+.+.+.+.+.+.+.+.+.+.+.+.",
"1.1.1.1.1.1.1.1.1.1.1.1.1.1.2.<.<.<.2.<.2.<.2.2.*.<.<.<.<.<.<.&.<.<.+.>.+.+.+.+.+.+.+.+.+.+.+.+.+.+.+.+.+.+.+.+.+.+.+.+.+.+.+.+.",
"1.1.<.,.1.1.1.1.1.1.1.1.<.2.<.2.*.2.2.2.<.*.<.<.<.<.2.<.<.<.<.<.<.&.>.O.+.+.+.+.+.+.+.+.+.+.+.+.+.+.+.+.+.+.+.+.+.+.+.+.+.+.+.+.",
";.1.1.,.1.1.1.1.<.<.<.<.<.<.<.<.<.<.<.<.<.@.+.+.<.+.<.@.+.+.+.+.;.O.+.+.+.+.+.+.+.+.+.+.+.+.+.+.+.+.+.+.+.+.+.+.+.+.+.+.+.;.O.>."
};
