/* XPM */
static char *result[] = {
/* columns rows colors chars-per-pixel */
"64 64 74 1 ",
"  c black",
". c #5A2E77",
"X c #55277A",
"o c #56297B",
"O c #592D7D",
"+ c #5F3276",
"@ c #613677",
"# c #7B447D",
"$ c #7F497D",
"% c #A7715D",
"& c #AB745C",
"* c #AE7A5C",
"= c #B07B5B",
"- c #824D7A",
"; c #A76E61",
": c #A77161",
"> c #A97160",
", c #C1A43D",
"< c #B79D42",
"1 c #BD9F40",
"2 c #BDA040",
"3 c #A49C67",
"4 c #A39C69",
"5 c #AAA36C",
"6 c #C7944E",
"7 c #C8944D",
"8 c #C99754",
"9 c #C99955",
"0 c #C6955B",
"q c #C8955A",
"w c #C7985A",
"e c #C5A945",
"r c #D6B542",
"t c #C49561",
"y c #C99C6F",
"u c #C79B71",
"i c #C99C71",
"p c #C5BC7D",
"a c #E7C750",
"s c #F3CB54",
"d c #F9D351",
"f c #FED850",
"g c #FBDC69",
"h c #F7DD77",
"j c #F9DF79",
"k c #FBE37E",
"l c #FFE87F",
"z c #632D8F",
"x c #6D3687",
"c c #65308F",
"v c #6A358C",
"b c #6D398C",
"n c #7A3D85",
"m c #703C8B",
"M c #672D95",
"N c #6A2E93",
"B c #662998",
"V c #663190",
"C c #683492",
"Z c #7C4282",
"A c #7F4981",
"S c #814E80",
"D c #F7DF81",
"F c #FAE480",
"G c #FFE980",
"H c #F9E397",
"J c #FFF29E",
"K c #FFF4A3",
"L c #FFF5AA",
"P c #FFF7BD",
"I c #FAEBC2",
"U c #FFF9CF",
"Y c #FFF9D0",
"T c white",
/* pixels */
"zzzzzzzzVzVzVVzzzcVVzzzzzzzzzzzzzzzzzzzzzzzzzzzzzzzzzzzzzMMVVVMB",
"zzzzzzzzVVVzVzzcczzzzzzzzzzzzzzzzzzzzzzzVzzzzzzzzzzzzzzzMzVVMVVB",
"zzzzzzzczzcVVzzcVzccVzzzzzzzzzzzBzzzzzzzzczzzzzzzzzzzzzzVVVMMVVB",
"zzzzzzzcVMccVVczzczzzzzzzzzzzzzzzzzzzzzzzzzzzzzzzzzzzzzzVMMVVVMB",
"zzzzzzzcVVVVVVzzzczczzzzzzzzzzzzzzzczzzzcczzzzzzzzzzzzzzVMMVVMVB",
"zzzzzzzMzVzzzVVzVzczczzzzzzzzzzzzzzczzzzzczzzzzzzzzzzzzzVVVVMVVB",
"zzzzzzzVVVzVVVzzzczzzzczzzzzzzzzzzzcccczczzzzzzzzzzzzzzzMVVMVVMB",
"MzcczVzzzzzzzzczczcczVcVzzVVzzzzzzcVVCVcCCzVzzzVzzzzzzzzVVVVVVVV",
"cVzVVVVzzzzzzzzzcczczcVVVVVVccVVccVVbVVCCbVVVzVVccVccccMVVVVVMVC",
"VVVVzVzzzzzzzzzzMMczcVcVVVccVMVVzccVVCVCCCVVccVzccMcVccVMVVVVVCC",
"VVVVVVzzzc#0gg6@CVczcVVVvVcb#0gg6#CCVVVVVVzVccV$0gg6#ccVVVVMVVVC",
"VcVVVzVzcyPUKKJl<xzzcVcVVVbyIUKKJkwbbCCvVVzVcbyIUKKJF0vcVVVVVCCC",
"zVzVVVcz&HPLKKKKk%zzccVcVV*HPLKKKKk%VvCVVVccc3HPLKKKKj:cVVVVVVVC",
"VVzVVVVzfKKKKKKKJszzcVVVVVfKKKKKKKJsVVVvVbcVcaJKKKKKKKsMVVVVVVCC",
"VVVccccV*kKKKKKKk%zzzVVVVc*kKKKKKKk&VVVvVVVcz*kJKKKKLk:MMVzVVVVM",
"VVcccczVv8GKKKKGwcczzVzVVcv9GKKKKlwcVVVVVVVVzv6lKKKKG<VVzVVMVVCM",
"VzcVzccVVv$ap5r#vzzzzVVVVcVv$ap5r#bVVVVVVVzczzv$ap5r#vMcMcMccVVV",
"zVcccczVVV.e53,XzzzzcVVcVVVV.e54,.CVVVcVVVczczz.e54,oVccVcVcVzMV",
"zczcccc                                                  McMMVVV",
"ccccccc T                                              T VVVVVVM",
"cx%s&cc   TTTTTTTTTTTTTTTTTTTTTTTTTTTTTTTTTTTTTTTTTTTT   czMVVVM",
"v0kKkwv  TTTTTTTTTTTTTTTTTTTTTTTTTTTTTTTT TTTTTTTTTTTTT  MM*d&CB",
"#kKKKl#  TTTTTTTTTTTTTTTTTTTTTTTTTTTTTTTT TTTTTTTTTTTTT  CqkKHiN",
"6JKKKKr  TTT  TTTT  TTTTTTTTTT TTTTTT TT  TTTTTTTTTTTTT  #GKKPIZ",
"gKKKKK5  TTT  TTTT TTTTTTTTTT  TTTTTT TT  TTTTTTTTTTTTT  aKKKLYq",
"gKKKKKp  TTT   TTT TTTT    T    TTT    T     TTT    TTT  pKKKKKg",
"0YLKKKa  TTT T TTT TTT  T  TT TTTTTT  TT   T TTT TT TTT  5KKKKKg",
"#IPKKl$  TTT T  TT TT  TTT TT TTTTTT  TT  TT TT  TT TTT  rKKKKJ8",
"vyHKk9b  TTT T  TT TT  TTT TT TTTTTT  TT  TT TT TT  TTT  nGKKKFn",
"cb*f3vC  TTT TT  T TT  TT  TT TTTTTT TTT TTT TT    TTTT  C0hKh0N",
"vCVvzvc  TTT TTT   TT  TT TT   T TTT TTT TT  TT  TTTTTT  NN>s;CB",
"VVCVccc  TT  TTTT  TT    TTT     TTT  TT TT  TT    TTTT  BBMNBBB",
"VvVvCVC  TTTTTTTTTTTTTTTTTTTTTTTTTTTTTTTTTTTTTTTTTTTTTT  MMMBBMB",
"CVvCCVv  TTTTTTTTTTTTTTTTTTTTTTTTTTTTTTTTTTTTTTTTTTTTTT  BBMMMMB",
"VCVVCCV  TTTTTTTTTTTTTTTTTTTTTTTTTTTTTTTTTTTTTTTTTTTTTT  MMMMMBB",
"cVzcccz  TTTTTTTTTTTTTTTTTTTTTTTTTT TTTTTTTTTTTTTTTTTTT  MMMMMMM",
"cC:s&cz  TTTTTTTTTTTTTTTTTTTTTTTTTT TTTTTTTTTTTTTTTTTTT  NN*f*vB",
"v<kLh0v  TTTTTTTTTTTTTTTTTTTTTTTTTT TTTTTTTTTTTTTTTTTTT  CqjKHiC",
"#kKKKl#  TTTTTTTTTTTTTTTTTTTTTTTTTTTTTTTTTTTTTTTTTTTTTT  SFKKPIS",
"6JKKKKr  TTTTTTTTTTTTTTTTTTTTTTTTTTTTT TTTTTTTTTTTTTTTT  aKKKLYq",
"gKKKKK5  TTTTTTTTTTTTT    TT TT  T  T    TTTTTTTTTTTTTT  pKKKKKg",
"gKKKKKp  TTTTTTTTTTTT  TT  T  T TT  TT TTTTTTTTTTTTTTTT  5KKKKKg",
"wULKKKa  TTTTTTTTTTTT  TT TTT  TTT  TT TTTTTTTTTTTTTTTT  rKKKKK7",
"#IPKKl$  TTTTTTTTTTTT  T  TTT  TTT TTT TTTTTTTTTTTTTTTT  ZGKKKFZ",
"vyHKkwb  TTTTTTTTTTTT    TTT   TTT TT  TTTTTTTTTTTTTTTT  C0lKh0b",
"cv*d*vc  TTTTTTTTTTTT  TTTT  T  TT TT  TTTTTTTTTTTTTTTT  NC>s>CM",
"cvcVcVV  TTTTTTTTTTTTT   T  TTT  T  T   TTTTTTTTTTTTTTT  NMMMMCC",
"VVVVVVV   TTTTTTTTTTTTTTTTTTTTTTTTTTTTTTTTTTTTTTTTTTTT   VMCMMMN",
"VVVVVVV T                                              T MMVMMVV",
"VVVVVCV                                                  VcMVcVM",
"VVVVVVVCCCz<45e@VCCCCCCCCCCZVz<45e@CCCCCCCCVCVCVO135<+cVVccVccVz",
"VVVVVCVMCb$r5pa-ZCvCCZCCZCCCZ$r5pa-bCCCCCCVCVCVmAr5pa-vcMccccMVc",
"VVVVVVVCCwlKKKKF<CCCCbbCMCCZtGKKKKFwxCCCCCCVVCbwlKKKKkwvzVVVcccc",
"VVVVVCCC=hKKKKKKh3CCCCCCCCC:kLKKKKKj&cCCCCCCCV>kKKKKKKh&VVzVVMcc",
"VVMCVVVCsKKKKKKKJaCCCCCbCCCaKKKKKKKKdNCCCCvVVCsHKKKKKKKdVVVzcccc",
"VVCCVVVC:hKKKKLPH3CCCbCVCCC4hKKKKLPH3CCCCCCVVV;gKKKKLPH*zVVczzMc",
"MCCCCCCCmtDJKKYI5ACCCbCbVVVZtFJKKYIuxzzzzzzzzzz0DJKKII5zzzzzzzzz",
"CCMMCCMMCCS8gg0SmCCCCCVVVVVCvZ<gg0$vzzzzzzzzzzzz@6ggq#Nzzzzzzzzz",
"MCCCMCCCCCCCCCCCCCCVCCCVCVVVVVzVVVczzzzzzzzzzzzzNNzzNzzzzzzzzzzz",
"CMCMCMCMCCCCCCcCVVbCCCbVVCvVVMVVVVVzzzzzzzzzzzzzzzzzzzzzzzzzzzzz",
"CMCCMCCCCCCCCCCCCCCCbCVCZVVVVVVVcczzzzzzzzzzzzzzzzzzzzzzzzzzzzzz",
"CCCCCCCCCCCCCCCCCbbCVVCVVVCVzVVVccMzzzzzzzzzzzzzzzzzzzzzzzzzzzzz",
"BCCBCMCCMCCMCCCCCCVbVCVVVVCVzVVzVczzzzzzzzzzzzzzzzzzzzzzzzzzzzzz",
"CCCCCMCMCMMVNVVvCVVVVVzzVzzVzzzzzzzzzzzzzzzzzzzzzzzzzzzzzzzzzzzz"
};
