/* XPM */
static char *result[] = {
/* columns rows colors chars-per-pixel */
"64 64 148 2 ",
"   c #000000",
".  c #0B0B0B",
"X  c #141414",
"o  c #1A1A1A",
"O  c #242424",
"+  c #2D2D2D",
"@  c #353535",
"#  c #3B3B3B",
"$  c #5A2D77",
"%  c #55277A",
"&  c #56297B",
"*  c #5A2E7D",
"=  c #613677",
"-  c #444444",
";  c #4B4B4B",
":  c #555555",
">  c #5E5E5E",
",  c #7B447D",
"<  c #7F4A7D",
"1  c #A6705D",
"2  c #AB745C",
"3  c #AE7A5B",
"4  c #B07A5C",
"5  c #824E7A",
"6  c #A77361",
"7  c #A97260",
"8  c #AD953E",
"9  c #C1A43D",
"0  c #BDA040",
"q  c #A39B66",
"w  c #A39C69",
"e  c #AAA36C",
"r  c #C8944D",
"t  c #C99956",
"y  c #C6955B",
"u  c #C8965A",
"i  c #C7985A",
"p  c #C2A540",
"a  c #C6AA45",
"s  c #D7B641",
"d  c #D9B844",
"f  c #C39560",
"g  c #C99C6F",
"h  c #C79B71",
"j  c #C99B71",
"k  c #C4AF76",
"l  c #C4AF7E",
"z  c #C4B077",
"x  c #C4B07C",
"c  c #C5BC7D",
"v  c #FFD84E",
"b  c #E7C750",
"n  c #F3CB54",
"m  c #F9D351",
"M  c #FFDA52",
"N  c #F9D55C",
"B  c #FEDB5B",
"V  c #F7D462",
"C  c #F9D561",
"Z  c #FFDE61",
"A  c #FCDC6A",
"S  c #F7DD77",
"D  c #FFDF70",
"F  c #F1D67D",
"G  c #F9DF79",
"H  c #FFE169",
"J  c #FFE374",
"K  c #FDE57B",
"L  c #FFE87F",
"P  c #632D8F",
"I  c #6D3687",
"U  c #65318F",
"Y  c #6A358C",
"T  c #6E3A8E",
"R  c #703D8E",
"E  c #672E95",
"W  c #682F96",
"Q  c #662998",
"!  c #682C98",
"~  c #663190",
"^  c #693492",
"/  c #6C3A91",
"(  c #713E93",
")  c #773F98",
"_  c #7C4382",
"`  c #75438F",
"'  c #7A498F",
"]  c #744391",
"[  c #7A4695",
"{  c #774891",
"}  c #7B4B91",
"|  c #7F5190",
" . c #81528F",
".. c #895C8F",
"X. c #824F96",
"o. c #825491",
"O. c #855990",
"+. c #895D90",
"@. c #8E628F",
"#. c #91668F",
"$. c #956A8F",
"%. c #9A728F",
"&. c #8D6291",
"*. c #926595",
"=. c #946B91",
"-. c #996F93",
";. c #966798",
":. c #986A98",
">. c #9B7291",
",. c #A57F8E",
"<. c #A7828F",
"1. c #AA858F",
"2. c #B8978F",
"3. c #A68090",
"4. c #AA8492",
"5. c #AD8A91",
"6. c #B08D90",
"7. c #B99693",
"8. c #BC9C90",
"9. c #CBAB87",
"0. c #C4A38B",
"q. c #CBAC8C",
"w. c #CEB18D",
"e. c #D0B38E",
"r. c #D9BE8C",
"t. c #C0A190",
"y. c #C9A793",
"u. c #CAAB91",
"i. c #CFB292",
"p. c #DABD91",
"a. c #DAC08C",
"s. c #E0C78F",
"d. c #E2CA8F",
"f. c #F5DC81",
"g. c #E2CB92",
"h. c #FBE381",
"j. c #FFE980",
"k. c #F9E397",
"l. c #FFEA97",
"z. c #FFF29E",
"x. c #FFF4A3",
"c. c #FFF5AA",
"v. c #FFF7BD",
"b. c #FAEBC2",
"n. c #FFF1C1",
"m. c #FFF9CF",
"M. c #FFF9D0",
"N. c white",
/* pixels */
"P P P P P P P P ~ P P ~ ~ ~ P P P U P U P P P P P P P P P P P P P P P P P P P P P U P P P P P P P P P P P P P P P E E ~ ~ ~ E Q ",
"P P P P P P P P ~ ~ ~ ~ ~ P U P U P U P U P P P P P P P P P P P P P P P P P P P U P P P P P P P P P P P P P P P E P ~ ~ E ~ ~ Q ",
"P P P P P P P U E P U P ~ ~ P P P U U P P P P P P P P P P P P P P P P P P P P P ~ P P P P P P P P P P P P P P P P P E E E ~ ~ Q ",
"P P P P P P P U P U ~ ~ P ~ P U ~ P P P P P P P P P P P P P P P P P P P P P P P P P P P P P P P P P P P P P P P ~ E ~ ~ ~ ~ E Q ",
"P P P P P P P P P ~ P ~ ~ P P P P P U U P P P P P P P P P P P P P P P U P P P P P P P P P P P P P P P P P P P P ~ E E ~ ~ ~ E Q ",
"P P P P P P P U ~ ~ ~ ~ ~ ~ P U U U P P P P P P P P P P P P P P P P P P P P U P U P P P P P P P P P P P P P P P ~ ~ ~ ~ E ~ ~ Q ",
"P P P P P P P E ~ P ~ P ~ ~ P U ~ U P ~ ~ P ~ P P P P P P P P P P P P P U U P U U P P P P P P P P P P P P P P P E ~ ~ E E ~ ~ Q ",
"E P P U P U ~ P P P P P P P P P P P ~ P P ~ ~ ~ P P P P P / ] ~ ~ ~ ~ Y ~ ~ ~ ~ ~ ~ ~ ~ P P P ~ P P P P P P P P ~ ~ ~ ~ ~ ~ ~ E ",
"U ~ ~ P ~ ~ P P P P P P P P P P P U P U P U ~ ~ ~ ~ Y / } &.>.>.&.` Y ^ U ~ Y ~ / / U U P ~ ~ ~ ~ P P ~ ~ ~ ~ ~ ~ ~ ~ ~ ~ ~ E ^ ",
"~ ~ ~ ~ ~ P ~ P P P P P P P P P U P U P U U ~ ~ ~ / } &.5.w.g.g.u.3.&.{ / ~ ~ ~ ~ ~ U U U U ~ P ~ ~ ~ P P P ~ P ~ ~ ~ E ~ ~ ~ ^ ",
"~ ~ U ~ P ~ ~ P P U , y A A r = Y P P P P ~ ~ ~ / { >.q.K B H H v F 8.=.{ / ~ / ~ ~ U U U U Y , y A A r , Y ~ U E ~ ~ ~ ~ ~ ^ ^ ",
"~ P ~ ~ ~ ~ ~ P Y h v.m.x.x.z.j.i I P P P ~ ~ Y ] $.w.H b.m.x.x.z.L B 9.#.] / ~ ~ U ~ ~ U Y g b.M.x.x.z.h.y Y ~ ~ ~ ~ ~ ~ ~ ~ / ",
"~ ~ ~ ~ U ~ ~ P 2 k.v.c.x.x.x.x.K 1 P P U ~ U ^ | 5.N l.v.c.x.x.x.x.K N 1.| ~ ~ / ~ ~ U ~ q k.v.c.x.x.x.x.S 1 ~ ~ ~ ~ ~ ~ ~ ~ ^ ",
"~ P ~ P U U U P v x.x.x.x.x.x.x.z.n P P U ~ ~ T O.0.v x.x.x.x.x.x.x.x.M 8.| ] ~ ~ ~ ~ ~ U b x.x.x.x.x.x.x.x.n P ~ ~ ~ E E ~ ~ ^ ",
"~ ~ ~ P U U U U 3 K x.x.x.x.x.x.K 1 P U U U ~ ^ | 5.B L x.x.x.x.x.x.K N 1.{ Y ~ ~ ~ ~ U P 3 J x.x.x.x.x.x.K 6 ~ E ~ ~ ~ E P ~ ^ ",
"U P ~ ~ U P U E U t j.x.x.x.x.L y U P P P U ~ U ] >.w.M j.x.x.x.x.L B w.=.] ~ ~ ~ ~ ~ U U U r L x.x.x.x.j.y ~ ~ P ~ P ~ ~ ~ E ^ ",
"U U ~ U U U U ~ ~ Y < b c e s , Y P P P P ~ ~ U Y { >.a.K b c e s L a.>.{ ~ ~ ~ ~ ~ U P U P Y , b c e s , Y ~ U E U ~ E U U ~ ~ ",
"U U Y Y ~ ~ ~ P ~ ~ $ a e q 9 & P P P P P ~ ~ ~ ~ / } 4.z a e w 9 x 1.| / ~ Y ~ ~ ~ P U P U P $ a e w 9 & ~ E U ~ U ~ ~ E U E ~ ",
"~ ` ` | { ` U                                                                                                     ~ ~ ^ / ^ ~ ~ ",
"` #.1.2.<.=.{   N.                                                                                            N.  ^ ] } O.} ] ^ ",
"#.q.N M N w.%.                                                                                                    } =.6.t.6.:.[ ",
"0.B K x.J B a.                                                                                                    -.i.N M N q.:.",
"F L x.x.x.L L                                                                                                     p.M L x.l.J y.",
"v z.x.x.x.x.s                                                                                                     j.j.x.x.v.n.h.",
"H x.x.x.x.x.e                                                                                                     b x.x.x.c.M.B ",
"H x.x.x.x.x.c                                                                                                     c x.x.x.x.x.H ",
"B M.c.x.x.x.b                                                                                                     e x.x.x.x.x.A ",
"F n.v.x.x.L L                                                                                                     s x.x.x.x.z.M ",
"0.H l.x.L M a.                                                                                                    j.j.x.x.x.L h.",
"=.q.N v B w.>.                                                                                                    p.B L x.K Z y.",
"} $.5.t.6.=.'                                                                                                     :.y.V M V y.:.",
"/ ] | +.| { T                                                                                                     [ ;.4.7.4.*.) ",
"~ / ^ ` / / ^                                                                                                     W ( [ X.[ ) Q ",
"~ ~ ~ ^ ~ ~ Y                                                                                                     E E E W W ! Q ",
"Y Y U U ~ ^ ~                                                                                                     E Q E Q E Q Q ",
"P ~ U U U U P                                                                                                     E E E E E E E ",
"P Y 1 n 1 U U                                                                                                     ! W 4 v 2 / W ",
"Y f K z.G y Y                                                                                                     ^ u G x.k.j ^ ",
", G x.x.x.L ,                                                                                                     5 h.x.x.v.b. .",
"r z.x.x.x.x.s                                                                                                     b x.x.x.c.n.u ",
"A x.x.x.x.x.w                                                                                                     c x.x.x.x.x.A ",
"H x.x.x.x.x.c                                                                                                     e x.x.x.x.x.A ",
"f m.c.x.x.x.b                                                                                                     s x.x.x.x.x.r ",
", v.v.x.x.j.<                                     . X X X o o o o o X X . . .                                     _ j.x.x.x.h._ ",
"Y g k.x.K i Y                               . X O + + # - - - - # # # @ + + + o X .                               ^ y G x.S y / ",
"~ I 3 m 3 Y ~                         . . O + @ - ; : > > > > > > > > > : : : ; # O X                             W ^ 2 n 7 Y W ",
"~ U ~ ~ ~ U ~                         o @ ; : > > > > > > > > > > > > > > > > > > : @ O .                         W E E W W W ^ ",
"~ ~ U ~ ~ ~ ~                       O - : > > > > > > > > > > > > > > > > > > > > > > @ O .                       W E E E W W W ",
"~ ~ ~ ~ ~ ~ ~   N.              . X ; > > > > > > > > > > > > > > > > > > > > > > > > > - O .                 N.  E E E E E ~ ~ ",
"~ ~ ~ ~ ~ ~ ~                   X : > > > > > > > > > > > > > > > > > > > > > > > > > > : - O .                   ~ U U U U ~ E ",
"~ ~ ~ ~ ^ ~ ^ / | 4.9.0 e e a z <.| / ~ ^ ^ / ^ / ^ / / ~ * 0 q e a = ^ ^ ^ ^ ^ ^ ^ ~ ^ ^ / } 4.x 9 q e 8 z <.| ^ U U E U E U P ",
"~ ~ ~ ~ ~ ~ ^ { >.p.j.s e c b K a.3.{ / ^ ^ ^ ^ ~ / ^ ^ T < s e c b < / ^ ^ ^ ^ ^ ^ ^ ^ ^ } >.r.j.d e c b K a.>.{ U ~ ~ U ~ ~ U ",
"~ ~ ~ ~ ~ ^ ] *.w.B L x.x.x.x.L M c =.{ / ~ / ~ / ~ ~ T i j.x.x.x.x.j.y / ~ ~ ^ ^ ^ ~ / ( =.q.B j.x.x.x.x.L M w.=.` ~ U P ~ E U ",
"~ ^ ^ ~ ~ ^ } 4.N K x.x.x.x.x.x.L N 5.| / / ~ / ~ / ~ 6 K x.x.x.x.x.x.K 2 ~ / ^ ~ ^ ~ / } 4.N K x.x.x.x.x.x.K N 1.} ~ ~ U U U U ",
"~ ~ ~ ~ ~ / | 7.M x.x.x.x.x.x.x.z.m t.| / / ~ / / / ~ b x.x.x.x.x.x.x.x.n P ^ ^ ~ ^ ~ / o.2.M x.x.x.x.x.x.x.x.v 8.| ~ ~ E ~ P U ",
"^ ~ ^ ~ ^ ^ { 4.V J x.x.x.x.c.v.z.N 6.| / ~ / ~ / ~ / q S x.x.x.x.c.v.k.f ^ ^ ^ ^ ^ ^ ^ } 4.V K x.x.x.x.c.v.l.N 5.} Y P U U U U ",
"W ^ ^ W ^ ^ ] *.q.H j.x.x.x.M.n.S 9.=.{ ~ / ~ / ~ ~ P ` f f.z.x.x.m.v.h Y P P P P P P P P ..9.B j.z.x.x.m.n.H 9.#.T P P P P P P ",
"^ W ^ ^ W W W [ =.q.h.M H H N f.t.3.{ / ~ ~ ~ / ~ ~ P ] Y , r A A f < Y P P P P P P P P P R =.9.K M H H B F 0.@.` U P P P P P P ",
"^ W ^ W ^ ^ ^ / { &.5.i.g.s.u.4.| | / / / ~ ~ ~ / U ~ ~ U U ~ ~ U U U P P P P P P P P P P U ` ..<.q.d.d.q.,. .` Y P P P P P P P ",
"W ^ ^ W ^ W ^ E ^ / | *.>.-.&.} / / ~ ~ ~ / ~ ~ / ~ ~ ~ ~ ~ ~ P P U U P P P P P P P P P P P P T } +.$.$.O.] P P E P P P P P P P ",
"^ W ^ W ^ W ^ ^ ^ W ^ / ] ] / ^ ~ / ~ / ~ ~ ~ ~ U ~ / Y ~ ~ ~ ~ ~ P P P P P P P P P P P P P P P U Y / T P P P P P P P P P P P P ",
"W ^ ^ ^ ^ W E ^ ^ ^ ^ ^ ~ W ^ ^ ~ / / ~ ~ U / / ~ ~ ~ ~ ~ ~ ~ ~ P P P P P P P P P P P P P P P P P P P E P P P P P P P P P P P P ",
"W ^ W ^ ^ ^ W ^ ^ ^ ^ ^ ^ ^ ^ ^ / ~ / ~ / / ~ ~ ~ ~ ~ / P ~ ~ P ~ ~ P P P P P P P P P P P P P P P P P P P P P P P P P P P P P P ",
"^ W ^ W W W ^ ^ W ! ~ W ~ ~ ^ ^ ~ ~ ~ ~ U P P P U P P P P P P P P P P P P P P P P P P P P P P P P P P P P P P P P P P P P P P P "
};
