/* XPM */
static char *result[] = {
/* columns rows colors chars-per-pixel */
"64 64 174 2 ",
"   c #000000",
".  c #0C0B03",
"X  c #060308",
"o  c #0A050D",
"O  c #0C0B0B",
"+  c #100D06",
"@  c #0C0611",
"#  c #110917",
"$  c #140B1B",
"%  c #131313",
"&  c #1B1B1B",
"*  c #1B1A11",
"=  c #161308",
"-  c #26210D",
";  c #2A2616",
":  c #190C23",
">  c #271337",
",  c #25162C",
"<  c #242424",
"1  c #2C2C2C",
"2  c #343434",
"3  c #3C3C3C",
"4  c #3A2C33",
"5  c #483E1B",
"6  c #423B28",
"7  c #574E39",
"8  c #605C3D",
"9  c #7E723D",
"0  c #321848",
"q  c #3C1D55",
"w  c #4F3D43",
"e  c #4A2666",
"r  c #5A2D77",
"t  c #56297A",
"y  c #57297C",
"u  c #444444",
"i  c #4C4C4C",
"p  c #545454",
"a  c #5E5E5E",
"s  c #685257",
"d  c #6B5B4A",
"f  c #726D49",
"g  c #75704A",
"h  c #7B447D",
"j  c #7E497C",
"k  c #606060",
"l  c #927D35",
"z  c #847D51",
"x  c #A6705D",
"c  c #AB745C",
"v  c #AF7A59",
"b  c #B0785C",
"n  c #815D7E",
"m  c #A97260",
"M  c #958134",
"N  c #B79B3C",
"B  c #C1A43D",
"V  c #958B5F",
"C  c #A39552",
"Z  c #989161",
"A  c #A39C69",
"S  c #AAA26C",
"D  c #C8944D",
"F  c #C99956",
"G  c #C6955B",
"H  c #C8965A",
"J  c #C6AA44",
"K  c #D7B641",
"L  c #D9B844",
"P  c #C99C6F",
"I  c #C39560",
"U  c #C89B71",
"Y  c #C4AF7E",
"T  c #C5BC7D",
"R  c #CCBA66",
"E  c #FFD84E",
"W  c #E7C750",
"Q  c #E8C85B",
"!  c #F4CC54",
"~  c #FFDA52",
"^  c #F9D55C",
"/  c #FEDB5B",
"(  c #D5C37E",
")  c #E7D06E",
"_  c #FCDC6A",
"`  c #FAD761",
"'  c #F1D67D",
"]  c #F9DF79",
"[  c #FFDF70",
"{  c #FFE169",
"}  c #FFE374",
"|  c #FDE47B",
" . c #FFE87F",
".. c #5D2C84",
"X. c #5F2D88",
"o. c #632D8F",
"O. c #65318F",
"+. c #6A358C",
"@. c #6E3A8E",
"#. c #6D3687",
"$. c #703D8F",
"%. c #672E95",
"&. c #682F96",
"*. c #662998",
"=. c #682C98",
"-. c #663190",
";. c #683393",
":. c #6D3A91",
">. c #713E93",
",. c #773F98",
"<. c #75438F",
"1. c #7A498F",
"2. c #7C4382",
"3. c #754391",
"4. c #7A4695",
"5. c #7B4B91",
"6. c #774891",
"7. c #7F5190",
"8. c #895C8F",
"9. c #81528F",
"0. c #824F96",
"q. c #825491",
"w. c #895D90",
"e. c #865A90",
"r. c #8C6489",
"t. c #91668F",
"y. c #956A8F",
"u. c #9A728F",
"i. c #8D6291",
"p. c #926595",
"a. c #956C91",
"s. c #996F93",
"d. c #976998",
"f. c #9B7292",
"g. c #A57F8E",
"h. c gray60",
"j. c #AA858F",
"k. c #AA8493",
"l. c #AD8991",
"z. c #A68090",
"x. c #B08D90",
"c. c #BA9793",
"v. c #B8978F",
"b. c #C4A38B",
"n. c #CBAC8C",
"m. c #CBAB87",
"M. c #CDB08E",
"N. c #CBB182",
"B. c #D6BA8D",
"V. c #C0A191",
"C. c #CAAB91",
"Z. c #C9A793",
"A. c #CFB292",
"S. c #DABD91",
"D. c #D7C58A",
"F. c #E1C98F",
"G. c #F5DC81",
"H. c #E2CB92",
"J. c #E6DC93",
"K. c #FBE382",
"L. c #FFE981",
"P. c #FAE397",
"I. c #FFEA97",
"U. c #F6EB9D",
"Y. c #FFF29E",
"T. c #FAEFA0",
"R. c #FFF4A3",
"E. c #FFF5AA",
"W. c #FFF7BD",
"Q. c #FAEBC2",
"!. c #FFF1C1",
"~. c #FFF9CF",
"^. c #FFF9D0",
"/. c white",
/* pixels */
"o.o.o.o.X.%.X.o.o.O.O.o.-.o.o.O.-.o.O.o.O.o.o.o.o.o.o.o.*.o.o.*.o.o.o.o.o.o.o.o.O.o.o.%.X.%.X.%.X.o.o.o.o.X.%.%.%.%.%.O.-.-.%.*.",
"o.o.o.o.%.X.%.%.%.O.O.O.-.-.o.o.X.%.o.O.%.o.o.o.o.o.o.o.X.o.o.X.*.X.o.o.o.o.o.o.o.-.X.%.%.X.%.X.%.o.o.o.%.X.o.X.%.o.-.%.%.-.-.*.",
"o.o.o.o.X.%.X.O.O.O.O.o.o.-.O.o.X.-.X.%.X.%.o.o.o.o.o.o.o.o.o.o.o.*.o.o.o.o.o.o.%.X.o.o.X.%.X.%.o.o.o.o.%.o.X.o.o.-.-.-.%.-.-.*.",
"o.o.o.o.%.X.%.%.O.o.-.%.-.-.O.o.O.%.-.-.-.X.o.o.o.o.o.o.o.o.o.o.X.X.X.*.o.+.o.o.O.o.o.o.%.X.%.X.o.o.o.o.X.o.%.%.-.%.%.-.-.O.%.*.",
"o.o.X.%.o.X.o.O.-.-.-.-.-.-.o.o.O.X.-.X.%.X.X.%.o.o.%.X.%.X.o.o.X.%.X.o.o.o.o.o.o.o.o.o.o.%.X.%.o.o.X.o.o.o.o.X.%.-.-.%.-.%.O.*.",
"o.o.o.o.o.%.o.O.-.o.-.o.-.o.o.O.o.O.%.O.%.o.%.X.o.o.X.%.X.%.o.o.%.X.%.O.+.%.o.O.O.o.o.o.X.X.%.X.o.o.%.X.o.o.o.o.O.%.-.%.%.-.-.*.",
"o.o.o.o.X.o.X.o.o.-.-.-.o.-.o.O.o.o.o.O.o.X.o.o.o.o.o.X.%.X.%.o.X.o.%.o.o.O.o.e t O.o.o.%.o.X.%.o.o.o.%.o.X.%.o.-.%.;.;.-.-.%.*.",
"%.o.O.O.%.%.-.%.o.o.o.o.o.o.O.o.O.o.O.o.%...> 0 X.%.%.O.%.+.:.:.;.%.-.+.-.+.q X $ O.O.o.o.%.O.%.o.o.%.X.*.%.o.o.-.O.-.-.-.-.-.-.",
"-.-.-.-.o.-.o.o.o.X.o.o.o.o.o.o.o.O.o.O.o.e X X q +.+.>.1.i.s.u.8.3.:.;.:.e X   o r -.-.O.O.o.O.o.-.o.-.-.-.-.O.-.-.-.-.;.-.-.;.",
"-.-.-.-.-.-.-.o.o.%.o.X.o.o.%.o.O.o.O.o.X.,     o e 6.i.l.M.H.H.n.z.i.<.e X     X q -.-.%.-.O.-.-.-.-.o.o.-.o.-.-.-.-.;.%.-.-.;.",
"-.O.-.o.-.-.-.o.o.O.h G _ _ D h +.o.o.O.X.#       $ r.m.| / { _ ~ ' b.j @         > %.O.O.O.+.h G { _ D h +.-.-.-.-.-.-.;.-.-.:.",
"-.-.-.-.-.-.-.o.+.U W.~.R.R.Y.' G #.O.o.q X         7 _ !.~.R.R.Y.L./ d           : %.O.O.+.P Q.^.R.R.Y.K.G +.o.-.-.-.-.-.-.-.-.",
"-.-.o.-.-.-.-.o.c P.W.E.R.R.R.R.] x o...:           = D.W.E.R.R.R.R.| 5 .         o t %.-.c P.W.E.R.R.R.R.] x O.-.-.-.-.-.-.-.;.",
"o.-.-.-.-.-.-.o.E R.R.R.R.R.R.R.Y.! o.q X       X     g R.R.R.R.R.R.R.-             $ ..-.E R.R.R.R.R.R.R.R.! o.-.-.-.-.-.;.-.;.",
"O.o.O.o.O.X.O.-.v | R.R.R.R.R.R.] x y #             . - J.R.R.R.R.R.) +               : X.v | R.R.R.R.R.R.} x %.-.-.O.o.%.-.-.;.",
"O.O.O.O.O.O.O.O.O.F L.R.R.R.R. .G o.0                 . C R.R.R.R. .M .                 q O.H L.R.R.R.R. .G O.-.%.-.%.-.-.-.%.;.",
"O.O.O.O.O.O.O.-.-.+.j W T S K h O.y @                   z W T S B  .4                   o t +.j W T S K h +.%.O.-.-.-.-.-.-.%.-.",
"o.O.O.+.O.O.O.-.O.-.r J S A B t o.0                     6 B S A B V +                     > o.r J S Z B t -.O.o.O.%.-.-.%.O.-.-.",
"-.<.6.7.6.<.O.                                                  .                                   X             O.-.;.:.;.-.;.",
"6.t.j.v.j.t.6.  /.                                                                                            /.  ;.3.5.q.5.3.;.",
"p.m.^ ~ ^ M.u.                                    O O % % & % & & & % % O O                                       6.a.x.V.x.a.4.",
"b./ | R.| ~ D.                                % & 1 2 3 u u u u 7 2 2 2 2 2 1 < % X                               f.A.^ ~ ^ A.d.",
"'  .R.R.R. . .                          % < 2 3 u i p a a a a a a a a a p p p u 3 1 %                             S./  .R.I.{ Z.",
"E Y.R.R.R.R.K                         & 2 i p p a a a a k a a a a a a a a a a a a p 2 < X                          .L.R.R.!.!.K.",
"{ R.R.R.R.R.S                       & u p k k a a a a a a a a a a a a a a a a a a a a 2 < O                       W R.R.R.E.~./ ",
"{ R.R.R.R.R.T                     & i a a a a a a a a a a a a k a a a a a a k a a a a a u < O                     T R.R.R.R.R.{ ",
"/ ~.E.R.R.R.W                   % p a a a a a a a a a a a a a a a a a a a a a a a a a a p u < X                   S R.R.R.R.R._ ",
"' !.W.R.R.L.|                 % p a a a a a a a a a k a a a a a a a a a a a a a a a a a k a i &                   K R.R.R.R.Y.~ ",
"b._ I.R. .~ D.                p a a a a a a a a a a a a a a a a a k a a a a a a a a a a a a a u %                 L.L.R.R.R.L.K.",
"a.n.^ E ^ B.u.              3 a p a a a a a a a a a a k a a k a a a a a a a a a a a a a a a a a 1     +           S./ K.R.} _ Z.",
"1.a.x.V.x.u.6.            & p a k k a a a a k a a a a a a a a a a a a a a a k a a a a a a a a a i %               d.Z.` ~ ` n.d.",
":.<.7.e.7.<.@.            p a a a a a a a a a a a a a a a a a a a a a a a a a a a a a a a a a a a 2 O             4.p.k.c.k.p.,.",
"-.+.+.<.:.@.-.          < a p a a a a a a a a a a k a a a a a a a a a a a a a a a a a a a a a a a i &             &.>.4.0.4.>.*.",
";.-.;.-.+.;.-.          u a a a a a a a a a a a a a a a a a k a a a a a a a a a a k a a a a a a a a 1 o           %.%.%.&.&.&.*.",
"-.;.-.;.-.-.+.          p p a a a a k a a a a a a a a a a a a a a a a a a a a a a a a a a a a a a a u %           *.%.%.*.*.*.*.",
"O.O.o.O.O.-.o.        & p a a a a a a a a a k a a a a a a a a a a a a k a a k a a a a a a a k a a k p 3     O     %.%.%.&.&.&.&.",
"O.#.c ! c O.o.        u a p k a a k a a a a a a a a a a a a a a a a a a a a a a a a a a a a k a a a a a &         &.&.b E c :.=.",
"+.S ] Y.] G +.        p a a k a a a a a a a a a a a a a a a a a a a a a a a a a a a a a a a a a a a a a i         ;.H ] R.P.P ;.",
"h | Y.R.R.L.h         p a a k a a k a a a a a a a a a a k a a a a k a a a a a a a k a a a a a a a a a a a %       n K.R.T.W.Q.9.",
"D Y.R.R.R.R.K         i a a a a a a a a a a a a a a a k a a a a a a a a a k a a a a a a a a a a a a a k a u       W R.R.R.E.^.D ",
"_ R.R.R.R.R.S         3 a a a a a a k a a a a a a a a a a a a a a a a a a a a a a a a a a a a a a a a a k p %     T R.R.R.R.R.{ ",
"_ R.R.R.R.R.T         2 a a a a a a a k k a a a a a a a a a a a a a a a a a a a a k a a a a a a a a k a a a &     A R.R.R.R.R._ ",
"H ~.E.R.R.R.W         < p k k a k a a a k a a a a a a a a a a a k a a a a a a a a a a a a a a a a a a a a p <     B Y.R.R.R.Y.D ",
"h Q.W.R.R. .j         % p k a a k a a a a k a a a k a a k a a a a a a a a a a k a a a a k a a a a a a k k p 1     9. .R.R.R.K.2.",
"+.P P.R.| F +.          p a a a a k k a a a k a a a a a a a a a a a a k a a a a a a a a a a a a a a a a a p <     :.G ] R.] G :.",
"O.+.c E v O.-.          3 a a a a a a a a a a a a a a a a a a a a a a a a a a a k a a a a a a a a a a a a p %     %.;.c ! x ;.;.",
"O.O.-.-.-.-.O.          O p k a a k a a a a a a a a a a a a k a a a a a a a a a a a a a k a a a a a k a a u %     %.&.%.%.%.&.&.",
"-.-.-.O.-.O.-.            1 p a a a k k a a a a a a k a a a a a a a a a a a a a a a a a a a a a a a a a i 1 O     %.%.%.%.&.&.;.",
"-.-.-.-.-.-.-.  /.          u p k a k k k a a a a a a a a a a a a a a k a a a a a a a a a a a a a a a i 1 <   h.  &.&.&.%.%.%.;.",
"-.-.-.-.-.;.;.X               3 p a a a k k a a a a a a a a a a a a a a a a a a a a k a a a a a a a i 2 1 O       -.-.o.O.O.%.O.",
"-.;.-.-.-.-.-.:.7.k.Y N *       < i p a a a a a a a a a a a a a a a a a a a a a a a a a a a k a p 3 1 < =   u 7.;.O.-.-.o.-.O.O.",
";.-.;.-.-.-.-.6.f.S.L.L z %       O < i a a a a a a a a a a a a a a a a a a a a a a a a a a a u 2 1 &     ; N.u.6.;.o.-.-.O.O.o.",
"-.-.;.-.-.;.3.p.M./  .R.R.V O           % 1 i i p p a a a a a a a p a a k p p i p p p i u 3 1 & %       ; R ~ M.a.:.-.-.-.-.-.o.",
"O.;.-.-.-.3.5.k.^ | R.R.R.Y.f O                   O O % < u i i i 7 2 1 < 1 < < < & % % O O           7 J.R.| / l.5.+.-.-.o.-.O.",
"-.;.-.-.-.;.7.v.~ R.R.R.R.R.U.Z O           X               O % O O o X                         f 8 D.R.R.R.R.~ v.q.;.O.O.%.O.o.",
"-.-.-.-.-.-.6.l.^ | R.R.R.R.E.W.D.l s 4 # o O O @                                     # , s Q } R.R.R.R.E.W.I.^ l.5.+.o.O.-.-.O.",
";.;.;.;.;.;.3.p.n.{ L.Y.R.R.^.!.} N.a.3.;.-.-.:.;.-.O.$.S K.U.R.E.^.W.U +.o.o.o.o.o.o.o.;.w.m._ L.Y.R.R.~.!._ m.t.$.o.o.o.o.o.o.",
"%.;.%.;.;.&.&.3.a.m.K.~ { { / G.V.a.7.:.-.:.-.:.+.-.+.+.#.j D _ _ G 2.+.o.o.o.o.o.o.o.o.o.<.t.m.| E { _ / ' b.t.<.O.o.o.o.o.o.o.",
";.;.;.%.&.;.&.3.6.i.l.A.H.H.C.z.7.7.:.;.-.-.-.-.-.-.+.;.o.O.-.-.-.-.+.X.o.o.o.o.*.X.o.o.o.+.3.8.j.n.H.F.n.g.e.$.+.o.o.o.o.o.o.o.",
"&.;.;.;.&.;.;.;.;.>.5.p.f.f.i.5.:.:.:.-.:.-.:.-.:.-.;.+.O.o.-.o.-.-.-.%.X.o.o.o.o.o.o.o.o.o.%.+.6.w.y.y.8.3.O.%.o.o.o.o.o.o.o.o.",
";.;.&.;.;.;.&.;.;.;.;.:.:.3.:.;.-.-.:.:.-.-.-.-.-.+.;.;.-.-.-.O.O.o.%.o.%.o.o.o.o.o.o.o.o.o.o.o.O.+.:.:.%.X.o.o.o.o.o.o.o.o.o.o.",
"&.;.&.;.;.&.;.;.;.;.;.&.;.;.;.;.:.-.-.;.-.-.3.+.-.+.-.;.-.-.-.-.O.o.%.o.o.X.o.o.o.o.o.o.o.o.o.o.o.o.o.o.o.o.o.o.o.o.o.o.o.o.o.o.",
";.;.&.;.&.;.;.;.;.;.;.;.;.;.;.;.-.:.-.:.:.-.O.-.;.-.-.+.%.-.-.-.-.O.%.X.o.o.o.o.o.X.o.o.o.o.o.o.o.o.o.o.o.o.o.o.o.o.o.o.o.o.o.o.",
"&.;.&.&.;.;.&.&.&.&.-.;.&.;.;.+.:.-.-.-.;.X.o.o.o.o.o.-.X.%.X.%.X.o.o.o.o.o.o.o.o.o.o.o.o.o.o.o.o.o.o.o.o.o.o.o.o.o.o.o.o.o.o.o."
};
