/* XPM */
static char *result[] = {
/* columns rows colors chars-per-pixel */
"64 64 165 2 ",
"   c #000000",
".  c #0C0B05",
"X  c #09050D",
"o  c #0B0B0B",
"O  c #0C0612",
"+  c #130A1B",
"@  c #110817",
"#  c #131313",
"$  c #1B1B1B",
"%  c #212015",
"&  c #33301E",
"*  c #1B0D26",
"=  c #291636",
"-  c #2A153A",
";  c #232323",
":  c #2C2C2C",
">  c #343434",
",  c #3C3C3C",
"<  c #675D3E",
"1  c #736328",
"2  c #321848",
"3  c #421F5F",
"4  c #47245E",
"5  c #4B216D",
"6  c #582C7C",
"7  c #613677",
"8  c #444444",
"9  c #4C4C4C",
"0  c #545454",
"q  c #5E5E5E",
"w  c #696443",
"e  c #7D7850",
"r  c #7B447D",
"t  c #7F4A7D",
"y  c #616161",
"u  c #847E54",
"i  c #A7715E",
"p  c #AB745C",
"a  c #AF7A5B",
"s  c #B07A5C",
"d  c #824E7A",
"f  c #A97260",
"g  c #A77361",
"h  c #AD953E",
"j  c #BDA13C",
"k  c #BDA040",
"l  c #A39B66",
"z  c #BC9268",
"x  c #ABA36C",
"c  c #BBB378",
"v  c #C8944D",
"b  c #C99956",
"n  c #C6955B",
"m  c #C8965A",
"M  c #C7985A",
"N  c #C2A540",
"B  c #C5AA47",
"V  c #D7B642",
"C  c #D9B844",
"Z  c #C99C6F",
"A  c #C39560",
"S  c #C89B71",
"D  c #C4AF7A",
"F  c #C5BC7D",
"G  c #C4B07A",
"H  c #FFD84E",
"J  c #E7C750",
"K  c #F3CB54",
"L  c #FFDA52",
"P  c #F9D65C",
"I  c #FEDB5B",
"U  c #F9D351",
"Y  c #F7D462",
"T  c #F9D561",
"R  c #FBDC6A",
"E  c #FFDE61",
"W  c #FFDF70",
"Q  c #F1D67D",
"!  c #F9DF79",
"~  c #F4DC79",
"^  c #FFE169",
"/  c #FFE374",
"(  c #FDE57B",
")  c #FFE87F",
"_  c #5F2C87",
"`  c #632D8F",
"'  c #65318F",
"]  c #6A358D",
"[  c #6E3A8E",
"{  c #6D3687",
"}  c #703D8E",
"|  c #672E95",
" . c #682F96",
".. c #662998",
"X. c #682C98",
"o. c #663190",
"O. c #683492",
"+. c #6C3A91",
"@. c #713E93",
"#. c #773F98",
"$. c #7C4382",
"%. c #75438F",
"&. c #7A498F",
"*. c #744391",
"=. c #7A4695",
"-. c #7B4B91",
";. c #774891",
":. c #7F5191",
">. c #895C8F",
",. c #81528F",
"<. c #824F96",
"1. c #825491",
"2. c #855991",
"3. c #8E628F",
"4. c #91668F",
"5. c #956A8F",
"6. c #9A728F",
"7. c #8D6292",
"8. c #926595",
"9. c #956B91",
"0. c #9A6F95",
"q. c #976998",
"w. c #9B7292",
"e. c #A57F8E",
"r. c #AA858F",
"t. c #A7828F",
"y. c #B8978F",
"u. c #A98492",
"i. c #AE8A91",
"p. c #B08D90",
"a. c #B99693",
"s. c #BD9D91",
"d. c #C4A48B",
"f. c #CBAC8C",
"g. c #CBAB87",
"h. c #CDB18E",
"j. c #D9BE8C",
"k. c #D0B38E",
"l. c #C0A191",
"z. c #CBAB92",
"x. c #C9A793",
"c. c #CFB293",
"v. c #DABD91",
"b. c #CFC684",
"n. c #DAC08C",
"m. c #E0C78F",
"M. c #E2CA8F",
"N. c #F5DC81",
"B. c #E2CB93",
"V. c #E9DF95",
"C. c #FBE382",
"Z. c #FFE981",
"A. c #F9E397",
"S. c #FFEA97",
"D. c #F2E89B",
"F. c #FFF29E",
"G. c #FFF4A3",
"H. c #FFF5AA",
"J. c #F1E9B3",
"K. c #FFF7BD",
"L. c #FAEBC2",
"P. c #FFF1C1",
"I. c #FFF9CF",
"U. c #FFF9D0",
"Y. c white",
/* pixels */
"` ` ` ` ` ` ` o.| ` o.' ` o._ o.' ` ' ` ' ` |   ` ` ` ` ` ..` _ ..` ` ` ` ` ` `   * | ` ` ` | ` _ _ | _ ` ` ` ` | ` | o.o.| o...",
"` ` ` ` ` ` ` ` ` ' o.` o.o.` | ` ' ` ' ` `       ` ` ` ` ` ` ` _ ` ` ` ` ` `     O ` ` ` ` _ ` | | _ | ` ` ` ` o.o.o.| | o.o...",
"` ` ` ` ` ` _ o.o.o.` o.' o.` ` ' ` ' | '           ` ` ` ` ` ` ..` _ ` `           O ` ` ` ` | ` ` | _ ` ` ` ` o.o.o.o.o.| | ..",
"` ` ` ` ` ` | ' o.' o.o.o.o.` ' ` ' ` o.            ` ` ` ` ` ` ` ` ..`               | ` ` ` _ ` ` ` | ` ` ` ` o.| | o.| o.o...",
"` ` _ | ` _ | o.o.o.o.o.` o.` ` ' ` '                 | ` ` ` ` ` ` |                 X ` ` ` | ` ` ` ` ` ` ` ` o.| | o.o.o.| ..",
"` ` ` ` | | _ ` ` o.` o.o.o.' ` ` ' X                 | ` ` ` ` ` | *                   ` ` ` _ ` ` ` ` ` ` ` ` | o.o.| o.| o...",
"` ` ` ` _ ` ` | o.o.o.` ' o.` ` ` 2                     ` | ` ` ` 5 O                     | _ | ` _ ` _ ` _ | ` o.o.o.o.o.o.o...",
"| ' ' ' o.o.o.` ` ` ` ` ` ` ` ' ` O                     O - = = = O                       O ' ' ` | | | o.| ' ` o.o.o.o.o.o.o.o.",
"o.o.o.o.o.o.o.` ` ` _ | ` ` ` | 5                                         X               X ' ' ` o.` ' ` ' ' o.o.o.o.o.o.o.o.O.",
"` o.o.o.o.o.` ` ` ` | _ ` ` ` ` -               . X o # $ $ $ $ $ $ $ # o o .               ' | o.o.' ` ' | o.o.o.o.o.o.o.o.O.O.",
"o.o.o.o.o.o.o.` _ ] r n ^ Y v r *           . $ $ : > , 8 8 8 8 , > > > : : : $ o .         [ $.M R R v r ] ' ' o.o.| o.O.o.o.O.",
"` o.o.o.o.` o.` ] S L.I.G.G.F.~ o       o ; : > 8 8 0 q q q q q y q q q q 0 0 9 , : #       z L.U.G.G.F.C.n ] o.o.o.o.o.o.o.o.O.",
"' o.o.o.o.' o.| p V.K.H.G.G.G.e     . $ > 9 0 q y q q q q y q q q q q q q q q q q q > $ X   < J.H.G.G.G.G.~ i ' o.o.o.o.o. .o.O.",
"' ' o.o.' ' ` _ H G.G.G.G.G.c o     $ 8 q q q q q q q q q q q q q q q q q y q q q q q > ; o   w b.G.G.G.G.F.K ' o.o.o.o.o.o.O.O.",
"' ' o.` ' ' ` ' a ( G.G.G.V.      $ 9 q q q q q q q y q q q q q q q q q q q q q q q q q 8 ; o   % F G.G.G.( i | | o.| o.o.o.o.o.",
"' o._ o.' ' ' ' ' b ( V.l o     # 9 q q q q q q q q q q q q q q q q q q q q q q q q q q q 8 ; .     D.G.( M ' o.o.| o.| o.o.o. .",
"' ' o.o.o.' ' o.' ] t 1 .     # 0 q q q q q q q q q q q q q q q q q q y q q q q q q q q q q 9 $     & V r ] ` ` ' o.o.o.o.o.| o.",
"' ' ] ] ' o.' o.o.o.4 .     . 9 q q q q q q q q q q q q q q q q q q q q q q q q q q q q q q q 8 #     j 6 o.| ' | o.o.o.| ' o.o.",
"' *.;.:.;.%.'               , q q q q q q q q q y q q q q q q q q q q q q q q y q q q q q q q q : .   .           ' o.O.+.O.o.o.",
";.4.t.y.t.4.;.  Y.        $ q q q q q q q q q q q q q q q q y q q q q q q q q q q q q q q q q q 9 #           Y.  O.*.-.2.-.*.O.",
"4.f.P L P h.6.          . 9 q q q q q q q q q q q q q q q q q q q q q q q q q q q q q q q q q q q > X             =.9.i.l.p.9.=.",
"d.I ( G.( L j.          ; 0 q q q q q q q q q q q q q q q q q q q q q q q q q q q q q q q q q q q 9 $             w.z.I L P c.q.",
"Q ) G.G.G.) )           8 q q q q q q q q q q q q q q q q q q q q q y q q q q q q q q q q q q q q q : .           v.I ( G.S.W x.",
"H F.G.G.G.G.V           9 q q q q q q q q q q q q q y q q q y q q q q q q q q q q q q q q q y q q q 8 #           ) Z.G.G.K.P.C.",
"^ G.G.G.G.G.x         # 0 q q q q q q q q q q q q q q q q q q q q q q q q q q q q q q q q y q q q q 0 > .   .     J G.G.G.H.U.I ",
"^ G.G.G.G.G.F         8 q q q q q q q q q q q q q q q q q q q q q q q q q q q q q q q q q q q q q q y q $         F G.G.G.G.G.^ ",
"I U.H.G.G.G.J         0 q q q q q q q q y q q q q q q y q q q q q q q q q y q q q q q q q q q q q q q q 8         x G.G.G.G.G.^ ",
"Q P.K.G.G.) (       . 0 q q q q q y q q q q q q q q q q q q q q q q q y q q q q q q q q q q q q q q q q q $       V G.G.G.G.F.L ",
"d.R S.G.( L n.        9 q q q q q q q q q q q q q q q q q q y q q q q q q q q q q q q q q q q q q q q q q 8 X     Z.Z.G.G.G.) C.",
"5.h.P H I k.w.        . 0 q q q q y q q q q q q q q q q q q q q q q q q q q q q q q q y y q q q q q q q q 0 ;     v.I ( G.( E x.",
"-.9.p.l.p.9.-.          , q q q q q q q q q q q q q q y q q q q q q q q q q q q q q q q q q q q q q q y q 0 $     0.x.T I Y z.q.",
"[ *.:.2.:.;.[           o 0 q q q y y q q q q y q q q q q q q q q q q y q q q q q q q q q q q q q q q q q 8 #     =.8.u.a.e.8.#.",
"o.o.+.+.+.] O.            : q q q q y q q q q q q q q q q q q q q q q q q q q y q q q q q q q q q q q y 9 : o     | @.=.<.=.@...",
"o.O.o.] o.O.]               , q q q y q y q q q q q q q q q q q q y q q q q q q q q q q q y q q q q q 9 : ; .     | | |  . . ...",
"*.o.] O.o.O.O.                , q q q q q y y q q q q q q q q q q q q q q q q q q q q q q q q q q q 9 : : o       | ..| | ..X...",
"` ` ` ` ' ' `                   ; 9 q q q q q q q q q q q y q q q q q q q q q q q q q q q q q q 0 , > ; o         | | | | | X. .",
"` ] i J p ' `                     o $ 8 q q q q y q q q q q q q q q q q q q q q q q q q q q q 8 > : $ .            .X.s H p O.X.",
"] M ( F.! n ]                         o # : 8 9 0 q q q q y q q y q q y q q 9 9 0 0 0 9 8 , ; $ #                 O.m ! G.A.Z O.",
"r ) G.G.G.( r                                     o o o ; 8 9 9 9 , > : ; : ; ; ; $ # # o o .                     d C.G.F.K.L.,.",
"v F.G.G.G.G.V                                               o # o o   X .                                         J G.G.G.G.I.m ",
"R G.G.G.G.G.x                                                                                                     F G.G.G.G.G.R ",
"^ G.G.G.G.G.F                                                                                                     x G.G.G.G.G.R ",
"n U.H.G.G.G.J                                                                                                     V G.G.G.G.F.v ",
"r J.P.H.G.) t                                                                                                     $.Z.G.G.G.C.$.",
"] Z A.G.( b ]                                                                                                     +.n ! G.! n +.",
"' ] p L a +.'                                                                                                     X.O.f K f ] X.",
"' ' o.' o.o.o.                                                                                                    | o. .| | O.X.",
"' ' o.o.' ' o.                                                                                                    | | | | O.X.O.",
"' ' o.' o.o.o.  Y.                                                                                            Y.  | | | | | o.o.",
"o.O.O.o.o.o.o.                                                                                                    ' ' ' ' ' o.| ",
"o.O.o.o.o.o.O.+.:.u.g.j x x B G u.:.*.o.O.O.O.O.O.O.+.O.O.6 j l x B 7 ] +.O.O.O.O.O.o.O.O.+.-.u.G N l x h G r.-.O.o.o.' o.` o.` ",
"o.o.o.O.o.o.O.;.w.v.) C x F J ( b.6.;.+.O.+.O.+.+.O.[ O.} $.V x F J t [ O.O.O.O.O.O.O.] O.;.w.j.Z.V x F J ( j.w.&.' ' | o.o.o.' ",
"o.o.o.o.o.o.*.8.h.I ) G.F.G.G.) I b.4.*.+.+.o.+.+.' ' } m ( G.G.G.G.C.M [ O.o.O.O.O.' O.*.9.f.I Z.G.G.G.G.Z.L h.9.%.o.o.` ' | ' ",
"o.o.+.o.o.+.;.u.P ( G.G.G.G.G.G.( I i.:.+.o.+.o.+.O.` l ! G.G.G.G.G.G.! a O.O.O.O.O.o.+.-.u.P ( G.G.G.G.G.G.( P r.-.o.o.o.o.' ' ",
"o.o.o.o.o.+.:.a.L G.G.G.G.G.G.G.F.L s.:.+.o.+.+.] +.O.K G.G.G.G.G.G.G.G.U O.O.O.O.O.O.[ 1.y.L G.G.G.G.G.G.G.F.L s.1.] o.` o.` ' ",
"O.o.o.o.o.+.;.u.Y ( G.G.G.G.H.K.D.P p.:.+.+.o.+.O.O.o.p ! G.G.G.G.H.K.A.a O.' O.O.O.O.O.-.u.Y / G.G.G.G.H.K.S.P i.&.o.o.o.' ' ' ",
"O. . .O. .O.*.8.f.E Z.G.G.G.U.P.( b.4.;.o.o.+.' *.' ] %.A C.D.G.G.I.L.S { ` ` ` ` ` ` ` O.3.g.E Z.F.G.G.I.K./ g.4.[ | _ | _ | _ ",
"O.O.O. .O. .O.=.9.f.C.L ^ ^ I Q d.9.;.o.+.o.o.o.o.' ' o.] t v R R n t ] ' ` ` ` ` ` ` ` ` %.5.d.( H ^ R P Q d.4.%.' ` ` _ | ` | ",
" .O.O.O. .O.O.+.;.8.i.c.B.m.z.u.:.:.+.o.o.o.+.+.o.o.o.o.o.o.o.o.o.' ' ` | _ ` ` ` ` ` ` _ o.*.>.r.f.M.m.f.e.2.%.] | _ | ` ` ` ` ",
"O. . .O.O. . .O.O.+.:.7.w.0.7.-.+.+.+.+.+.o.o.o.' o.' ' o.o.o.o.o.' o.` ` ` | _ ` ` ` ` | _ o.+.=.>.5.5.2.%.O.` | _ | _ ` ` ` ` ",
" . .O. . .O.O.O.O.O.O.+.*.*.O.O.o.+.o.o.o.+.+.o.+.o.+.o.o.o.o.o.o.` o.` _ _ | _ ` ` ` ` ` ` | _ ' ] [ +.| _ ` ` ` ` ` ` ` ` ` ` ",
"O.O. .O.O. . .O.O.O. . .o.O.O.O.+.o.+.o.+.o.o.o.o.o.o.] o.o.o.o.o.o.o.` | | _ | ` ` ` ` ` | _ | ' ` ` ` ` ` ` ` ` ` ` ` ` ` ` ` ",
" .O.O. . .O. .O.O. .O.O.O.O.O.+.o.+.o.+.o.o.o.o.o.o.o.+.` o.o.o.o.` ` ` ` ` | _ ` ` ` ` ` ` | _ _ ` ` ` ` ` ` ` ` ` ` ` ` ` ` ` ",
"O.O. .O.O. .O.O. .O. .o.o.O.o.O.o.+.o.o.o.o.` _ o.o.o._ ` ` ` ` ` ` ` ` ` ` ` | ` ` ` ` ` ` _ | | ` ` ` ` ` ` ` ` ` ` ` ` ` ` ` "
};
