/* XPM */
static char *result[] = {
/* columns rows colors chars-per-pixel */
"64 64 140 2 ",
"   c black",
".  c #5C2F77",
"X  c #592C7D",
"o  c #5F3276",
"O  c #613677",
"+  c #7B447D",
"@  c #7F497E",
"#  c #A7715D",
"$  c #AB755C",
"%  c #AE795C",
"&  c #B07C5A",
"*  c #824D7A",
"=  c #A76E61",
"-  c #A77162",
";  c #AA7161",
":  c #C1A43D",
">  c #B79D42",
",  c #BD9F40",
"<  c #A49C67",
"1  c #A39C69",
"2  c #AAA36C",
"3  c #C7944E",
"4  c #C8934E",
"5  c #C99754",
"6  c #CA9A55",
"7  c #C6955B",
"8  c #C8955B",
"9  c #C79859",
"0  c #C2A540",
"q  c #C6AA45",
"w  c #D7B642",
"e  c #D9B844",
"r  c #C49561",
"t  c #C99D6F",
"y  c #C79B71",
"u  c #C99D71",
"i  c #C4AF77",
"p  c #C3AF7B",
"a  c #C4B077",
"s  c #C4B07D",
"d  c #C5BC7D",
"f  c #FFD84D",
"g  c #E7C750",
"h  c #F2CB54",
"j  c #F9D351",
"k  c #FFDA53",
"l  c #F9D55C",
"z  c #FEDA5A",
"x  c #DACA77",
"c  c #D9CB7A",
"v  c #F7D561",
"b  c #F9D560",
"n  c #FFDE60",
"m  c #FCDC6A",
"M  c #F7DD77",
"N  c #FFDF71",
"B  c #F1D77E",
"V  c #F9DF79",
"C  c #FFE169",
"Z  c #FFE374",
"A  c #FEE57B",
"S  c #FFE87F",
"D  c #632D8F",
"F  c #6D3687",
"G  c #65308F",
"H  c #6A358D",
"J  c #6D398D",
"K  c #7A3D85",
"L  c #703D8C",
"P  c #662C96",
"I  c #692E94",
"U  c #662998",
"Y  c #6A2E98",
"T  c #663290",
"R  c #683492",
"E  c #6D3A91",
"W  c #723D94",
"Q  c #7C4083",
"!  c #7F4981",
"~  c #75448F",
"^  c #7B4B8F",
"/  c #744390",
"(  c #794695",
")  c #7B4B91",
"_  c #7F5092",
"`  c #814E80",
"'  c #80518F",
"]  c #885C8F",
"[  c #835592",
"{  c #855990",
"}  c #895D90",
"|  c #8D608F",
" . c #91668F",
".. c #956B8F",
"X. c #986E8F",
"o. c #9B738F",
"O. c #8D6190",
"+. c #926792",
"@. c #956B91",
"#. c #986F92",
"$. c #9C7392",
"%. c #A6818F",
"&. c #A9848F",
"*. c #AE8A8F",
"=. c #B8968F",
"-. c #B9988F",
";. c #A78190",
":. c #AA8592",
">. c #AE8A91",
",. c #B08C92",
"<. c #B99695",
"1. c #BB9A91",
"2. c #C09F95",
"3. c #CBAB87",
"4. c #C2A18C",
"5. c #CAAC8C",
"6. c #CEB18E",
"7. c #D9BF8C",
"8. c #C1A190",
"9. c #CBAB91",
"0. c #CEB290",
"q. c #D0B193",
"w. c #DABE91",
"e. c #DFC58C",
"r. c #E2CA8E",
"t. c #F7DF81",
"y. c #E2CA90",
"u. c #FBE381",
"i. c #FFE980",
"p. c #F9E397",
"a. c #FFEA97",
"s. c #FFF29E",
"d. c #FFF4A3",
"f. c #FFF5AA",
"g. c #FFF7BD",
"h. c #FAEAC1",
"j. c #FFF1C2",
"k. c #FFF9CF",
"l. c #FFF9D0",
"z. c white",
/* pixels */
"D D D D D D D D G G D T T P D D D G D D G D D D D D D D D D D D D D D D D D D D D G D D D D D D D D D D D D D D D D T P T T T U ",
"D D D D D D D D G T T T D T G D G D G G D D D D D D D D D D D D D D D D D D D D G D D D D D D D D D D D D D D D T T T T T P P U ",
"D D D D D D D G T T D D G G D D G G G D G D D D D D D D D D D D D D D D D D D D G D D D D D D D D D D D D D D D T P P P T T T U ",
"D D D D D D D P D T T T G G D G D G D G D D D D D D D D D D D D D D D D D D D D D D D D D D D D D D D D D D D D T D T T T P T U ",
"D D D D D D D T T G T D T D D G D G D D D D D D D D D D D D D D D D D G D D D D D D D D D D D D D D D D D D D D T P P T P T T U ",
"D D D D D D D D D G G G G T D G G D D G G D D D D D D D D D D D D D D D D D G D G D D D D D D D D D D D D D D D T T T T T T T U ",
"D D D D D D D T T T G G G D G D G D D G D D G G D D D D D D D D D D D G G G D G G G D D D D D D D D D D D D D D P T P T T P T U ",
"P G G G D G T D D D G H E E E G D G D G G G T T D G G G D T D T D D G R G G R R T T D T T G T H T / E T G D T T T T T T T T T R ",
"T T T T G G T D D E ^ } X.#.O.~ H G G G G G T T T T T G T G G P D G G R T H T T T T T T T T / _ O.o.@.O.~ R T G T T T T P T T R ",
"T T T T T G T H / O.&.6.r.e.5.%.{ / T G G G T T T T H G T G G T G G G T E T T E T T T T H ^ _ *.0.y.e.5.:.O./ H T T T T T T T R ",
"T T G T G T H ~ @.5.A l C C f B 4. .~ D G G T T T T G H + 9 m m 5 Q T R H T T R T T T H ^ ..5.V z C C f B 4. ./ R P T T T T T R ",
"T D T G T R / X.6.C j.l.d.d.s.i.z 3. ./ G G T T H T J t h.k.d.d.d.u.> / R T H H T T T /  .5.Z g.l.d.d.s.S n 5.@./ T T T T R R R ",
"T T G G G E ^ *.l a.g.f.d.d.d.d.A l &.^ G T T T T T $ p.g.f.d.d.d.d.Z # T H T T T E E ^ *.z s.g.f.d.d.d.d.A l &.) R T T T T T R ",
"D T G G T H _ 8.f d.d.d.d.d.d.d.d.k -._ H G T G T T f d.d.d.d.d.d.d.s.h H T R R T T J _ 4.k d.d.d.d.d.d.d.d.k -._ R T T T T T R ",
"G D G G G H _ ,.l S d.d.d.d.d.d.A l &.) H T T T T G % A d.d.d.d.d.d.A # T T T T T T E ^ *.l M d.d.d.d.d.d.A v :.) R T T T T P R ",
"G G G G G G / X.6.k i.d.d.d.d.i.z 5. .J T T G T T G G 6 i.d.d.d.d.u.7 G T T T R T T T / ..e.k S d.d.d.d.S z 5.O./ R P T T P R P ",
"G G G G G D T ) $.e.A g d 2 e S r.o./ H P G G G T G T H @ g d 2 w + J T H T T T G H P H ~ o.e.A g d 2 w S 7.o.~ R T T T T T T T ",
"G G G G G G G E } 8.x q 2 < : c 5.] H D G G T T T T T G o q 2 1 : X T T T T G T T G G G H ^ %.i q 2 1 0 s ;.^ R T T G G P G P T ",
"G G D G G G G                                                                                                     P G P P T T T ",
"G G G G G G R   z.                                                                                            z.  T T T T T P T ",
"G H # h $ P T       z.z.z.z.z.z.z.z.z.z.z.z.z.z.z.z.z.z.z.z.z.z.z.z.z.z.z.z.z.z.z.z.z.z.z.z.z.z.z.z.z.z.z.z.      G T P T T T T ",
"H 7 V d.A > T     z.z.z.z.z.z.z.z.z.z.z.z.z.z.z.z.z.z.z.z.z.z.z.z.z.z.z.z.z.z.z.z.z.z.z.z.z.z.z.z.z.z.z.z.z.z.    P P $ j $ T U ",
"+ A d.d.d.i.+     z.z.z.z.z.z.z.z.z.z.z.z.z.z.z.z.z.z.z.z.z.z.z.z.z.z.z.z.z.z.z.  z.z.z.z.z.z.z.z.z.z.z.z.z.z.    T 6 A d.p.u I ",
"3 s.d.d.d.d.w     z.z.z.z.z.z.z.z.z.z.z.z.z.z.z.z.z.z.z.z.z.z.z.z.z.z.z.z.z.z.z.  z.z.z.z.z.z.z.z.z.z.z.z.z.z.    * i.d.d.g.h.K ",
"v d.d.d.d.d.2     z.z.z.z.z.z.z.z.  z.z.z.z.  z.z.z.z.z.z.z.z.z.z.z.z.z.z.z.z.z.  z.z.z.z.z.z.z.z.z.z.z.z.z.z.    g d.d.d.f.l.8 ",
"m d.d.d.d.d.d     z.z.z.z.z.z.z.z.  z.z.z.    z.z.z.z.        z.z.  z.z.z.z.z.z.  z.    z.z.z.      z.z.z.z.z.    d d.d.d.d.d.m ",
"7 l.f.d.d.d.g     z.z.z.z.z.z.z.      z.      z.z.z.    z.z.  z.z.  z.z.z.  z.z.    z.    z.    z.  z.z.z.z.z.    2 d.d.d.d.d.m ",
"+ j.j.d.d.S +     z.z.z.z.z.z.z.      z.  z.  z.z.z.  z.z.z.  z.z.  z.z.z.  z.z.  z.z.    z.  z.z.  z.z.z.z.z.    w d.d.d.d.d.4 ",
"H t p.d.A 6 J     z.z.z.z.z.z.    z.  z.  z.    z.z.  z.z.    z.z.  z.z.z.  z.    z.z.    z.  z.    z.z.z.z.z.    K S d.d.d.u.K ",
"H J & k < T R     z.z.z.z.z.z.  z.z.  z.  z.    z.z.  z.z.    z.z.  z.z.z.  z.    z.z.  z.z.        z.z.z.z.z.    T 7 V d.V 7 I ",
"G R T H D F D     z.z.z.z.z.z.  z.z.      z.    z.z.        z.z.z.    z.    z.    z.z.  z.z.  z.z.z.z.z.z.z.z.    I I ; h = I U ",
"H R T T G G H     z.z.z.z.z.    z.z.    z.z.    z.z.    z.    z.z.          z.        z.z.z.      z.z.z.z.z.z.    U P P I P U U ",
"H T G G T H T     z.z.z.z.z.z.z.z.z.z.z.z.z.z.z.z.z.z.z.z.z.z.z.z.z.z.z.  z.z.z.z.z.z.z.z.z.z.z.z.z.z.z.z.z.z.    P U Y U Y P P ",
"R R H / E H R     z.z.z.z.z.z.z.z.z.z.z.z.z.z.z.z.z.z.z.z.z.z.z.z.z.z.z.  z.z.z.z.z.z.z.z.z.z.z.z.z.z.z.z.z.z.    P U Y Y Y Y U ",
"H / _ _ ^ / R     z.z.z.z.z.z.z.z.z.z.z.z.z.z.z.z.z.z.z.z.z.z.z.z.z.z.    z.z.z.z.z.z.z.z.z.z.z.z.z.z.z.z.z.z.    R W ' [ ( / Y ",
"/ @.;.-.;. .~     z.z.z.z.z.z.z.z.z.z.  z.z.z.z.z.z.z.z.z.z.z.z.          z.z.z.z.z.z.z.z.z.  z.z.z.z.z.z.z.z.    ( @.,.2.,.@.( ",
" .5.v k l 5.o.    z.z.z.z.z.z.z.z.z.z.  z.z.z.z.z.z.z.z.z.z.z.z.z.z.z.z.z.z.z.z.z.z.z.z.z.z.z.z.z.z.z.z.z.z.z.    $.q.l z b q.#.",
"4.z A s.A z 7.    z.z.z.z.z.z.z.  z.z.  z.z.z.z.z.z.z.z.z.z.z.z.z.z.z.z.z.z.z.z.z.z.z.z.z.z.z.z.z.  z.z.z.z.z.    e.z S f.a.N 9.",
"B S d.d.d.S S     z.z.z.z.z.        z.  z.    z.z.z.      z.z.z.z.z.z.      z.    z.z.  z.  z.        z.z.z.z.    i.i.d.d.j.j.u.",
"f s.d.d.d.d.w     z.z.z.z.z.z.    z.z.    z.  z.z.    z.    z.z.z.z.    z.    z.  z.  z.z.  z.z.    z.z.z.z.z.    g d.d.d.f.l.z ",
"C d.d.d.d.d.2     z.z.z.z.z.z.  z.z.      z.  z.z.    z.    z.z.z.    z.z.    z.      z.z.  z.z.    z.z.z.z.z.    d d.d.d.d.d.C ",
"C d.d.d.d.d.d     z.z.z.z.z.z.  z.z.    z.z.  z.z.  z.    z.z.z.z.    z.    z.z.    z.z.z.  z.z.  z.z.z.z.z.z.    2 d.d.d.d.d.C ",
"z l.f.d.d.d.g     z.z.z.z.z.z.  z.z.    z.z.  z.z.        z.z.z.z.        z.z.z.    z.z.z.  z.z.  z.z.z.z.z.z.    w d.d.d.d.d.f ",
"B g.g.d.d.i.A     z.z.z.z.z.z.  z.z.  z.z.z.  z.z.  z.z.z.z.z.z.z.    z.z.z.z.  z.    z.z.  z.z.  z.z.z.z.z.z.    i.i.d.d.d.i.u.",
"4.C a.d.S z e.    z.z.z.z.z.z.    z.  z.z.z.    z.      z.z.z.z.z.z.      z.    z.z.    z.    z.    z.z.z.z.z.    w.n V d.A z 9.",
"@.5.l f z 6.o.    z.z.z.z.z.z.z.z.z.z.z.z.z.z.z.z.z.z.z.z.z.z.z.z.z.z.z.z.z.z.z.z.z.z.z.z.z.z.z.z.z.z.z.z.z.z.    $.9.m k b 9.@.",
"^ @.*.8.>...^     z.z.z.z.z.z.z.z.z.z.z.z.z.z.z.z.z.z.z.z.z.z.z.z.z.z.z.z.z.z.z.z.z.z.z.z.z.z.z.z.z.z.z.z.z.z.    ( +.:.<.:.+.( ",
"G / _ { _ ~ R       z.z.z.z.z.z.z.z.z.z.z.z.z.z.z.z.z.z.z.z.z.z.z.z.z.z.z.z.z.z.z.z.z.z.z.z.z.z.z.z.z.z.z.z.      Y W ( [ ( W R ",
"T T H R R R T   z.                                                                                            z.  P T R R R R I ",
"T T T H T T R                                                                                                     T G P T P G P ",
"T R T T T T R P R R X , 1 2 q O H H T H R H R R R H / _ &.2 : < 2 q 2 ,._ / R R R R T R R T T R X , < 2 > o G T T T T T P T G G ",
"T T T T R T T R R E ` w 2 3.g * J R R R R E H E E R ) $.e.S e 2 6.h A e.$.( R R R R T R T R T L ! w 2 d g @ H T T D D T G G T G ",
"T T T R T T T R Y > S d.d.d.d.S 4 H T R T E T E R / @.6.z S d.d.d.d.S z 0.X./ R T R T R R R J 7 S d.d.d.d.A 6 H D T G G G G G G ",
"T R T T T T T R ; A d.d.d.d.d.d.M < T R T T E T E _ >.l A d.d.d.d.d.d.A l >._ E R R T H T T % V d.d.d.d.d.d.V $ T T G G G G T G ",
"T T T R R T T T l d.d.d.d.d.d.d.s.g E T E E T E / _ 1.z d.d.d.d.d.d.d.s.k 2._ E R R H R T T h a.d.d.d.d.d.d.d.j T T G D G G P G ",
"T R T T T T R R - M d.d.d.d.f.g.p.< T E T T E E R ) >.v A s.d.d.d.d.g.s.l ,._ E R R T R H D = B d.d.d.d.f.g.p.$ T D P T G G G G ",
"Y R R R R P T R J r t.s.d.d.l.h.2 ~ E T E T T T T /  .5.n S s.d.d.k.j.Z 3. .J D D D D D D D F r t.s.s.s.h.g.2 D D D D D D D D D ",
"R R Y P R R Y R R J ! 5 m m 7 ! E E T E E T T E T E ^ @.5.V k C C z B 4. ./ G D D D D D D D D D O 4 m m r Q F D D D D D D D D D ",
"R R R R R Y Y R R R T R R R R H T T T E T T T T T T E ~ O.*.0.y.y.9.%.O./ T D D D D D D D D D D I I D D U D D D D D D D D D D D ",
"R Y R P R R R R R R R R R R T R E T E T T E T T T T T T / ^ O.@.@.O./ H D D D D D D D D D D D D D D D D D D D D D D D D D D D D ",
"R P R R Y R R R P R R R R R R T T T E T E T T T E E T T T T R / / E T D D D D D D D D D D D D D D D D D D D D D D D D D D D D D ",
"P R Y R R R Y R R R R R R R R R T E T E T T E T T T T H T G T G D G G D D D D D D D D D D D D D D D D D D D D D D D D D D D D D ",
"R R R R R P R R R R R R R R R R H T E T E T T T T T T E G G G D G G D D D D D D D D D D D D D D D D D D D D D D D D D D D D D D ",
"R P R P R Y R P R P R P P R H H T T T T T G D D G D D D D D D D D D D D D D D D D D D D D D D D D D D D D D D D D D D D D D D D "
};
