/* XPM */
static char *result[] = {
/* columns rows colors chars-per-pixel */
"64 64 159 2 ",
"   c #000000",
".  c #0A0A04",
"X  c #0B0B0B",
"o  c #09040C",
"O  c #1A170A",
"+  c #0B0510",
"@  c #150A1D",
"#  c #131313",
"$  c #1B1B1B",
"%  c #221D0C",
"&  c #2A281B",
"*  c #190C23",
"=  c #232323",
"-  c #2C2C2C",
";  c #343434",
":  c #3C3C3C",
">  c #493F1B",
",  c #533B2A",
"<  c #5E5A3C",
"1  c #5A2D77",
"2  c #562A7A",
"3  c #613677",
"4  c #444444",
"5  c #4C4C4C",
"6  c #545454",
"7  c #5E5E5E",
"8  c #6C6745",
"9  c #7B447D",
"0  c #7F4A7D",
"q  c #616161",
"w  c #A7715E",
"e  c #AB745B",
"r  c #AF7A5B",
"t  c #B07A5C",
"y  c #824E7A",
"u  c #A97260",
"i  c #A77361",
"p  c #AD953E",
"a  c #C1A43D",
"s  c #A59450",
"d  c #BDA040",
"f  c #A39B66",
"g  c #A39C69",
"h  c #AAA36C",
"j  c #C8944D",
"k  c #C99956",
"l  c #C6955B",
"z  c #C8965A",
"x  c #C7985A",
"c  c #C2A540",
"v  c #C6AA46",
"b  c #D7B641",
"n  c #D9B844",
"m  c #C99C6F",
"M  c #C39560",
"N  c #C89B71",
"B  c #C4AF7A",
"V  c #C4BC7D",
"C  c #C4B07A",
"Z  c #FFD84E",
"A  c #E7C750",
"S  c #F3CB54",
"D  c #FFDA52",
"F  c #F9D65C",
"G  c #FFDB5B",
"H  c #F9D351",
"J  c #F7D462",
"K  c #F9D561",
"L  c #FFDE61",
"P  c #FCDC6A",
"I  c #F7DD77",
"U  c #FFDF70",
"Y  c #F1D67D",
"T  c #F9DF79",
"R  c #FFE169",
"E  c #FFE374",
"W  c #FDE57B",
"Q  c #FFE87F",
"!  c #5D2C85",
"~  c #632D8F",
"^  c #65318F",
"/  c #6A358C",
"(  c #6E3A8E",
")  c #6D3687",
"_  c #703D8E",
"`  c #672E95",
"'  c #682F96",
"]  c #662998",
"[  c #682C98",
"{  c #663190",
"}  c #693492",
"|  c #6C3A91",
" . c #713E93",
".. c #773F98",
"X. c #7C4382",
"o. c #75438F",
"O. c #7A498F",
"+. c #744391",
"@. c #7A4695",
"#. c #774891",
"$. c #7B4B91",
"%. c #7F5191",
"&. c #895C8F",
"*. c #81528F",
"=. c #824F96",
"-. c #825491",
";. c #855991",
":. c #895D90",
">. c #8E628F",
",. c #91668F",
"<. c #956A8F",
"1. c #9A728F",
"2. c #8D6291",
"3. c #926595",
"4. c #956B91",
"5. c #996F93",
"6. c #966798",
"7. c #986A98",
"8. c #9B7292",
"9. c #A57F8E",
"0. c #A7828F",
"q. c #AA858F",
"w. c #B8978F",
"e. c #A68090",
"r. c #A98492",
"t. c #AD8A91",
"y. c #B08D90",
"u. c #B99693",
"i. c #BD9D91",
"p. c #C4A38B",
"a. c #CBAC8C",
"s. c #CBAB87",
"d. c #CDB18E",
"f. c #D9BE8C",
"g. c #D0B38E",
"h. c #C0A191",
"j. c #CAAB91",
"k. c #C9A793",
"l. c #CFB292",
"z. c #DABD91",
"x. c #DAC08C",
"c. c #E0C78F",
"v. c #E2CA8F",
"b. c #F5DC81",
"n. c #E2CB92",
"m. c #FBE381",
"M. c #FFE980",
"N. c #F9E397",
"B. c #FFEA97",
"V. c #F1E799",
"C. c #FFF29E",
"Z. c #FFF4A3",
"A. c #FFF5AA",
"S. c #FFF7BD",
"D. c #FAEBC2",
"F. c #FFF1C1",
"G. c #FFF9CF",
"H. c #FFF9D0",
"J. c white",
/* pixels */
"~ ~ ~ ~ ` ` ! ~ ^ ^ { { ^ ^ ! { { ` { ~ ~ ! ` ` ! ! ` ! ~ ~ ] ~ ! ] ~ ~ ~ ~ ~ ~ ~ ^ ~ ~ ~ ~ ~ ~ ~ ! ] ~ ] ` ! ~ ` { ` { { ` ^ ] ",
"~ ~ ~ ~ ! ` ` ` ~ { ~ { ` ^ ~ ` ! ^ ~ ` { { ! ~ ` ` ` ` ~ ~ ~ ~ ~ ~ ~ ~ ~ ~ ^ ~ ^ ~ ~ ~ ~ ~ ~ ~ ~ ~ ~ ~ ! ~ ` ~ ` { { ^ ` { { ] ",
"~ ~ ~ ~ ` ! ! ^ { ~ { { { ^ ^ ~ ~ ^ { ` ` ! ` ` ` ! ! ` ~ ~ ~ ~ ! ~ ! ~ ~ ^ ~ ^ ~ ^ ~ ~ ~ ~ ! ~ ~ ~ ~ ~ ~ ~ ` ! { { ` ` { ` ` ] ",
"~ ~ ~ ~ ` ! ` ` { { { ~ { { ~ ^ ^ ~ ~ { ! ` ` ! ` ` ` ! ~ ~ ~ ~ ] ~ ] ~ ^ ~ ^ ~ ~ ~ ~ ~ ~ ~ ` ~ ~ ~ ~ ~ ` ! ` ~ ` ^ { { { { { ] ",
"~ ~ ! ` ` ! ` ^ ~ { { { ` ^ ~ ~ ^ ~ ^ ! ~ ~ ~ ~ ! ` ~ ~ ~ ~ ~ ~ ~ ~ ~ ^ ~ ^ ~ ^ ~ ^ ~ ~ ~ ~ ~ ~ ~ ~ ~ ~ ~ ~ ! ` ` { { ` ` ^ { ] ",
"~ ~ ~ ~ ~ ` ! ^ { { ~ ~ ~ ^ ^ ~ ~ ^ ~ ^ ~ ~ ~ ~ ] ! ~ ~ ~ ~ ~ ~ ~ ~ ~ ~ ^ ~ ~ ~ ` { ~ ~ ~ ~ ~ ~ ! ~ ~ ~ ` ! ` ` { ` { { { ` ` ] ",
"~ ~ ~ ~ ~ ~ ~ ` { ^ { { ^ ^ ~ ~ ^ ~ ^ ~ ~ ~ `   ~ ~ ~ ~ ~ ~ ~ ~ ~ ~ ` ~ ~ ~ ^ ~   * ~ ~ ~ ~ ~ ~ ] ~ ~ ~ ` ! ` ! { ` { ` { { ^ ] ",
"` ~ ^ ^ ~ { { ~ { ! ~ ~ ~ ~ ~ ^ ~ ^ ~ ^ ^ ^       { { { ~ } _ | / ~ { { / } /     o ^ ~ ~ ` ^ { ` ^ ~ ^ ~ ^ ` ^ { { { { { { { } ",
"{ { { ~ ^ { { ~ ~ ~ ~ ~ ~ ~ ~ ~ ~ ^ ~ ^ ~           } _ O.2.1.1.:.#.| ^ }           @ ` { ~ { { { ~ ~ { ^ ^ { ^ { { { { { { { } ",
"{ { { { { { ~ ~ ~ ~ ~ ~ ~ ~ ~ ^ ^ ~ ^ ~             O.3.t.l.n.n.j.9.&.#.              ^ { ~ { ~ { { { { ^ ~ ` ^ { { { { { ` { } ",
"{ { { { { { { ~ ~ ^ 9 z P P j 9 / ~ ` o               j.W G R R Z b.p.                  { { / 9 l P P j 9 ^ { ` { { { { { { { | ",
"{ { ~ { { ^ ^ ~ ^ N D.G.Z.Z.C.W l / o                 P F.G.Z.Z.C.M.>                   ^ / m D.G.Z.Z.C.W l / { { { { { { { { } ",
"{ ~ { { { ~ { ~ e N.S.A.Z.Z.Z.Z.E ,                     S.A.Z.Z.Z.V O                     u N.S.A.Z.Z.Z.Z.W w { { { { { { } { } ",
"{ { { { { { { ~ Z Z.Z.Z.Z.Z.Z.Z.V.%                   . & 8 < < < & .                     % Z.Z.Z.Z.Z.Z.Z.C.S ! { { { { { { { } ",
"~ { ! { ^ ^ ^ { r W Z.Z.Z.Z.Z.Z.s                         X .                             o W Z.Z.Z.Z.Z.Z.W w ` ` { { ` { { { ' ",
"{ { { { ^ ^ ~ ^ ^ k m.Z.Z.Z.Z.Q ,                   # # # $ $ $ $ $ # # # X o               k M.Z.Z.Z.Z.W x ^ { ` { { ` { { { ' ",
"{ ! ^ ^ ^ ^ ^ ^ { / 0 A V h a y *           o # = - ; : 4 4 4 4 : : : - - - = $ # X         / 0 A V h b 9 / ` ^ { ` { ` ^ ` ^ { ",
"{ { / / ^ ^ ^ ^ ^ { 1 v h f a 2 o       # $ - : 4 4 6 7 7 7 7 7 7 7 7 7 7 7 6 5 : = #       ! 1 v h g a 2 { ~ ^ ^ ^ { { ^ { ` { ",
"} o.#.%.#.o.^                         $ ; 5 6 7 7 7 7 7 7 7 7 7 7 7 7 7 7 7 7 7 7 6 ; =                           { { } } | { { ",
"#.,.0.w.q.,.#.  J.                  & 4 7 7 7 7 7 q 7 7 7 7 7 7 7 7 7 7 7 7 7 7 7 7 7 : = X                   J.  } +.$.;.$.+.} ",
"4.s.F D F d.1.                    # 5 7 7 7 7 7 7 7 7 7 7 7 7 7 7 7 7 7 7 7 7 7 q 7 7 7 : = X                     @.4.t.h.y.4.@.",
"h.G W Z.W D f.                  # 6 7 7 7 7 7 7 7 7 7 7 7 7 7 7 7 7 7 7 q 7 7 7 7 7 7 7 7 4 = o                   8.j.G D F l.7.",
"Y Q Z.Z.Z.Q Q                 # 6 7 7 7 7 7 7 7 7 7 q 7 7 7 7 7 7 7 7 7 7 7 7 7 7 7 7 7 7 7 5 $                   z.G W Z.B.U k.",
"Z C.Z.Z.Z.Z.b                 5 7 7 7 7 7 7 7 7 7 7 7 7 7 7 7 7 7 7 7 7 7 7 7 7 7 7 7 7 7 7 7 4 #                 Q M.Z.Z.S.F.m.",
"L Z.Z.Z.Z.Z.h               : 7 7 7 7 7 7 7 7 7 7 7 7 7 7 7 7 q 7 7 7 7 7 7 7 7 7 7 7 7 7 7 7 7 -     .           A Z.Z.Z.A.H.G ",
"R Z.Z.Z.Z.Z.V             $ 7 7 7 7 7 7 7 7 7 7 7 7 q 7 7 7 7 7 7 7 7 7 7 7 7 7 7 7 7 7 7 7 7 7 6 #               V Z.Z.Z.Z.Z.R ",
"G H.A.Z.Z.Z.A             5 7 7 7 7 7 7 7 7 7 7 7 7 7 7 7 7 7 7 7 7 7 7 7 7 q 7 7 7 7 7 7 7 7 7 7 ; X             h Z.Z.Z.Z.Z.R ",
"Y F.S.Z.Z.Q Q           = 6 7 7 7 7 7 7 7 q 7 7 7 7 7 7 7 7 7 7 7 7 7 7 7 7 7 7 7 7 7 7 7 7 7 7 7 5 $             b Z.Z.Z.Z.Z.Z ",
"p.U B.Z.Q D x.          4 7 7 7 7 7 7 7 7 7 7 7 7 7 7 7 7 7 7 7 7 7 7 7 7 7 7 7 7 7 7 7 7 7 7 7 7 7 - .           M.M.A.Z.Z.M.m.",
"4.s.F Z G d.8.          6 7 7 7 7 7 7 7 7 7 7 7 7 7 7 7 7 7 7 q 7 7 7 7 7 7 7 7 7 7 7 7 7 7 7 7 7 7 : #           z.G W Z.E L k.",
"$.4.t.h.y.1.#.        # 6 7 7 7 7 7 7 7 7 7 7 7 7 7 7 7 7 7 7 7 7 q 7 7 7 7 7 7 7 7 7 7 7 7 7 7 7 7 7 :     .     5.k.K G J j.6.",
"| +.%.:.%.o.(         4 7 7 7 7 7 7 7 7 7 7 7 7 7 7 7 q 7 7 7 7 7 7 7 7 7 7 q 7 7 7 7 7 7 7 7 7 7 7 7 7 $         @.6.9.u.r.3...",
"{ | | | | ( ^         6 7 7 7 7 7 7 7 7 7 7 7 7 7 7 7 7 7 7 7 7 7 7 7 7 q 7 7 7 7 7 7 7 7 7 7 7 7 7 7 7 4         }  .@.=.@...] ",
"{ { / } } ^ }         6 7 7 7 7 7 q 7 7 q 7 7 7 7 7 7 q 7 7 7 7 7 7 7 7 7 7 7 7 7 7 7 7 7 7 7 7 7 7 7 7 7 #       ] ` ` ' ' [ ] ",
"{ } ^ / ^ } }         5 7 7 7 7 7 7 7 7 7 7 7 7 7 7 7 7 7 7 7 7 7 7 7 7 7 7 7 7 7 7 q 7 7 7 7 7 7 7 q 7 7 4       ` ] ` ] ` ] ] ",
"~ ^ ~ ^ ^ ^ ~           6 7 7 7 7 q 7 7 7 7 7 7 7 7 7 7 7 7 7 7 7 7 7 7 7 7 7 7 7 7 7 7 q 7 7 7 7 7 7 7 7 7 =     ` ` ` ` ` ` ` ",
"^ 3 e S e ^ ~           : 7 7 7 7 7 7 7 7 7 7 q 7 7 7 7 7 7 7 7 7 7 7 q 7 q 7 7 7 7 7 7 7 7 7 7 7 7 7 7 7 6 $     ' [ t D e / [ ",
"/ h T Z.T l /           X 7 7 7 7 q q 7 7 7 7 7 7 7 q 7 7 7 7 7 7 7 7 7 7 7 7 7 7 7 7 7 7 7 7 7 7 7 7 7 7 4 #     } z T Z.N.m } ",
"9 m.Z.Z.Z.W 9             = 7 7 7 7 q 7 7 7 7 7 7 7 7 7 7 7 7 7 7 7 7 7 7 7 7 7 7 7 7 7 7 7 7 7 7 7 7 q 5 ; X     y m.Z.C.S.D.*.",
"j C.Z.Z.Z.Z.b               : 7 7 7 q q q 7 7 7 7 7 7 7 7 7 7 7 7 7 7 7 7 7 7 7 7 7 7 q 7 7 7 7 7 7 7 5 ; $       A Z.Z.Z.Z.G.z ",
"K Z.Z.Z.Z.Z.h                 : 7 7 7 7 7 7 7 7 7 7 7 7 7 7 7 7 7 7 7 7 7 7 7 7 7 7 7 7 7 7 7 7 7 7 5 ; = X       V Z.Z.Z.Z.Z.P ",
"P Z.Z.Z.Z.Z.V                   = 5 7 7 7 7 7 7 7 7 7 7 7 7 7 7 7 7 7 7 7 7 7 7 7 7 7 7 7 7 q 7 7 : - = #         h Z.Z.Z.Z.Z.P ",
"x H.A.Z.Z.Z.A                     X $ 5 7 7 7 7 7 7 q 7 7 7 7 7 7 7 7 q 7 7 q q q q 7 7 7 7 7 5 - = $             b Z.Z.Z.Z.C.j ",
"0 D.S.Z.Z.M.0                           X ; 4 5 6 7 7 7 7 7 7 7 7 7 7 7 7 7 5 5 6 6 6 5 4 : = $ # X               X.M.Z.Z.Z.m.X.",
"/ m N.Z.W k /                                     X X X = 5 5 5 5 : : = = = = = & # # # o X                       / l W Z.T l | ",
"^ / e D r ^ {                                               o # X X X     X                                       ` ` u S u / [ ",
"^ ^ { ^ { { ^                                                                                                     ` ` ` [ { [ } ",
"^ ^ { ^ { ^ {                                                                                                     ` ` ` } ` [ } ",
"^ { { { { { {   J.                                                                                            J.  ` ` ` ` ` ` { ",
"{ { { { { { {                                                                                                     ^ ^ ^ ^ ^ { { ",
"} { { { { { { | %.r.s.a f h v C 0.%.+.} | | } } | } | } | 1 p f h v 3 } } } } } } } } ^ } | $.r.C c f h p C q.O.} { ^ ^ ^ ^ { ~ ",
"{ { } { { { } #.8.z.Q n h V A W x.1.#.} } } } | } } / } _ y n h V A y ( } } } } } } } ^ } #.8.f.M.b h V A W x.8.O.^ { ` ^ ` { ^ ",
"{ { { { } { +.3.a.G Q Z.Z.Z.Z.Q G V 4.#.| { | { } | ' | x M.Z.Z.Z.Z.m.x ( { } } } } ^ } +.4.a.G M.Z.Z.Z.Z.M.D d.,.o.{ ^ ~ ^ { ~ ",
"{ } { { { | $.r.F Q Z.Z.Z.Z.Z.Z.W L y.%.| | { | } / { s T Z.Z.Z.Z.Z.Z.T r } } } } } } | $.q.F W Z.Z.Z.Z.Z.Z.W F t.O.} ^ ^ { { ^ ",
"{ { } { { | %.u.D Z.Z.Z.Z.Z.Z.Z.C.D h.%.| { | { | | } S Z.Z.Z.Z.Z.Z.Z.Z.H } { } } } ^ | -.u.D C.Z.Z.Z.Z.Z.Z.C.D i.%.^ } ^ ^ ` ^ ",
"} { { { { | #.r.J E Z.Z.Z.Z.A.S.V.F t.%.| | { | } } } w T Z.Z.Z.Z.A.S.N.r } } } } } { | $.r.J Q Z.Z.Z.Z.A.S.B.F t.O.{ { ^ ~ ^ ^ ",
"' } ' } } } +.3.d.L M.Z.Z.Z.H.F.E d.4.#.{ { | { ^ } / _ h b.C.Z.Z.G.S.N ^ ~ ~ ~ ! ] ~ ~ ( 2.s.G M.C.Z.Z.G.S.E s.,.( ` ` ! ` ` ! ",
"} ' } } ' ' ' +.4.a.m.D R R G b.p.1.#.| | { ^ { ^ { ^ { ) 9 j P P l 0 / ~ ~ ~ ~ ~ ~ ~ ~ ~ o.<.p.W D R L G Y p.,.O.^ ! ` ` ! ~ ` ",
"} ' } ' } } ' +.@.3.t.l.n.n.j.e.%.%.+.{ { ^ | | | ^ { } ^ ^ { { { ^ ^ ~ ~ ~ ~ ~ ~ ~ ~ ~ ~ ^ o.:.0.a.v.c.k.9.;.+.^ ~ ~ ` ` ! ~ ~ ",
"' } ' } } ' } } } | %.2.5.1.>.@.+.{ { | | ^ ^ ^ ^ } / / ^ ^ { ^ { { { ~ ~ ~ ~ ~ ~ ~ ~ ~ ~ ~ ^ ( @.:.<.<.;.o./ ~ ^ ~ ~ ! ~ ` ` ! ",
"} ' } ' } } ' ' } } } | +.+.| } | { { { { { +.{ / / } / ^ { { { ^ ~ ~ ~ ~ ~ ~ ~ ~ ! ] ~ ~ ~ ~ ~ ^ / ( ( ^ ^ ~ ~ ~ ~ ` ] ~ ` ! ` ",
"' } ' } ' ' } } ' } } } { ' } } { { | { { { { { } } } { { { ~ { ^ ` ~ ~ ~ ~ ~ ! ~ ~ ~ ~ ~ ~ ~ ~ ~ ~ ~ ~ ~ ~ ~ ~ ~ ` ! ! ! ] ~ ~ ",
"} ' } ' } ' } } } } } } } } } } { | { | | { ^ } { ^ { } ^ { { { ^ ^ ` ~ ~ ~ ~ ~ ~ ~ ` ] ~ ~ ~ ~ ~ ~ ~ ~ ~ ~ ~ ~ ~ ~ ~ ~ ` ` ~ ~ ",
"} ` } } ' } ' ' ' ' { ' { { } } | { { { { { ~ ~ ^ ~ ~ ~ ~ ~ ~ ~ ~ ~ ~ ~ ~ ~ ~ ~ ~ ` ! ! ~ ~ ~ ~ ~ ~ ~ ~ ~ ~ ~ ] ! ~ ~ ` ! ! ~ ~ "
};
