/* XPM */
static char *result[] = {
/* columns rows colors chars-per-pixel */
"64 64 153 2 ",
"   c #000000",
".  c #0C0C03",
"X  c #0B0B0B",
"o  c #0A050E",
"O  c #12081A",
"+  c #141414",
"@  c #1A1A1A",
"#  c #190C24",
"$  c #242424",
"%  c #2D2D2D",
"&  c #343434",
"*  c #3C3C3C",
"=  c #5A2D77",
"-  c #572A7B",
";  c #613677",
":  c #444444",
">  c #4C4C4C",
",  c #545454",
"<  c #5E5E5E",
"1  c #7E784F",
"2  c #7B447D",
"3  c #7F4A7D",
"4  c #616161",
"5  c #A6705D",
"6  c #AB745C",
"7  c #AE7A5B",
"8  c #B07A5C",
"9  c #824E7A",
"0  c #A77361",
"q  c #A97260",
"w  c #AD953E",
"e  c #C1A43D",
"r  c #BDA040",
"t  c #A39B66",
"y  c #A39C69",
"u  c #AAA36C",
"i  c #C8944D",
"p  c #C99956",
"a  c #C6955B",
"s  c #C8965A",
"d  c #C7985A",
"f  c #C2A540",
"g  c #C6AA45",
"h  c #D7B641",
"j  c #D9B844",
"k  c #C99C6F",
"l  c #C39560",
"z  c #C79B71",
"x  c #C99B71",
"c  c #C4AF76",
"v  c #C4AF7E",
"b  c #C4B077",
"n  c #C4B07C",
"m  c #C5BC7D",
"M  c #FFD84E",
"N  c #E7C750",
"B  c #F3CB54",
"V  c #FFDA52",
"C  c #F9D55C",
"Z  c #FEDB5B",
"A  c #F9D351",
"S  c #F7D462",
"D  c #F9D561",
"F  c #FFDE61",
"G  c #FCDC6A",
"H  c #F7DD77",
"J  c #FFDF70",
"K  c #F1D67D",
"L  c #F9DF79",
"P  c #FFE169",
"I  c #FFE374",
"U  c #FDE57B",
"Y  c #FFE87F",
"T  c #632D8F",
"R  c #6D3687",
"E  c #65318F",
"W  c #6A358C",
"Q  c #6E3A8E",
"!  c #703D8E",
"~  c #672E95",
"^  c #682F96",
"/  c #662998",
"(  c #682C98",
")  c #663190",
"_  c #693492",
"`  c #6C3A91",
"'  c #713E93",
"]  c #773F98",
"[  c #7C4382",
"{  c #75438F",
"}  c #7A498F",
"|  c #744391",
" . c #7A4695",
".. c #774891",
"X. c #7B4B91",
"o. c #7F5190",
"O. c #81528F",
"+. c #895C8F",
"@. c #824F96",
"#. c #825491",
"$. c #855990",
"%. c #895D90",
"&. c #8E628F",
"*. c #91668F",
"=. c #956A8F",
"-. c #9A728F",
";. c #8D6291",
":. c #926595",
">. c #946B91",
",. c #996F93",
"<. c #966798",
"1. c #986A98",
"2. c #9B7291",
"3. c #A57F8E",
"4. c #A7828F",
"5. c #AA858F",
"6. c #B8978F",
"7. c #A68090",
"8. c #AA8492",
"9. c #AD8A91",
"0. c #B08D90",
"q. c #B99693",
"w. c #BC9C90",
"e. c #C4A38B",
"r. c #CBAC8C",
"t. c #CBAB87",
"y. c #CEB18D",
"u. c #D9BE8C",
"i. c #D0B38E",
"p. c #C0A190",
"a. c #C9A793",
"s. c #CAAB91",
"d. c #CFB292",
"f. c #DABD91",
"g. c #DAC08C",
"h. c #E0C78F",
"j. c #E2CA8F",
"k. c #F5DC81",
"l. c #E2CB92",
"z. c #FBE381",
"x. c #FFE980",
"c. c #F9E397",
"v. c #FFEA97",
"b. c #FFF29E",
"n. c #FFF4A3",
"m. c #FFF5AA",
"M. c #FFF7BD",
"N. c #FAEBC2",
"B. c #FFF1C1",
"V. c #FFF9CF",
"C. c #FFF9D0",
"Z. c #ECECEC",
"A. c white",
/* pixels */
"T T T T T T T T ) T T ) ) ) T T T T E E T T T T T T T T T T T T T T T T T T T T T E T T T T T T T T T T T T T T T T ~ ) ) ) ~ / ",
"T T T T T T T T ) ) ) ) ) T E T E T T T T T T T T T T T T T T T T T T T T T T T E T T T T T T T T T T T T T T T T ~ ) ) ~ ) ) / ",
"T T T T T T T E ~ T E T ) ) T T E T T E ) T T T T T T T T T T T T T T T T T T T T E T T T T T T T T T T T T T T ~ ) ~ ~ ) ~ T / ",
"T T T T T T T E T E ) ) T ) T E T T E T T T T T T T T T T T T T T T T T T T T T T T T T T T T T T T T T T T T T T ~ ) ) ) ) ~ / ",
"T T T T T T T T T ) T ) ) T T ) E T T E T T T T T T T T T T T T T T T E T T T T T E T T T T T T T T T T T T T T ~ ) ) ) ) ) ~ / ",
"T T T T T T T E ) ) ) ) ) E T T T E E T E T T T T T T T T T T T T T T E T T T T E T T T T T T T T T T T T T T T ) ) ~ ~ ~ ) ) / ",
"T T T T T T T ~ ) T ) T T ) T E E T E T T T E T T T T T T T T T T T T E E E T T E T T T T T T T T T T T T T T T ) ~ ~ ) ) ~ ) / ",
"~ T T E T E ) T T T T T T T E T T E T E E E ) _ T T T ) T _ | ` _ T ) E ) E _ ) _ _ T ) T T T ) T T T T T T T T ) ) ) ) ) ) ) _ ",
") ) ) ) ) E T T T T T T T T T T E T T T E E E E E _ W ` X.;.-.,.%...W _ E ) ) ) ` ` E E ) T ) ) T ) ) E T ) ) ) ) ) ~ ) ) ) ) _ ",
") E ) ) ) ) ) T T T T T T T T T T T E T E ) _ E ) ` ..;.9.y.l.l.s.7.;...| _ ) ) ) ) E E ) T ) T ) ) T T ) ) E ) ) ) ) ) ) ) ) _ ",
"E ) ) T T ) ) T T E 2 a G G i ; W T E T T E ) E ` } 2.r.U Z P P M K w.*...W ) ` ) ) ) T E ) W 2 d P G i 2 E E E ) ) ) ) ) ) ) _ ",
") ) ) T ) ) ) T W z M.V.n.n.b.x.a W T E E ) ) _ { ,.y.P N.V.n.n.b.Y Z t.>.| E E ) ) ) ) E R z N.C.n.n.b.z.d E T ) ~ ) ) ~ ) _ _ ",
"E T ) ) ) ) E T 6 c.M.m.n.n.n.n.H 5 E T E E ) ` } 0.C v.M.m.n.n.n.n.U C 5.o.` E ) ` T ) ) 6 c.M.m.n.n.n.n.H 5 ) ) ) ) ~ ) ) ) _ ",
") ) ) T ) ) ) T M n.n.n.n.n.n.n.n.B T E E ) ) Q $.p.M n.n.n.n.n.n.n.n.V w.o.` ` ) ) ) ) T V n.n.n.n.n.n.n.b.B ) ) ) ) ) ) ) _ _ ",
"T E E E E E T ) 7 U n.n.n.n.n.n.I 5 T T T ) _   o.0.Z Y n.n.n.n.n.n.Y C 5...W E . # ) T T 7 U n.n.n.n.n.n.U 0 T ) ) ) T T ) ) _ ",
"T E E E T E E E E p x.n.n.n.n.x.a E T T T )       >.y.V x.n.n.n.n.Y Z y.>.{ )     X T E E E p Y n.n.n.n.Y l ) ) ) ~ ) ) ~ ) ~ _ ",
") E E E E E E ) E W 3 N m u h 2 E T T T T           2.u.U N m u e Y u.2...          O E E T W 2 N u u N 2 W ~ E ) ~ ~ E ) E ) ) ",
"E E E W E E E ) ) ) = g u t e - T T T T             o.8.b g u y e v 5.o.              T T E T = g u u e - ) T E E E ) ) ~ E ~ ) ",
") | ..o...{ E                                                   .                                                 ) ) _ ` _ ) ) ",
"..*.4.6.5.*...  A.                                                                                            A.  _ | X.$.X.| _ ",
"*.r.C V C y.-.                                                                                                    ..>.0.p.0.1. .",
"e.Z U n.U V u.                                                                                                    ,.d.C V C r.1.",
"K Y n.n.n.Y Y                                                                                                     f.V x.n.v.I a.",
"M b.n.n.n.n.h                                     X X + + @ @ @ @ @ @ + X X X                                     Y Y n.n.M.B.z.",
"P n.n.n.n.n.u                               X + $ % & * : : : : * * & & % % $ $ + X                               N n.n.n.m.C.Z ",
"P n.n.n.n.n.m                           + @ % & : : , < < < 4 < < < < < < , , : * $ +                             m n.n.n.n.n.P ",
"Z C.m.n.n.n.N                       X @ % > , < < < < < < < < < < < < < < < < < < , & $ X                         u n.n.n.n.n.G ",
"K B.M.n.n.Y Y                       @ : < < < < < < < < < < < < < < < < < < < < < < < & $ X                       h n.n.n.n.b.V ",
"e.G v.n.Y V g.                    @ > < < < < < < < < < < < < < < < < < < < < < < < < < : $ X                     x.x.n.n.n.Y z.",
">.y.C M Z y.2.                  + , < < < < < < < < < < < < < < < < < < < < < 4 < < < < < : $ X                   f.Z Y n.U F a.",
"} >.9.p.0.>.}                 + , < < < < < < < < < < < < < < < 4 < < < < < < < < < < < < < : @     .             1.a.S V S a.1.",
"` { o.%.o...Q               X > < < < < < < < < < < < < < 4 < < < < < < < < < < < < < < < < < : +                  .<.8.q.8.:.] ",
") ` ` | ` W _               * < < < < < < < < < < < < < < < < < < < < < < < < < < < < < < < < < $     .           ^ '  .@. .] / ",
"E E E E ) _ W             @ , < < < 4 < < < < < < < 4 < < < < < < < < < 4 < < < < < < < < < < < , +               ~ ~ ~ ^ ^ / / ",
"` ) _ E ) _ _           X > < , < < < < < < 4 < < < < < < < 4 < < < < < < < < < < < < < < < < 4 < & X             ~ / ~ ~ / ~ / ",
"E E T T E E T           $ < < < < < < < < < < < < < < < < < < < < < < < < < < < 4 < < < < < < < 4 > @             ~ ~ ~ ~ ~ ~ ~ ",
"E W 5 N 6 E T           : 4 < < < < < < < < < < < < < < < < < < < < < < < < < < < < < < < < < < < < % X           ( ^ 8 M 6 _ ^ ",
"E d U n.H a W         X > < < < < < < < < < < < < < < < < < < < 4 < < < < < < 4 < < < < < < < < < < * +           _ p k.n.c.x _ ",
"2 Y n.n.n.Y 2         + , < < < < < < < < < < < < 4 < < < < < < < < < < < < < < < < < < < < < < < < , * X   .     9 x.n.n.M.N.O.",
"i b.n.n.n.n.h         : < < < < < < < < < < < < < < < < < < < < < < < < < < < < < < < 4 < < < < < < < < @         N n.n.n.m.B.s ",
"S n.n.n.n.n.u         > 4 < < < < < < < < < < < < < < < < < < < < < < < < 4 < < < < < < < 4 < < < < < < >         m n.n.n.n.n.G ",
"P n.n.n.n.n.m       X , < < < < < < < < < < < < < < < < < < 4 < < < < < < < < < < < < < < < < < < < < < < @       u n.n.n.n.n.G ",
"l V.m.n.n.n.N         > < 4 < < < < < < < < 4 < < < < < < < < < < < < < < < < < < < < < < < < < < < < < < : X     h n.n.n.n.b.i ",
"2 N.M.n.n.Y 3         X > 4 < < 4 < 4 < < < < < < < < < < < < < < < < < < < < < < < < < < < < < < < < < < , $     [ x.n.n.n.z.[ ",
"W k c.n.U p W           * < < < < 4 < < < < < < < < < < < < < < < 4 < < < < < < 4 < < < < < < < < < < < < , +     _ a L n.L a ` ",
"E W 6 M 7 W _           X , < < < < 4 < < < < < < < < < < < < < < < < < < < < < < < < < < < < < < < < < < > +     ^ _ 6 B q ` ^ ",
"E ) ) ) ) E E             % < < < < 4 < < 4 < < < < < < < < < < < < < < < < < < < < < < < < < < < < < < > % X     ^ ~ ~ ) ~ ~ ^ ",
") E E ) ) ) )               : < < < 4 4 4 < < < < < < < < < < < < < < < < 4 < < < < < < < 4 < < < < < > % @ X     ^ ^ ^ ^ ~ ~ ~ ",
") ) ) ) ) ) )   A.            * < < < < 4 < < < < < < < < < < < < < < < < < < < < < < < < < < < < < > % $ +   Z.  ~ ~ ~ ~ ~ ) ) ",
") ) ) ) ) ) )                   $ > , < < < < < < < < < < < < < < < < < < < < < < < < < < < < < , * & $ X         ) E E E E ) ~ ",
") ) ) ) ) ) _ ` o.8.t.r 1 u g n 4.o.` ) _ ` _ ` _ _ _ ` ) - r t u g ; W _ _ _ _ _ _ _ E _ ` o.8.n f t u w c 4.o._ ) E E E E ) T ",
"_ ) _ ) ~ ) _ ..2.g.x.j u m N Y g.7...` _ _ _ _ ` ` _ _ { 3 h u t.N 9 Q _ _ _ _ _ _ ) _ _ ..-.u.x.h u m N U u.2.} E ) ~ E ~ ) E ",
") ) ) ) ) _ | :.y.Z Y n.n.n.n.Y V m >...) ` ` ) ) ` _ | l Y n.n.n.n.Y d W _ _ _ _ _ ) _ | :.y.Z Y n.n.n.n.Y V y.&.| ) ) T ) ~ E ",
"_ ) ) ) ) ` ..8.C U n.n.n.n.n.n.Y C 9.o.` ) ` ` ` ) ) 0 H n.n.n.n.n.n.U 6 W _ _ _ _ W _ X.8.C U n.n.n.n.n.n.U C 9.X.) ) ) E T E ",
") ) ) ) ) ` o.q.V n.n.n.n.n.n.n.b.A p.o.` ` ` ) ) ` ` N n.n.n.n.n.n.n.b.B E _ _ _ _ ) ` #.6.V b.n.n.n.n.n.n.b.V w.o.W ) E ) E E ",
") ) _ ) ) ` ..8.C U n.n.n.n.m.M.b.C 0.o.` ) ) ` ` ) ) t H n.n.n.n.m.M.c.t _ _ _ _ _ ) ` X.8.S U n.n.n.n.m.M.v.C 9.} _ T ) T E E ",
"_ ^ _ ^ ^ _ | :.r.P x.b.n.n.C.B.H t.o...` ) ` ) ) ) E { l k.b.n.n.V.M.z W T T T T T T T T +.t.Z x.b.n.n.V.N.P t.*.Q T T T T T T ",
"^ _ ^ _ _ ^ _ ..>.r.z.V P P Z k.p.7.o...` ) ) ) ` E ) ` W 2 i G G l 3 W T T T T T T T T T ! :.t.U M P P Z k.e.&.| W T T T T T T ",
"_ ^ ^ _ ^ _ ^ ` ..;.9.d.l.l.s.7.o.o.` ` ) ) ) ` E ) ) ) E E ) ) T E E T T T T T T T T T T E { +.8.y.j.h.r.3.O.{ W T T T T T T T ",
"^ _ _ ^ _ ^ _ ^ _ ' X.:.2.2.;.X.` ` ) ) ` ) ) ) ` ) _ ) ) T ) E T E E T T T T T T T T T T T E Q ..+.=.=.$.| T T ~ T T T T T T T ",
"_ ^ _ _ _ ^ _ _ ^ _ ` ` ` | ` ` ) ` ) ` ` ) E ) E ` E E T ) ) ) ) T T T T T T T T T T T T T T T E W ` Q T T T T T T T T T T T T ",
"^ _ _ ^ ^ _ _ _ _ _ ^ ^ ^ _ _ _ ) ` ` ) ) ) ` ` ) ` ) ) ) ) ) ) T T T T T T T T T T T T T T T T T T T ~ T T T T T T T T T T T T ",
"^ _ ^ _ ^ _ ^ _ _ _ _ ) _ _ _ _ ` ) ) ` ` ) E ) ) E ) ` ) ) ) T ) ) T T T T T T T T T T T T T T T T T T T T T T T T T T T T T T ",
"_ ^ _ ^ _ ^ _ ^ _ ^ ^ ^ ) _ ) _ ) ) ) ) ) T T T E T T T T T T T T T T T T T T T T T T T T T T T T T T T T T T T T T T T T T T T "
};
