/* XPM */
static char *result[] = {
/* columns rows colors chars-per-pixel */
"64 64 150 2 ",
"   c #000000",
".  c #0C0C03",
"X  c #0A0A0A",
"o  c #141414",
"O  c #1B1B1B",
"+  c #242424",
"@  c #2D2D2D",
"#  c #343434",
"$  c gray23",
"%  c #5A2D77",
"&  c #55277A",
"*  c #56297B",
"=  c #5A2E7D",
"-  c #613677",
";  c #434343",
":  c #4D4D4D",
">  c #545454",
",  c #5E5E5E",
"<  c #7B447D",
"1  c #7F4A7D",
"2  c #A6705D",
"3  c #AB745C",
"4  c #AE7A5B",
"5  c #B07A5C",
"6  c #824E7A",
"7  c #A77361",
"8  c #A97260",
"9  c #AD953E",
"0  c #C1A43D",
"q  c #BDA040",
"w  c #A39B66",
"e  c #A39C69",
"r  c #AAA36C",
"t  c #C8944D",
"y  c #C99956",
"u  c #C6955B",
"i  c #C8965A",
"p  c #C7985A",
"a  c #C2A540",
"s  c #C6AA45",
"d  c #D7B641",
"f  c #D9B844",
"g  c #C39560",
"h  c #C99C6F",
"j  c #C79B71",
"k  c #C99B71",
"l  c #C4AF76",
"z  c #C4AF7E",
"x  c #C4B077",
"c  c #C4B07C",
"v  c #C5BC7D",
"b  c #FFD84E",
"n  c #E7C750",
"m  c #F3CB54",
"M  c #FFDA52",
"N  c #F9D55C",
"B  c #FEDB5B",
"V  c #F9D351",
"C  c #F7D462",
"Z  c #F9D561",
"A  c #FFDE61",
"S  c #FCDC6A",
"D  c #F7DD77",
"F  c #FFDF70",
"G  c #F1D67D",
"H  c #F9DF79",
"J  c #FFE169",
"K  c #FFE374",
"L  c #FDE57B",
"P  c #FFE87F",
"I  c #632D8F",
"U  c #6D3687",
"Y  c #65318F",
"T  c #6A358C",
"R  c #6E3A8E",
"E  c #703D8E",
"W  c #672E95",
"Q  c #682F96",
"!  c #662998",
"~  c #682C98",
"^  c #663190",
"/  c #693492",
"(  c #6C3A91",
")  c #713E93",
"_  c #773F98",
"`  c #7C4382",
"'  c #75438F",
"]  c #7A498F",
"[  c #744391",
"{  c #7A4695",
"}  c #774891",
"|  c #7B4B91",
" . c #7F5190",
".. c #81528F",
"X. c #895C8F",
"o. c #824F96",
"O. c #825491",
"+. c #855990",
"@. c #895D90",
"#. c #8E628F",
"$. c #91668F",
"%. c #956A8F",
"&. c #9A728F",
"*. c #8D6291",
"=. c #926595",
"-. c #946B91",
";. c #996F93",
":. c #966798",
">. c #986A98",
",. c #9B7291",
"<. c #A57F8E",
"1. c #9B9B9B",
"2. c #A7828F",
"3. c #AA858F",
"4. c #B8978F",
"5. c #A68090",
"6. c #AA8492",
"7. c #AD8A91",
"8. c #B08D90",
"9. c #B99693",
"0. c #BC9C90",
"q. c #CBAB87",
"w. c #C4A38B",
"e. c #CBAC8C",
"r. c #CEB18D",
"t. c #D0B38E",
"y. c #D9BE8C",
"u. c #C0A190",
"i. c #C9A793",
"p. c #CAAB91",
"a. c #CFB292",
"s. c #DABD91",
"d. c #DAC08C",
"f. c #E0C78F",
"g. c #E2CA8F",
"h. c #F5DC81",
"j. c #E2CB92",
"k. c #FBE381",
"l. c #FFE980",
"z. c #F9E397",
"x. c #FFEA97",
"c. c #FFF29E",
"v. c #FFF4A3",
"b. c #FFF5AA",
"n. c #FFF7BD",
"m. c #FAEBC2",
"M. c #FFF1C1",
"N. c #FFF9CF",
"B. c #FFF9D0",
"V. c white",
/* pixels */
"I I I I I I I I ^ I I ^ ^ ^ I I I Y I Y I I I I I I I I I I I I I I I I I I I I I Y I I I I I I I I I I I I I I I I ^ W ^ ^ ^ ! ",
"I I I I I I I I ^ ^ ^ ^ ^ I Y I Y I Y I Y I I I I I I I I I I I I I I I I I I I I Y I I I I I I I I I I I I I I W W ^ W ^ W W ! ",
"I I I I I I I Y W I Y I ^ ^ I I I Y I I I I I I I I I I I I I I I I I I I I I I I I I I I I I I I I I I I I I I I W ^ ^ ^ ^ ^ ! ",
"I I I I I I I Y I Y ^ ^ I ^ I Y Y I Y Y Y I I I I I I I I I I I I I I I I I I I I I I I I I I I I I I I I I I I ^ ^ W ^ W W ^ ! ",
"I I I I I I I I I ^ I ^ ^ I I I Y I Y I I I I I I I I I I I I I I I I Y I I I I I Y I I I I I I I I I I I I I I W ^ ^ ^ ^ I W ! ",
"I I I I I I I Y ^ ^ ^ ^ ^ ^ I Y I Y I Y I I I I I I I I I I I I I I I I I I I I I ^ I I I I I I I I I I I I I I ^ ^ W W ^ W ^ ! ",
"I I I I I I I W ^ I ^ I ^ ^ I Y Y I Y I ^ I I I I I I I I I I I I I I Y Y Y I I ^ Y I I I I I I I I I I I I I I ^ W W ^ ^ W ^ ! ",
"W I I Y I Y ^ I I I I I I I I I I Y I Y I ^ ^ ^ I I I ^ I ^ [ ( / I ^ / ^ ^ ^ ^ ^ ^ I ^ I I ^ I I I I I I I I I ^ ^ ^ ^ ^ ^ ^ / ",
"Y ^ ^ I ^ ^ I I I I I I I I I I Y I Y I Y Y ^ ^ Y / T ( | *.,.,.*.} ( ^ Y ^ ^ ^ ^ ^ ^ Y I ^ ^ ^ ^ ^ I I ^ ^ I ^ ^ ^ ^ W ^ ^ ^ / ",
"^ ^ ^ ^ ^ I ^ I I I I I I I I I I I I Y Y Y ^ ^ / ( } *.7.r.j.j.w.2.*.} [ ^ ^ ^ ( ^ ^ Y ^ ^ I ^ I I ^ I I I ^ ^ ^ ^ ^ ^ ^ ^ ^ / ",
"^ ^ Y ^ I ^ ^ I I Y < u S S t - T I I I Y ^ ^ ^ T } ,.e.L B J J b G u.$.} ^ Y ( ^ ^ Y Y ^ Y T < p J S t < ( ^ I ^ W ^ ^ ^ ^ ^ / ",
"^ I ^ ^ ^ ^ ^ I T j n.N.v.v.c.l.p T I I I Y ^ T [ -.r.J m.N.v.v.c.l.B q.$.[ ( ^ ( ^ Y Y Y U j m.B.v.v.c.L g T ^ ^ ^ ^ ^ ^ / ^ / ",
"^ ^ ^ ^ Y ^ ^ I 3 z.n.b.v.v.v.v.L 2 I I I ^ Y (  .7.N x.n.b.v.v.v.v.K N 7.| ^ Y ^ ^ Y Y Y w z.n.b.v.v.v.v.D 2 ^ ^ ^ ^ ^ ^ ^ ^ / ",
"^ I ^ I Y Y Y I b v.v.v.v.v.v.v.v.m I I Y ^ Y ( +.w.M v.v.v.v.v.v.v.v.M 0. .[ ( ^ ( Y Y I m v.v.v.v.v.v.v.v.m I ^ ^ W ^ / W ^ / ",
"^ ^ ^ I Y Y Y Y 4 L v.v.v.v.v.v.K 2 I Y I ^ Y (  .7.B L v.v.v.v.v.v.L N 7.} / ^ ^ ^ Y Y I 4 K v.v.v.v.v.v.L 7 ^ W ^ ^ ^ I ^ ^ / ",
"Y I ^ ^ Y I Y W Y y l.v.v.v.v.P u Y I I I ^ ^ ^ ' ,.r.M l.v.v.v.v.P B r.$.[ ^ ^ ^ ^ Y Y I I t P v.v.v.v.k.p ^ ^ I ^ I ^ W ^ W / ",
"Y Y ^ Y Y Y Y ^ ^ T 1 n v r d < T I I I I ^ ^ Y T } ,.d.L n v r 0 P y.,.} T ^ ^ / ^ Y I Y I T < n v r d < T ^ Y ^ W ^ W Y Y Y ^ ",
"Y Y T T ^ ^ ^ I ^ ^ % s r w 0 & I I I I I ^ ^ ^ ^ ( | 6.x s r e 0 z 3. .( / Y ^ Y ^ I Y I Y I % s r e 0 & ^ W Y Y Y ^ ^ ^ W W ^ ",
"^ ' '  .} ' Y                                                   .                                                 ^ ^ / ( / ^ ^ ",
"' $.3.4.2.-.}   V.                                                                                            V.  / [ | +.| [ / ",
"$.e.N M N r.&.                                                                                                    { -.7.u.8.-.{ ",
"w.B L v.K B d.                                                                                                    ,.a.B M Z r.>.",
"G P v.v.v.P P                                                                                                     s.M l.v.x.F i.",
"b c.v.v.v.v.d                                                                                                     P l.v.v.M.M.k.",
"J v.v.v.v.v.r                                                                                                     n v.v.v.b.B.B ",
"J v.v.v.v.v.v                                                                                                     v v.v.v.v.v.J ",
"B B.b.v.v.v.n                                                                                                     r v.v.v.v.v.S ",
"G M.n.v.v.P P                                                                                                     d v.v.v.v.c.M ",
"w.J x.v.P M d.                                                                                                    l.l.v.v.v.P k.",
"-.e.N b B r.,.                                                                                                    s.B P v.L A i.",
"| %.7.u.8.-.]                                                                                                     >.i.C M C p.:.",
"( [  .@. .} R                                                                                                     { :.6.9.6.=._ ",
"/ T ( R ( ( /                                                                                                     Q ) { o.{ _ ! ",
"^ / / / ^ ^ T                                                                                                     W W W Q Q ~ ! ",
"/ ^ ^ ^ T ^ /                                   X   X o o O O O O O o o X X X                                     W ! W ! W ! ! ",
"Y Y ^ I I ^ Y                               X o + @ # $ ; ; ; : $ $ # # # @ @ O o X                               W W W W W W W ",
"Y T 2 n 2 Y I                           X + @ # ; ; > , , , , , , , , , > > > : $ @ o                             ~ Q 5 b 3 ( Q ",
"T p L c.H u T                       X O # : > , , , , , , , , , , , , , , , , , , > # + X                         / i H v.z.k / ",
"< L v.v.v.P <                       O ; , , , , , , , , , , , , , , , , , , , , , , > # + X                       6 k.v.v.n.m...",
"t c.v.v.v.v.d                     O : , , , , , , , , , , , , , , , , , , , , , , , , , ; + X                     n v.v.v.b.M.i ",
"S v.v.v.v.v.e                   o > , , , , , , , , , , , , , , , , , , , , , , , , , , , : + X                   v v.v.v.v.v.S ",
"J v.v.v.v.v.v                 o > , , , , , , , , , , , , , , , , , , , , , , , , , , , , , : O     .             r v.v.v.v.v.S ",
"g B.b.v.v.v.n               X > , , , , , , , , , , , , , , , , , , , , , , , , , , , , , , , : o                 d v.v.v.v.v.t ",
"< n.n.v.v.l.1               $ > , , , , , , , , , , , , , , , , , , , , , , , , , , , , , , , , @     .           ` l.v.v.v.k.` ",
"T h z.v.L y T             O > , , , , , , , , , , , , , , , , , , , , , , , , , , , , , , , , , : o               / u H v.D u ( ",
"Y T 4 V 4 Y ^           X > , , , , , , , , , , , , , , , , , , , , , , , , , , , , , , , , , , , # X             Q / 3 m 8 T Q ",
"Y Y ^ ^ ^ Y ^           O , , , , , , , , , , , , , , , , , , , , , , , , , , , , , , , , , , , , > O             Q W W Q Q Q / ",
"^ Y Y ^ ^ ^ ^           ; , , , , , , , , , , , , , , , , , , , , , , , , , , , , , , , , , , , , > @ X           Q W W W Q Q Q ",
"Y ^ ^ Y ^ ^ ^   1.    X : , , , , , , , , , , , , , , , , , , , , , , , , , , , , , , , , , , , , , ; o       V.  W W W ^ W ^ ^ ",
"/ ^ ^ ^ ^ ^ ^         o , , , , , , , , , , , , , , , , , , , , , , , , , , , , , , , , , , , , , , > $     .     ^ Y Y W Y Y W ",
"^ ^ ^ ^ ^ ^ ^ (  .6.q.q r r s r 2. .[ ^ ^ ( ^ / ( / ( / / = 9 w r s - / / / / / / / ^ / / (  .6.c a w r 9 l 2. ./ Y ^ W ^ ^ ^ I ",
"^ ^ ^ ^ / ^ / } ;.f.l.f r v n P d.&.} ( ( / ( / / ( / / ' 1 d r v n 6 T / / / / / / T / / } &.y.l.d r v n L y.,.} Y Y ^ W I ^ Y ",
"^ / ^ ^ / / [ =.r.B P v.v.v.v.P B r.-.} ^ ( ^ ( / ( ( R p P v.v.v.v.k.p T Q T / / / ^ ( [ =.r.B P v.v.v.v.l.M r.=.' ^ ^ Y I Y Y ",
"^ ^ ^ / ^ / | 6.N L v.v.v.v.v.v.P N 8. .( ^ ( ^ ( ^ ^ 2 L v.v.v.v.v.v.H 5 Q / / ^ / ^ ( | 6.N L v.v.v.v.v.v.L N 3.| ^ ^ Y Y ^ Y ",
"/ ^ / ^ ^ (  .9.M v.v.v.v.v.v.v.c.M u. .( ( ( ( ^ ( ( n v.v.v.v.v.v.v.v.m T / / / ^ ^ ( O.9.M c.v.v.v.v.v.v.c.M 0...T ^ Y Y W Y ",
"^ ^ ^ ^ ^ / | 6.C L v.v.v.v.b.n.x.M 1. .( ^ ( ( ( ^ ^ w D v.v.v.v.b.n.z.w ^ / / / / / / | 6.C L v.v.v.v.b.n.x.N 7.] / I ^ I Y Y ",
"Q / Q / / Q [ =.e.A l.c.v.v.B.M.K r.-.} ^ ^ ^ ^ ^ / T R r h.c.v.v.N.n.j T I I I I I I I I X.q.B l.c.v.v.B.M.J q.$.R I I I I I I ",
"/ Q / Q / / Q { -.e.k.M J J B h.w.&.} ( ^ ( ^ ^ ^ T / T U < t S S u 1 T I I I I I I I I ^ E =.q.L M J J B G w.#.[ T I I I I I I ",
"Q / Q / Q / / ) { *.7.a.j.j.p.6. . .( ( ( ( ^ ^ T ^ / / Y Y ^ Y ^ Y Y I I I I I I I I I I Y ' @.2.e.g.g.e.<...' T I I I I I I I ",
"Q / / Q / Q Q / / ) | =.,.,.*.} ( ( / ^ ^ ^ ^ ( ( ^ T Y Y Y ^ ^ ^ ^ ^ I I I I I I I I I I I I R ] @.%.%.+.[ I I W I I I I I I I ",
"/ / Q / / Q / Q / / Q ( ( [ ( ( / / / / ( Y Y ( ^ ^ ( / Y I ^ ^ I W I I I I I I I I I I I I I I Y T ( ( I I I I I I I I I I I I ",
"/ / Q / Q / / / / / / / Q / / / ^ ( ^ ( Y Y ( ^ ^ ^ ^ / Y Y ^ I I I I I I I I I I I I I I I I I I I I I I I I I I I I I I I I I ",
"/ / / Q / Q / / / / / / / / / / ^ ^ ^ ( ( Y ^ ^ Y ^ / ^ W Y ^ Y Y Y I I I I I I I I I I I I I I I I I I I I I I I I I I I I I I ",
"Q Q Q / W / W W W Q W ^ W / ^ / ( ^ ^ ^ Y I I Y Y I I Y I I I I I I I I I I I I I I I I I I I I I I I I I I I I I I I I I I I I "
};
