/* XPM */
static char *result[] = {
/* columns rows colors chars-per-pixel */
"64 64 138 2 ",
"   c black",
".  c gray10",
"X  c #5A2D77",
"o  c #55277A",
"O  c #56297B",
"+  c #5A2E7D",
"@  c #613677",
"#  c #7B447D",
"$  c #7F4A7D",
"%  c #A6705D",
"&  c #AB745C",
"*  c #AE7A5B",
"=  c #B07A5C",
"-  c #824E7A",
";  c #A77361",
":  c #A97260",
">  c #AD953E",
",  c #C1A43D",
"<  c #BDA040",
"1  c #A39B66",
"2  c #A39C69",
"3  c #AAA36C",
"4  c #C8944D",
"5  c #C99956",
"6  c #C6955B",
"7  c #C8965A",
"8  c #C7985A",
"9  c #C2A540",
"0  c #C6AA45",
"q  c #D7B641",
"w  c #D9B844",
"e  c #C39560",
"r  c #C99C6F",
"t  c #C79B71",
"y  c #C99B71",
"u  c #C4AF76",
"i  c #C4AF7E",
"p  c #C4B077",
"a  c #C4B07C",
"s  c #C5BC7D",
"d  c #FFD84E",
"f  c #E7C750",
"g  c #F3CB54",
"h  c #F9D351",
"j  c #FFDA52",
"k  c #F9D55C",
"l  c #FEDB5B",
"z  c #F7D462",
"x  c #F9D561",
"c  c #FFDE61",
"v  c #FCDC6A",
"b  c #F7DD77",
"n  c #FFDF70",
"m  c #F1D67D",
"M  c #F9DF79",
"N  c #FFE169",
"B  c #FFE374",
"V  c #FDE57B",
"C  c #FFE87F",
"Z  c #632D8F",
"A  c #6D3687",
"S  c #65318F",
"D  c #6A358C",
"F  c #6E3A8E",
"G  c #703D8E",
"H  c #672E95",
"J  c #682F96",
"K  c #662998",
"L  c #682C98",
"P  c #663190",
"I  c #693492",
"U  c #6C3A91",
"Y  c #713E93",
"T  c #773F98",
"R  c #7C4382",
"E  c #75438F",
"W  c #7A498F",
"Q  c #744391",
"!  c #7A4695",
"~  c #774891",
"^  c #7B4B91",
"/  c #7F5190",
"(  c #81528F",
")  c #895C8F",
"_  c #824F96",
"`  c #825491",
"'  c #855990",
"]  c #895D90",
"[  c #8E628F",
"{  c #91668F",
"}  c #956A8F",
"|  c #9A728F",
" . c #8D6291",
".. c #926595",
"X. c #946B91",
"o. c #996F93",
"O. c #966798",
"+. c #986A98",
"@. c #9B7291",
"#. c #A57F8E",
"$. c #A7828F",
"%. c #AA858F",
"&. c #B8978F",
"*. c #A68090",
"=. c #AA8492",
"-. c #AD8A91",
";. c #B08D90",
":. c #B99693",
">. c #BC9C90",
",. c #CBAB87",
"<. c #C4A38B",
"1. c #CBAC8C",
"2. c #CEB18D",
"3. c #D0B38E",
"4. c #D9BE8C",
"5. c #C0A190",
"6. c #C9A793",
"7. c #CAAB91",
"8. c #CFB292",
"9. c #DABD91",
"0. c #DAC08C",
"q. c #E0C78F",
"w. c #E2CA8F",
"e. c #F5DC81",
"r. c #E2CB92",
"t. c #FBE381",
"y. c #FFE980",
"u. c #F9E397",
"i. c #FFEA97",
"p. c #FFF29E",
"a. c #FFF4A3",
"s. c #FFF5AA",
"d. c #FFF7BD",
"f. c #FAEBC2",
"g. c #FFF1C1",
"h. c #FFF9CF",
"j. c #FFF9D0",
"k. c white",
/* pixels */
"Z Z Z Z Z Z Z Z P Z Z P P P Z Z S Z S Z S Z Z Z Z Z Z Z Z Z Z Z Z Z Z Z Z Z Z Z Z Z Z Z Z Z Z Z Z Z Z Z Z Z Z Z Z Z P P H H Z K ",
"Z Z Z Z Z Z Z Z P P P P P Z S Z Z S Z S Z Z Z Z Z Z Z Z Z Z Z Z Z Z Z Z Z Z Z Z Z Z Z Z Z Z Z Z Z Z Z Z Z Z Z Z Z H H P P P H K ",
"Z Z Z Z Z Z Z S H Z S Z P P Z Z S Z S Z Z Z Z Z Z Z Z Z Z Z Z Z Z Z Z Z Z Z Z Z Z Z Z Z Z Z Z Z Z Z Z Z Z Z Z Z H H P P P P P K ",
"Z Z Z Z Z Z Z S Z S P P Z P Z S Z S Z S S Z Z Z Z Z Z Z Z Z Z Z Z Z Z Z Z Z Z Z P Z Z Z Z Z Z Z Z Z Z Z Z Z Z Z P P P H H H P K ",
"Z Z Z Z Z Z Z Z Z P Z P P Z Z Z S Z S Z Z Z Z Z Z Z Z Z Z Z Z Z Z Z Z Z Z Z Z Z Z S Z Z Z Z Z Z Z Z Z Z Z Z Z Z P P P H P P P K ",
"Z Z Z Z Z Z Z S P P P P P P Z S Z S Z S Z Z Z Z Z Z Z Z Z Z Z Z Z Z Z S Z Z Z Z Z S Z Z Z Z Z Z Z Z Z Z Z Z Z Z P H P P P H H K ",
"Z Z Z Z Z Z Z H P Z P Z P P Z S S Z S Z S Z S Z Z Z Z Z Z Z Z Z Z Z S Z Z S Z Z S Z Z Z Z Z Z Z Z Z Z Z Z Z Z Z H P H P H P P K ",
"H Z Z S Z S P Z Z Z Z Z Z Z Z Z Z S Z S Z P P P Z Z Z P Z P Q U P P P P P I P P I P Z P Z Z Z P Z Z Z Z Z Z P Z P P P P P P P I ",
"S P P Z P P Z Z Z Z Z Z Z Z Z Z S Z S S Z S P P P P I G W  .o.o. .E U P S S P P P P P P P Z P P P Z P Z P P P P P P P P P P P I ",
"P P P P P Z P Z Z Z Z Z Z Z Z Z Z S Z Z S P P P P F ~  .-.2.w.r.7.*. .~ Q S P P U P S S P P P Z P P P Z Z Z P Z P H P P P H P I ",
"P P S P Z P P Z Z S # 6 v v 4 @ D Z Z Z Z P P P F ~ | 1.C l N N d m 5.{ ~ U P U U P S S P S D # 6 v v 4 # D S S P P P P P P P I ",
"P Z P P P P P Z D t d.h.a.a.p.y.6 A Z Z Z P P D Q X.2.v g.h.a.a.p.C l ,.X.E P P P P S S S A t f.j.a.a.p.t.6 U P P P P H P P I I ",
"P P P P S P P Z & u.d.s.a.a.a.a.V % Z Z Z P S U / -.k i.d.s.a.a.a.a.V k %./ P P P U S S S 1 u.d.s.a.a.a.a.b % P P P P P P P P I ",
"P Z P Z S S S Z d a.a.a.a.a.a.a.p.g Z Z Z P S U ' <.j a.a.a.a.a.a.a.a.j >./ Q P P P S S Z g a.a.a.a.a.a.a.a.f P P P H P P H I I ",
"P P P Z S S S S * V a.a.a.a.a.a.V % Z Z S P S U / ;.l V a.a.a.a.a.a.V k %.~ D P P P S S Z * B a.a.a.a.a.a.V ; P P P P P P Z P I ",
"S Z P P S Z S H S 5 y.a.a.a.a.C 6 S S Z Z S S S Q o.2.j y.a.a.a.a.C l 2.X.Q P P P P S S Z Z 4 C a.a.a.a.C 6 P P H Z H Z P H P I ",
"S S P S S S S P P D $ f s 3 q # D Z Z Z Z P P S D ~ @.4.V f s 3 q C 0.@.~ P P P P P S Z S Z D # f s 3 q # D P S P H P P H H S P ",
"S S D D P P P Z P P X 0 3 1 , o Z Z Z Z Z P P P P U / =.p 0 3 2 , a %./ U P D P P P Z S Z S H X 0 3 2 , O P H S Z S P P S P P P ",
"P E E / ~ E S                                                                                                     P P I U U P P ",
"E { %.&.$.X.~   k.                                                                                            k.  I Q ^ ' ^ Q J ",
"{ 1.k j k 2.|       k.k.k.k.k.k.k.k.k.k.k.k.k.k.k.k.k.k.k.k.k.k.k.k.k.                                            ~ X.;.5.;.X.! ",
"<.l V a.B l 0.    k.k.k.k.k.k.k.k.k.k.k.k.k.k.k.k.k.k.k.k.k.k.k.k.k.k.                                            @.8.l j x 2.+.",
"m C a.a.a.C C     k.k.k.k.k.k.k.k.k.k.k.k.k.k.k.k.k.k.k.k.k.k.k.k.k.k.                                            9.l C a.i.n 6.",
"d p.a.a.a.a.q     k.k.k.k.k.k.k.k.k.k.k.k.k.k.k.k.k.k.k.k.k.k.k.k.k.k.                                            C y.a.a.g.f.t.",
"N a.a.a.a.a.3     k.k.k.k.k.k.k.k.  k.k.k.k.  k.k.k.k.k.k.k.k.k.k.k.k.                                            f a.a.a.s.j.l ",
"N a.a.a.a.a.s     k.k.k.k.k.k.k.k.  k.k.k.    k.k.k.k.        k.k.  k.                                            s a.a.a.a.a.N ",
"l j.s.a.a.a.f     k.k.k.k.k.k.k.      k.      k.k.k.    k.k.  k.k.  k.                                            3 a.a.a.a.a.N ",
"m g.d.a.a.C C     k.k.k.k.k.k.k.      k.  k.  k.k.k.  k.k.k.  k.k.  k.                                            q a.a.a.a.p.j ",
"<.N i.a.C j 0.    k.k.k.k.k.k.    k.  k.  k.    k.k.  k.k.    k.k.. k.                                            y.y.a.a.a.C t.",
"X.1.k d l 2.@.    k.k.k.k.k.k.  k.k.  k.  k.    k.k.  k.k.    k.k.  k.                                            9.l C a.V c 6.",
"^ } -.5.;.X.W     k.k.k.k.k.k.  k.k.      k.    k.k.        k.k.k.                                                +.6.z j z 6.O.",
"U Q / ] / ~ F     k.k.k.k.k.    k.k.    k.k.    k.k.    k.    k.k.                                                ! O.=.:.=...T ",
"P U U E U U I     k.k.k.k.k.k.k.k.k.k.k.k.k.k.k.k.k.k.k.k.k.k.k.k.k.k.                                            J Y ! _ ! T K ",
"P S S P P P D     k.k.k.k.k.k.k.k.k.k.k.k.k.k.k.k.k.k.k.k.k.k.k.k.k.k.                                            H H H J J L K ",
"P P S I P U P     k.k.k.k.k.k.k.k.k.k.k.k.k.k.k.k.k.k.k.k.k.k.k.k.k.k.                                            H K H K H K K ",
"S P Z S Z S Z     k.k.k.k.k.k.k.k.k.k.  k.k.k.k.k.k.k.k.k.k.k.k.                                                  H H H H H H H ",
"S D % f & S Z     k.k.k.k.k.k.k.k.k.k.  k.k.k.k.k.k.k.k.k.k.k.k.k.k.k.                                            L J = d & U J ",
"D 6 V a.M 6 D     k.k.k.k.k.k.k.  k.k.  k.k.k.k.k.k.k.k.k.k.k.k.k.k.k.                                            I 7 M a.u.y I ",
"# V a.a.a.C #     k.k.k.k.k.        k.  k.    k.k.k.      k.k.k.k.k.k.                                            - t.a.a.d.f.( ",
"4 p.a.a.a.a.q     k.k.k.k.k.k.    k.k.    k.  k.k.    k.    k.k.k.k.                                              f a.a.a.s.g.7 ",
"v a.a.a.a.a.3     k.k.k.k.k.k.  k.k.      k.  k.k.    k.    k.k.k.                                                s a.a.a.a.a.v ",
"N a.a.a.a.a.s     k.k.k.k.k.k.  k.k.    k.k.  k.k.  k.    k.k.k.k.                                                3 a.a.a.a.a.v ",
"6 h.s.a.a.a.f     k.k.k.k.k.k.  k.k.    k.k.  k.k.        k.k.k.k.                                                w a.a.a.a.p.4 ",
"# f.d.a.a.C $     k.k.k.k.k.k.  k.k.  k.k.k.  k.k.  k.k.k.k.k.k.k.                                                R y.a.a.a.t.R ",
"D r u.a.V 5 D     k.k.k.k.k.k.    k.  k.k.k.    k.      k.k.k.k.k.k.                                              I 6 M a.M 6 U ",
"S D * h * D P     k.k.k.k.k.k.k.k.k.k.k.k.k.k.k.k.k.k.k.k.k.k.k.k.k.k.                                            H I & g : D J ",
"S D S P S P P     k.k.k.k.k.k.k.k.k.k.k.k.k.k.k.k.k.k.k.k.k.k.k.k.k.k.                                            J H H H H J J ",
"P P P P P P P       k.k.k.k.k.k.k.k.k.k.k.k.k.k.k.k.k.k.k.k.k.k.k.k.k.                                            J J H H J J I ",
"P P P P P P P   k.                                                                                            k.  P H H H H H P ",
"P P P P I P P                                                                                                     H S S S S P P ",
"I P P P P P I U / =.,.< 3 3 0 p *./ U I U I U U I P I I D + < 1 3 0 @ P I I I P I I P P P U W =.a , 1 3 > p %.W I P P H S S H S ",
"P P P P I P I ~ @.9.C q 3 s f C 0.*.~ U I U I I U U U U F $ q 3 2.f - F I I I I I I P P U ^ o.4.y.w 3 s f B 0.| W S S P P Z S S ",
"P I I P P I Q ..2.l C a.a.a.p.C l s X.~ U P P U U P U U 8 y.a.a.p.a.C 8 U I I I I I P P Q X.1.l C a.a.a.a.y.l 2.{ Q P P Z Z P S ",
"P P P P P I ^ =.k V a.a.a.a.a.a.V k -./ U U U P U I U ; V a.a.a.a.a.a.b * I I I U I U I ^ =.k C a.a.a.a.a.a.V k -.^ P P P P H S ",
"I P P P P I / :.l p.a.a.a.a.a.a.p.j 5./ U P P U I U I f a.a.a.a.a.a.a.p.h I I I I I P U ` &.j a.a.a.a.a.a.a.p.j >./ D Z P S S S ",
"P P P P I I ^ =.z B a.a.a.a.s.d.p.k ;./ U P U U U P U ; b a.a.a.a.s.d.u.* U I I I I P I ^ =.x V a.a.a.a.s.d.i.k -.^ D Z H S Z S ",
"I J I J J I Q ..1.N y.a.a.a.j.g.B 2.X.~ P P U P P P D G 3 t.p.a.a.j.d.3 A Z Z Z Z Z Z Z Z ' ,.l y.p.a.a.h.f.N ,.{ F Z Z Z Z Z Z ",
"J I J I I J I ! X.1.t.j N N k e.5.| ~ U U P S S U P D S A # 4 v N e $ D H Z Z Z Z Z Z Z Z E } <.V j N N l e.<.[ E S Z Z Z Z Z Z ",
"I J I J I J I I ~  .-.8.r.r.7.=./ ^ Q I P P U U P P I I Z Z P P S P P Z Z Z Z Z Z Z Z Z Z S E ) %.1.w.q.1.#.( E U Z Z Z Z Z Z Z ",
"I I J I J I J I P Q ^ ..@.X. .^ Q I P I U P S S P U D D Z Z P Z P S S Z Z Z Z Z Z Z Z Z Z Z Z F W ) } } ' Q Z Z Z Z Z Z Z Z Z Z ",
"J I I I J I I I I I I U Q Q U I U P U I P U P D D I I P S S S S S Z Z Z Z Z Z Z Z Z Z Z Z Z Z Z S D F F Z Z Z Z Z Z Z Z Z Z Z Z ",
"I I I J I J J I I I I J P J I I P P P I U P P D P P P P S S P P S Z K Z Z Z Z Z Z Z Z Z Z Z Z Z H Z Z Z Z Z Z Z Z Z Z Z Z Z Z Z ",
"J I J I I I I I I I I I I I I I Q P P U P P P P P P U P P H P S S P Z Z Z Z Z Z Z Z Z Z Z Z Z Z Z Z Z Z Z Z Z Z Z Z Z Z Z Z Z Z ",
"I J I J J I J J J L J P J P P U P P P P P P Z Z S Z Z S Z Z Z Z Z Z Z Z Z Z Z Z Z Z Z Z Z Z Z Z Z Z Z Z Z Z Z Z Z Z Z Z Z Z Z Z "
};
