/* XPM */
static char *result[] = {
/* columns rows colors chars-per-pixel */
"64 64 137 2 ",
"   c black",
".  c #5A2D77",
"X  c #55277A",
"o  c #56297B",
"O  c #5A2E7D",
"+  c #613677",
"@  c #7B447D",
"#  c #7F4A7D",
"$  c #A6705D",
"%  c #AB745C",
"&  c #AE7A5B",
"*  c #B07A5C",
"=  c #824E7A",
"-  c #A77361",
";  c #A97260",
":  c #AD953E",
">  c #C1A43D",
",  c #BDA040",
"<  c #A39B66",
"1  c #A39C69",
"2  c #AAA36C",
"3  c #C8944D",
"4  c #C99956",
"5  c #C6955B",
"6  c #C8965A",
"7  c #C7985A",
"8  c #C2A540",
"9  c #C6AA45",
"0  c #D7B641",
"q  c #D9B844",
"w  c #C39560",
"e  c #C99C6F",
"r  c #C79B71",
"t  c #C99B71",
"y  c #C4AF76",
"u  c #C4AF7E",
"i  c #C4B077",
"p  c #C4B07C",
"a  c #C5BC7D",
"s  c #FFD84E",
"d  c #E7C750",
"f  c #F3CB54",
"g  c #F9D351",
"h  c #FFDA52",
"j  c #F9D55C",
"k  c #FEDB5B",
"l  c #F7D462",
"z  c #F9D561",
"x  c #FFDE61",
"c  c #FCDC6A",
"v  c #F7DD77",
"b  c #FFDF70",
"n  c #F1D67D",
"m  c #F9DF79",
"M  c #FFE169",
"N  c #FFE374",
"B  c #FDE57B",
"V  c #FFE87F",
"C  c #632D8F",
"Z  c #6D3687",
"A  c #65318F",
"S  c #6A358C",
"D  c #6E3A8E",
"F  c #703D8E",
"G  c #672E95",
"H  c #682F96",
"J  c #662998",
"K  c #682C98",
"L  c #663190",
"P  c #693492",
"I  c #6C3A91",
"U  c #713E93",
"Y  c #773F98",
"T  c #7C4382",
"R  c #75438F",
"E  c #7A498F",
"W  c #744391",
"Q  c #7A4695",
"!  c #774891",
"~  c #7B4B91",
"^  c #7F5190",
"/  c #81528F",
"(  c #895C8F",
")  c #824F96",
"_  c #825491",
"`  c #855990",
"'  c #895D90",
"]  c #8E628F",
"[  c #91668F",
"{  c #956A8F",
"}  c #9A728F",
"|  c #8D6291",
" . c #926595",
".. c #946B91",
"X. c #996F93",
"o. c #966798",
"O. c #986A98",
"+. c #9B7291",
"@. c #A57F8E",
"#. c #A7828F",
"$. c #AA858F",
"%. c #B8978F",
"&. c #A68090",
"*. c #AA8492",
"=. c #AD8A91",
"-. c #B08D90",
";. c #B99693",
":. c #BC9C90",
">. c #CBAB87",
",. c #C4A38B",
"<. c #CBAC8C",
"1. c #CEB18D",
"2. c #D0B38E",
"3. c #D9BE8C",
"4. c #C0A190",
"5. c #C9A793",
"6. c #CAAB91",
"7. c #CFB292",
"8. c #DABD91",
"9. c #DAC08C",
"0. c #E0C78F",
"q. c #E2CA8F",
"w. c #F5DC81",
"e. c #E2CB92",
"r. c #FBE381",
"t. c #FFE980",
"y. c #F9E397",
"u. c #FFEA97",
"i. c #FFF29E",
"p. c #FFF4A3",
"a. c #FFF5AA",
"s. c #FFF7BD",
"d. c #FAEBC2",
"f. c #FFF1C1",
"g. c #FFF9CF",
"h. c #FFF9D0",
"j. c white",
/* pixels */
"C C C C C C C C L C C L L L C C A C C C L C C C C C C C C C C C C C C C C C C C C A G C C C C C C C C C C C C C C J L G L L G J ",
"C C C C C C C C L L L L L C A C C C A C C C C C C C C C C C C C C C C C C C C C A C C C C C C C C C C C C C C C G C L L L G L J ",
"C C C C C C C A G C A C L L C C C A C A C C C C C C C C C C C C C C C C C C C C C A C C C C C C C C C C C C C C L L G C L G L J ",
"C C C C C C C A C A L L C L C A C A C C L C C C C C C C C C C C C C C C C C C C C C C C C C C C C C C C C C C C G L L G G L G J ",
"C C C C C C C C C L C L L C C C A C A C C C C C C C C C C C C C C C C A C C C C A C C C C C C C C C C C C C C C G L L G L L G J ",
"C C C C C C C A L L L L L L C A C A C A C C C C C C C C C C C C C C C C C C C C C A C C C C C C C C C C C C C C L L G L L G C J ",
"C C C C C C C G L C L C L L C A A C A C A C A C C C C C C C C C C C C A A C C C A C C C C C C C C C C C C C C C G L L L L L L J ",
"G C C A C A L C C C C C C C C C C A C A C L L L C C C L A L W W L A L L L L A A L S A C G C A A C C C C C C C C L L L L L L L L ",
"A L L C L L C C C C C C C C C C A C A C A A L L L L L R E | X.X.| R S P L L L L L L A A C A A A L C A C A L A A L L L G L L L P ",
"L L L L L C L C C C C C C C C C C C C A A A L L L D ! | =.1.q.e.6.&.| ! I A L I I L A A A G G C L L L A L C A G L L L L L L L P ",
"L L A L C L L C C A @ 5 c c 3 + S C C C C L L L P E } <.V k M M s n :...! I L L L L L L A A S @ 5 c c 3 @ A A A L L L L L L L P ",
"L C L L L L L C S r s.g.p.p.i.t.7 S A C C L L S R ..1.c f.g.p.p.i.V k >.[ R I I I L L A A F 2 d.g.p.p.i.r.5 S L G L L L L L P P ",
"L L L L A L L C % y.s.a.p.p.p.p.B $ C C C L A I ^ =.k u.s.a.p.p.p.p.B j =.~ L L A L A A A < y.s.a.p.p.p.p.v $ L L G L L L L L P ",
"L C L C A A A C s p.p.p.p.p.p.p.i.f C C A L A I ` ,.h p.p.p.p.p.p.p.p.h :.^ W L A I A A C f p.p.p.p.p.p.p.p.f C L L L L H L P P ",
"L L L C A A A A & B p.p.p.p.p.p.B $ A C C A A I ^ -.j B p.p.p.p.p.p.B j $.! S L L L A A C & N p.p.p.p.p.p.B $ L L G G L L L L H ",
"A C L L A C A G A 4 t.p.p.p.p.V 5 A C C C L A A W X.1.h t.p.p.p.p.V k 1...W L L A L A A C A 3 V p.p.p.p.V 5 L L C L L L G L L L ",
"A A L A A A A L L S # d a 2 0 @ S C C C C L L A S ! +.3.B d a 2 0 V 3.+.! I L L L L A C A C S @ d a 2 0 @ S G A G A L G A A G L ",
"A A S S L L L C L L . 9 2 < > o C C A C C L L L L I ^ *.i 9 2 1 > p $.^ D L A L L L C A C A G . 9 2 1 > o L A A L A L L L G L L ",
"L R R ^ ! R A                                                                                                     L L P I P L L ",
"R [ $.%.#...!   j.                                                                                            j.  P W ~ ` ~ W P ",
"[ <.j h j 1.}                                                                                                     ! ..-.4.-...Q ",
",.k B p.N k 9.                                                                                                    +.7.j h j 7.O.",
"n V p.p.p.V V                                                                                                     8.k V p.u.b 5.",
"s i.p.p.p.p.0                                                                                                     V t.p.p.s.d.r.",
"M p.p.p.p.p.2                                                                                                     d p.p.p.a.h.k ",
"M p.p.p.p.p.a                                                                                                     a p.p.p.p.p.M ",
"k h.a.p.p.p.d                                                                                                     2 p.p.p.p.p.M ",
"n f.s.p.p.V V                                                                                                     0 p.p.p.p.i.h ",
",.M u.p.V h 9.                                                                                                    t.t.p.p.p.V r.",
"..<.j s k 1.+.                                                                                                    8.k V p.B x 5.",
"~ { =.4.-...E                                                                                                     O.5.l h l 5.o.",
"I W ^ ' ^ ! D                                                                                                     Q o.*.;.*. .Y ",
"L I I I D P P                                                                                                     H U Q ) Q Y J ",
"S L L I L D A                                                                                                     G G G H H G J ",
"S L L L P I L                                                                                                     G J G G J J J ",
"C A C C C C C                                                                                                     G G G G G G G ",
"A S $ f $ A C                                                                                                     H H * h % S H ",
"S w B i.B 7 S                                                                                                     P 6 m p.y.t P ",
"@ m p.p.p.V @                                                                                                     = t.p.p.f.d./ ",
"3 i.p.p.p.p.0                                                                                                     d p.p.p.a.f.6 ",
"c p.p.p.p.p.1                                                                                                     a p.p.p.p.p.c ",
"M p.p.p.p.p.a                                                                                                     2 p.p.p.p.p.c ",
"w h.a.p.p.p.d                                                                                                     0 p.p.p.p.p.3 ",
"@ s.s.p.p.t.#                                                                                                     T t.p.p.p.r.T ",
"S e y.p.B 4 D                                                                                                     P 5 m p.v 5 I ",
"A S & g & A L                                                                                                     H P % f ; S H ",
"A A L L L A L                                                                                                     H G G H H H P ",
"L A A L L L L                                                                                                     H G G G H H H ",
"A L L L L L L   j.                                                                                            j.  G G G G G L L ",
"L L L L L L L                                                                                                     L A A A A L G ",
"L P L L L L P I ^ *.>., < 2 9 a &.^ I L I I P P I P P I P O , < 2 9 + L P P P P P P P L L I ^ *.p 8 < 2 : y #.^ P A A G A G L C ",
"L L L L L L P ! +.8.t.0 2 a d B 9.&.! I I P P I P P P I D # 0 2 1.d = D P L P P P P L L P ~ +.3.t.0 2 a d B 3.+.! A L L A L A A ",
"L P L P L L W  .<.k V p.p.p.p.V k a ..! I L I I P I P R w V p.p.i.p.V , I P P P P L L P W  .1.k V p.p.p.p.t.h 1.[ W A L C L G A ",
"L L L L P P ~ *.j B p.p.p.p.p.p.B j =.^ I I L L I P P & B p.p.p.p.p.a.r.& P P P L I L I ~ *.j B p.p.p.p.p.p.B j =.~ L A A A A A ",
"P P L L L I ^ ;.h p.p.p.p.p.p.p.i.h 4.^ I L L I P P P d i.p.p.p.p.p.a.p.g P P P P P L I ^ %.h i.p.p.p.p.p.p.i.h :.^ I A G L C A ",
"L L L P L P ~ *.z B p.p.p.p.a.s.i.j -.^ I I I I P S W - v p.p.p.p.a.s.y.& L P P P P I P ~ =.z B p.p.p.p.a.s.u.j =.E A C A A A A ",
"H P P H P H W  .<.M t.i.p.p.h.f.N 1...! L L L L L I S D 2 w.i.p.p.g.s.r A C C C C C C C C ( ,.k t.i.p.p.g.s.N >.[ D C C C C C C ",
"P P H P H P P ! ..>.r.h M M k w.,...! I L I L I L L L L Z @ 3 c c 5 # S C C C C C C C C C F ..>.B s M c j n ,.] R A C C C C C C ",
"H P P P P H H I ~ | =.7.e.e.5.*.^ ^ W L I I L L I A P S A C L L L A A C C C C C C C C C C A R ( *.<.q.0.<.@./ R D C C C C C C C ",
"H P H P H P H H P U ~  .+...| ~ W P L I L L L L I P S A A A A L L L L C C C C C C C C C C C C D ~ ' { { ` R C C C C C C C C C C ",
"P P H P H P H P P P P P W I I I L P P L A W L L A L I L L L L L A C C C C C C C C C C C C C C C A S I D C C C C C C C C C C C C ",
"H P P H P P P P P P P P H P P P I L P P L L P S A L L L A A A L L C C C C C C C C C C C C C C C C C C G C C C C C C C C C C C C ",
"H H H P P H P P P P P P P P P P L I L I L L L L L L S P A C C G A L C C C C C C C C C C C C C C C C C C C C C C C C C C C C C C ",
"H H P H P H H H H H H H L P P P L I L L L A C C A C C A C C C C C C C C C C C C C C C C C C C C C C C C C C C C C C C C C C C C "
};
