/* XPM */
static char *result[] = {
/* columns rows colors chars-per-pixel */
"64 64 136 2 ",
"   c black",
".  c #5A2D77",
"X  c #55277A",
"o  c #56297B",
"O  c #5A2E7D",
"+  c #613677",
"@  c #7B447D",
"#  c #7F4A7D",
"$  c #A6705D",
"%  c #AB745C",
"&  c #AE7A5B",
"*  c #B07A5C",
"=  c #824E7A",
"-  c #A77361",
";  c #A97260",
":  c #C1A43D",
">  c #BBA041",
",  c #A49C67",
"<  c #A39C69",
"1  c #AAA36C",
"2  c #C8944D",
"3  c #C99956",
"4  c #C6955B",
"5  c #C8965A",
"6  c #C7985A",
"7  c #C2A540",
"8  c #C6AA45",
"9  c #D7B641",
"0  c #D9B844",
"q  c #C39560",
"w  c #C99C6F",
"e  c #C79B71",
"r  c #C99B71",
"t  c #C4AF76",
"y  c #C4AF7E",
"u  c #C4B077",
"i  c #C4B07C",
"p  c #C5BC7D",
"a  c #FFD84E",
"s  c #E7C750",
"d  c #F3CB54",
"f  c #F9D351",
"g  c #FFDA52",
"h  c #F9D55C",
"j  c #FEDB5B",
"k  c #F7D462",
"l  c #F9D561",
"z  c #FFDE61",
"x  c #FCDC6A",
"c  c #F7DD77",
"v  c #FFDF70",
"b  c #F1D67D",
"n  c #F9DF79",
"m  c #FFE169",
"M  c #FFE374",
"N  c #FDE57B",
"B  c #FFE87F",
"V  c #632D8F",
"C  c #6D3687",
"Z  c #65318F",
"A  c #6A358C",
"S  c #6E3A8E",
"D  c #703D8E",
"F  c #672E95",
"G  c #682F96",
"H  c #662998",
"J  c #682C98",
"K  c #663190",
"L  c #693492",
"P  c #6C3A91",
"I  c #713E93",
"U  c #773F98",
"Y  c #7C4382",
"T  c #75438F",
"R  c #7A498F",
"E  c #744391",
"W  c #7A4695",
"Q  c #774891",
"!  c #7B4B91",
"~  c #7F5190",
"^  c #81528F",
"/  c #895C8F",
"(  c #824F96",
")  c #825491",
"_  c #855990",
"`  c #895D90",
"'  c #8E628F",
"]  c #91668F",
"[  c #956A8F",
"{  c #9A728F",
"}  c #8D6291",
"|  c #926595",
" . c #946B91",
".. c #996F93",
"X. c #966798",
"o. c #986A98",
"O. c #9B7291",
"+. c #A57F8E",
"@. c #A7828F",
"#. c #AA858F",
"$. c #B8978F",
"%. c #A68090",
"&. c #AA8492",
"*. c #AD8A91",
"=. c #B08D90",
"-. c #B99693",
";. c #BC9C90",
":. c #CBAB87",
">. c #C4A38B",
",. c #CBAC8C",
"<. c #CEB18D",
"1. c #D0B38E",
"2. c #D9BE8C",
"3. c #C0A190",
"4. c #C9A793",
"5. c #CAAB91",
"6. c #CFB292",
"7. c #DABD91",
"8. c #DAC08C",
"9. c #E0C78F",
"0. c #E2CA8F",
"q. c #F5DC81",
"w. c #E2CB92",
"e. c #FBE381",
"r. c #FFE980",
"t. c #F9E397",
"y. c #FFEA97",
"u. c #FFF29E",
"i. c #FFF4A3",
"p. c #FFF5AA",
"a. c #FFF7BD",
"s. c #FAEBC2",
"d. c #FFF1C1",
"f. c #FFF9CF",
"g. c #FFF9D0",
"h. c white",
/* pixels */
"V V V V V V V V K V V K K K V V Z V Z V Z V V V V V V V V V V V V V V V V V V V V V V V V V V V V V V V V V V V V F K K F V K H ",
"V V V V V V V V K K K K K V Z V V Z V Z V V V V V V V V V V V V V V V V V V V V Z V V V V V V V V V V V V V V V K V F K K F K H ",
"V V V V V V V Z F V Z V K K V V Z V Z V V V V V V V V V V V V V V V V V V V V V V V V V V V V V V V V V V V V V K K F F F K K H ",
"V V V V V V V Z V Z K K V K V Z V Z V Z Z V V V V V V V V V V V V V V V V V V V V V V V V V V V V V V V V V V V K F K K K K F H ",
"V V V V V V V V V K V K K V V V Z V Z V V V V V V V V V V V V V V V V V V V V V V Z V V V V V V V V V V V V V V K K F K F F K H ",
"V V V V V V V Z K K K K K K V Z V Z V Z V V V V V V V V V V V V V V V Z V V V V V Z V V V V V V V V V V V V V V F F K K K K F H ",
"V V V V V V V F K V K V K K V Z Z V Z V Z V Z V V V V V V V V V V V Z V V Z V V Z V V V V V V V V V V V V V V V K K K F F K K H ",
"F V V Z V Z K V V V V V V V V V V Z V Z V K K K V V V K V K E P K K K K K L K K L K V K V V V K V V V V V V V V K K K K K K K L ",
"Z K K V K K V V V V V V V V V V Z V Z Z V Z K K K K L D R } ....} T P K Z Z K K K K K K K V K K V K K Z V K K K F K K K K K K L ",
"K K K K K V K V V V V V V V V V V Z V V Z K K K K S Q } *.<.0.w.5.%.} Q E Z K K P K Z Z K K K V K K V Z K Z K Z K K K K K F K L ",
"K K Z K V K K V V Z @ 4 x x 2 + A V V V V K K K S Q { ,.B j m m a b 3.] Q P K P P K Z Z Z K A @ 4 x x 2 @ Z Z K K K F K K K K L ",
"K V K K K K K V A e a.f.i.i.u.r.4 C V V V K K A E  .<.x d.f.i.i.u.B j :. .T K K K K Z Z Z C e s.f.i.i.u.e.4 A K K K K K K K L L ",
"K K K K Z K K V % t.a.p.i.i.i.i.N $ V V V K Z P ~ *.h y.a.p.i.i.i.i.N h #.~ K K K P Z Z Z , t.a.p.i.i.i.i.N $ K K K K K K K F L ",
"K V K V Z Z Z V a i.i.i.i.i.i.i.u.d V V V K Z P _ >.g i.i.i.i.i.i.i.i.g ;.~ E K K K Z Z V d i.i.i.i.i.i.i.i.s Z K K K K K K L L ",
"K K K V Z Z Z Z & N i.i.i.i.i.i.N $ V V Z K Z P ~ =.j N i.i.i.i.i.i.N h #.Q A K K K Z Z V & M i.i.i.i.i.i.N - V K F V K K K K F ",
"Z V K K Z V Z F Z 3 r.i.i.i.i.B 4 Z Z V V Z Z Z E ..<.g r.i.i.i.i.B j <. .E K K K K Z Z V V 2 B i.i.i.i.B q K V F K K V F K K L ",
"Z Z K Z Z Z Z K K A # s p 1 9 @ A V V V V K K Z A Q O.2.N s p 1 : B 2.O.R L K K K K Z V Z V A @ s p 1 9 @ A F Z K K K F Z Z Z K ",
"Z Z A A K K K V K K . 8 1 , : X V V V V V K K K K P ~ &.u 8 1 < : i &.~ S K Z K K K V Z V Z V . 8 1 < : o K Z V Z F K K K F F K ",
"K T T ~ Q T Z                                                                                                     K K L P L K K ",
"T ] #.$.@. .Q   h.                                                                                            h.  L E ! _ ! E L ",
"] ,.h g h <.{       h.h.h.h.h.h.h.h.h.h.h.h.h.h.h.h.h.h.h.h.h.h.h.h.h.h.h.h.h.h.h.h.h.h.h.h.h.h.h.h.h.h.h.h.      Q [ =.3.=.o.W ",
">.j N i.M j 8.    h.h.h.h.h.h.h.h.h.h.h.h.h.h.h.h.h.h.h.h.h.h.h.h.h.h.h.h.h.h.h.h.h.h.h.h.h.h.h.h.h.h.h.h.h.h.    ..6.h g h <.o.",
"b B i.i.i.B B     h.h.h.h.h.h.h.h.h.h.h.h.h.h.h.h.h.h.h.h.h.h.h.h.h.h.h.h.h.h.h.  h.h.h.h.h.h.h.h.h.h.h.h.h.h.    7.j B i.y.v 4.",
"a u.i.i.i.i.9     h.h.h.h.h.h.h.h.h.h.h.h.h.h.h.h.h.h.h.h.h.h.h.h.h.h.h.h.h.h.h.  h.h.h.h.h.h.h.h.h.h.h.h.h.h.    B r.i.i.a.d.e.",
"m i.i.i.i.i.1     h.h.h.h.h.h.h.h.  h.h.h.h.  h.h.h.h.h.h.h.h.h.h.h.h.h.h.h.h.h.  h.h.h.h.h.h.h.h.h.h.h.h.h.h.    s i.i.i.p.g.j ",
"m i.i.i.i.i.p     h.h.h.h.h.h.h.h.  h.h.h.    h.h.h.h.        h.h.  h.h.h.h.h.h.  h.    h.h.h.      h.h.h.h.h.    p i.i.i.i.i.m ",
"j g.p.i.i.i.s     h.h.h.h.h.h.h.      h.      h.h.h.    h.h.  h.h.  h.h.h.  h.h.    h.    h.    h.  h.h.h.h.h.    1 i.i.i.i.i.m ",
"b d.a.i.i.B B     h.h.h.h.h.h.h.      h.  h.  h.h.h.  h.h.h.  h.h.  h.h.h.  h.h.  h.h.    h.  h.h.  h.h.h.h.h.    9 i.i.i.i.u.g ",
">.m y.i.B g 8.    h.h.h.h.h.h.    h.  h.  h.    h.h.  h.h.    h.h.  h.h.h.  h.    h.h.    h.  h.    h.h.h.h.h.    r.r.i.i.i.B e.",
" .,.h a j <.O.    h.h.h.h.h.h.  h.h.  h.  h.    h.h.  h.h.    h.h.  h.h.h.  h.    h.h.  h.h.        h.h.h.h.h.    7.j B i.N z 4.",
"! [ *.3.=. .R     h.h.h.h.h.h.  h.h.      h.    h.h.        h.h.h.    h.    h.    h.h.  h.h.  h.h.h.h.h.h.h.h.    o.4.k g k 4.X.",
"P E ~ ` ~ Q S     h.h.h.h.h.    h.h.    h.h.    h.h.    h.    h.h.          h.        h.h.h.      h.h.h.h.h.h.    W X.&.-.&.| U ",
"K P P S P P L     h.h.h.h.h.h.h.h.h.h.h.h.h.h.h.h.h.h.h.h.h.h.h.h.h.h.h.  h.h.h.h.h.h.h.h.h.h.h.h.h.h.h.h.h.h.    G I W ( W U H ",
"K K L L K S Z     h.h.h.h.h.h.h.h.h.h.h.h.h.h.h.h.h.h.h.h.h.h.h.h.h.h.h.  h.h.h.h.h.h.h.h.h.h.h.h.h.h.h.h.h.h.    F F F G G J H ",
"K A K K K Z K     h.h.h.h.h.h.h.h.h.h.h.h.h.h.h.h.h.h.h.h.h.h.h.h.h.h.    h.h.h.h.h.h.h.h.h.h.h.h.h.h.h.h.h.h.    F H F H F H H ",
"Z Z Z Z Z Z V     h.h.h.h.h.h.h.h.h.h.  h.h.h.h.h.h.h.h.h.h.h.h.          h.h.h.h.h.h.h.h.h.  h.h.h.h.h.h.h.h.    F F F F F F F ",
"Z A $ s $ Z Z     h.h.h.h.h.h.h.h.h.h.  h.h.h.h.h.h.h.h.h.h.h.h.h.h.h.h.h.h.h.h.h.h.h.h.h.h.h.h.h.h.h.h.h.h.h.    J G * a % P G ",
"A 4 N i.n 4 A     h.h.h.h.h.h.h.  h.h.  h.h.h.h.h.h.h.h.h.h.h.h.h.h.h.h.h.h.h.h.h.h.h.h.h.h.h.h.h.  h.h.h.h.h.    L 5 n i.t.r L ",
"@ N i.i.i.B @     h.h.h.h.h.        h.  h.    h.h.h.      h.h.h.h.h.h.      h.    h.h.  h.  h.        h.h.h.h.    = e.i.i.a.s.^ ",
"2 u.i.i.i.i.9     h.h.h.h.h.h.    h.h.    h.  h.h.    h.    h.h.h.h.    h.    h.  h.  h.h.  h.h.    h.h.h.h.h.    s i.i.i.p.d.5 ",
"x i.i.i.i.i.1     h.h.h.h.h.h.  h.h.      h.  h.h.    h.    h.h.h.    h.h.    h.      h.h.  h.h.    h.h.h.h.h.    p i.i.i.i.i.x ",
"m i.i.i.i.i.p     h.h.h.h.h.h.  h.h.    h.h.  h.h.  h.    h.h.h.h.    h.    h.h.    h.h.h.  h.h.  h.h.h.h.h.h.    1 i.i.i.i.i.x ",
"4 g.p.i.i.i.s     h.h.h.h.h.h.  h.h.    h.h.  h.h.        h.h.h.h.        h.h.h.    h.h.h.  h.h.  h.h.h.h.h.h.    9 i.i.i.i.i.2 ",
"@ s.a.i.i.B #     h.h.h.h.h.h.  h.h.  h.h.h.  h.h.  h.h.h.h.h.h.h.    h.h.h.h.  h.    h.h.  h.h.  h.h.h.h.h.h.    Y r.i.i.i.e.Y ",
"A w t.i.N 3 A     h.h.h.h.h.h.    h.  h.h.h.    h.      h.h.h.h.h.h.      h.    h.h.    h.    h.    h.h.h.h.h.    L 4 n i.c 4 P ",
"Z C % g & Z K     h.h.h.h.h.h.h.h.h.h.h.h.h.h.h.h.h.h.h.h.h.h.h.h.h.h.h.h.h.h.h.h.h.h.h.h.h.h.h.h.h.h.h.h.h.h.    G L % d ; A G ",
"Z K K K K Z K     h.h.h.h.h.h.h.h.h.h.h.h.h.h.h.h.h.h.h.h.h.h.h.h.h.h.h.h.h.h.h.h.h.h.h.h.h.h.h.h.h.h.h.h.h.h.    G F F G G G L ",
"K K Z K K K K       h.h.h.h.h.h.h.h.h.h.h.h.h.h.h.h.h.h.h.h.h.h.h.h.h.h.h.h.h.h.h.h.h.h.h.h.h.h.h.h.h.h.h.h.      G F F F G G G ",
"Z K K K K K K   h.                                                                                            h.  K F F F F K K ",
"K K K K K K K                                                                                                     F Z Z Z Z K F ",
"K K K K K L L P ~ &.:.> 1 1 8 u %.~ P K P P L L P P P L A O 7 , 1 8 + K L L L L L L K K K P ~ &.i : , 1 > u #.R L K K F Z V F Z ",
"L L K K K K L Q O.7.r.0 1 p s N 8.%.Q P P L L P L L L P C ^ 9 , :.s = P P K K P L L L L L Q O.8.r.0 1 p s M 8.{ R Z Z K K Z Z Z ",
"K K L K K L E | <.j B i.i.i.i.B j p  .Q P K K P L P A S 5 e.i.i.i.i.B 6 P L L K L P K K E | ,.j r.i.i.i.i.B j <.] E Z Z Z Z Z V ",
"K K K K K L Q &.h N i.i.i.i.i.i.N h *.~ P P P K P K V , n i.i.i.i.i.i.N - P L L L K K P ! &.h N i.i.i.i.i.i.N h *.! K Z F Z Z Z ",
"L K K K K E ~ -.g i.i.i.i.i.i.i.u.g 3.~ P K K P L L P s i.i.i.i.i.i.i.u.f L K L L L K P ) $.j i.i.i.i.i.i.i.u.g ;.~ P V K V K V ",
"K K K K K L Q &.h N i.i.i.i.p.a.u.h =.~ P P P P L L P - c i.i.i.i.p.a.t.& L L L L L L P R #.h N i.i.i.i.p.a.y.h *.R Z F K Z K Z ",
"G L G L G L E | ,.z r.i.i.i.g.d.M <. .Q K K K K K P L C 1 e.u.i.i.f.a.1 C V V V V V V V V / :.j r.u.i.i.f.s.m :.] S V V V V V V ",
"L G L G L F L W  .5.e.g m m h q.>.{ Q P K P K K K K A L C @ 2 x m q # A F V V V V V V V F D [ >.N g m x j q.>.] Q Z V V V V V V ",
"G L G L G L L P Q } *.6.w.w.5.&.~ ~ E L P P K P P Z A Z V Z K V V K K V V V V V V V V V V A T ' #.,.0.9.,.+.^ T Z V V V V V V V ",
"L G L L F L G L L P ~ | O.O.} Q P L K L K K K K P K F A Z Z Z Z V Z K V V V V V V V V V V V V A R ` [ [ / E V V Z V V V V V V V ",
"G L L G L G L L G L L P P E P P P K P L E K P K Z K K K K K F Z V F V V V V V V V V V V V V V V Z A P P V V V V V V V V V V V V ",
"L G G L G L G L G L L L L L L L K P K L K K K A K L K P Z K Z Z Z V V V V V V V V V V V V V V V V V V V V V V V V V V V V V V V ",
"L G L L L G G L L L L L L L L L P K P K K K K K K K K A K K Z K Z Z V V V V V V V V V V V V V V V V V V V V V V V V V V V V V V ",
"L L G G L G L G L G G G G K K K K K K K K V V V Z V V Z V V V V V V V V V V V V V V V V V V V V V V V V V V V V V V V V V V V V "
};
