/* XPM */
static char *result[] = {
/* columns rows colors chars-per-pixel */
"64 64 137 2 ",
"   c black",
".  c #5A2D77",
"X  c #55277A",
"o  c #56297B",
"O  c #5A2E7D",
"+  c #613677",
"@  c #7B447D",
"#  c #7F4A7D",
"$  c #A6705D",
"%  c #AB745C",
"&  c #AE7A5B",
"*  c #B07A5C",
"=  c #824E7A",
"-  c #A77361",
";  c #A97260",
":  c #AD953E",
">  c #C1A43D",
",  c #BDA040",
"<  c #A39B66",
"1  c #A39C69",
"2  c #AAA36C",
"3  c #C8944D",
"4  c #C99956",
"5  c #C6955B",
"6  c #C8965A",
"7  c #C7985A",
"8  c #C2A540",
"9  c #C6AA45",
"0  c #D7B641",
"q  c #D9B844",
"w  c #C39560",
"e  c #C99C6F",
"r  c #C79B71",
"t  c #C99B71",
"y  c #C4AF76",
"u  c #C4AF7E",
"i  c #C4B077",
"p  c #C4B07C",
"a  c #C5BC7D",
"s  c #FFD84E",
"d  c #E7C750",
"f  c #F3CB54",
"g  c #F9D351",
"h  c #FFDA52",
"j  c #F9D55C",
"k  c #FEDB5B",
"l  c #F7D462",
"z  c #F9D561",
"x  c #FFDE61",
"c  c #FCDC6A",
"v  c #F7DD77",
"b  c #FFDF70",
"n  c #F1D67D",
"m  c #F9DF79",
"M  c #FFE169",
"N  c #FFE374",
"B  c #FDE57B",
"V  c #FFE87F",
"C  c #632D8F",
"Z  c #6D3687",
"A  c #65318F",
"S  c #6A358C",
"D  c #6E3A8E",
"F  c #703D8E",
"G  c #672E95",
"H  c #682F96",
"J  c #662998",
"K  c #682C98",
"L  c #663190",
"P  c #693492",
"I  c #6C3A91",
"U  c #713E93",
"Y  c #773F98",
"T  c #7C4382",
"R  c #75438F",
"E  c #7A498F",
"W  c #744391",
"Q  c #7A4695",
"!  c #774891",
"~  c #7B4B91",
"^  c #7F5190",
"/  c #81528F",
"(  c #895C8F",
")  c #824F96",
"_  c #825491",
"`  c #855990",
"'  c #895D90",
"]  c #8E628F",
"[  c #91668F",
"{  c #956A8F",
"}  c #9A728F",
"|  c #8D6291",
" . c #926595",
".. c #946B91",
"X. c #996F93",
"o. c #966798",
"O. c #986A98",
"+. c #9B7291",
"@. c #A57F8E",
"#. c #A7828F",
"$. c #AA858F",
"%. c #B8978F",
"&. c #A68090",
"*. c #AA8492",
"=. c #AD8A91",
"-. c #B08D90",
";. c #B99693",
":. c #BC9C90",
">. c #CBAB87",
",. c #C4A38B",
"<. c #CBAC8C",
"1. c #CEB18D",
"2. c #D0B38E",
"3. c #D9BE8C",
"4. c #C0A190",
"5. c #C9A793",
"6. c #CAAB91",
"7. c #CFB292",
"8. c #DABD91",
"9. c #DAC08C",
"0. c #E0C78F",
"q. c #E2CA8F",
"w. c #F5DC81",
"e. c #E2CB92",
"r. c #FBE381",
"t. c #FFE980",
"y. c #F9E397",
"u. c #FFEA97",
"i. c #FFF29E",
"p. c #FFF4A3",
"a. c #FFF5AA",
"s. c #FFF7BD",
"d. c #FAEBC2",
"f. c #FFF1C1",
"g. c #FFF9CF",
"h. c #FFF9D0",
"j. c white",
/* pixels */
"C C C C C C C C L C C L L L C C A C A C A C C C C C C C C C C C C C C C C C C C C C C C C C C C C C C C C C C C C C L L G G C J ",
"C C C C C C C C L L L L L C A C C A C A C C C C C C C C C C C C C C C C C C C C C C C C C C C C C C C C C C C C C G G L L L G J ",
"C C C C C C C A G C A C L L C C A C A C C C C C C C C C C C C C C C C C C C C C C C C C C C C C C C C C C C C C G G L L L L L J ",
"C C C C C C C A C A L L C L C A C A C A A C C C C C C C C C C C C C C C C C C C L C C C C C C C C C C C C C C C L L L G G G L J ",
"C C C C C C C C C L C L L C C C A C A C C C C C C C C C C C C C C C C C C C C C C A C C C C C C C C C C C C C C L L L G L L L J ",
"C C C C C C C A L L L L L L C A C A C A C C C C C C C C C C C C C C C A C C C C C A C C C C C C C C C C C C C C L G L L L G G J ",
"C C C C C C C G L C L C L L C A A C A C A C A C C C C C C C C C C C A C C A C C A C C C C C C C C C C C C C C C G L G L G L L J ",
"G C C A C A L C C C C C C C C C C A C A C L L L C C C L C L W I L L L L L P L L P L C L C C C L C C C C C C L C L L L L L L L P ",
"A L L C L L C C C C C C C C C C A C A A C A L L L L P F E | X.X.| R I L A A L L L L L L L C L L L C L C L L L L L L L L L L L P ",
"L L L L L C L C C C C C C C C C C A C C A L L L L D ! | =.1.q.e.6.&.| ! W A L L I L A A L L L C L L L C C C L C L G L L L G L P ",
"L L A L C L L C C A @ 5 c c 3 + S C C C C L L L D ! } <.V k M M s n 4.[ ! I L I I L A A L A S @ 5 c c 3 @ S A A L L L L L L L P ",
"L C L L L L L C S r s.g.p.p.i.t.5 Z C C C L L S W ..1.c f.g.p.p.i.V k >...R L L L L A A A Z r d.h.p.p.i.r.5 I L L L L G L L P P ",
"L L L L A L L C % y.s.a.p.p.p.p.B $ C C C L A I ^ =.j u.s.a.p.p.p.p.B j $.^ L L L I A A A < y.s.a.p.p.p.p.v $ L L L L L L L L P ",
"L C L C A A A C s p.p.p.p.p.p.p.i.f C C C L A I ` ,.h p.p.p.p.p.p.p.p.h :.^ W L L L A A C f p.p.p.p.p.p.p.p.d L L L G L L G P P ",
"L L L C A A A A & B p.p.p.p.p.p.B $ C C A L A I ^ -.k B p.p.p.p.p.p.B j $.! S L L L A A C & N p.p.p.p.p.p.B - L L L L L L C L P ",
"A C L L A C A G A 4 t.p.p.p.p.V 5 A A C C A A A W X.1.h t.p.p.p.p.V k 1...W L L L L A A C C 3 V p.p.p.p.V 5 L L G C G C L G L P ",
"A A L A A A A L L S # d a 2 0 @ S C C C C L L A S ! +.3.B d a 2 0 V 9.+.! L L L L L A C A C S @ d a 2 0 @ S L A L G L L G G A L ",
"A A S S L L L C L L . 9 2 < > X C C C C C L L L L I ^ *.i 9 2 1 > p $.^ I L S L L L C A C A G . 9 2 1 > o L G A C A L L A L L L ",
"L R R ^ ! R A                                                                                                     L L P I I L L ",
"R [ $.%.#...!   j.                                                                                            j.  P W ~ ` ~ W H ",
"[ <.j h j 1.}       j.j.j.j.j.j.j.j.j.j.j.j.j.j.                                                                  ! ..-.4.-...Q ",
",.k B p.N k 9.    j.j.j.j.j.j.j.j.j.j.j.j.j.j.j.                                                                  +.7.k h z 1.O.",
"n V p.p.p.V V     j.j.j.j.j.j.j.j.j.j.j.j.j.j.j.                                                                  8.k V p.u.b 5.",
"s i.p.p.p.p.0     j.j.j.j.j.j.j.j.j.j.j.j.j.j.j.                                                                  V t.p.p.f.d.r.",
"M p.p.p.p.p.2     j.j.j.j.j.j.j.j.  j.j.j.j.  j.                                                                  d p.p.p.a.h.k ",
"M p.p.p.p.p.a     j.j.j.j.j.j.j.j.  j.j.j.    j.                                                                  a p.p.p.p.p.M ",
"k h.a.p.p.p.d     j.j.j.j.j.j.j.      j.      j.                                                                  2 p.p.p.p.p.M ",
"n f.s.p.p.V V     j.j.j.j.j.j.j.      j.  j.  j.                                                                  0 p.p.p.p.i.h ",
",.M u.p.V h 9.    j.j.j.j.j.j.    j.  j.  j.                                                                      t.t.p.p.p.V r.",
"..<.j s k 1.+.    j.j.j.j.j.j.  j.j.  j.  j.                                                                      8.k V p.B x 5.",
"~ { =.4.-...E     j.j.j.j.j.j.  j.j.      j.                                                                      O.5.l h l 5.o.",
"I W ^ ' ^ ! D     j.j.j.j.j.    j.j.    j.j.                                                                      Q o.*.;.*. .Y ",
"L I I R I I P     j.j.j.j.j.j.j.j.j.j.j.j.j.j.j.                                                                  P U Q ) Q Y J ",
"L A A L L L S     j.j.j.j.j.j.j.j.j.j.j.j.j.j.j.                                                                  J G G H K K J ",
"L L A P L I L     j.j.j.j.j.j.j.j.j.j.j.j.j.j.j.                                                                  G J G G J G J ",
"A L C A C A C     j.j.j.j.j.j.j.j.j.j.  j.j.j.j.                                                                  G G G G G G G ",
"A S $ f $ A A     j.j.j.j.j.j.j.j.j.j.  j.j.j.j.                                                                  K K * h % S K ",
"S 5 B i.m 5 S     j.j.j.j.j.j.j.  j.j.  j.j.j.j.                                                                  P 6 m p.y.t P ",
"@ m p.p.p.V @     j.j.j.j.j.        j.  j.    j.                                                                  = t.p.p.s.d./ ",
"3 i.p.p.p.p.0     j.j.j.j.j.j.    j.j.    j.  j.                                                                  d p.p.p.a.f.6 ",
"c p.p.p.p.p.1     j.j.j.j.j.j.  j.j.      j.  j.                                                                  a p.p.p.p.p.c ",
"M p.p.p.p.p.a     j.j.j.j.j.j.  j.j.    j.j.  j.                                                                  2 p.p.p.p.p.c ",
"w h.a.p.p.p.d     j.j.j.j.j.j.  j.j.    j.j.  j.                                                                  0 p.p.p.p.p.3 ",
"@ s.s.p.p.t.#     j.j.j.j.j.j.  j.j.  j.j.j.  j.                                                                  T t.p.p.p.r.T ",
"S e y.p.B 4 S     j.j.j.j.j.j.    j.  j.j.j.                                                                      S 5 B p.v 5 I ",
"A Z % h & A L     j.j.j.j.j.j.j.j.j.j.j.j.j.j.j.                                                                  G K ; f ; S K ",
"L A A L A L L     j.j.j.j.j.j.j.j.j.j.j.j.j.j.j.                                                                  K K L G P K P ",
"L L L L L L L       j.j.j.j.j.j.j.j.j.j.j.j.j.j.                                                                  P L G G K K P ",
"L L L L L L L   j.                                                                                            j.  L L K L G L P ",
"L L L L L P L                                                                                                     L C A L G C G ",
"L L L L L L L I ^ *.>., < 2 9 a &.~ I P W P P I I P I P P O , 1 2 9 + L P P P P P P L L L I ^ *.p 8 < 2 : i $.E P C L A A G A A ",
"L L L L P L P ! +.8.V 0 2 a d B 9.&.! I P P P I I L I I F T 0 2 >.d = I I L L I P P P P P ! +.3.t.0 2 a d N 9.} ! P L G A L L C ",
"P L L L P P W  .<.k V p.p.p.p.V k a ..! I I L I L P S D 6 r.p.p.p.p.V 7 I P P L P I L L W  .<.k V p.p.p.p.t.k 1...R L A A L L C ",
"P L L P L P ~ *.j B p.p.p.p.p.p.B j =.^ I L I L P I A < m p.p.p.p.p.p.B - I P P P L L I ~ *.j B p.p.p.p.p.p.B j $.~ L L C A A A ",
"L L L L L I ^ ;.k i.p.p.p.p.p.p.i.h 4.^ I L I I P P P d i.p.p.p.p.p.p.i.g P L P P P L I _ :.h p.p.p.p.p.p.p.i.h :._ P A A A L C ",
"L P L L P P ! *.z N p.p.p.p.a.s.i.j -.^ I L L I I P I - m i.p.p.p.a.s.y.& P P P P P P I ! *.l N p.p.p.p.a.s.u.j =.E A A A G L A ",
"P H P H H P W  .1.x t.p.p.p.h.f.B 1...! L L I A L S S F 2 B i.p.p.g.s.2 Z C C C C C C C C ( <.k t.i.p.p.g.d.M >.[ D C C C C C C ",
"H P H P P P H Q ..6.r.h M M k n ,.} ! D I L L A L L L L Z @ 3 c M w # S C C C C C C C C C F [ <.m h M M k w.,.] R A C C C C C C ",
"P H P H H P P P ! | =.7.e.e.6.*.^ ^ W P L L I I I L S L C C C A C L L C C C C C C C C C C S R ' $.1.q.0.<.@./ R S C C C C C C C ",
"P P H P H P P H P U ~  .+.+.| ~ I P L P I L A L I L G S A A A G C L L C C C C C C C C C C C C S ! ' { { ( W C C G C C C C C C C ",
"P P P H P P H P P H H I I W I I I L I P W L L P L A L L L L L L G C G C C C C C C C C C C C C C A S I D C C C C C C C C C C C C ",
"P H H P H P P P P P P P H P P P L I L P L L S S L I A I A L A L A C C C C C C C C C C C C C C C C C C G C C C C C C C C C C C C ",
"H P P P P H H P P P P P H L P P I L I L L L L L L L P L L L A A A A C C C C C C C C C C C C C C C C C C C C C C C C C C C C C C ",
"H P H H P H P P H H H P H L I L L L L L L C C C A C C A C C C C C C C C C C C C C C C C C C C C C C C C C C C C C C C C C C C C "
};
