/* XPM */
static char *result[] = {
/* columns rows colors chars-per-pixel */
"64 64 39 1 ",
"  c #632D8F",
". c #653090",
"X c #642F8F",
"o c #632C8F",
"O c #663092",
"+ c #662998",
"@ c #653190",
"# c #663290",
"$ c #673490",
"% c #663191",
"& c #693692",
"* c #65308F",
"= c #642E8F",
"- c #673390",
"; c #653091",
": c #683194",
"> c #632E8F",
", c #64308F",
"< c #652C94",
"1 c #673491",
"2 c #663190",
"3 c #663390",
"4 c #662C96",
"5 c #662F93",
"6 c #672E95",
"7 c #672E96",
"8 c #673292",
"9 c #652F90",
"0 c #662E92",
"q c #672F95",
"w c #663291",
"e c #683293",
"r c #683591",
"t c #693691",
"y c #683492",
"u c #673391",
"i c #683294",
"p c #683393",
"a c #683094",
/* pixels */
"       .......XXXXXXX       oooooooXXXXXXX              OOOOOOO+",
"       .......XXXXXXX       oooooooXXXXXXX              OOOOOOO+",
"       .......XXXXXXX       oooooooXXXXXXX              OOOOOOO+",
"       .......XXXXXXX       oooooooXXXXXXX              OOOOOOO+",
"       .......XXXXXXX       oooooooXXXXXXX              OOOOOOO+",
"       .......XXXXXXX       oooooooXXXXXXX              OOOOOOO+",
"       .......XXXXXXX       oooooooXXXXXXX              OOOOOOO+",
"@@@@@@@       XXXXXXX#######.......$$$$$$$..............%%%%%%%&",
"@@@@@@@       XXXXXXX#######.......$$$$$$$..............%%%%%%%&",
"@@@@@@@       XXXXXXX#######.......$$$$$$$..............%%%%%%%&",
"@@@@@@@       XXXXXXX#######.......$$$$$$$..............%%%%%%%&",
"@@@@@@@       XXXXXXX#######.......$$$$$$$..............%%%%%%%&",
"@@@@@@@       XXXXXXX#######.......$$$$$$$..............%%%%%%%&",
"@@@@@@@       XXXXXXX#######.......$$$$$$$..............%%%%%%%&",
"*******@@@@@@@=======@@@@@@@-------#######XXXXXXX.......;;;;;;;:",
"*******@@@@@@@=======@@@@@@@-------#######XXXXXXX.......;;;;;;;:",
"*******@@@@@@@=======@@@@@@@-------#######XXXXXXX.......;;;;;;;:",
"*******@@@@@@@=======@@@@@@@-------#######XXXXXXX.......;;;;;;;:",
"*******@@@@@@@=======@@@@@@@-------#######XXXXXXX.......;;;;;;;:",
"*******@@@@@@@=======@@@@@@@-------#######XXXXXXX.......;;;;;;;:",
"*******@@@@@@@=======@@@@@@@-------#######XXXXXXX.......;;;;;;;:",
">>>>>>>,,,,,,,#######$$$$$$$$$$$$$$#######*******=======<<<<<<<+",
">>>>>>>,,,,,,,#######$$$$$$$$$$$$$$#######*******=======<<<<<<<+",
">>>>>>>,,,,,,,#######$$$$$$$$$$$$$$#######*******=======<<<<<<<+",
">>>>>>>,,,,,,,#######$$$$$$$$$$$$$$#######*******=======<<<<<<<+",
">>>>>>>,,,,,,,#######$$$$$$$$$$$$$$#######*******=======<<<<<<<+",
">>>>>>>,,,,,,,#######$$$$$$$$$$$$$$#######*******=======<<<<<<<+",
">>>>>>>,,,,,,,#######$$$$$$$$$$$$$$#######*******=======<<<<<<<+",
"$$$$$$$11111112222222#######3333333XXXXXXX222222233333334444444+",
"$$$$$$$11111112222222#######3333333XXXXXXX222222233333334444444+",
"$$$$$$$11111112222222#######3333333XXXXXXX222222233333334444444+",
"$$$$$$$11111112222222#######3333333XXXXXXX222222233333334444444+",
"$$$$$$$11111112222222#######3333333XXXXXXX222222233333334444444+",
"$$$$$$$11111112222222#######3333333XXXXXXX222222233333334444444+",
"$$$$$$$11111112222222#######3333333XXXXXXX222222233333334444444+",
"XXXXXXX       *******@@@@@@@11111111111111#######555555566666667",
"XXXXXXX       *******@@@@@@@11111111111111#######555555566666667",
"XXXXXXX       *******@@@@@@@11111111111111#######555555566666667",
"XXXXXXX       *******@@@@@@@11111111111111#######555555566666667",
"XXXXXXX       *******@@@@@@@11111111111111#######555555566666667",
"XXXXXXX       *******@@@@@@@11111111111111#######555555566666667",
"XXXXXXX       *******@@@@@@@11111111111111#######555555566666667",
"@@@@@@@2222222888888899999992222222XXXXXXX00000006666666qqqqqqq:",
"@@@@@@@2222222888888899999992222222XXXXXXX00000006666666qqqqqqq:",
"@@@@@@@2222222888888899999992222222XXXXXXX00000006666666qqqqqqq:",
"@@@@@@@2222222888888899999992222222XXXXXXX00000006666666qqqqqqq:",
"@@@@@@@2222222888888899999992222222XXXXXXX00000006666666qqqqqqq:",
"@@@@@@@2222222888888899999992222222XXXXXXX00000006666666qqqqqqq:",
"@@@@@@@2222222888888899999992222222XXXXXXX00000006666666qqqqqqq:",
"wwwwwwweeeeeeerrrrrrrtttttttrrrrrrryyyyyyyuuuuuuu2222222.......*",
"wwwwwwweeeeeeerrrrrrrtttttttrrrrrrryyyyyyyuuuuuuu2222222.......*",
"wwwwwwweeeeeeerrrrrrrtttttttrrrrrrryyyyyyyuuuuuuu2222222.......*",
"wwwwwwweeeeeeerrrrrrrtttttttrrrrrrryyyyyyyuuuuuuu2222222.......*",
"wwwwwwweeeeeeerrrrrrrtttttttrrrrrrryyyyyyyuuuuuuu2222222.......*",
"wwwwwwweeeeeeerrrrrrrtttttttrrrrrrryyyyyyyuuuuuuu2222222.......*",
"wwwwwwweeeeeeerrrrrrrtttttttrrrrrrryyyyyyyuuuuuuu2222222.......*",
"iiiiiiippppppprrrrrrr$$$$$$$@@@@@@@                             ",
"iiiiiiippppppprrrrrrr$$$$$$$@@@@@@@                             ",
"iiiiiiippppppprrrrrrr$$$$$$$@@@@@@@                             ",
"iiiiiiippppppprrrrrrr$$$$$$$@@@@@@@                             ",
"iiiiiiippppppprrrrrrr$$$$$$$@@@@@@@                             ",
"iiiiiiippppppprrrrrrr$$$$$$$@@@@@@@                             ",
"iiiiiiippppppprrrrrrr$$$$$$$@@@@@@@                             ",
":::::::aaaaaaa-------                                           "
};
