/* XPM */
static char *result[] = {
/* columns rows colors chars-per-pixel */
"64 64 70 1 ",
"  c #010101",
". c #060308",
"X c #09050D",
"o c #0B0B0B",
"O c #0C0610",
"+ c #100716",
"@ c #110917",
"# c #13091A",
"$ c #131313",
"% c #1B1B1B",
"& c #170B21",
"* c #1A0C24",
"= c #1E0F2A",
"- c #211327",
"; c #20102C",
": c #220F31",
"> c #251234",
", c #2B153D",
"< c #242424",
"1 c #2C2C2C",
"2 c #343434",
"3 c #3C3C3C",
"4 c #2E1742",
"5 c #2E1841",
"6 c #301744",
"7 c #321847",
"8 c #351A4B",
"9 c #3D1E55",
"0 c #3E1E58",
"q c #3E2056",
"w c #42205C",
"e c #431E60",
"r c #462262",
"t c #492466",
"y c #4A236A",
"u c #533065",
"i c #522674",
"p c #532975",
"a c #56277C",
"s c #562C79",
"d c #5A2D7F",
"f c #444444",
"g c #4C4C4C",
"h c #545454",
"j c #5E5E5E",
"k c #675555",
"l c #615B5B",
"z c #606060",
"x c gray49",
"c c #AC0E0E",
"v c #A61515",
"b c #AA1010",
"n c #5C2C83",
"m c #5F2E88",
"M c #5F3084",
"N c #632E8F",
"B c #613187",
"V c #65308F",
"C c #662D95",
"Z c #662998",
"A c #663190",
"S c #683393",
"D c #959595",
"F c #AFAFAF",
"G c #B5B5B5",
"H c gray78",
"J c gray82",
"K c gray93",
"L c #F3F3F3",
"P c #FCFCFC",
/* pixels */
"NNNNNNNCNVVVAVNVVNVVCNNNNNNNmZNZNNNNNNNNNVNNNNNNNNNNNNNNZNSCVVSZ",
"NNNNNNmCCAVVCVVNNVVNNNNNNNCmZNNnZnNNNNNNVNNNNNNNNNNNNNNNNCVCSCCZ",
"NNNNNNNVVANCVCNVVNVNVNNNNNNNZmNNNNNNNNNNNNNNNNNNNNNNNNNNCVCVCVVZ",
"CNNNNNNVVVAAVAVNNVNVNNNNNNNmNNNNnZZNVNNNNNNNNNNNNNNZNNNNVCVCVCSZ",
"mNNmCNNNVVVVVCVNVNVNNNNNNNNNNNNNNNNNNVNVNVNNNNNNNnNNNNNNVCCVSSCZ",
"NNNNNNNVVCAVVANVNVNVNNNNNNNNNNNNNNNNVNVNVNNNNNNNNZNNNNNNSSVSCVVZ",
"NNNNmNNCACCVVVVNVCNVVNVNNNmNNNNNNNBAVANVVVNNNNNNNNNNNNNNCNSCVCSZ",
"CNNCCNANCmNNNNNVNVVNVVAACCCNCNNNVNASAAAASANNCNVVNNNNNNNCVSVSVSVS",
"NCAAAANCmCNmNNCCVNVNVSAAAAAAVVVVVVCSSSSSdSSSAVAVANVVAVCASVASNSNS",
"AAAAVAVmmNNCNNCmNVNVVVAAAAAASVVVVVVSdSSSSSdSAVNACAAVNVVVVSSVSVSS",
"ANAAAAACCmCmNNNNVNVNNSVVAAVAVVAVAAVSSSBSSBSSAAANVVACACVVSACSAAAS",
"AAmAAACmNNNNNNNNNVNVVAVSAASVNSVAAVVASSSSSSSSVVVAVVVVVVVCNSVVSAAS",
"VVAVAAACNNNNNNNNNVNVVASAAAAAAAAAVAAAAABSSSSSBSVVAVVAVVAAAAAAAVSS",
"VAAVAAAmNNNNNNNNVNVNVSVASAAASBAAANAASSSSSdSSBSAACVCVVCNAAAAAASAS",
"ANVAVVVVCVAAAANNNVNVVVVVVAAASSSSAAAABAAASSdBSAAANCVVVACACAVVAAAS",
"AAANNAVAVVAAVVNNNNNVVVVBVAAASBSBSASAASBASSSSBAVVVAAVVVVVACCACAAS",
"NAVVVVVAAAAAAANNNANANAANVAAVAASSASSAVVAAVSNVVNVNNVVAVACVACACVACA",
"AVNAANVAAAANVANNNNmANAAAVAAAAAAAAASVAAAAVVVVCVNVVVVCNSVVAVVCVACS",
"VAVVVAVANAAAVANNNNNSNNmmmMVVASSAAAAAVVNBVAVNNNNVNVVVVVVVAACAVCAA",
"VVVVNVNAAAANAVNNNNNNmt:5ynVASVASSSABBt*tBVNVNNVVVCAVVVCSCVVAAACS",
"CAAAVVAAAAASAAAmNNNN5    &yVSBAASSBd,  X8BVNNVNVNVAACVVVNCCCACCA",
"NmCmNNNVNANNVAAAVVVw      .BSSSSBSd-     *BVVVVVVNNNNNNNCNCNCNCZ",
"NNNNmCNVAmVVVVAAAAd+       ;dSSSSB,       ,VNVVNVNNVNNVNCCNZZNNZ",
"mNCmCmCVAVVVVVAAAV,         #1>>>$.        tSVVAVNNNNNNNNNCZNCCZ",
"CCmCmAAVVVVVVVAAAd.         .. ..    .     XdVVVNNCAANmAZZZCNNZZ",
"VmNNSmVVVVAVAAAAA,       .o$$$%$%%%$oo.     *VVVNNNmNAmACCNCZCCZ",
"NNmABSBSNNAAAAASp.    o$<123ffff332111<<oo   nNVNNNNNNAANNZZCZNZ",
"NCmCSBSBANmAmAAmX   o<12ffhjjjjjjjjjjhhg31$  >VVAACNNAAmZCCNNNZZ",
"AAASSBSSSSASASA8   %2ghjjjjjjjjjjjjjjjjjjh2<..5BAAAAAAAACCCCZZAZ",
"AAASSSSSAASSAAu   %fjjjjjjjjjjjjjjjjjjjjjjj2<o ,mAAAAASACCZZZZZZ",
"ASSSSSSBASSSSMo  %gjjjjjjjjjjjjjjjjjjjjjjjjjf<o &dAAAASACCCCZCCZ",
"SSBSSBSSSSSM8o  $hjjjjjjjjjjf<<fjjg<o.<hjjjjjf<o oMASAANCZZCCCZZ",
"SBSSSASSSAS7   $hjjjjjzjjjj% <o$jj$.%  <jjjjjjf%  -VAAAASCZCCZCZ",
"SSSSBSAASAi.  .hjjjjjjjjjj% zKJ%hgoxKFoojjjjjjjf$  VAAAACCCCZCCZ",
"SSABSSVAAS=   3jjjjjjjjjjf  DPPzggoLPL< 3jjjjjjj1  uAAAVCCCZCZZZ",
"BBVAAANNVp.  %hjjjjzjjjjj<  $HGofhoGLHo %jjjjjjjg$  ACAACCCCCSCC",
"SAAVNVNNV>  .gjjjjjjjjjjj3     ogj<.<o  ojjjjjjjj2. pAACSCCCCSZS",
"BSVVVVVNmX  %jjjjjjjjjjjjg     ohjg     <jjzjjjjzg%  mCCCCCCSZSZ",
"VVVVVCNNn.  fjjjjjjjjzjjjj3$  o3zjj$  .1jjjjzjjjjj1o 7CASZCCCSZS",
"VVVVNNNNa   gjjjjjjjjjjjjjzhffhjzjjhhhjjjjjjjjzjjjf$  NCZSCCCZSZ",
"NVNVCCVmn  $jjjjjzjjjjjjjjjjjjjjjjjjjjjzjjjjjjjjjjh3. yCSZZSZSZS",
"VNCmmANCt  fjjjjjjjjzjjjjjjjjzzjjjjjjjjjjjjjjjjjjjjj% &CZSSZSZSZ",
"AAAAAAVVr .gjjjjjjjjjjjjjjjjjjjjjjjjjjjj jjjjzjjjjjjg  eSSCSSCCS",
"AAVAAVAAM  $hjjjzzjjzzjjjjj jjjjjj zjjjj jjzjjjjjjjjjh<>CCSZZSZS",
"AAAAAVAAN  .gjjjzjjjjjzjjjz jjjjjj jjjjj jjjjzjjjjjjjh<#SCCCSZSS",
"VANNAAAAA.  3jjjjzjjjjjjjjj jjjjjj jjjj jjjjjjjzjjjjjh%:ZCSCCSZS",
"VAAAANAVA#  ohjjjzzjjjjjjjjj  jj    jj  jjjjjjjjjjjjjf$tSZCSCCSS",
"AVNAAAAAAp   1jjjjzjzjjjjjjjj    bb    jjjjjjjjjjjzjg2omZSCSCCZS",
"VAAAAAVVAA0.  fjjjjzzjjjjjjzjzjjkvvcjjjjjjjzjjjjjjjg1<.NCCCCSSCS",
"AAAAAASSSSA5   3jjjjzjjjjjjjjjjjjlkjjzjjjjjjjjjjjjg21oXVVVAVCVVC",
"SAAAASASSSSN+   <gjjjjjjjjjjjjjjjjjzjjjjjjjjjjjjh31<o 6VVVVVCAVN",
"AASAAASSAASSiX   o%fjjjjzjjjjjjjjjjjjjjjjjjjjjjf21%. #BSVVCVVAVV",
"SAAAAASSSSCSA9.    .$1fhhjjjjjjjjjjjjjgghhhgf31%$   +iVVVCVVVACV",
"SAASAAASSSSSSA5.         .oo<fgggf21<<<<<%$$oo     >MVSVVAVVVVVV",
"AASASAASSCSSSSBq.     .       o$oo...           ,>sVVSVVVVACVNVV",
"ASNSAAASSSSSSSSSpq9,@oo$o                  @;0BNSVAAAVVSCAVNSSVN",
"SSCSSSSSSSSSSSSSSSSSSSSSASAAmAAAVAACmNNNnNNNNNNNNNNNNZNNNNNNNNNN",
"CSCSSSSSSSSSSSSSSSSSSSSSSASSAAAVAAAmCNNNZNNNmZNNNZmNNmNNNNNNNNNN",
"SSSSZSSSSSSSSSSSSSSzSSzSSASSAAAAAAANNNNNNNZNNNNNmNmZNmNNNNNNZNNN",
"SSSSSSSSSSSSSSSSSSSSSSSSSBAAAAAAAVAVNNNNNNmNNNZmNNNNNZNNNNNNNNmN",
"SSSSSSSSSSSSSSSSSSSSSSSBBSSSAAANNCNNNNNNNZmNNNNNNZmNNmNNNNNNmNNZ",
"CSSSSSSSSSSSSSSSSSSSSBSSSSSSNAAANNNNNNNNNNNNNmZNNNNNZNNNNZmNNNNm",
"SSZSSSSSSSSSSSBSSSSSSSSSSBSBNAANAANNNNNNNmmNNmmNNNNNmNZmmZmNNNNN",
"ZSSSSSSSSSSSSSSSBSSSSBAmSASBNNNNNNNNNNNNNZNNNZZNNNmZNNNNNNZNNNNN"
};
