/* XPM */
static char *result[] = {
/* columns rows colors chars-per-pixel */
"64 64 62 1 ",
"  c #010101",
". c #060309",
"X c #09050D",
"o c #0B0B0B",
"O c #0D0612",
"+ c #100717",
"@ c #110917",
"# c #12091A",
"$ c #131313",
"% c #1B1B1B",
"& c #1A0C25",
"* c #1E0F2B",
"= c #200F2D",
"- c #211327",
"; c #251234",
": c #2B153C",
"> c #242424",
", c #2C2C2C",
"< c #343434",
"1 c #3C3C3C",
"2 c #2F1642",
"3 c #2E1841",
"4 c #301744",
"5 c #321947",
"6 c #351A4B",
"7 c #3B1C55",
"8 c #3E1D59",
"9 c #3C214C",
"0 c #3E2056",
"q c #41205B",
"w c #431F60",
"e c #462263",
"r c #492467",
"t c #4B246B",
"y c #533065",
"u c #512773",
"i c #542A75",
"p c #562B79",
"a c #5B2D7F",
"s c #444444",
"d c #4C4C4C",
"f c #545454",
"g c #5E5E5E",
"h c #606060",
"j c gray49",
"k c #5E2D85",
"l c #5E3084",
"z c #602F87",
"x c #632E8F",
"c c #65308F",
"v c #662D95",
"b c #662998",
"n c #663190",
"m c #683393",
"M c #959595",
"N c #AFAFAF",
"B c #B5B5B5",
"V c gray78",
"C c gray82",
"Z c gray93",
"A c #F3F3F3",
"S c #FCFCFC",
/* pixels */
"xxxxvvkxcnnnvcxcxnxxcvxxxxxxxxkkbxbxxxxxxcxxxxxxxxxxxxxxbxnnvnnb",
"xxxxkxvvcvxncccxcxxcxxxxxxxxxxbxxxkbxxxxcxxxxxxxxxxxxxxxxbvnnvvb",
"xxxxxxxncnvccvxcxcnxxxxxxxxxxxxxxbkkxcxxxxxxxxxxxxxxxxxxxnvnnnnb",
"xxxxxxxvcccccncxcxxcxxxxxxxxxbxxxxxbcxcxxxxxxxxxxxxxxxxxxnnvvvnb",
"xxxxxxknnccvcvknxnxxxxxxxxxxxxxxxxxxxcxcxcxxxxxxxxxxxxxxnmnvnnvb",
"xxvkxxxcvccnnncvcxxcxxxxxxxxxxxxxxxccxcxcxxxxxxxxxxxxxxxnvnnvnnb",
"xxkvkxxvccvnnnxcxcxccxcxxxxxxxxxxxccccxcxcxxxxxxxxxxxxxxvnvnvnnb",
"vxvnvvnxvkkvvkcxnxcxccnnxxxvxxxxxxnmnnnnmmnxxxxmbxxxxxxxnnnnnnmm",
"nnnnxnnxvkkvkkvvcxcxcnnnmccmccccxmxmmammmmmmcccccnnnxcvnnvnnnnnm",
"xnnnnnxxkvvvvvcxxcxccnnccmcnncccxxcmnmmmmammmccccnxxnnxnnnmnnnmm",
"nnnnnnnxvvvkvvxcxcxcxnnmnmnnnnncmccmmnmmmmmancnmnnxnncccmnnvmnmm",
"nnxnnxnxvkkvkkcxcxcxcnnnnnncnnnncccnncmcmmmmcnnznxvnnccnnnnncnmm",
"ncncnnxvvkvvvvxccxcccnnmnnnnnnnncmcmnnmcamnnnnmcnxxncncxvnnnnnnm",
"nncnnnnkvvkkkvcxxcxccnnznnnnnnzmcccmmnczmmnnnnccnvcnnxnvmnnvnnmm",
"nncxcccncnnnnnxxcxccccnnnmnnnnnnmmmnzmnnmmamaccmxvcccnncnnnxnnnm",
"xxnncncxnnnnccxxcxcccccazzznnmnmccmzzzpyammmmmzcxnnnnxvxvnnxnnmv",
"nncncvccnxnnncxxnxxxxt. .&8znnnmmncke*  &kcxxcxcxnxncmxxccvnnxvv",
"nlnnccccnnnncnxnnxvxrX     7mmnnmnc;.    ;kvcxcxxnxnccxmxmxnnnnm",
"nnxxcccnxnnncnxxxxx7       Ocmmnnn7       Xkxcxcxnncmxccnnxnnnnv",
"xnnncccnnnnnncxxxxw         tcmnnn*        =zxcvxnccxmxxxnvnnvnm",
"nnnxnnvcnnnmnnccxxO         ;mnmnyX         exxccnnnnxmmvxxxnxnm",
"xnlxkvkcxnnlcccnci          @:;;;$          ;xcccxxxxxxxvvvvbbbb",
"xxxxxxvnxnnmccnncr           .  .           .acccxcxxcxxvvxbvvvb",
"xxxxxxxcxnxlncnnn:       oo$$%%%%%$$$..      rcccxxxxvxxxvvxvvvb",
"xxxxlmncccccccnci.    .$>,,1ssss11<<,,>>$o   :cccxxvxxxxxbvxbbvb",
"xxxxnnccccccccncX   o%,1ssfggggggggggffs<,$  .cccxcknnxnxvbxvxxb",
"xxxxnlmmccccccc5   %<dfggghggggggggggggggf<>. 4cnxvclvnnbbvvxvbb",
"xxxxnmllcccccct.  >sgggghgggggggggggghggggg<>o :kxvkvnnlvxxbbbxb",
"nnmnnmmmnnmnml   %dgggggggggggggggghghhgggggs>o &amcmnnnbvvvvvvb",
"nmmmmmmlnmml5o  $fgggggggggg1>>sggd%o.%fgggggs>o  cmnnnnvvbbvbvb",
"mmlmlmmmnmm5o  $fgggggggggf%o>o$gg% %  ,ggggggs%  -cnnnnvbxvvbbb",
"nmmmmmmmmmio  odgggggggggg% gZC$fdojZNo gggggggs$  cnnnnvvbbbvvb",
"lmmnnmnmcm*   1ggghggggggd  MSShddoZSA, 1ghggggg,  ycmnnmnvbvvvb",
"mmnmnmncmi.  %fgggggghgggo  $VBosfoNAVo $gggggggd$  cmnnvvvbvbbb",
"mmnnmmcmc;   fggggggggggg      odg>o>.  ogggggggg<o pcccvvvvvbvb",
"mlnnnzxxko  >ggfggggggggg     .oggd     .fgggghggd%  knvvvvvvvvv",
"mnnncvcxt.  sgggggggggggg     o%ggg$    %ggggggggg<o 5vnvbmbvvvv",
"nznzxcxx7   fgggggggggghgf1o .odggg1   %ggggghgggg1$  xnmmbmvvvm",
"ccnnxxxx7  $fggggggggggggggggfghgghgddfggghgggggggf1  9vbmmbmvvv",
"ccccxxxx2  sgggggghggggggggggggggggggggggggggggggggg%  xmbbmbmvv",
"cccvlxcx;  fgggggggggghgghggggggggggggggggggggggggggd  6bmvvvvmv",
"ccccnvvk. .fggggghgghggggghgggggggggggghggggggghggggg$  7bvvvvvm",
"ccnnnnnn@  dggggggggggggggggghgggggggggg ghggggggggggs. tvmvbmvm",
"ccncnnnnu  $fggghghgghggggg gggggg hgggg gggghgggggggf, xvvvmmbm",
"nnlvnnnnx  .dggggghggghgggh gggggg ggggg ggghggggghggf> vvmvbmbm",
"nnnnnnlvn.  1gggghggggggggg gggggg gggg gggggggggggggf$ mmbmmvmm",
"nnnnnnnnn#  ofggghgggggggggg  gg    gg  gggggggghggggd$#bmmbmvbm",
"nnnnnnnnni   ,ggghhhggghggggg    gg    gggggggghggggd,X;mbvmbmbm",
"nnnnnnnnnn0   sgggghhggggghggghgggggghgggggggggggggd<> 8xvvvvvvv",
"nnnnnnnmmmm3   1gggghgggggggggggggggggggggggggggggd<,oXznnnnnncn",
"nmnnnncmmmmc#   >dgggggghgggggggghghggggggggggggg1,>o 4nnnnxnnnc",
"nvnnmcmmmmmvu.   o%sgggggggggggggggggggggggggggs,>%. #znnxxnxnnc",
"nmnnnmmmmmmmn8.    .$,sffgggggggggggggddfffdd1>>$o  +uncxnnxnnnx",
"nnmnnnnmnmmmnn3.         ooo>sddds<,>>>>>%$$o.     ;kcnnmnxmnxnc",
"nnmnmnmmmvmmmmc0              o$ooo .           :;pccnnnxcnxxmxn",
"nnnnnnnmmmmmmmmcp00:@oo$X                  @*qzvnnnnnnnnxnnxnxnc",
"mmmmmmmmmmmmmmmmmmmmmmmmlmnnnnxncnnkvvkvkbxxxxxxxxxxxxxxxxxxxxxx",
"mbmmmmvmmmmmmmmmmmmmhmmmmmmmnnnnnnnxvkkvxxxxbkxxxxxbkxxxxxbxxxxx",
"mbmmmvmmmmmmmmmmmmmmmmmmmmnnnnnnnnnxvvvvxxbkbkbkbkxkbxkbxxxxxxxx",
"mmmmmmmmmmmmmmmmmmmmmmmmnmnnncnmcnnxkkvkxxxxkbkbkbxxxxxxxxxxxxxx",
"mmmmmmmmmmmmmmmmmmhmmlmmnmlmnnxxxnxxvxxxbxxxxxxxbxxxbxxxxxxxxxxx",
"mmmmmmmmmmmmmmmmmmmmmmmmmmmmnxnnnxvxxxxxkxxxxbkxxxxxkxxxxxxxxxxx",
"mmbmmmmmmmmmmmmmmmmmmmmmmmmmxnnnnnxxxxxxxxxbxxxxxxxxxxxbxxxxxxxx",
"bmmmmmmmmmmmmnmnmmmlmmlnlnnlxxxxvkxxxxxxxxxkxxxbkxxxxxxkxxxxxxxx"
};
