/* XPM */
static char *result[] = {
/* columns rows colors chars-per-pixel */
"64 64 66 1 ",
"  c #010101",
". c #060308",
"X c #09050D",
"o c #0B0B0B",
"O c #0D0612",
"+ c #0F0815",
"@ c #100716",
"# c #110817",
"$ c #140A1B",
"% c #131313",
"& c #1B1B1B",
"* c #170B21",
"= c #1A0D25",
"- c #1E0F2B",
"; c #200E2E",
": c #211327",
"> c #22112F",
", c #251234",
"< c #2B153C",
"1 c #232323",
"2 c #2C2C2C",
"3 c #333333",
"4 c #3C3C3C",
"5 c #2F1643",
"6 c #2E1841",
"7 c #301744",
"8 c #321946",
"9 c #341A4A",
"0 c #3B1C54",
"q c #3E1D59",
"w c #3C214C",
"e c #3E2056",
"r c #42215C",
"t c #431F60",
"y c #462262",
"u c #482167",
"i c #4C256C",
"p c #4E286E",
"a c #50286F",
"s c #533065",
"d c #522774",
"f c #532A75",
"g c #572C7A",
"h c #5A2A7F",
"j c #444444",
"k c #4C4C4C",
"l c #545454",
"z c #5E5E5E",
"x c #606060",
"c c gray49",
"v c #5D2D84",
"b c #632E8F",
"n c #603187",
"m c #65308F",
"M c #662D95",
"N c #662998",
"B c #663190",
"V c #683393",
"C c #959595",
"Z c #AFAFAF",
"A c #B5B5B5",
"S c gray78",
"D c gray82",
"F c gray93",
"G c #F3F3F3",
"H c #FCFCFC",
/* pixels */
"bbbbbbvmmBmmmMmbbmbmbbbbbbvNNvNbbbbbbbbbbmbbbbbbbbbbvNbbMMBBMMBN",
"bbbbbbNMMBMBmBbmmbmbmbbbbbvMNvbbbbbbbbbbmbbbbbbbbbbbbbbbMbMBBBVN",
"bbbbbbbBmmBBmmmbbmmbbbbbbbMMbbbbbbbbbbbbbmbbbbbbbbbbbbbbbBBBBBMN",
"bbbbMvMMmmBbBmbmmbmmmbbbvbMvbbbbbbbbbbbbMbbbbbbbvbbbbbbbMmMBMMBN",
"bMbbbbvBBBmmBBbbmbmbbbbbNMbbbbbbbbbbbbbbmbbbbbbbNbbbbbbbBBBBBBBN",
"bvbbvbMMMmmMbBbmMmbmbbbbMvbbbbbbbbbmbbbbbmbbbbbbbbbbbbbbMBMMBMBN",
"bbbbNbbBmmMBBBmbmbbmmbmbMbbbbbbbbbmmmmbbnbbbbbbbbbbbbbbbVMBBBBMN",
"MMbmBBMvMvMvbbbmmbmbmmmVbmmBMbbbbbBBBVVVVVmbMbbVbMbbMbbbBmMBVBVV",
"BBBBbBbbMvMvMMMbmbmbmBVmBmmVmmmmbBBBVVBVVnVVbmVmBmmMmmBBBVBBVBBV",
"BBBBBBBbbMvMMvmbbmbmmBmmmVVVmmmmbbmVBBVnVVnBVbbbMmmBmmMbBBBVMmVV",
"BBBBBBBbMvNMMvbmmbmbmVmnhBmmmVBmmmBVVBnpnVVnmBbVmmBmBMmBBBBMVmmV",
"BbbBBbBbvMMvMbmbbmbmbBv=$gmVmmBBmmmVVVy@rnVVbVmmmmmmmmmmBBBBmVVV",
"BBBmBBBMvMMMvvMMbmbmmm0. :hVVBBBmBmVhr$.ofmVbbbmBmmmmmBmMBBBVVmV",
"BBmBBBBvMMvvMMbmmbmbbd$   $nnVBBBmma<#   :bVVmVmMmBBmmBMBBBBmmVV",
"bBBmmmbBBBBBBmbbbbbbv>     8VVBBBVVO      fbbmmbbBMmBMmMBBBBBBmV",
"BBbmbmBBBBmBBmmbbbbb5.     #hVBBBVho      =bbbbmbmmmmmmBBMMBBBBV",
"mmmmmmmBmBmmBmbbbBM0       .rBVBVV0       .imbmmmBmMmmmbBBMmBmBB",
"mmmBmBmBBmmBBmbbbbt         8BmVVm-        -bmbbbBmmMBmBBMBBBMBB",
"mmmbmmmBBmBBmmmmbb+         ,VVVmaX         ybbmbmmmmBMBBBBmBBMB",
"bBmmmmmBBBmBBmbbbf          #<,,,#          ,bmbmMBBmmmmMmMmBBBM",
"BbBBBBBBBBBBBBmmbu             .     .      XhbbbmBmBBVbBMBbMMBB",
"bbbbvMvMmBmmmmBBm<       .o&&&&%&&%&oo.      ummmbbbbbmbbbMNMMMN",
"bbbbbbMBbbmmmmBmf.    .%1224jjjj43332211%.   <mBmbbbbbbbNMMbbMNN",
"bbbbbMvmbmmmBmBmX   o133jjlzzzzzzzzzzllj41&  XnBmbmbbbbbNbNbNMMN",
"bbbbBnBmmmmmmmm8   &3klzzzzzzzzxzzzzzzzzzl31..7nbbbbbmmmbNNbNNMN",
"bbBbnBBBmmmmmmi   1jzzzzzzzzzzzzzzzxzzzzzzz31o <nbbbbmmmbMbMMbbN",
"bbmmBBnVmmmmmv   &kzzzzzzzzzzzzzzzzzzzzxzzzz41o *vbbmbBmNMbNMMNN",
"bbbmVnVnmmmv9.  %lzzzzzzzzzz411jxzk&o.&zzzzzzj2   vbbbBBbNNbMbMN",
"mBVVnVVVBBV8.  %lzzzzzzzzzz& 1.%zz&.&  1zzzzzzj&  :BBBVnMNNMMMMN",
"BBVnVVVnBVpo  .kzzzzzzzzzz& zFD&lkocFZ.ozzzzzzzj%  mBBVVMMMMMNMN",
"BBVVVVVVBV-   4zzzzzzzzzzj  CHHzjkoFHG2 4zzzzzzz2  sBBBBNMMNMNNN",
"BVBVVnVVVgo  &zzzzzzzzzzzo  %SA%kloAGSo &zzzzzzzk&  BBBBNMMNMMMN",
"VVVVBBBVm,  .kzzzzzzzzzzz      okz1.1o  ozzzzzzzz3o fmBBBBMNMNMN",
"VnVVVVVVvO  1lzzzzzzzzzzz      olzk     .lzzzzzzzk&  vVBNNMMMNMN",
"VVVVVnmBp.  jzzzxzzzzzzzz      1xzz%     lzzzzzzzz2o 8BmMMMMMMNN",
"VnnVnVbb0   lzzzzzzxzzzxz%   .ojxzz4    .zzzzzzzzzj%  mMMMMMMMMM",
"nBmmmbmb0  %lzzzzzzzzzzzzko  .2zzzzz.   1xzzzzzzzzl4  wBNVNVMMMM",
"nVmmbmbb5  jzzzzzzzzzzzzzzl313zzzzxzj&1lzxzzzzzzzzzz&  bVNVNMVMM",
"mmmmmbMb,  lzzzzzzzxzxzzzxzzzxzxzzxzzzzzzzzzxzzzzzzzk  9NVNVNVVM",
"bmmmbmbb;  lzxzzzzzzzzzxzzzzxzxzzzzxzzzzzzzzzzzzzzzzz% OVMVNVNVM",
"mbbmbbmb;  kzxzzzxzzzzzzzxzxzzzzzzzzzzxzzzzzzzzxzzzzzj. MMMMMMMV",
"bmmmmmMb# .4zzzzzzxxzzzzzzxzzzzzzxzzzzzzzzxzzzzzzzzzzzo 0MVMMMMM",
"mmBBBBmm9  &zzzzxzzzxzzzzzzzzzzzzzzzzzzz zzzzzxzzzxzzl1.iMMMVMMV",
"mBBBBBmmp  %lzzzxzzzxxzzzzz zzxzzz zzzzz zzzzzzzxzzzzl1.MMMMMMMV",
"bBbBmBBBm  .kzzzxzxzzzxzzzz zzzzzz zzzzz zzzzzzzzzzzzl1 VNNVMMVV",
"BBBBBBBmB.  4zzzzxzzzzzzzzz zzzzzz zzzz zzzzzzzzzzzzzl& NVVNVMMM",
"BBBBBBBBB$  olzzzzzzzzzzzzzz  zz    zz  zzzzzzzzzzzzzj%$VNMVMMVV",
"BBmBBBmBBf   2zzzxxxzzzzzzzzz    zz    zzzzzxzzzzzxzk2X,VVMMVVMM",
"mBBBBBBBBBe   jzzzzxxzzzzzzzzzzxzzzzzzzzzzzzzzzzzzzk31 qMMMVMBMV",
"BBBBBVBVVVV6   4zzzzzzxzzzzzzzzzzxzzxzzzzzzzzzzzzzk32oXvVmBmBMmM",
"BBBBBBBVVVVm@   1kzzzzzzzzzzzzzzzzzzzzzzxzzzzzzzl421o 7mbBMmmmmm",
"VVBBBVBVVVVVaX   o&jzzzzzzzxzzzzzzzzzzzzzzzzzzzj32&. #nVmmmmMbVm",
"BBBBBVVVMBVVBq.    .%2jllzzzzzzzzxzzzzkklllkj42&%   #dmmVbbVmmVb",
"BBBBBBBVVVVVVB5.         .oo1jkkk44211111&%%oo     ,vmVmbBmmmmmm",
"VBBBBVBVVVVVVVne.             o%oo ..           <,gmmmmVmBVbmMmm",
"BBBVBBBVVVVVVVVVfee<+oo%o                  #-rvNVmBmmVVmmMmmbBBm",
"VVVVVVVVVVVVVVVVVVVVVVVVBVBVBmBBmBBvMMMvbbbbbNNvbvbbbbbbbbbbbbbb",
"VNVVVVMVVVVVVVVVVVVVVVVVVBVVmBBBBBBbMvbMbbbbbvbbbNbbbbbbbbbbbbbb",
"NVMVVVVVVVVVVVVVVVVVVVVVnVBBmBBBBBBbbbbbbbbbbbbbbbbbbbbbbbbbbbbb",
"VVVVVVVVVVVVVVVVVVVVxVVVVVBBBmBBmBBmbbbbbbbbbbNvbbbbbbbbbbbbbbbb",
"VVVVVVVVVVVVVVVVVVVVVVVVVnVnBBBBBMbbbbbbNvNbbvbbNvNbbbvbNbbbvbbb",
"VVVNVVVVVVVVVVVVVVxVVVnVVVVVBBbBbbbbbbbbvNbbbNbbvNbbbbNbvbbbbNbb",
"NVVVVVVVVVVVVVVVVVVVVVVVVVVVbBBbBBbbbbbbbbbvbbbbbbbbbbNbbbNvbbbb",
"VVVVVVVVVBVVVBVVVVnVVnnVnnVnbbbbbbbbbbbbbbbNbbbbbbbbbNvbbbbbbNvb"
};
