/* XPM */
static char *result[] = {
/* columns rows colors chars-per-pixel */
"64 64 66 1 ",
"  c #010101",
". c #060309",
"X c #09050D",
"o c #0B0B0B",
"O c #0D0612",
"+ c #0F0815",
"@ c #100716",
"# c #110817",
"$ c #13091B",
"% c #131313",
"& c #1B1B1B",
"* c #170B20",
"= c #1A0D25",
"- c #1E0F2A",
"; c #200E2E",
": c #201227",
"> c #251234",
", c #2A143C",
"< c #232323",
"1 c #2C2C2C",
"2 c #333333",
"3 c #3C3C3C",
"4 c #2F1742",
"5 c #2E1841",
"6 c #301744",
"7 c #321947",
"8 c #321748",
"9 c #351A4B",
"0 c #3C1D54",
"q c #3E1D59",
"w c #3C214C",
"e c #3E2056",
"r c #3F2058",
"t c #421E5F",
"y c #42215C",
"u c #462263",
"i c #482366",
"p c #4D266D",
"a c #533065",
"s c #512673",
"d c #542A75",
"f c #56297A",
"g c #5A2C7E",
"h c #444444",
"j c #4C4C4C",
"k c #545454",
"l c #5E5E5E",
"z c #606060",
"x c gray49",
"c c #5D2D84",
"v c #5F2D88",
"b c #632E8F",
"n c #603187",
"m c #65308F",
"M c #662D95",
"N c #662998",
"B c #663190",
"V c #683393",
"C c #959595",
"Z c #AFAFAF",
"A c #B5B5B5",
"S c gray78",
"D c gray82",
"F c gray93",
"G c #F3F3F3",
"H c #FCFCFC",
/* pixels */
"bbbbvMbmmbmmmbbmbmbbmbbvMvMbbbvbvvbbbbbbmmbbbbbvMbvMbvMvMMBBMMBN",
"bbbbbbbMBmmMBBmbmbmmbbbbbbbbbNNbbNbbbbbbMmbbMvbMbbbbbbbbBMBMBBBN",
"bbbbMbvmBBBBBBbmbmmbbbbbMvvMbvbbvbvbbbbbbbbbbMbvMvvMvMvbBBBBMBBN",
"bbbbvbMmbBbBMBbmmbmmmbbbvMvMbbbbNbNbBbbbbbbbbvbbvMvMbbMbMBMBBBMN",
"bbbbbbbMMmmMmmbmmMmbbbbbMvbbbbbbbbbbbmmmbmbbbbbbMvbbbbbbBMMBBVMN",
"bbbbvbbBmBmBmmmbmbbmbbbbbMbbbbbbbbbmBmbbmbbbbbbbbMbbbbbbBBBMMBBN",
"bbbbMvMmmmMBBBbmbmbmbbbbvbbbbbbbbbmmmmbpfBbbbbbbvbbbbbbbBMBVMBBN",
"MbbmMmmbbbvbbbmbmbmbbc>7MmBBMbbbbbmVmm0.$mmbbMBmMMbbbMmmVBBBBVBV",
"BmmBBBBbbbMvMvMbbmbmbu .yBBBmBmmbBBVmu. XfmmBBMmbBmmBmmMBBBBMVBV",
"BBmmBbBMMvvMbbbmmbmbm>  .iVBBBmmbbmBp.  .eBBbBmmBmmMmmmBBBBVBBVV",
"BmmBbBBvbMMvbbmbmmmbn+   $gBBBBmBmVgX    >BBmBMBBBBBBMmmVBBBmVBV",
"BBBmBBBbbvvMbbbmbmbb0.   .,mmBBBbBm9     =BmmmmBBbmmmmmmMBBBVmVV",
"BBBBBBBMMMMvbbbbbbmc$     XfBBBBVmm:     OfMbmBbBmmmmmmMBBBBmBBV",
"BmBBBBmvvvbmbbmbbbb0.     .,BBBBbmmO      #cBmBmMmMBmmBBBBBmVmVV",
"mmmmmmmBBBBBmmMbbbf#       #gVBBVVg.       =bbbmbBmmBMmMBBBMMBVV",
"mmmmBmmBBBBBmmbbbM4        .yBBVBVy.        0bmbmmmmBmmBBMBBmBBV",
"mmmmmmmBBmmBBBbbmcO         7BBVVm-         OfmbbMmmmBmmmBBMmBMB",
"bBBbBmmBmBBmmBbbb8          >VBBmpX          >bmmBmmmmBMMBBmmBBB",
"mBbBmmmBBmmBBBmbcO          #,,>,@           ObmbmBBMmBBmMmMBBBB",
"BmBBmmmBmmBBBBbmt.            .               mbmmmMBBbmBBBBMBBM",
"mmmmmBmBBBBBBBbm,       ..o%%%&&&&%%%o.       bmmmBBBBVbBbbbBBBB",
"bbbbMvbmmbbbmmmm$     .%<123hhhh332211<<%.    mmmbbbbbbmMMMNNMNN",
"bbbbbbbBmmmmmmBmX   %&13hhklzllllllllkkh31%   cmmbbbbbbbNbbMMMMN",
"mbbbbbbbmmBmmmB7   &2jklllzllllllllllllllk2<..,cmbbbbbbbNMNMbMMN",
"bbmmBBmmmmbmmmi   &hllllllllzllllllllllllll2<o ,sBbbbvmmbMMNbbMN",
"bbmmnVmmmmmbbc.  &jlllllllllllllllllllllllllh<o +pbbMmmmNMbNMNNN",
"bbvbnnVnBbmn9.  %kllllllllll3<<hllh&oo&llllllh<o  nbbbmmbbMMMMvN",
"bbbbVVnVmbb7   %kllllllllll&.<o%ll&.&. <llllllh&  =mMbBnMNNbMMNN",
"BBnVVVnVBBdo  .klllllllllk& lFD%kkoxFZ..lllllllh%  mVVVVNMNMMMNN",
"VBVVVnVVVB:   3llllllllllh  CHHzhjoFHG1 hllllllk1  aVnnVMMMMNMMN",
"VnVVVVVVVdo  &kllllllllll%  %SAojkoZGSo %lllllllk%  VVBBMNMNNMMN",
"VVVVVVnVV>   klllllllllll      ojl<o<o  ollllllll2. dBBmMMbNNNMN",
"nVVnBBVVmX  <klllzlllllll      %llj     .klllllllj&  cmVBMMMNNMN",
"VVVVVBVmp.  hllllllllllll     .&lll%     kllllllll1o 7VVMMNMMMMN",
"VnBBVnmVe   kllllllllllzl%   .ohlll3    .lllllllllh%  mmMMMMMMNN",
"VVBBBVbb9  %klllllllllllljo  .1lllll.   <zllllzlllk3  wMMMMMMMBM",
"nnBBbmbb7  hlllllllllllllzk2<2llllzlh&<klllllzllllll&  bMMMMMMMM",
"VVmmmmmb>  klllllllzllzllllllzlllllzlllllllllllllllzj  9MVMMMMMM",
"mmmmmbbb-  klllllzllllzlllllzlzlllllllllzllllllllllll% oMMMMMMMM",
"mmmmMmbb; .jlllllllllllzlzlzllllzlzllllllllllllllllllh. VMMVMMMM",
"mmmbmmbb> .3llllllzlllllllzlzllzllllllllllllllzlllllll% fMMMMMMM",
"mbmmbmbb,  1llllllllzllllllzllllllllllllzllllllllllllk& pMMMVMMM",
"mmmmBBBB9  &llllzlllzlllllllllllllllllll llllllllllzlk<.pMMMMMVV",
"mmmVBmBBp  %klllzlzllzlllll llllll lllll llllllllllllk<.bNMVVVMM",
"bBmBBBBBm  .klllzlllllzllll llllll lllll llllzzlzllllk< MVVMMNVV",
"BBBBmBBmB.  3llllzlllllllll lllllz llll lllllllllllllk& MMMMMVNV",
"BBBBBBBBB$  oklllzzlzlllllll  ll    ll  llllllllzlllzh%$VMMMNVVV",
"BmmBBmBBBd   1llllzllllllllll    ll    lllllllllllllh2o>MMVNVVNM",
"mBBmBBBBBBr   hllllzzlllllllllllzllllllllllllzlllllk2< qMMMVMMVV",
"BBBBBBBVVVV6   3llllllzlllllllllllllllllllllllllllj11oXnmbBbVbbM",
"BBBBBVBVVVVv@   <jlllllllzlllllllllllzllzllllllll31<o 6BmbVBBBmB",
"BBBBBVBVVVVVsX   o&hlllllllllllllllllllllllllllh1<&. $nBBmbBbBbm",
"VBVBVnVVVVVVB0.    .%1hkklllllllllllllkjkkkjh3<&%.  +dBBBBBbBBBb",
"BVBVBVVVMVVVVB5.         .oo<hkhjh21<<<&<&%%oo.    >cmBBbbBBBbBB",
"VBVBVBVVVVVVVVme.             o%oo...           ,>fmmVmmBBbBbBbB",
"BVBVBVnVVVVVVVVmfe0,+oo%o                  #-tnMVmmVmmmVBbBBBBbB",
"VVVVMVVVVVVVVVVVVVVVVVVVVVVVmBBBmVBbvbbbvbNbvbbbNvbbNvbbbbbbbbbb",
"VVVVVVVVVVVVVVVBVVVVVVVVVVnVBmBmmmBbBbbbbbbbbbbbbbbNbbbbbbbbbbbb",
"VNVVMVVVVVVVVVVVVVVVVzVVVnVVmBBBVmBbbbbbNbbNbbNbbbbvbbbbbbbbbbbb",
"VVMVVVVVVVVVVVVVVVVzVVVVVVBBmmBBmmBmbbbbvbbvbbvbvbbbbbbNbbbbbbbb",
"VVVVVVVVVVVVVVVVVVVVVnVnVVVVBBBmbbbbbbbbbbbbbbbbbbbbbvbvNvbbbbbb",
"VNVVVVVVVVVVVVVVVVVVVVVVVnVVmBBBBbNbbbbbbbbbbNvbbbbbbbbbbbbbbbbb",
"VVVVVVVVVVVVVVVnVVVVVVVVVnVnBBmmmmbbbbbbbbvbbvvNbbbvbbbbbbbbbbbb",
"VVNVVVVVVVVVVVVVnVVVVnVnVVVnbbbbbbbbbbbbbbbbbNbbbbbNbNvbbbbNvbbb"
};
