/* XPM */
static char *result[] = {
/* columns rows colors chars-per-pixel */
"64 64 167 2 ",
"   c #000100",
".  c #060904",
"X  c #0A0C04",
"o  c #060D09",
"O  c #0E1106",
"+  c #07100A",
"@  c #0B130A",
"#  c #0D1A0F",
"$  c #111407",
"%  c #141907",
"&  c #121608",
"*  c #151A0A",
"=  c #191E0A",
"-  c #0D1C11",
";  c #121F12",
":  c #1D230C",
">  c #0F2215",
",  c #132414",
"<  c #1B2511",
"1  c #172817",
"2  c #1D2B14",
"3  c #132718",
"4  c #142B1A",
"5  c #1D2E19",
"6  c #1B331D",
"7  c #20260D",
"8  c #232A0E",
"9  c #212610",
"0  c #252D12",
"q  c #282F11",
"w  c #253215",
"e  c #2B3414",
"r  c #273817",
"t  c #2D3817",
"y  c #23351A",
"u  c #2B3719",
"i  c #243A1E",
"p  c #2C3C1B",
"a  c #303817",
"s  c #313C1B",
"d  c #1E1924",
"f  c #231928",
"g  c #1E3C24",
"h  c #232427",
"j  c #233C22",
"k  c #25362C",
"l  c #26392F",
"z  c #293B2A",
"x  c #252334",
"c  c #272A31",
"v  c #2E223D",
"b  c #30223C",
"n  c #322A3E",
"m  c #31303C",
"M  c #2C421E",
"N  c #33421F",
"B  c #1E4229",
"V  c #244226",
"C  c #2B4423",
"Z  c #2F4B27",
"A  c #254529",
"S  c #264C2D",
"D  c #2B4D2B",
"F  c #334522",
"G  c #344A25",
"H  c #344E29",
"J  c #2D522D",
"K  c #35542C",
"L  c #37582F",
"P  c #2E4335",
"I  c #2A4E30",
"U  c #2F423A",
"Y  c #2D4D3B",
"T  c #324939",
"R  c #265132",
"E  c #2D5532",
"W  c #2E5A35",
"Q  c #2C5D39",
"!  c #315630",
"~  c #335B33",
"^  c #385E34",
"/  c #31543D",
"(  c #325B3B",
")  c #2E613B",
"_  c #366137",
"`  c #396036",
"'  c #35643B",
"]  c #39663B",
"[  c #36693C",
"{  c #3A6A3D",
"}  c #301F42",
"|  c #371D4B",
" . c #381E4D",
".. c #372647",
"X. c #322F45",
"o. c #3B254D",
"O. c #353442",
"+. c #303A41",
"@. c #373449",
"#. c #3E2553",
"$. c #3F3054",
"%. c #3F3E54",
"&. c #402F56",
"*. c #42255C",
"=. c #462B5D",
"-. c #413355",
";. c #44355C",
":. c #443D5B",
">. c #462263",
",. c #4B2567",
"<. c #462A63",
"1. c #482966",
"2. c #4A2368",
"3. c #4E296C",
"4. c #4D326B",
"5. c #4F2970",
"6. c #502672",
"7. c #522B72",
"8. c #572B7A",
"9. c #592C7D",
"0. c #543172",
"q. c #354945",
"w. c #394A47",
"e. c #36424B",
"r. c #3B4549",
"t. c #345643",
"y. c #3B5146",
"u. c #365F42",
"i. c #3A514E",
"p. c #3C5F48",
"a. c #356243",
"s. c #396245",
"d. c #346B42",
"f. c #3A6E41",
"g. c #3B674C",
"h. c #376848",
"j. c #396D4A",
"k. c #367246",
"l. c #3B7243",
"z. c #367248",
"x. c #3B744B",
"c. c #37794C",
"v. c #3D7B4C",
"b. c #3D7E51",
"n. c #404D52",
"m. c #417949",
"M. c #3E814E",
"N. c #3E8352",
"B. c #428553",
"V. c #418A56",
"C. c #448E5A",
"Z. c #44925D",
"A. c #48935F",
"S. c #479760",
"D. c #4B9761",
"F. c #4D9C65",
"G. c #509F67",
"H. c #529F68",
"J. c #52A169",
"K. c #58A46C",
"L. c #5D2C84",
"P. c #5F3084",
"I. c #632E8E",
"U. c #65308F",
"Y. c #662E93",
"T. c #663290",
"R. c #683492",
/* pixels */
"                                . X O % * % X X O & * = : 8 8 q e t N N L ` { { v.V.C.Z.F.S.s.;.I.I.I.T.R.R.R.U.R.R.R.R.R.R.R.R.",
"                              .   . X * 7 q q q * O % : : 8 q q t a N G L ^ ] m.v.B.V.Z.S.V.n.0.Y.T.T.T.R.R.R.R.R.R.R.R.R.R.R.R.",
"                                  . X X % 7 q e a q = & : 8 e t a N N G L ` ] { v.B.V.C.x.w.0.U.R.R.R.R.R.R.R.R.R.R.R.R.R.R.R.U.",
"                              .   . . X O % = 8 e e a u 2 : 5 M N H K L ` ] { B.v.v.[ T $.8.R.R.R.R.R.R.R.R.R.R.R.R.R.R.T.R.R.R.",
"                                    . X X $ % = 9 0 e t t e w 2 2 M M Z J D D M z m =.9.U.T.T.T.T.R.R.T.R.R.R.R.R.R.R.R.T.T.T.T.",
"                                      . X X % % = 7 8 e e t t t M 6 r 5 w r < d 2.I.Y.Y.Y.Y.Y.I.I.U.T.T.T.I.Y.T.T.T.T.T.T.T.T.Y.",
"                                      .   X X % % = 7 8 w e e M M M M r 2 2 d 5.Y.Y.Y.Y.Y.I.T.I.I.I.T.I.T.I.Y.I.T.Y.T.T.I.R.T.Y.",
"                                            X X % = 7 8 q e e q < % ; 6 V V B m 7.Y.Y.Y.Y.Y.Y.U.T.T.T.T.U.R.I.T.R.Y.T.R.Y.I.R.I.",
"                                        . . . . . X $ : % : O % 2 C J J ~ _ [ M.Q $.L.T.T.T.R.R.R.R.R.T.R.R.R.U.T.T.R.I.I.I.I.I.",
"                                          . O % % : : : : : : 0 r i M M M J ' { M.) @.0.T.U.T.R.R.R.R.T.U.U.U.U.T.T.U.I.I.I.I.I.",
"                                        . . X % : : w 8 : 0 0 w w w r r t M J [ M.Z.a.$.9.R.U.R.T.T.R.R.R.U.U.U.Y.I.U.I.I.I.I.I.",
"                                      .   . X X $ : : 8 8 8 8 8 8 w r r M M J ' M.Z.N.q.7.T.T.U.T.P.U.T.R.R.R.U.Y.Y.R.U.R.R.R.R.",
"                                        .   . O $ : : : 8 8 8 e r r M M M M K [ M.N.Z.t.4.U.U.U.T.P.R.R.R.R.U.U.T.T.T.U.R.R.U.R.",
"                                          . . X O % : : 8 8 q e e M M M K ~ ' k.N.S.V.m 1.R.U.U.U.T.T.R.R.U.U.R.T.U.T.R.U.R.R.U.",
"                                        . . . O O % : : 8 w e e M M K [ [ J B c m X.v *.I.U.U.U.P.5.o.| 7.U.U.R.U.R.U.T.U.I.U.I.",
"                                        . . O O % % : : 8 e t N M M M r M B h >.L.Y.I.I.U.U.U.P.$./ b.z.P ..U.U.R.U.T.U.U.U.U.I.",
"                                      . . X $ % = < 9 q u s z p y < j ^ Z.F.b.Y X.>.6.L.I.T.T.8.%.x.S.S.N./ o.U.R.T.T.T.I.P.Y.Y.",
"                                    . . X X % : 9 0 q 0 0 < < < y ~ [ f.A.D.F.F.C.h.t.+.<.L.U.L.:.x.S.S.Z.N.w.8.T.U.I.T.T.T.T.Y.",
"                                      . X X $ & & & * = < y C H K ~ ] { V.S.F.F.F.F.F.S.q.<.U.L.4.j.Z.Z.C.N.g.#.U.I.I.I.T.I.I.T.",
"                                          . X X O O O ; y A H ! ( ^ ' [ m.S.G.F.G.F.F.F.N.e.5.L.%.g.N.N.N.v.d.O.L.Y.I.U.P.L.8.2.",
"                                      . . X X O & * : = ; * * 2 y C D D ~ v.V.F.G.F.F.F.F.g.$.L.4.d.V.V.B.M.v.y.5.I.Y.9.} l t.x.",
"                                          . X X O & = < 2 y i j z i i i i V j j V.G.J.F.F.A.i.<.$.u.M.B.M.M.m.s.*.I.8.v Q F.F.F.",
"                                      . . . . X X O & * < 2 y z D E _ d.c.c.N.Q x.G.J.F.F.F.x.@.@.a.M.M.v.m.v.a...9.} I C.J.J.J.",
"                                            . . X X O & * < 1 y V S W ' z.b.N.R j.D.G.J.F.F.S.Y k [ v.k.l.{ { ' h v E b.D.F.J.J.",
"                                          . . . . . X $ & ; < y j A R _ d.c.z.B x.D.G.G.D.F.F.a.D { m.{ { { { ! 5 S f.^ ] m.D.K.",
"                                          .   . . . X X & * , 1 6 V J Q d.) g R v.B.C.A.S.F.S.' K { ` ^ ^ ^ ^ K j { ^ H G K ] B.",
"                                              . . . X X @ # ; 3 6 g S R g 3 4 g E d.l.l.v.C.B.~ E ` ~ L K K ~ H 2 ~ K H H H H L ",
"                                                  . . X + # - > 1 1 > - 4 S Q R V ! [ [ { { D C K ! K H H H H F 2 L H G G H H H ",
"                                              .   .       . o . + @ + g S R E W S V W ' ] _ j i H G G N G G F z s H G G H H G H ",
"                                              . .   . . . @ - - 3 3 - g B V D D I g E ' ~ C i C G z N N s F s 9 s G G G G G G G ",
"                                                  . . . . . + - 3 > # 5 6 i j C D V J _ K y r G N s N s s F a : s G G G G G G G ",
"                                                    . . o . + # - - O 3 5 6 y j A j A ! C 0 p N s a a s s s q 9 s F F F F N G N ",
"                                                    .   o   . o # # o , , 1 2 y z j y D j y p s e q e a a u 9 q a a F F F F F F ",
"                                                      .   . .   . + o * * = < < 0 j 5 C y 0 u e 0 8 8 q a u 9 e a a a s s F F s ",
"                                                          o . o o   o @ & ; = = 9 y 9 j 0 0 e 0 8 7 7 q e e = q e e t e s s s s ",
"                                                            . o o + . @ & & & = = 0 < = < 0 0 9 : : : 7 q q * 8 q q q q s s s s ",
"                                                            . . o o . X X O & & = : : & = q 8 : = = * : 8 7 & : 7 q 8 8 8 e a a ",
"                                                              . . o . o X O O $ % = : & : q 7 = % % % % = = & * = 7 8 8 8 q e e ",
"                                                          .   . . o   . X X O O O % = & = 9 : % $ $ $ $ * % O O % = 7 7 7 7 q q ",
"                                                                  . . . X X X X O O & & = : % $ X X X X O $ O X O % % = 7 7 7 7 ",
"                                                              . . o .   . . X X X X O X $ % $ X X . . . X X X . X X O % = = = : ",
"                                                                  . . . . . . . X . X X O $ O .     . .     .     X X X & & & = ",
"                                                                  . .   . . . . . . X . X X . . .         . .     . . X X X & & ",
"                                                                    . .   .     . . . . . .                           . . X X X ",
"                                                                  .   .   . . . .   .     . .     .                     . . . X ",
"                                                                      .         .                                             . ",
"                                                                  .   . .                                                       ",
"                                                                            .                                                   ",
"                                                                      . .                                                       ",
"                                                                                                                                ",
"                                                                                                                                ",
"                                                                            .                                                   ",
"                                                                                                                                ",
"                                                                                                                                ",
"                                                                                                                                ",
"                                                                                                                                ",
"                                                                                                                                ",
"                                                                                                                                ",
"                                                                                                                                ",
"                                                                                                                                ",
"                                                                                                                                ",
"                                                                                                                                ",
"                                                                                                                                ",
"                                                                                                                                "
};
