/* XPM */
static char *result[] = {
/* columns rows colors chars-per-pixel */
"64 64 167 2 ",
"   c #000100",
".  c #060904",
"X  c #0A0C04",
"o  c #060D09",
"O  c #0E1106",
"+  c #07100A",
"@  c #0B130A",
"#  c #0D1A0F",
"$  c #111407",
"%  c #141907",
"&  c #121608",
"*  c #151A0A",
"=  c #191E0A",
"-  c #0D1C11",
";  c #121F12",
":  c #1D230C",
">  c #0F2215",
",  c #132314",
"<  c #1B2511",
"1  c #172817",
"2  c #1D2B14",
"3  c #132718",
"4  c #142B1A",
"5  c #1D2E19",
"6  c #1B331D",
"7  c #20260D",
"8  c #232A0E",
"9  c #212610",
"0  c #252D12",
"q  c #282F11",
"w  c #253215",
"e  c #2B3414",
"r  c #273817",
"t  c #2D3817",
"y  c #23351A",
"u  c #2B3719",
"i  c #243A1E",
"p  c #2C3C1B",
"a  c #303817",
"s  c #313C1B",
"d  c #1E1924",
"f  c #231928",
"g  c #1E3D24",
"h  c #232427",
"j  c #233C22",
"k  c #25362C",
"l  c #26392F",
"z  c #293B2A",
"x  c #252334",
"c  c #272A31",
"v  c #2E223D",
"b  c #30223C",
"n  c #322B3E",
"m  c #31303C",
"M  c #2C421E",
"N  c #33421F",
"B  c #1E4329",
"V  c #244226",
"C  c #2B4423",
"Z  c #2F4B27",
"A  c #254529",
"S  c #264C2D",
"D  c #2B4D2B",
"F  c #334522",
"G  c #344A25",
"H  c #344E29",
"J  c #2D522D",
"K  c #35542C",
"L  c #37582F",
"P  c #2E4335",
"I  c #2A4E30",
"U  c #2F423A",
"Y  c #2D4D3B",
"T  c #324939",
"R  c #265132",
"E  c #2D5532",
"W  c #2E5A35",
"Q  c #2C5D39",
"!  c #315630",
"~  c #335B33",
"^  c #385E34",
"/  c #31543D",
"(  c #325B3B",
")  c #2E613B",
"_  c #366137",
"`  c #396036",
"'  c #35643B",
"]  c #39663B",
"[  c #36693C",
"{  c #3A6A3D",
"}  c #301F43",
"|  c #371D4B",
" . c #381E4D",
".. c #372647",
"X. c #322F45",
"o. c #3B254D",
"O. c #353442",
"+. c #303A41",
"@. c #37344A",
"#. c #3E2553",
"$. c #3F3054",
"%. c #3F3E54",
"&. c #402F56",
"*. c #42255C",
"=. c #462B5D",
"-. c #413355",
";. c #44355C",
":. c #443D5B",
">. c #462263",
",. c #4B2567",
"<. c #462A63",
"1. c #482966",
"2. c #4A2368",
"3. c #4E296C",
"4. c #4D326B",
"5. c #4F2970",
"6. c #502672",
"7. c #522B72",
"8. c #572B7A",
"9. c #592C7D",
"0. c #543172",
"q. c #354946",
"w. c #394A47",
"e. c #36424B",
"r. c #3B4549",
"t. c #345643",
"y. c #3B5146",
"u. c #365F42",
"i. c #3A514E",
"p. c #3C5F48",
"a. c #356243",
"s. c #396245",
"d. c #346B42",
"f. c #3A6E41",
"g. c #3B674C",
"h. c #376848",
"j. c #396D4A",
"k. c #367246",
"l. c #3B7243",
"z. c #367248",
"x. c #3B744B",
"c. c #37794C",
"v. c #3D7B4C",
"b. c #3E7D51",
"n. c #404D52",
"m. c #417949",
"M. c #3E814E",
"N. c #3E8352",
"B. c #428553",
"V. c #418A56",
"C. c #448E5A",
"Z. c #44925D",
"A. c #48935F",
"S. c #479760",
"D. c #4B9761",
"F. c #4D9C65",
"G. c #509F67",
"H. c #529F68",
"J. c #52A169",
"K. c #58A46C",
"L. c #5D2C84",
"P. c #5F3084",
"I. c #632E8E",
"U. c #65308F",
"Y. c #662E93",
"T. c #663290",
"R. c #683492",
/* pixels */
"                                                                                                                                ",
"                                                                                                                                ",
"                                                                                                                                ",
"                                                                                                                                ",
"                                                                                                                                ",
"                                                                                                                                ",
"                                                                                                                                ",
"                                                                                                                                ",
"                                                                                                                                ",
"                                                                                                                                ",
"                                                                                                                                ",
"                                                                                                                                ",
"                                                                                                                                ",
"                                                                                                                                ",
"                                                                                                                                ",
"                                                                                                                        .     . ",
"                                                                                                                        .   . . ",
"                                                                                                                          . . X ",
"                                                                                      . .                           .   . X X O ",
"                                                                                          . X   .                   . . X O * % ",
"                                                                        .       .   . .   X X . .   .     .   .     X X O % : % ",
"                                                                      .       .   . . . . X O X X . .   . . X .   . O $ % 7 q & ",
"                                                                      .       X   X X X X & & O X . . X . X $   X O $ % = q e X ",
"                                                                          X     X X X X X * = * O O O X X % % . O % % : 9 a 8 X ",
"                                                                  .   .   .   X X X O & X * 9 = % O % O % : : . % % = 7 q t % O ",
"                                                                    o   . . . X X O & = O * 0 9 % % % : : : % O = = 7 q t q O % ",
"                                                                .   o   . X X X O & = = O * 0 9 : : : : : 8 : $ 7 7 8 e a = % * ",
"                                                            o   o . o   o X O O & * < < * = 0 0 : : : : : 0 : % 8 8 q a e % : = ",
"                                                        .     . o . .   @ @ @ * * < 5 ; y : 8 e q 7 : 8 8 8 : % q 0 e t < = 7 : ",
"                                                          o o     o @ . @ * * * < 2 y & A r 8 M e q 8 8 8 8 : : e e t r < w 8 7 ",
"                                                        o   o . + @ -   * , , < 2 y i , J M : M M e q q 8 0 : O e e p w w e 8 8 ",
"                                                  . o . o o   + # - > . 3 1 1 6 y V i < ! H : r M r r q 0 0 w % q M p 2 M a q e ",
"                                    .         . . . . . o o . @ - > 3 + 3 6 6 j V D j y ~ K p y F p e r q w r 2 : M r 6 Z M q e ",
"                                        .   . . . o o o + . @ # - > 3 # 3 g A A S E i C ( ~ ~ 1 Z p p e w w M M % M r i Z M a M ",
"                                  .       o X X . . . . . . X @ # # # o , S D E ~ ' i D ' ' ] y V K M t r w M J > M r C K N N N ",
"                                    . o .       . . o X + @ # ; 3 6 g g - R Q ) ' d.i D ] ] l.' i _ Z p r r M J 6 r 6 C L G F N ",
"                          .     . .       . . . . o X O @ * ; , 5 6 j S 4 g d.d.z.c.j ~ N.N.Z.Z.j [ K M p p M W V 2 w D ^ L L L ",
"                              .       . . . . X . o O O & * * < 5 i A R S 3 ) c.c.b.V c.S.D.F.S.A J ~ Z M C J [ A 2 w J ] ` L ^ ",
"                                      . . . X X X X O $ & = < 2 6 j A J ) 4 4 c.N.N.y B.G.F.F.b.x j ' K J J ~ { V d < D l.] ] { ",
"                                          . . X X O $ $ = = 2 y j Z J W Q g R B R Q V F.G.F.F.Y >.c k.' [ [ { M.m 3.9 M m.l.l.m.",
"                                      . . . X X O $ % % 9 9 y i A D J S V E c.x.x.x.B.H.F.F.C.X.L.n N.M.M.M.M./ 5.Y.2.z v.v.v.v.",
"                                          X X X & % * 7 9 w i 6 j j B B E f.B.D.D.F.H.H.G.F.j.<.I.n Z.Z.C.C.a.-.Y.Y.P.O.v.B.B.V.",
"                                      .   X X O & * = : < < y i S J J W ] l.Z.F.H.H.G.F.G.F.Y 5.Y.b V.Z.N.[ @.9.Y.Y.Y.<.[ N.C.C.",
"                                  .         X X & & & & < j z D K ~ _ ' ] l.Z.F.H.H.F.F.G.C.+.L.Y.*.U t.q.$.8.T.Y.Y.Y.9.T Z.Z.Z.",
"                                        X X X % % = 9 = < 0 r j Z K ~ ` { v.S.F.F.F.F.F.N.q.1.U.I.I.,.4.7.L.U.R.I.Y.Y.U.$.x.S.S.",
"                                      . X X $ = 9 7 q 0 0 0 0 w 2 y Z ` { C.D.F.G.F.S.j.e.1.L.I.I.T.U.U.U.T.U.U.Y.Y.Y.T.9.w.V.F.",
"                                          X X $ % 9 9 0 w e t p r y j i J m.D.F.A.j.i.$.6.Y.Y.U.T.T.U.U.U.T.R.T.Y.U.T.R.U.0.i.s.",
"                                            X X & % * = 9 0 e a F G C i A ~ d.a.Y @.1.L.P.P.L.8.I.U.I.U.I.R.T.R.T.I.U.R.R.U.8.=.",
"                                        .   . X X $ % = : 7 q e s F G G K ! K A k @.;.:.:.4.:.%.$.I.I.I.U.T.T.R.U.U.U.R.R.R.U.P.",
"                                          .   . X O % = 7 7 8 q a a C G L _ { ] ' ' u.s.s.j.c.c./ 3.U.I.T.R.R.R.U.U.U.T.R.R.T.U.",
"                                          .   . X O & = : 7 0 q a s N G K ^ ] m.v.N.N.V.N.Z.S.S.B.| U.T.T.R.R.T.U.T.U.R.R.T.T.T.",
"                                            . . X $ % : 9 q q e a s N G H K ` { x.m.N.C.N.Z.S.S.l...T.T.T.R.T.T.T.T.U.R.R.T.T.T.",
"                                              . X % = 8 q a a a s s F F G L ^ ] l.v.M.B.N.C.Z.N.P 3.R.R.U.R.R.R.U.T.U.R.R.R.R.R.",
"                                            . X $ * = 7 0 q u a s F F G H L ^ ] l.m.v.M.v.V.N.Y o.T.U.R.R.U.T.T.U.T.T.R.R.R.R.R.",
"                                          . X X X O $ & * = 9 0 u u p F K L ^ { l.l.v.v.d.j.w.o.I.U.T.U.U.U.U.U.U.U.T.R.R.R.R.R.",
"                                                X $ * 9 8 q e q 9 = 0 j C D K ~ ^ s.s.y.m #.8.U.T.T.T.T.R.U.U.T.U.U.T.R.R.R.R.U.",
"                                              X O % : 7 q e a a a s s u 5 y j 1 h ..#.5.L.Y.Y.U.T.T.T.T.T.T.T.T.U.U.T.R.R.R.R.R.",
"                                          . X X % = 7 8 q a a a s G H H L L s.I v 9.Y.I.I.I.I.T.T.U.T.T.T.I.I.U.R.R.T.R.R.R.R.R.",
"                                            O $ % 7 8 q q a a N G G G G H L ^ { E } 9.L.Y.I.I.U.U.T.T.U.T.I.Y.U.T.R.T.R.R.R.R.R.",
"                                        . X O % = 7 8 8 q e N N F G H G G H H ^ v.I } L.I.U.T.T.T.T.T.T.T.I.T.Y.R.T.R.R.R.R.R.R.",
"                                        . X O = = 7 8 8 a s N F F G G H G G H ] S.C.( } I.T.T.I.U.U.T.T.T.T.I.L.Y.Y.Y.R.R.R.R.R.",
"                                      X X O & = 7 7 8 a s s N N F G G G H H K m.F.G.F.l L.T.I.T.U.U.T.T.T.U.I.Y.U.T.T.Y.R.R.Y.R.",
"                                    . . X O = = 7 q e a s N N F F G G H G H ] D.J.J.G.t.8.I.T.Y.U.U.T.R.T.U.I.I.U.T.R.R.R.Y.R.R.",
"                                      X O & % : 8 q e a s N N F F G G H H L B.K.J.J.G.z.1.I.T.P.U.U.R.R.U.Y.I.I.T.T.Y.R.R.R.Y.Y."
};
