/* XPM */
static char *result[] = {
/* columns rows colors chars-per-pixel */
"64 64 67 1 ",
"  c #010101",
". c #060309",
"X c #09050D",
"o c #0B0B0B",
"O c #0D0612",
"+ c #0F0815",
"@ c #100716",
"# c #110817",
"$ c #13091B",
"% c #131313",
"& c #1B1B1B",
"* c #170B20",
"= c #1A0D25",
"- c #1E0F2A",
"; c #200E2E",
": c #201227",
"> c #251234",
", c #2A143C",
"< c #242424",
"1 c #2C2C2C",
"2 c #333333",
"3 c #3C3C3C",
"4 c #2F1742",
"5 c #2E1841",
"6 c #301744",
"7 c #321947",
"8 c #321748",
"9 c #351A4B",
"0 c #3C1D54",
"q c #3E1D59",
"w c #3C214C",
"e c #3E2056",
"r c #3F2058",
"t c #421E5F",
"y c #42215C",
"u c #462263",
"i c #482366",
"p c #4D266D",
"a c #533065",
"s c #512673",
"d c #542A75",
"f c #56297A",
"g c #5A2C7E",
"h c #444444",
"j c #4C4C4C",
"k c #545454",
"l c #5E5E5E",
"z c #606060",
"x c #6F6F6F",
"c c #717171",
"v c #5D2D84",
"b c #5F2D88",
"n c #632E8F",
"m c #603187",
"M c #65308F",
"N c #662D95",
"B c #662998",
"V c #663190",
"C c #683393",
"Z c #848484",
"A c #B4B4B4",
"S c #C1C1C1",
"D c gray82",
"F c gray90",
"G c gray93",
"H c #F2F2F2",
"J c #FDFDFD",
/* pixels */
"nnnnbNnMMnMMMnnMMnMnMnnnnbNnnnbnbbnnnnnnnnnnnnnbNNbNnbNbNNVNVVVB",
"nnnnnnnNVMMNVVMnnMnMnnnnnnnnnBBnnBnnnnnnVMnnnnnnNbNbnnnnVNVVVNVB",
"nnnnNnbMVVVVVVnMMnnMMnnnNbbNnbnnbnbnnnnnnnnnnnnnnNbNnnnnVVNNVNNB",
"nnnnbnNMnVnVNVnMMnMnnnnnbNbNnnnnBnBnVnnnnnnnnnnnnbnnnnnnNVVVVVVB",
"nnnnnnnNNMMNMMnMMMnMnnnnNbnnnnnnnnnMnMMnnMnnnnnnbNnnbNnnVVVNVCNB",
"nnnnbnnVMVMVMMMnnMMnnnnnnNnnnnnnnnnMVMnnMnnnnnnnbNnnnnnnVNVCNVVB",
"nnnnNbNMMMNVVVnMMnMMnnnnbnnnnnnnnnMMMMnpfVnnnnnnNnnnnnnnNVVNVCNB",
"NnnMNMMnnnbnnnMnnMNnnv>7NMVVNnnnnnMCMM0.$MMnnNMMnnnNnnnMCVVVVVVC",
"VMMVVVVnnnNbNbNnnMnMnu .yMCVnVMMnVVCVu. XfMVVVVMVMMNMMVMVVVVVCVC",
"VVMMVnVNNbbNnnnMMMMnM>  .iMVVMVVnnMVp.  .eMVnVNMNMMVMNVMVVNCVVCC",
"VMMVnVVbnNNbnnMnMnnnm+   $vVVVVMVMVgX   .>VVMMVVMMnVMVMMCVVVMCVC",
"VVVMVVVnnbbNnnnMnnnn0.   .,VVnVMnMC9     *NVMMNnMMVVVnNVNVVVVMCC",
"VVVVVVVNNNNbnnnnnMnm$     XdCMMMCMM:.    XfNMMVVMNMMMMMMVVVVCVVC",
"VMVVVVMbbbnMnnMnnnM0.      6MCMCnMMO      #vVMVMVVMMNVMVVVVVVVCC",
"MMMMMMMVVVVVMMNnnnf@.      $gCCCCCg.       =nnMnMNVVnVMNVVVNVVMC",
"MMMMVMMVVVVVMMnnnn4        .ymCMVVy.        0nnMnVVnVVMVVNVNVVVC",
"MMMMMMMVVMVMVVnnnvO         7CCMVC-         XfnMMMMMVVnnCVNMVMVV",
"nVVnVMMVMVVVVVnnn7          >VCCCpX          >MnnMVVnVVVNVVVVNNC",
"MVnVMMMVVMMVMVnMb+          #,>>>#           ONMnVNMVVnVnnVVNVVV",
"VMVVMMMVMVMVVVnnt            ..              .MnnMMMnVVVMCNMVVNC",
"MMMMMVMVVVVVVVVV,        .o%%&%&&&%%%o.       MMMVVVVMCnVbnNVNnV",
"nnnnNbnMnVnnMMVV$     .%<123hhhh333211<<%.    MMMnnnnnnnNBNnNNNB",
"nnnnnnnVVVMMMMVmX   %&13hhlllllllllllkkh31%   vMMnnnnnnnNNBNnNNN",
"MnnnnnnnbVMMMVM5   &2jkllllllllllllllllllk2<..,vMnnnnnnVBNnNBNNB",
"nnMMVVMMMMnMMMi.  &hlllllllllllllllllllllll2<o ,sVnnNNMMnBBnNnBB",
"nnMMmCMMMMMnMv.  &jlllllllllllllllllllzlllllh<o OpVnMbMMNnnBBnNB",
"nnbnmmCmVnMm7.  %klllllllllllllllllllllllllllh<o .vnMbMMBBnNBBnB",
"nnnnCCmCMnn7.  %klllllllllll   llj    llllllllh&  -nNnVmnNBnnnBB",
"VVmCCCmCVVdo  .jllllllllll  <x2 lo3Z2  llllllllh%  MCCCCNBNNBNNB",
"CVCCCmCCCV:   3lllllllllll oHJG loJJG  lllllllll1  aCmmCNNNBNBNB",
"CmCCCCCCCdo  &kllllllllll  2JJH l&JJJ   llllllllj%  CCVVBNNNNBBB",
"CCCCCCmCC>   klllllllllll  %ADh z%AFx    llllllzl2. dCVVBNNBNNNB",
"mCmCCVCCmO  <lllllllllll        z        llllllllj&  vMCVNNBNBNB",
"CCCCCVCCi.  hlkllllllll         l        lllllllll1o 7VVNNNBNNNB",
"CCCCmCMVy   jlllzllllll        lll      olllllllllh%  mVNNNNNNBB",
"CmmVVVnn0  %lllllllllll        lll       lllllllllk3. wVNNNNNNNN",
"CVmMnMnn4  hlllllllllll       lllll      lllllllllll&  nNNNBNNNN",
"mCMMMnMn>  klllllllllll      lllllll    .lllzllllllzj  9NNNCNNNN",
"MMMMMMnn-  klllllzllllll    lllllzlll   lllllllllllll% XNCCBCBNC",
"nMMMnMnN; .jlllllllzllllllllzllllllllllllllllllllllllh. NCBCBCNN",
"MnMnMMnn> .hllzllllzllllllllllllllllllllllzllllllllllk% fBNNNCNN",
"MMnMMnnn,  1lllllllzllllllllllllllllllllllllllzlllllll& iNNNNNNN",
"MVVVVVVV9  &klllllllzllllllllzllllllllll lllllllllllll< pNNCCNNN",
"MVMVMVVVp  %kzllzzllzzlllll llllll lllll llllllllllllk<.nNNNNNNC",
"VMVVVVMVn  .jllllzzlllzlllz llllzl lllll llllzlzlllllk< CCBCNNCC",
"VVVMVVVVC.  3llllllllllllll llllll llll lllllllllllllk& BBCCCNCC",
"VnVVMVVMV$  oklllzllllllllll  ll    ll  lllllllllllllh#$CBCBBCBC",
"VVVVVVVVVs   1llllzzlllllllll    ll    lllllllllllllj1o>CCCBCCBC",
"VVVMVVVVVVr   hllllzlllllzlllllllllllllllllllllllllj2&.tnVNCNCVN",
"VVVVCVVVCCC6   3lllllzllllllllllllllllllllllllllllj21oXmMNnCVNCM",
"VCVCVCVCCCCm#   <jlllllllllllllllllllllllllllllll31<o 6VMCnnMnnn",
"VMCVCVVCCCCCsX   o&hllllllllllllllllllllzllllllh1<&. $mVMMMVMCMV",
"CVVCVCVCCCCCVq.    .%1hjkllllllllllklkkjkkkjh31&%.  +dVVnCVnVMMM",
"VVCVCVCVCCCCCV,.        ..oo<hjjjh311<<<<&%ooo     >vMMCVnVVNMVM",
"VVVCmCVCVCCCCCMe.             o%oo...           ,>fCMCMMVnnVnVnV",
"VCVVCVCVCVCCCCCCdee,#XOoo                  #-tmnCVMVMMMCVVVVVVnV",
"CCCCCCCCCCCCCCCCCCCmCCCCCCmCVVVVMVVbNnnnnnnnnnnBnnnnbnBbnnnnnnnn",
"BCCNCCNCCCCCCCCCCCCCCCCCCCCCVMVVVVVMnnnnbBnbnnnnnnnbnnnnnnnnnnnn",
"CCCCCCCCCCCCCCCCCCCCCmCVCmCCVMVMMVVMnnnnnnnnBnnnnbnBnnnnnnnnnnnn",
"CCCNCCCCCCCCCCCCCCCCCCCxCCVVMVVVVVMMnnnnnnnnbnnnnBnnnnBbnnnnnnnn",
"CCCCNCCCCCCCCCCCCCCCCCCCCCCCVVVVVVnnnnnnnnnbnnnnnbBnbBnnnnnnnnnn",
"CCCBCCCCCCCCCCCCCCxVCmCCmCCCVMMVVnNnnnnnnnnBbnnnnnnnnnnnnBbnnnnn",
"CCCCCCCCCCCCCCCCCCCCCCCCCCmCVMVnnVnnnnnbbnnbBnnnBnbnnnnnbnbBnBnn",
"CBCCCCCCCCCCCCCmCmCCCmmmCmCmnnnnnnnnnnbBnBnnnnnnbnnnnnnnnnnnnbnn"
};
