/* XPM */
static char *result[] = {
/* columns rows colors chars-per-pixel */
"64 64 67 1 ",
"  c #010101",
". c #060309",
"X c #09050D",
"o c #0B0B0B",
"O c #0D0612",
"+ c #100716",
"@ c #100817",
"# c #13091B",
"$ c #131313",
"% c #1B1B1B",
"& c #170B21",
"* c #1A0C24",
"= c #1E0E2A",
"- c #200F2E",
"; c #201327",
": c #231F26",
"> c #20102D",
", c #241133",
"< c #271238",
"1 c #2A143C",
"2 c #242424",
"3 c #29242C",
"4 c #2C2C2C",
"5 c #342E38",
"6 c #343334",
"7 c #3C3B3C",
"8 c #2E1642",
"9 c #2F1843",
"0 c #311646",
"q c #321847",
"w c #321748",
"e c #34194B",
"r c #3B1C54",
"t c #3F1C5A",
"y c #3C234B",
"u c #3F3A43",
"i c #421F5E",
"p c #41205B",
"a c #431E60",
"s c #472066",
"d c #4B246B",
"f c #512D64",
"g c #50286D",
"h c #4F2571",
"j c #522676",
"k c #532875",
"l c #542779",
"z c #57297C",
"x c #592A7E",
"c c #434344",
"v c #4C4C4C",
"b c #4D4752",
"n c #524D57",
"m c #545455",
"M c #5E5E5E",
"N c #5C5661",
"B c #5F5E60",
"V c #605C62",
"C c #606060",
"Z c #5C2B84",
"A c #5F2E88",
"S c #632D8F",
"D c #65308F",
"F c #662E94",
"G c #662998",
"H c #663190",
"J c #683492",
/* pixels */
"SSSSFFAFSDSHHDSDDSDSDZ,0SSSSSSSZSSSSSSr.&SSSSSSSSSSSASSSGFFHHHFG",
"SSSSASFSHDHHFDDSDSSDSa. rSSSSSSGGSSSSi. .lSSSSFASSSSFFSSSFHHFHHG",
"SSSSSSSHSFDDHHDASDDSS,  XaSSSSSSZGSSd.  .rSSSSSSSSSSSASSHHFFHFHG",
"SSSSSSSFHHDDSDFHDDSDA+   +ZSSSSSGZSlX    <SSSSSSSSSSSSSSFHHHHHFG",
"SSSSSSAHDHDFHHSDDSDDr    .<SSSSSSSSe     *SSSSSSSSSSSSSSJFHHFFHG",
"AFSSSSSDHDDDHSDSDSFZ&     XlSSSSSSS=     XlSSSSSSSSSSSSSHHFFHHHG",
"FSSSSSSFSHFDHHSDSDSr.      8SSSSSSSO      #zSSSSSSSSSASSFHFHFHFG",
"SFSDSHDSFASSFASDDSz@       @ZSFSSFZ.       &SFHDSSSFSFGSHHHHHHHJ",
"HDDHDDSSSSSSSSSSDS1        .pHJDSSr.        rHHDHSSHHHHHHFHHFHHJ",
"HHHHDHHSSSSSSSSSSxO         qDDDSS=         XzHFHHHHSSHSHJHHJHJJ",
"HHDHHDDSSSSSFASSSq          ,DDDHd.          <DDSHSHHHHHHHHHHHJJ",
"HHDJDDHSSSSSSFAFSO          @1,,<@           ODFFHHHSHSHHHHFHHJJ",
"HHHHDHSSSSSSSSSFs            ...     .        HHSSHHSHHHHHHHHHHJ",
"HHHHHHHSSSSSSSHA1        .o$$%%$%%$$$o.       SHHHHSHHSHHHFHHHJJ",
"AHAHDHHHSHHSHHFA#     o$2467cccc77664442$o    FDSSHHSHHFHFHHHHHF",
"HHHHDDSSHHHHHHFA.   o246ccmMMMMMMMMMMmmc64$   ZDHHHSHSFHHHFHHHFJ",
"HHDDDDDHHHDDDDD9   %6vmMMMMMMMCMMMMMMCMMMm6%o 1ASHHHHFDDHFHFSSHH",
"HADDHDDHSHDHDHd   %cMMMMMMCMCMMCMMCCMMCMMMM62o 1hHFHHSDDHHDFHHHH",
"HDDSDDDHHHHHDA.  %vMMMMMMMMMMCMMMMMMMCMMCMMMc2o OgSDHHDFFHFHHHHF",
"HSDDDDDDHHHAe.  $mMMMMM      MMCMMM     MMMMMc2.  AHDDDHDHDHFHHF",
"HSHHDDDHDDDq   $mMMMMM  MCMCM MMCM  CMC  MMMMMc%  ;DDDHHHSHSHFHF",
"SSSSSSSDDDh.  ovMMMMMM MMCCMCM CM MMMMMC  MMMMMc$  SSDSSGFFGFFFG",
"SSSSHASDDD=   7MMMMMM  MCMCMMC MM CMMCMMM MMMMMm4  fSSSDSGGSFFGG",
"SSSSSHSDDj.  %mMMMMMCMMMMCMMCMMCMCMCCMCMMMMMMMMMv$  SDSSSFSFGFFG",
"SHSSHAHAH,.  vMMMMMMMMMMMCMCMMCMCMCMCMMMMMMMMMMMM6. jSDSGSGSGGSG",
"SSSSHAHHAo  2MMMMMMMMMMMCMMMCMMCCMMCMMCMMMMMMMMMMv%  ZSDFGFSFFGG",
"SSSSAJJJd.  cMMMMMMMMMMMMCCMMCMMMCMMMMMMMMMMMMMMMM4o qDDFFGGFSSG",
"SSHAJAAAr  .mMmMMMMMMMMMMMMCMMMMCMCMMMMMMMMMMMMMMMc$  ADFFSFGGFG",
"HHJAJJJJr  $MMMMmMMMMMMMMCMCMMMMMMMMMMCMMMMMMMMMMMm7. yHGFGFGGGG",
"JJJJJJJJ9  cMMMMMMMMMMMMCMCMMMMMMMMMMMMMMMMMMMMMMMMm%  DFGFGGSGG",
"JHHJJJAJ@  vMmMMMMMMMMMMMMMMMMMMMMMMMMMMMMMMMMMMMMMMv .eGFFFFHHG",
"JHJJJJJA  omMMMMMMMMMMMMMMMMMMMMMMMMMMM MMMMMMMMMMMMmo &FGGFFGGG",
"DDJJJJJD.  vMMMMMMMMMMMMMM MMMMMM MMMMM MMMMMMMMMMMM7  OFFGHGGFG",
"JJJDJJJD> .7MMMMMMMMMMMMMM MMMMMM MMMMM MMMMMMMMMMMc$  #FGFGGFFG",
"JJDJDJJJkX $7MMMMMMMMMMMMM MMMMMM MMMM MMMMMMMMMMCm%   eGGGGFFGG",
"JxDDDDSSSd. o7mMMMMMMMMMMMM  MM    MM  MMMMMMMMMMm2   OSFJHFFFFF",
"JDDDSDSSSSd. .6VMMMMMCMMMMMM    MM    MMMMMMMMCMv%   .zFGJGJFFFG",
"DDDDSSDSSSSi.  2MMMMMMMMMMMMMMMVBBMBMBBMMVMMMVn6o    dFFJGJGFFGJ",
"DDADSSSSSSSSa.  $6vMMMCMMCMMMCCCMMMMMBBBVVVmb3o    &ZFHHGJGJGJJG",
"DDDDSSSSSSSSSz.   o27mMCMMVMCCCCBmmbcu532#+o     .0SFFFFJGJGJGGJ",
"ADDSDDSSSSSSSSh#    .$267vvCCmv722o.            -ZFFGJFJGJJGJGJG",
"DDSDSDSSSSSSSSHHze@.    ..$oo$.             X-iSHJFFJGJJJGGJGJGF",
"DHHHHHHHHHHHFDHJHHJSde=@X       X==->-111rhSFDDFHFFJFGJGGGJGJJJJ",
"DDHDDDHHHHHHHHHHHHJHHDFHDDShgdddxHHSDSDDSSFFDFFDHGGJGJGJJFGJGGGJ",
"HHHHHDJDHHJHHHHFFJHFHFSDFDSFHHJJHHDSSDDSDDFFFFFFHHGFJGJGGJGJJGJJ",
"HHDDDDDHDDDDHHHJHJJJJHHSDSDDHJFNHHJSSDDSDSHHFSFFFGFFGJGJJGJGGJJG",
"HHDDDJDJJDHHHHJJHJJJHHFDFDFHHHJJHJDSDSDDSSFHFFFFFFFFGGGJGJGJGJGJ",
"HHJDDDDDHHHHHHHFJJJHHSDSDDSHHHJJJDJSSDDSDDFSSHSFFFFFJGJGJGJGJJGJ",
"HHHHHHHHHHFHHHJJJJJJJJJJJJJJJJJJJDDDDDDDDSDSFDSSFFFFHFFFFFFFFFFF",
"HHHHHHHJJJJJJFJHJJJJJJJJJJJJJJJJJJJJDJJJHHJJJJJJJJHJDDHHHHHSHHHJ",
"JHHHHJHJFFJJJJJJJJJJJJJJJJJJJJJJJJJJJJDJJJJJJDJJJHHHDJDDHFDHDFHD",
"HHHHHJHJJJJFHJJJJJJJJVJJJJJJJJJJJJJJJJJJJJSJJJJJJHHHDDJJHHDDDHHD",
"HJHHHJJHJFFJHJJJJJJJJJJJJJVJJJJJJJJJJJJJJJJJHJJJJHJSJDSDHDDDDFDD",
"HHHHHHHHJJJJHJJJJJJJJVJJJJJJJJJJJJJJJJJJJJJJJJHJHHDJJDJDFHDFDHDD",
"JHHHJJHJJGJJJJJJJJJJJJJJJJJJJJJJJJJJJJJJJJJJHHHGJHDHSJJJSDDHFHDD",
"HHHJHHJJJJJHHJJJJJJJJJJJJJJJJJJJJJJJJJJJJJJDHHHSJDHHJSSDDDDDDDHD",
"JGJJJJJJJJJJJJJJJJJJJJJAJJHHHDDDJNDAFSAFSSGSSSSSSSSASSSSSSSSSSSS",
"JJJJGJGJJJJJJJJJJJJJJJJJJJHHHDHDHGFSSSAFSSASSSSSAGSSSSSSSSSSSSSS",
"GJJJJJJJJJGJJJJJVJJJJJJJJJJJDHDHHHHSSSFAASGSSSSSSSSSSSSSSSSSSSSS",
"JJJJGJGJJJJJJJJJJJJJJJJJJAJJHHHHHHHFSFAFSSSSSSGZSSSSSGZGSSSSSSSS",
"JJJJGJJJJJJGJJJJJJJJJJAJJJJJHSHSHAFSSSSSSSSSGSSASZSSSASSSSSSSSSS",
"GJGJJJJJJJJJJJJJJJJJJJJJJJAJHSHHHFSSSSSSSSSSSSSSSGSSSSSSSSSSSSSS",
"JGJJJGGJJJJJJJJJJJJJJJJJJJJJHHHFHHSSSSSSSSSSASSSSSSSGSSSSGSSGSSS",
"JJJGJJJJJGJJGJJJAJJJJADDAJAASFASSSSSSSSSSZGSSSSGSSSSSSSSSZASSSSS"
};
