/* XPM */
static char *result[] = {
/* columns rows colors chars-per-pixel */
"64 64 70 1 ",
"  c #010101",
". c #060309",
"X c #09050C",
"o c #0B0B0B",
"O c #0D0612",
"+ c #100716",
"@ c #100817",
"# c #14091C",
"$ c #131313",
"% c #171718",
"& c #1B1B1B",
"* c #160A20",
"= c #1A0C25",
"- c #1D0E29",
"; c #210F2F",
": c #201327",
"> c #21112F",
", c #241134",
"< c #271238",
"1 c #2A143C",
"2 c #242424",
"3 c #2D2D2D",
"4 c #2E2B31",
"5 c #333333",
"6 c #3C3C3C",
"7 c #2E1543",
"8 c #301645",
"9 c #311846",
"0 c #331749",
"q c #34194A",
"w c #371950",
"e c #3B1C54",
"r c #3C234B",
"t c #421F5E",
"y c #431E60",
"u c #471F68",
"i c #462164",
"p c #482267",
"a c #4B236B",
"s c #512D64",
"d c #50286D",
"f c #4F2671",
"g c #512575",
"h c #532875",
"j c #542779",
"k c #57297D",
"l c #592B7E",
"z c #444444",
"x c #4C4C4C",
"c c #545454",
"v c #5E5E5E",
"b c #606060",
"n c #6F6F6F",
"m c #717171",
"M c #5C2B84",
"N c #5F2E88",
"B c #632D8F",
"V c #65308F",
"C c #662D95",
"Z c #662998",
"A c #663190",
"S c #683492",
"D c #848484",
"F c #B4B4B4",
"G c #C1C1C1",
"H c gray82",
"J c gray90",
"K c gray93",
"L c #F2F2F2",
"P c #FDFDFD",
/* pixels */
"BBBBBBBBVVVVVANCVBVVVM,8BCBBBBBZMBBBBBe.*BBBBBCBBNBBBBBBCCAACACZ",
"BBBBCNBCVACAVABVBVVBBy. eBBBBBBBBBBBBtX .jBBBBNBBCBBBBBBABCAAAAZ",
"CBBBBBBVAVVAAAVCBVVBB,  XyBBBBBBZMZBp.  .eBBBBBBBBBBBBBBCCAACAAZ",
"BBBBBBBVCVVACAANVBVVNO   +MBBBBBMZBjX    <BBBBBBBBBBBBBBAAACAACZ",
"BBBBBBBCVVCAVANCBVVBe    .<BBBBBBBCq     =CBBBBBBBBBBNBBCACAAACZ",
"BBBBBBBVAVVAVVVVVVBN*     XjBBBBBBB-     XjBBBBBBBBCBCBBACSACAAZ",
"NBBBBBBVACBVACCNVBCe.      7BBBBBBBO      @kBBBBBNBNBBBBACACACAZ",
"CBAACBVBCNCNCNAABVk@       @MBBCBBM.       *BCAVBCZCBCBBAAAAASAS",
"AVAAAAABNCNCNCCBVB1        .tVAVBVe         eAAACAANNCAAAAAAAASS",
"AAAAABABCNCNCNBBBlO         9VCACB;         XkCVVAACAAVVSACSAAAS",
"AAAABAABNBBCBBBBB9          ,VBVAaX          <ABVAAAAAVVAAAAAASS",
"AVABAAABCBNCBBVBBO          @1<<<@           OAAAVVVCAVCACAAASAS",
"AAVAAAACBBBBBBBBy                             VAAAAAVVVAAAAAASCS",
"AVVVAAVNBBBBBBBV1        .$$%%&&&&%$@o.       VVCNCACAVAAAAVAAAS",
"AVAVVVBAAAAAAABB#     o$2336zzzz66553322$.    CVNCVVBAVCAAACAAAS",
"BVAVVVVAVAVAAABN.   o235zzcvvvvvvvvvbvcz53%   NBAAVAAAVAACACACCS",
"VVVANAABAAAAAAA9   &5xcvvvv   vvx    vvvvc52. <VCAAVVAAVVAACVCNA",
"VAVVAAAAAAAAAAp.  &zvvvvv  2n5 vo6D5  vvvvv52o 1fVCAVVCVCAAVAAAS",
"VVAVAANSBAAAVM   &xvvvvvv $LPK voPPL  vvvvvvz2o OdVVCVAAVACCAAAS",
"VVVVNAAAAAAN9.  $cvvvvvv  3PPK v&PPL $vvvvvvvz2   NVAAVVAAAACAAZ",
"AANAAAAAAAA9   $cvvvvvvv  $FHz v%GJm $vbbvvvvvz&  :BVVVVABBBAAAA",
"BBABCNBAVVf.  .xvvvvvvvvxo     v    ocvvvvvvvvvz$  BBBBBCCCZZCZZ",
"BBBBBBBBAV:   6vvvvvbvvvbv& o$ v o355vvbvvvvvvvv3  sBBBCCCCBCZCZ",
"BBBBBBBAAj   &cvvvvvvvvvvbvcvvvvvvvvvvbvbvvvvvvvx%  VBVBCZCZBCCZ",
"BBBBVVVAN>.  cvvvvvvvvvvvbvvvbvbvbbvbvvvvvvvvvvvv5o hBBBBZZBZBZZ",
"BBBASNNANo  2cvvvvvvvvvvvvvbbvbvvvvbvvbvvvvvvvvvvx&  MVBBCCBBZCZ",
"BVBBNSSNa.  zvvvvvvvvvvvvbbvvbvbbvbvvvvvvvvvvvvvvc3. 8VVCCZZZBBZ",
"BBBBSNNSe  .xvvvvvvvvvvvvvvbbvvvvbvbvvvvvvvvvvvvvvz$  NVZBBCBCZZ",
"AANSSSSSe  $vvvvvvvvvvvvbvvvvvvvvbvvvvbvvvvvvvvvvvc6  rVCZCZZCCZ",
"SSSSSSNS9  zvvvvvvvvvvvvvbbvvvvvvvvvbvvvvvvvvvvvvvvv&  VCCCCCZZZ",
"SASSSNSS<  cvvvvvvvvvvvvvvbvvvvvvvvvvvvvvvvvvvvvvvvvx .qZCZCCCCZ",
"AASSSSSS> occvvvvvvvvvvvvvvvvvvvvvvvvvv vvvvvvvvvvvvv% OZCCCZZCZ",
"VSSSAASS> .xvvvvvvvvvvvvvv vvvvvv vvvvv vvvvvvvvvvvvvz  VAZCCZCZ",
"SSVSSSSA>  6vvvvvvvvvvvvvv vvvvvv vvvvv vvvvvvvvvvvvbco fZCZZCZZ",
"SSSASSAMX  3cvvvvvvvvvvvvv vvvvvv vvvv vvvvvvvvvvvvvvv& aZCCZZAZ",
"NVNVVVAw   &vvvvvvvvvvvvvvv  vv    vv  vvvvvvvvvvvvvbv2 fCCCSSAZ",
"VVVVVVB7   $vvvvbbvbbbvvvvvv    vv    vvvvvvvvvvvvvvvc2.BSZAZZSZ",
"VVVVBVV1   .cvvvvvbvvbvbvvvvvvvvvvvvvvvvvvvvvvvvvvvvvc2.ZZSZSZZS",
"VVNVVCA1    cbvbvbvvbvbvvbvvbvbvvvbvvvvvvbvvvvvvvvvvvc& AZZSSZSZ",
"VVVVVBV1   5vbvvbvbvvbvvbvbvvbvbvvvvvvvvvvvvvvvvcbbvvz$ ZSSZZSZS",
"NVVNABA7  ovvvvbvbvvvbvbvbvbvbbvvvvvvvvbvbvbbbvvvbvvv3XXSZASZZSZ",
"VVVVABBaX Xvvvbvbvvvvvbvbbbvbvvvvvvvvvbvbvbvbbbvvvbvc$ @ZSZZZSZS",
"AAVAAAAA#  cvvvbvbvvvvcx66666666o$23556zxxcvbbvvbvvvx. =SZSSSSSS",
"AAAAAAAAi  %vvbvvvvvx&                      :6xccvvvv& 0ZSZSZZZS",
"VAAVAAAAV   &xvx665&                             .4z5 .NSCCCSZSS",
"VVVAAAAAV9              +1pMSVVVVBlhpe1>#X         .  -CCCCSZSCC",
"AVAAAVVAAA-           *tBVVVASVSVAAVBBVVBNf8@         eCCCSZSCCC",
"AVVAAAAAAVV=       *1aVCVVVAVVSVVVAVBVBVCVCBBjw#    .<AZSCZSZCCS",
"AAAAAAASAASM@.  o2ASSVSSVNSSVVAVSVVVVVVVVVVVACVVNt;*lCCCCCCCCCCS",
"AAAAASACSASCSaqelSSSSSSSSSSSSSSSSSSSSSSSASSAAAASAAAAVVVVVSVVSVBS",
"AAAAAASSSSSSSSSSSSSSSSSSSSSSSSnSSSVSSSSSSSSSSSVSSAAASVSVVSBVVVSB",
"SSAAAACSSSCSSSSSSSSSSSSSSSSSSSCSSSSSSSSSSSASSASAAAVCVVVVSVCVVCVV",
"AAASAASSSASSSASSSSSSSSSSSnSSSSSSSSSSSSSSSSASASSSSVAAAVVSVVACVVVV",
"SAASAAASSSZSSSSSSSSSSSSSSASSSSSSSSSSSSSSSSASSSASSAAVAAVSVVAVCVSV",
"AAAAAAASSSSSSSSSSSSSbSSSSSSSSSSSSSSSSSSSSSSSASCBSAAASSVVCAVVVVVV",
"ASSAAAASZSASSSSSSSSSSSSSSSSSSSSSSSSSSSSSSSSAAAABAAAAVVVSVAVCVVCV",
"SSSSSSSSSSSSSSSSSnSSSSSSSSSABAAANSVVNNVABBZBBBBBMZBBBBBBBBBBBBBB",
"SSZSSSZSSSSSSCSSSSSSSSVSVSSAAAAANSSNVVCNBBNBBBZMZBBBBBNBBBBBBBBB",
"SSSZSZSSSCSSSSSSSSSSSSSVSSSAAAAASVVVCNCNBBBBBBBZBBBBBBBBBBBBBBBB",
"SZSSSSZSSSSCSSSSSSSlSSSSSNSAAAAASSVVNCNCBBBBBBBBBBBBBBZNBBBBBBBB",
"SSSSSSZSSSSCSSSSSSSSSNSSSSSSVAANVABCCCNCZBBBBBBBBNZBBBBBBBBBBBBB",
"ZSZSSSSSSSSSSSSSSSSSSSSSSSSNAAAAAABNCNCNMZBNZBBBBBBBZMBBBBBBBBBB",
"SSSSCSSSSCSCSSSSSSSSSSSSSSSSVAVCAACCCNNCBBBBNBBBBBBBBZBBBBBBBBBB",
"ZSZSSSZCSCSSSSSSSSSSSNNSNNSNBCNBCNBBNCNCBBBBBBBBBBNBBBBBBBBBBBBB"
};
