/* XPM */
static char *result[] = {
/* columns rows colors chars-per-pixel */
"64 64 74 1 ",
"  c #010101",
". c #060308",
"X c #09050C",
"o c #0B0B0B",
"O c #0D0612",
"+ c #100716",
"@ c #110917",
"# c #140A1B",
"$ c #131313",
"% c #1B1B1B",
"& c #190D24",
"* c #1E0E2B",
"= c #1F102A",
"- c #200E2E",
"; c #201227",
": c #20102E",
"> c #251235",
", c #2B153C",
"< c #242424",
"1 c #2D2D2D",
"2 c #323232",
"3 c #3A3A3A",
"4 c #2F1642",
"5 c #2E1841",
"6 c #311745",
"7 c #331A44",
"8 c #351A4B",
"9 c #381B4E",
"0 c #3A1C53",
"q c #3E1D59",
"w c #3C214C",
"e c #3E2056",
"r c #3F2058",
"t c #401E5C",
"y c #42215D",
"u c #452064",
"i c #4C256C",
"p c #533065",
"a c #522674",
"s c #542A76",
"d c #582D75",
"f c #562A7A",
"g c #592A7E",
"h c #5F317E",
"j c #444444",
"k c #4C4C4C",
"l c #545454",
"z c #5E5E5E",
"x c #636363",
"c c #6C6C6C",
"v c #737373",
"b c #7E7E7E",
"n c #5D2D84",
"m c #602F87",
"M c #632E8F",
"N c #613384",
"B c #65308F",
"V c #662D95",
"C c #662998",
"Z c #663190",
"A c #683393",
"S c #848484",
"D c #9C9C9C",
"F c gray65",
"G c gray68",
"H c #B5B5B5",
"J c #BDBDBD",
"K c gray76",
"L c gray82",
"P c #DDDDDD",
"I c #E3E3E3",
"U c #ECECEC",
"Y c #F2F2F2",
"T c #FDFDFD",
/* pixels */
"CVZZVZZAVMMMMMMMnVVMnVBMBBMBMMMMMMMMMMMMMMMMMMBMBBBBBBBZVMMMMVnV",
"CZZVZZVZMMMMnCMMVVnVnVMMBMBMMMMMnCnCCmCMMMMMBMMBBVBBBVZBZnMMnVnV",
"CVZZZVZVMMMMCnMMVnnVVVVMBMBMMMMMCCMMMMnMMMMBMBBMBMZVZZBBZMMMVnVV",
"CAZVZZVAMMMMMMMMVnVVVnMMMBMBMMMMMnMMMMMMMMMMBMMBMBBBMZZBVMMMVMVn",
"CZZAVVVZMMMMMMMMVVnnMMBBBBBBBMMMMMMMMMMMMMMBMBBMBMBBBZVBMVMMnnVV",
"CVZVZZZZMMMMMMMMnMVVMZBBBMBBBMMMMMMMCnMMMMMMBMBBBBBVBVZMZVnMVVVn",
"CZZZZVZVMMMMMMnCMMVnMMZNMBBBMMMMMCMMMMMMMMMMMBBMMBBZBBBZBMMMMMnV",
"ABAZZZZZMMVZMMMVZZBVZZAABABZABBBMMZMMVMMBABBMBMBBMMMMMMMnZBBBBVV",
"AZVAZZZZBBBZBBBBZVBBZMZAAZABABBBMMZZZZZZZZZZMBMMMMMMMMMMVZZZZBZB",
"AZZZAZZZZBBBZVZBZMBBZZZBd&  BBABMMZMBBZZZZZZBBBBMMMMMMMMVZZBBZBZ",
"AAZZVZVZVBBBBBZVZZBVVBBy   oZBBAZZZMBAZAAZZNaVM  MMMMMMMnVBZZZBZ",
"AAZZZZAZBBZVZBBBBBBZBn,    hZABAMMZZABAZmANt     MMMMMMMVZBZZBZZ",
"AZZZZZZZZZZBVBBZBBBZs&     ZNAZBZZZBZZZZAh*     VMMMMMMMBZZMBZBZ",
"AZZZZZZZVMZBBBVZVZBg#     AZAZBBZMZZZZZAh;     MVMVnMBMMMZZZZZZZ",
"AZABBZBVBBBBZBBBBBm=      ZZZAZZABZZZZZm-      MMBZZZZZZMBBBBBBB",
"AZBAVZZZBBVZBBBMBZ6      AZAZZAAAAZZZZZ9       MMMZZZZZMZBBBBBBB",
"AVVMBZZMZMZZZMMMZtX      BABAZABAABAZZf       dMMMZZZBZBBZZZMBBB",
"AZZZZZZZZMZMZZZZt.       >BBZAAAZABAZB        MMBMZBBBBZZBMZBZBB",
"AVZBZZMZZZMZMVZM6        ,BBNw>>>>,ym        MMBVVZZZZZZBZBBBBMB",
"VZZVMMVZMZZZZZZM          i#.    .. X        MMMBnZZZMZZZBBZBBBZ",
"VMMMZMZMZMZZBBBB         .o$$$%%%%$%$o.       BBMMBZZZZZZZBBBBBB",
"CVVCCVVVZMMMMMMh      .$%<1122323221111<$.     BBBBBBBBBMMMMBBMM",
"CVMVMCVVZMMMMMB      $<23jkklzzzzlkj211111<o. OyBABBBBBBBMMMMMBM",
"CMCVVVMVMMZBMMB.   .<2jlzzzzzzzzzzzzzzlk2211%  o9BBBBBBBBMMMMMMM",
"CVVVMCMMMMMMMMm   o<2kzxzzzzzzzzzzzzzzzzzk311%   iBZBBBBBMMmMMMM",
"CVCVVCCVMVMMBB7  o<jzzzzzzzzzzzzzzzzzzzzzzzj11$   nZBBBBBMMMMMMM",
"VMCMVMMVMMMMBn  .<jzzzzzzzzzzzzzzzzzzzzzzzzzk1<.  .8NBBBBMMMMMMM",
"CCMCCMVVMMMMB=  %jzzzzzzzzzzzzzxzzzzzzzzzzzzzj2%   .5BBBBMBMMMMM",
"CVVVCVVCZZAANo $jzzzzzzzzzzzzzzzzzzzzzzzzzzzzz31$   osZAANAAZAZZ",
"CVCVCVVCZZNAp  1zzz  . kzz   zzzzzzzzzzzzzzzzzl1<.   =ZZAAAAZAAA",
"CVVVVVVVAZZA  $kzz  1S3oz 2v<  zzzzzzzzxzzzzzzzj1%   ohAAAANNAAN",
"CCCVVCCVAZZs o2zzz  YTT.z UTYo zzzzzzzzzzzzzzzzl21.  o<NAAAAAAAA",
"CVVVVCCVZZN  %kzz   TTT%x UTT2  zzzzzzzzzzzzzzzzj1%   OmABAAAAAN",
"CVCCVVVVZA7 o1zz    vIK$z jLH$  zzzzzzzzzzzzzzzzk11$  .iAZNAAAAA",
"CCCVCVVCAN  $jzz        z        zzzzzzzzxzzzzzzz22<.  qZZAZANAA",
"CAVAVVVVZw  3lzz        z         zxzzzzzzzzzzzzz311o  0BBBBZZAN",
"ACAVVVVAZ  %zzzzo      zzz        zzzzzzzzzzzzzzzk11$  4nMMBZBBB",
"CAVVZVVV8  kzzzz       zzz        zzzzxzzzzzzzzzzk11%  >VBBMZBBB",
"CVACVVVVO %zzzzz      zzzzz       zzzzzzzzzzzzzzzl11<  :VBMBBBBB",
"AACAVVVV  jzzzzz     zzzzzzz      zzzzzzzzzzzzzvFl311  :nMBMBBBB",
"CAACACAf ozzzzzzz . zzzzzzzzz    zzzzzzzzzzzzxzGPl31<. >VZZVMBBM",
"ACCACACu %zzzzzzzzzzzzzzzzzzzzzzzzzzzzzzzzzzzzzPPz31<  ,nVnVBMMB",
"AVVVVAVi.<lzzzzzzzzzzzzzxzzzzzzzzzzzxzzzzzzxzzcIKl22%  9AZZZZBZZ",
"VVAVVVVM.<lzzzzzzzzzzzzzzzzzzzzzzzzzzzzzzzxzzzDIvl21$  iZZZZZZZZ",
"AAAVACAV <lzzzzz zzzzzzzzzzzzzzzzzzzzzzzzzzzzvPPzj2<.  BZZZZBZBB",
"VVVVCAVV %lzzzzz zxzzz zzzzzz zzzzzzzzzzzzzzxHUKz31%  .BZBZBZBBZ",
"AVVVVVVA+$jzzzzz zzzzz zzzzzz zxzzzzzzzzzzzxFIUcj1<o  #MZBZZZZZB",
"AVAVAAVV=.1kzzzzz zzzz zzzzzz zzzzxzzzzzzzxDIPck21$  .sZZZZBZZBZ",
"AAVVZVVVt <1jzzzz  zz    zz  zzzzzzzzzzzxvHIIbk21$   tZZZZZZMBZB",
"AVAABVZZmXo112kzzz    zz    zzzzzzzzzzzxHUUHcj21%   6AAZAZZAAZZA",
"BZVZZZBVA6 o<112lzzzzzzzzzzzzzzzzzzzzzzzcck3121$   @MZAAAZZZZZAB",
"BBVZBBBZBm# .%<21jlzzzzzzzzzzzzzzzzzzlk32221<%o   .aAAAAAZZAAZAZ",
"BZBBZBBBZZa@  .$%112wjkkkklllllkkkj32211<%$oo    .eAAAAAAZZAZZAB",
"BVBBVZBBZZZn>    .oo$$$<<<<<<11211<ooo.         .5BAAAAAAZZZZAAA",
"BBBVBBZBZZZZZs>,           . ooo$o          . ooeBAAAAZVAZZZAZBA",
"BBBZBBZVZZZZZBAAANy=$                  XXOX@1wwhABAAAAAZAAZZZBAB",
"nMMMMMMMMMMMMMMMMMnMCnMMMMMMMBBZBAZZAZAAAAAAAAAAAAAAAAAAAAAVAVAA",
"CMMMMMMnMMMMMMMMMMCMnCMMMMMCMBZBBBBZBZNAAAAANAANAAAAAAAAAAAAAAAA",
"MMnCMCMCMMMMMMMMMMMMMMMnMMMMMBZZAZBZAAAAAAAAAAAAAAAAAAAAAAAAAAAV",
"MMCnCnMMMMMMMMMMMMMMMMMCMMMMMZBZBBZZNAAAAAcAAAAAAAAAAAAAAAAAAAAA",
"MMMnMMMMnMMMMMMMMMCMMMMMMMMMMBZZZZZZAAAAAAAAAAAAAAAAAAAAAAAAVACA",
"MMMCMMMMCMMMMMMMMMMMMMMMMMMMMBBZZZZZANNAAANAAAAAAAAAAAAAAAAAAAAA",
"MMMMMMMMMMMMnMMMMMnCMMMMMMMMMBBZZZZZAAAAANAAAAAAAAAAAAAAAAAAAAAC",
"MMMMMMMMMMMMCMMMMMMMMMMMMnMMMMMMMMZNZANAAANAANAAAAAACAAACAAACAAA"
};
