/* XPM */
static char *result[] = {
/* columns rows colors chars-per-pixel */
"64 64 83 1 ",
"  c #010101",
". c #060309",
"X c #0A050D",
"o c #0B0B0B",
"O c #0D0612",
"+ c #0F0814",
"@ c #100716",
"# c #120C17",
"$ c #140A1B",
"% c #131313",
"& c #1B1B1B",
"* c #170B21",
"= c #1A0C24",
"- c #1E0E2A",
"; c #1D1027",
": c #200F2E",
"> c #230F30",
", c #241233",
"< c #2A1736",
"1 c #271139",
"2 c #2B153D",
"3 c #242424",
"4 c #2B2B2B",
"5 c #333333",
"6 c #3B3B3B",
"7 c #2E1641",
"8 c #311746",
"9 c #321945",
"0 c #331748",
"q c #35194B",
"w c #3A1E4D",
"e c #3A1C53",
"r c #3E1C59",
"t c #3F2057",
"y c #3F2059",
"u c #401E5C",
"i c #412352",
"p c #41215C",
"a c #431F61",
"s c #452163",
"d c #482564",
"f c #4C246C",
"g c #4F286D",
"h c #50286F",
"j c #4E2470",
"k c #522575",
"l c #522974",
"z c #55267B",
"x c #562A7B",
"c c #592B7D",
"v c #434343",
"b c #4B4B4B",
"n c #545454",
"m c #5E5E5E",
"M c #636363",
"N c #6C6C6C",
"B c #747474",
"V c #7C7C7C",
"C c #572680",
"Z c #5C2C83",
"A c #5F2A89",
"S c #632E8F",
"D c #603185",
"F c #65308F",
"G c #662D95",
"H c #662998",
"J c #663190",
"K c #683492",
"L c #858585",
"P c #8A8A8A",
"I c #939393",
"U c gray61",
"Y c gray65",
"T c #ADADAD",
"R c #B4B4B4",
"E c gray",
"W c gray77",
"Q c #CBCBCB",
"! c #D4D4D4",
"~ c #DCDCDC",
"^ c #E3E3E3",
"/ c #F4F4F4",
"( c #FCFCFC",
/* pixels */
"HGJJGGJJGSSSSSSSSSSSSSSFSFSFGSSSSSSSSSSSASGSSFFSFSJJSFFJJAGAJSGA",
"HJGJKJJGSSSSSSSSSSSSGASSFSFSSSSSSSSSSSSSSSSSFSSFSFGFGJFJFGAGGAGF",
"HGJJGJJJSSSSSSSASSSSGSGSFSSFSSAZSSSSSSSASGSFSFSFFSFFFFJFJGAJAGAF",
"HJJGJJGGSSSSSSSGSSSSASSSSFFSSzr>X*jHSSSHSSSSFSFSSSJFFFGFJAGAFSAG",
"HJKGJGJJSSSSSSSSSSSSSSSFFSSZr:.  .zSSSSSSSSFSFSFFSGFFFFFGSSSGSGA",
"HJGJJJJGSSSSAGSSSSSSSSFFSZa-O   .aSSSSSSSSSSFSFSFFJJJFGJFSSSASGF",
"HJGJGJJGSSSSSSAGSSSSSSFSl0O     =SSSSSASSSSFSFSFSJJSGFJJJASSASAS",
"KKJJJJJKSGFSSSGSSFFGJSFl2X     7DSJSSSGSJJFSFSFSFAZGASSSGJJKJJJJ",
"KGJJJJGJFFGFFJGFFFFGFFl,.     @sGJJSKKKKFFFFSSSFxe0faO8SAJKSJJJJ",
"KJJJJJKJFGJFFFFFGJFJSp$       cFSSJJJJFFKFFFSSce=X    7SGJSKFJJF",
"KKJJJJJJFJGFFFFJFFJJx,       .cGJJSJJJJJKFFFSg,.     qCSAJJSJJJJ",
"KKJKGJJJFFFFJFFGFFGJe        XqJSJSJJJJJKFKFf*      zASAJJJJFJFJ",
"KKKKJJJJJFFGGFFJJJGF<        XrJSchxSJJJFKFf$      .SSSSSFJJFFJF",
"KKJKJJJJGFFJFFFGFJFd@         22->--,9ukDDp@      .,SSSSSFJJJFFF",
"JJSJJSJJSFFFJJFFFSZ       oo%%%%%%o...$,p,.       2DJJJJFFJSFFJF",
"GJJSJSGJFFFFGFFSFFf.   oo&4455555443&&%oo        :fFJJFFJFJSJFJF",
"KJJGGGJJGFFJGFJSSx2  .%&46bbbbbbbbv66543&&o      zFFJJJJJFJFFFKS",
"GJJJSJGJJFFFFFJFF9X o&56vmmmmmmmmmmmnbv6543&o    eJJFJJFJSFSSFFF",
"KJJJFGJJFFJSFFFSwX o36bnmmmmmmmmmmmmmmnb6554&%   OlJKSJSJFFFFFFF",
"GJGJFJJSFGJJJGFZo o3vnmmmmmmmmMmmmmmmmmmmnv6543o  1FSJJJJFFFFFFF",
"GSSSJSJSFFJJFFct .3bmmmmmmmmmmmmmmmmmMmmmmmbv553o.,zFJJJJSKSFJFF",
"HGGHGGGGSSSSFFw..3bmmb46nmmmmmmmmmmmmmmmmmmmnv54& .7ZFFFJSSSSSJA",
"HGSGGHGGSFSSSf;.3vnm5%%&%3nmnbmmmmmMmmmmmmmmmnv54o  fFFFFSSSSSJS",
"HGGHSSGGSSSGgX &vnmm% MIN3bv3o 6mmmmmmmmmmmmmmnv4&  -AFFFSSSSSSS",
"HSGGSHGSSSSC; o5mmm%  !((4b&nB6&4nmMmmmmmmmmMmmb63. XqxJFSSFSSSF",
"HGHSGHSHGSZq o3nmmn& %E(/3m ^(^3 nmmmmmmmmmmmmMnv4%  OeZJSSSSSSS",
"HGSHHSSGSSe# 3vmmmn6.obYI4b&W(^3 vmmMmmmmmmMmmmmb6&.  ;hSSSSSSSS",
"HHSGSGHGSd$ 3bmmmmmb&    36omRP& %mmmmmmmmmmmmmmm54o  .yDSSSSSSS",
"HHGGHGGGJ= obmmmmmmmb3o. 64   o  &nmmmmmmmmmmmmmnb4&   ;KDKDJKKK",
"HHHGHGHGc o5mmmmmmmmmn6%bnvoo   o%6mmmmmmmmmmmmMmb53o  $DKKKJJDK",
"HGHHGGHAt 3nmmmmmmmmmmmnmmm6vbb66bmmmmmmmmmmmmmmmb64% .%yKKKKKKK",
"HGGGHGGC,%6mmmmmmmmmmmmmmmmmmmmmmmmmmMmmmmMmmmmmmn64&  oyDKKKDKK",
"HGGGHGHz-&vmmmmMmmmmmmmmmmmmmmmmmmmmmmmMmmmMmmmmmm653. .yFKKKDKK",
"HGHHGHHS%3bmmmmmmmmMmmmmmmmmmmmmmmmmmmmmmmmmmmmmmm654o  tFKKKKKK",
"HHGGGGHS.4mmmmmmmmmmmmmmmmmmmmmmmmmmmmmmmmmmmmmmmnv54o OpJJJKKKD",
"GGGGGGGjo4nmmmmn6mmmmmmmmmmmmmmmmmmmmmmmmmmmmmmMmnv54% #pJFFFFDK",
"GGGGGGGu#4nmmmmv&mmmmmmmmmmmmmmmmmmmmMmmmMmmmmmMBm654o $sSFSFFFF",
"GGGGGGGr%4bmmmm44mmmmbnmMmmmmmmmmmmmmmmmmmmmmmmLRm654o =kJSFFFSF",
"HGGKGKGa@35nmmmv5mmmm45mmmmmmmmmmmmmmmmmmmmmMmNW!m654. -AJFSFSFS",
"KKGGGGGAX&56nmmmovmmm%bMmmmm3vmmmmMmmmmmmmmmmMP~Rn553..2SJSFSFSF",
"HKGHKGGG,o356nmm& Mm4 bmmmmm%bMmMmmmmmmmmMmmmVRWLb64& OeSSSSFSFS",
"GHKGGGGJeX%355bmno %o3oomn6b mmmmmmmmMmmmmmMNT!Imv53o -fSSJSSFSJ",
"KGKGGKGGz:.o346bnmnvvmv %3o3mmmmMmmmmmmmMmmNT~!Nb64%. tZJJJSJFKS",
"GGGGGGGKGs=..&35bnmmmmmmv56mmmmmmmmmmmmmmMVR~^Pn643.  ZJJJJJJFKF",
"KKHKKHKHGGu$  +&35vbnnmmmmmmmmmmmmmmmmMMVUE~EVn643o .$JSJJJJJJJJ",
"KHKGHKGKGGGz1,  o%&45vbnnnmmmmmmmmmmmMIWQQQYNbv43%  OqJKJFJJJFFJ",
"HKHKGGGGGGGGJZe,O  o%3345vbnnnnnmmmmnnMLPLNn664&o  $eZJJJFJFFFJJ",
"KHGKGKGGJGGGGGGZe;o     o&3466vv6v66v66vv65553%.  =pDJJJJJFJFJFF",
"KGKGGJGGGGGGGGGJJJly2*o  .oo&&333&&33333333&%o . @gFGKSGKSJJJJJJ",
"KGKGFFJJJJJJJJJJJKJKJJJCy9;  ooo   .....oo.    .$fJJKKKKKKJJJJJJ",
"JJKJFFFFJJJJJJJJKDKKKKKKKKKKxd93.             o3gJJKGKGKKKJJJJJK",
"GGJJGJFFJJJJJJJKKKKKJKKKKKKKKKKKKcd9<$o..OX  =wlKKKKKKKKKSJKKKJJ",
"FFFFFFJGFFKFKJJKKKKJKJKKKKKKKKKKKKKKKNFhtiptygDKKJKKKKGKKJKJJJJJ",
"FFGJGJFFKFFFJJSKKKKDJKKKKKKKKKKKKKKKKKKKKKKDDKKKKKKJJKKKKKJJKJKJ",
"FGFFFFJFFFKFFJKJJKJKJKJJKKKKKKKKKKKKKKKKKKKKKKKKKKKKKKKKKKJKJKJJ",
"FJFFFFGFFFFFKJJKKKKJKJGGKKKKKDKKKKKKKKKKKKKKKKKKKKKKKKGKKJJJJJJJ",
"SSSSSSSSFGSSSSSSSSSASSSSSSSSSJJSDKKFKDKKKKDKKKKKKKKKKKKHKJKKGKGK",
"SSASSSASSSSSSSSSSSSHSSSSSSSSSJJJDKFKKKKKKKKKKKKKKKKKKKKKKKGKKGKK",
"SHSSSSSSSSSSSSSSSSSSSSSSSSSSSSSJKKDDKKKKKDKKKKKNKKKKKKKKKKKKHKKK",
"SSSSSHASSSSSSSSSSSSASSSSSSSSSJJJKKKKKKKDKKKKKKKKKKKKKKKKKGGKKKKK",
"SSSSSSSSSHSSSSSSHASHSSSSSSSASJJJJFFJKKKKKKKKKKKKKKKKKKKKKKKKKKKK",
"SSSASHSSSSSSSSSSASSSSSSSSSSSSJJFFFJJDKDKKKKDKKKKKKKKHKKKKKHKKHKH",
"SSSSSSASSSSASSSSSSSSSSSSSSSSSJFFFJJJKKKKKKKKKKKKKKKKKKKKKKKKKKKK",
"SASSSSSSSSSSSSSHSSSSSSSSSSSSSSSSSFSFJDKDKKKKKKKKKKKKKKHKKHKHKKHK"
};
