/* XPM */
static char *result[] = {
/* columns rows colors chars-per-pixel */
"64 64 69 1 ",
"  c #010101",
". c #060308",
"X c #09040C",
"o c #0B0B0B",
"O c #0C0611",
"+ c #100717",
"@ c #110817",
"# c #100718",
"$ c #14091C",
"% c #131313",
"& c #1A1A1A",
"* c #190C23",
"= c #1E0E2B",
"- c #201327",
"; c #21112F",
": c #251235",
"> c #271138",
", c #2B153D",
"< c #242424",
"1 c #2D2D2D",
"2 c #333333",
"3 c #3A3A3A",
"4 c #2E1542",
"5 c #301646",
"6 c #341D40",
"7 c #321748",
"8 c #351A4B",
"9 c #3B1C54",
"0 c #3D1C58",
"q c #3B204A",
"w c #411E5D",
"e c #471F68",
"r c #442061",
"t c #4B246C",
"y c #4F286F",
"u c #522E65",
"i c #512575",
"p c #532875",
"a c #582D75",
"s c #55267B",
"d c #57297C",
"f c #582B7C",
"g c #5F317F",
"h c #444444",
"j c #4C4C4C",
"k c #545454",
"l c #5E5E5E",
"z c #636363",
"x c #6C6C6C",
"c c #747474",
"v c #7E7E7E",
"b c #5C2B84",
"n c #5F2C88",
"m c #632D8F",
"M c #613187",
"N c #65308F",
"B c #662E95",
"V c #662998",
"C c #663190",
"Z c #683492",
"A c #9C9C9C",
"S c gray65",
"D c gray68",
"F c gray71",
"G c #BDBDBD",
"H c #C3C3C3",
"J c #DDDDDD",
"K c #E2E2E2",
"L c #EBEBEB",
/* pixels */
"VBCCBCCCBmmmmBmmmmmmmmmNp*  mmmmmmVmmmmmmmmmmmmNNNNCCCmBNnCBnBmm",
"VCCBCCBCmmmmmnmmmmmmmmm0   .mmmmmmmnmmnmmmmmpmm  mNBCmCCNBnBBnBn",
"VCCBCBZCmmmmBBmmmmmmmb4    gmmmmmnmmmmmmmmm8     NNNNCBCNBBnmmBn",
"VBCCCBBBmmmmnnmmmmmBi*     mmmmmVmVmmVmmmb=     mmCNNNNNNnnBnBnB",
"VCCZBBCCmmmmBmmnmmms$     NmNmmmmmmmmmmmb*     NNmCBNNCCmmmmBmmm",
"VBBCCCBCmmmmnBmBmmb=      NNmmmmmmmmmmmb=      mNNCmNNNNBmmmmmmm",
"VCZBBCCBmmmmmmmmmm5      NNNmmmmmmmmmmm7       NmNCCNCBNCnmmmmmn",
"ZCCCCCCCmBCNmmmBCwX      NZNZNNCmmBCCCs       amNmmmmmnBmCCCCCCZ",
"ZCCBZCCCNNNNNmCCr.       :ZZNNNBmmmmNN        mNmmmmmnmmmCCmCCCC",
"ZCCZBCCBCNNBCCCm5        :ZZM9::>>,wm        NNmmmmmmmmmmCCmCCCC",
"ZCCCCCCCCNNCCNCB          t$.   . ..o        mNNmCmmmmmmmCmCCCCC",
"ZCCCCCCCBNNNNNNN         oo%%%&&&&&%%o.       mNCmmmmmmmmCCCCCCm",
"ZZCCCCCCBCCCCNNg      o%<<1123332221111<%.     NmmmmmmmmmNNNCNNN",
"ZZCCCCCCNCmmBNN      %<13hjjkkkllkjh322111<o  OwmCmmmmmmmCCNNCCN",
"ZCCCNCNBNNCCCCC    o<1hklllllllllllllkkh3111&  X8mCCCCCNCNCNNNNN",
"BBCCBCCCCNNNBCM   o<2jllllllllllllllllllkk311<  .emCNCCCCNNNNCNN",
"ZBBmCBmCNCCNNN,  %1hllllllllllllllllllllllkh11%  .MCCCCCCNNNNNNN",
"CCCBCCCBNNBNNn  ohllllllllllllllllllllllllllh11   .8nCNCCNNNNNNN",
"BCCCmCmCNNmCN-  3lllllllllllllzlllzllllllllllh1<    7CNCNNNNNNNN",
"BCCCCCBCBCCCN  &klllllllllllllllllllllllllllll31%   XyCCCNNNNNCN",
"BmmCCBmCNNNCu  hll   lllll     lllllllllllllllk1<.   =NNmNCCNCCC",
"VBBmBBmBNmmm  &kl  l  lll   l  llllllllllllllllh1&   .iNCNNmNnmm",
"VBBVBmBVmmmp ohll lll ll  llll  llllzlllllllllll21o   :NNmmmmmmm",
"VBmVVVBmNmb  &ll  llll   lzllll zlllllllllllllll31<   XnNmmmmmmm",
"VBVmmVBBmm5.o2ll llllz l llllll llllllllllllzlllj11%  .tNmNCmmmn",
"VBVBBVmVmn  %jll llllllllllllll lllllllllllllllll21<   9NmnmmmmC",
"VVmBVmBBNq .3llllllllllllllllllllllllllllllllllll321o  9Nmmmmmmm",
"VBmVmBBBn  <lllllllllzklllllllllllllllzllllllllllh11&  6NmNmmmmm",
"VBVBVBVB8  klllllllzlllllllllllllllllllllllllllllj12&  ,ZZZZZZCC",
"VBBVVBVVX %llllllllllllllllllllllzlllllllllllllllk11<. ;ZZMZZZZZ",
"VBBBBBVn .hllllllllllllllllllllllllllllllllllllxSk22< .;ZMZZMZZM",
"VVVBVBBi %kzllllllkllllllllllllllllllllllllllzlDJl31<o <ZZZZZZZZ",
"VBBBBVVe &lllllllllllllllllllllllllllllllzllzlzJJl31<  ,ZZMZZMZZ",
"VBVVBBVt <lllllllllzlllllllzllllllllllllllllllzKHk31&  8ZNZZZZZZ",
"VVBBVBBB.<kllllllllllllllllllllllllllllllllzllAKxk21%  yZNZZZZZZ",
"BBBBBBBB <klllll lllllllllllllllllllzllllllllcJKlh11.  nNNNNMNNM",
"VBBZBBBB &klllll lllll llllll llllzlllllllllxFLGl31&   BmCNCNNNN",
"BBBVBBBB@%hlllll lllll llllll lllllllllllllzSKLxh1<.  $mmnNmNNNN",
"ZVZVBZBB-o1jlllll llll llllll llllllllllllzAJJzk21%   pmmBCmmmNN",
"VZVZBBBB0 <1hklll  ll    ll  llllllllllllcFKKvk21%   0mmnNmmCCCn",
"ZVVZVZVZMXo112jlll    ll    lllllllllllxGLLDxh21&   4mmmBmNNNmCm",
"VZZVZVVVC5 o<213klllllllllllllllllllllllzcj3121%   #bmmmmmNNNnCm",
"ZZVZVZZZBm$ .&<12hklllllllllllllllllkkj32221<&o   .yCmCCCCCCCCCm",
"ZVZVZVZVBBi$  .%&<123hjjjjjkkkkkjjh3221<<&%o.    .9CCCCCCCCmCCCC",
"ZZBZZVZVBBBm:     oo%%&&<<<<<112111oooo         .,NNCCCCCCCCCCCm",
"BVZVVZVZBBBBCs>,           ooooo%o             .0NZNCCCCCNCCCCCC",
"ZVVZVZZVBBBBBBBBZmw=@         o        XXXX@,90fCZNNCCNCCNCNNCCC",
"ZZZVZBVZBBBBBBCBmBmBBBNCNNNNNZMZNNNZCCmBCBCCCZCCZZNZCCCCCCNNNNNC",
"BBVBBBCCBBBBBBBBCCCCCmCmCCnCZZZMCZZZZZZZMZMZCZCZCZCNZCCZCmmNNNCC",
"BZZZCmCBCCCCCCCCZCCZZCZZCZZZZZZZZZZZZZZZZZZZZZZZZZZZBZZBZZZZZCCC",
"BCZZCCCmCCCCNCCZZZCCCZZZZZZZZZZZZZZZZZZZZZZZZZZZZZZZBZBZZZmNCCCC",
"NCBCCmCCCCCCZCNZCCZZZCZZZZZZZZMZZZZZxZZZZZZZZZZZZZBZZZZZBZZZCZCC",
"NNCNCBCCNZZNNmNZZZCCZCZZZZZZZZZZZZZZZZZZZZZZZZZZZZZZZZZBZCZCZZCC",
"mCNNNNmCNNmNNZNZCZZCZZZZZZZZZZZZZZZZZZZZZZZZxZZZZZZZZZZZZCCCCCCZ",
"NNCNNCCCZmNZNZNZCZCZCZCZZZZZZZZZZZZMZZZZZZZZZZZZZZZZBZBBZCCCZCCC",
"NCBNNmmCZNNZNNNZZZZZCZCCZZZZZZZZZZZZZZZZZxZZZZZZZZZNZZZZZBCCCCCZ",
"mnmmmmmmmmmmmmmmmmmmmmmmmmmmnmCCMZCNZMZZZMZZZZZZZZZVZVZZZZBZZZVZ",
"mVmmmnVmmmmmmmmmmVmmnmVnmmmmCCCmZZCCZZZZZZZZMZZZZZZZZZZZZZBZZZVZ",
"mmmmmmmmmmmmmmmmmnmmBmmmmmmmmCCCMZZNZZZMZZZZZZZZZZZZZZZZBZBBZVZZ",
"mmmmmmmmmmmmmmmmmmmmmmmmmmmmmCmCZZMCMZZZZMZZZZZZZZZZZZZZZZZZZZZZ",
"mmmmmnmmmmmmmmmmmmmBBnmmmmmmmCCNNNCCZZMZZZZZZZZZZZZZZZVZZVZZZVZZ",
"mmmmmmmmmmmmmmmmmmmnmmmmmmmmmNCCCCCCZZZZZZZZZZZZZZZZZZZZZZZZZZZZ",
"mmmmVmmmmmmmmmmmmmnmmmmmVnmmmCCCCNCCZZZMZZZZZZZZZZZZZZZZZZZVZZVZ",
"mmnVmmmmmmmmmmmmmmVmmmmmmmmmmmmmmmmMNCMZZZZZZZZZZZZZZZVZVZZZVVZZ"
};
