/* XPM */
static char *result[] = {
/* columns rows colors chars-per-pixel */
"64 64 77 1 ",
"  c #010101",
". c #0A0803",
"X c #060309",
"o c #09050C",
"O c #0B0B0B",
"+ c #0D0713",
"@ c #0E0814",
"# c #130C16",
"$ c #140A1B",
"% c #131313",
"& c #161219",
"* c #1C1C1C",
"= c #170C21",
"- c #1A0D24",
"; c #1D0E2A",
": c #1C1022",
"> c #211525",
", c #20102E",
"< c #220F30",
"1 c #251233",
"2 c #291536",
"3 c #2B153C",
"4 c #232323",
"5 c #2C2C2C",
"6 c #333333",
"7 c #3B3B3B",
"8 c #2E1641",
"9 c #311745",
"0 c #321945",
"q c #35194C",
"w c #3B1F4F",
"e c #3B1D53",
"r c #3E1E59",
"t c #3F2059",
"y c #42215D",
"u c #452162",
"i c #492566",
"p c #4C246C",
"a c #4E2570",
"s c #522675",
"d c #532974",
"f c #562A7A",
"g c #592C7D",
"h c #5D327A",
"j c #434343",
"k c #4B4B4B",
"l c #545454",
"z c #5E5E5E",
"x c #636363",
"c c #6D6D6D",
"v c #737373",
"b c gray47",
"n c #5D2D84",
"m c #5F2E88",
"M c #5E3083",
"N c #602F87",
"B c #632D8F",
"V c #613187",
"C c #65308E",
"Z c #662D95",
"A c #662998",
"S c #663190",
"D c #683392",
"F c #838383",
"G c #949494",
"H c #9D9D9D",
"J c #A4A4A4",
"K c #AEAEAE",
"L c #B1B1B1",
"P c #BBBBBB",
"I c #C3C3C3",
"U c #CACACA",
"Y c #D5D5D5",
"T c gainsboro",
"R c #E6E6E6",
"E c #F6F6F6",
"W c #FCFCFC",
/* pixels */
"AZSSDZZZBBBBBBBBBBBBBBCBCBCBBBBBBBBAmBBBBBBBBBCBCBSSZCCSBmmZBmAB",
"ASSZSZSSBBBBBBBBBBmAmBBBBCBCBBBBBBmABBBBBBBBCBBCBCSCSCCSSZZmBBBB",
"AZSSSSSZBBBBBBBBBBBBABBBCBCBBBBABAmBBBAnBBBBCBCBBCZCCCCCZZmABBBB",
"ASSZZSSSBBBBBBBBBBBBBBBBBCZCBBBmBBAmBBBBBBBBZCBCCBCCCZSCCmZmBBAm",
"ASDZZSZSBBBBBABBBBBBBBBBCCCCBBBBBBBBBAmBABu;qCBCZCCSSZSZZBZmmBBm",
"ASSZZSSZBBBBBmBBBBBBZBCSCBCCZmBBBBBBBBAnsu< ;BCBCBCCCCSCCBBZZBBA",
"AZSSSSZDBBBBBBmABBBBBBCCBCCCZBBBBBBBBBn9   XgZBCBCCZCZCBCmAmmBBB",
"DDSSSSSSBZCBZBBBCCZSBniuCDCDCCCSBABBBBeo   qBBCBCBmZmZmZZSSSSSCC",
"DSSSSSSSCCZCCZCCCSZBp$ +DDDDSSSCBCCSBi$    uZCBCBBBBBBBBmZSSBSBS",
"DZSSSSSSSBCSCSSCSSCp$  2VVDDCSSSBCSBn1X    8CBCBBBBBBBBBBSSCSSSS",
"DDSSSSSSSSZCCCSBCBs<   uDDDSDCSSSCSBy+    oyCCCBBBBBBBBBBSSSSSBS",
"DDSZSSSSBSCCCZSSZg3X  oiVDSDSSSCBCBN2     XnBCBCBBBBBBBBBSSSSSSS",
"DDDDSSSSCCSBCCCCnqo   ;DDDVDDSCCSSCf      ;nBBCBBBBBBBBBmSSBSSSS",
"DDSSSSZSCZSSSZCBp+   .:DDDDDSCCCSBB;      uBBCBCBBBBBBBBBSSSmSSS",
"SSSSSSSCSBCSSCCn1     hDDDDVCDCDNNeX      ,uBBBBBBSSSSSBSSCSCSSB",
"SZSSCZSZSSCCZZSu+     tMDDDhdyq23q-        +8ZCBBBSSBSSSSSCSCBSS",
"ZSSZSBSSSSZCCDn3X     $yDCd3-$+XO@%OOOO     ounBBSSBSSBSBCCSCCCB",
"ZSSZSZZSCBBCBBy$      o3d3+.O%&*444555444*O X+2amSSSSSSSSSCCCSCS",
"ZSSSZSBSBDDBCg9        X3&**456667766666655*o  ;umSBSCSCSCSSSCCC",
"DSSSSSBZSCBDCB;        @*557jkllllklllkkj7654O  $8umSSSSBCCCBCBS",
"DBZBSBBSCDBCCC$      %*57jklzzzzzzzzzzzzllj764X  X+9mCCSSSCSCCSC",
"AZBZZZZZBCBBBB2     &57jllzzzzzzzzzzzzzzzzllj64O   XqnCCCZmBBBBB",
"AABAABZZBBCBBn2   .%5jlzzzzzzzzzzzzzzzzzzzzzlj64O   +emCmSBBSmBB",
"AZZABZABBBBBZp    %5jlzxzzzzzzzzzzzzzzzzzzxzzlj54O   -uZSBBBBZBB",
"AAZBBAZBZBBSCB.  O57lzzxzzzzzzzxzzzzzzzxzxzzzzlj54.  X;mBBBBZBBB",
"ABZAABBABBBBBn$  4jlzzzzzzzzzzzzzzzzzzzzzzzzzzzz754X  oumBBBBBBB",
"AZBZAZBASBSBBi% %6lzzzzzxxzzlzzzzxzzzzzzzzzzzzzzj66*   8nBBBBBBB",
"AZZZBZABBBBBBe  4kzzzzzzzl*OOj5zzzzzzzzzzzzzzzzzlj65*  :pmBBBBBB",
"AAAZZAAZSSDDM* %7lzk74%kz64lj& kzzzzzzxzzzxzzzzzzl764% +wDVDSDmD",
"AZZZZZZZSSmDmO 4kzzO%j74k*vREv%%7zzzzzzzzzzzzzzzzlj65* X5DDDDDDD",
"AAZAABZASSSDh& 5lz4 kPYb75vEWH& 4lzxzzzzzzzzzxzzzzk664. ,MDDDDDD",
"AZZZAAAZSSDDt %7zz6 xEWL6j4FUvO  %zzzzzzzzzzzzzzzzl765%X&iDVDDVD",
"AZZAZZZZDDCCt *kzkO 5PRK*l %    *kzzzzzzzzzzzzzzxvcj65*.@tCDDVDD",
"AAZZAZAAVDCn: 5zxl*  6jO lO  %46kzzzzzzzzzzxzzzzxGJl664 oqDCDDDD",
"AAAZZZZZDDSp O6lzzk4    Okj45jlzzzzzzzzzzzzzzzzxcIUl665  qCDCDDD",
"ZZZZZZZZDSS8X%jzzzzj44*O6zxllzzzzzzzzzxzzzzzzzzzxYYxj6*O eMSVCCV",
"ZZZZDZZZSSm1 *klzzzzzlkllzzzzzzzzzzzzzzzzzzxzxzzxUKxj6*  qmZDCCC",
"ZZZZZZZZSZd-O5zzzzzzzzzzzzxzzzzzzzzzzzzzzzzzzzzxFUJzj6*X 1SSCCmC",
"ZZDZZZZZSZa .kzzzzzzzzzzzzzzxzzzzzzzzzzzzzzzzzzxGYKl75%  ;ZmCZSS",
"DZZZZZSZZZq %lzzzzzzzzzzzzzzzzzzxzzzzzzxzzzzxzzcPRGk65.  uBSmSmZ",
"ADZZZDADBZ, 4lzzzzzzzzzzzzzzzzzzzzzzzzzzzzzzzzxGTYcj6*  ;fCBCSSB",
"ZAZZZZDAZB8X6lzzzzzzzzzzzxzzzzzzzzzzzzxzzzzzzzbPTFk75O +emBCZmCB",
"DZZZADADZBqO5lzxzzzzzzzzzzzzzxzz5lzzzzzzzzzzxvJYLx75%  -sCCSSBSS",
"DZZDDZDAZZr 5zzzzzzxzzzzzllzzzzz47zzzzzzzzzxvJULcj64. X8ZZCSSSSS",
"DDDAADDAZZs+4lzzzzz4jzzzz56zzzzz65zzzzzzzzzvPUHx764O  +dSSSSSSSS",
"AADDDAADDZB,*jzzzzz55zxzz74zzzzj5kzzzzzzzzzxxxj654O  X0nBSSSBSSS",
"DDDAADDAZZZq%7lxzzzj*kzzzkO64zl 6zzzzzzzzzlj7654%   X=amSSSSSSmS",
"DAADDADDZZZpo5kzzzxzl 7zz %5 O *lzzzzzxzlk765*%     $umSSSSSSSSS",
"DZZZSZZZZZZB$%7klzzzz* 4% kzjlzzzzzzzlkj65*%. ..  +-eNDCSSCSSBDB",
"ADDDBSSSSSDS9#46jkllzz76kzzzzzzzzzlkjj75%OO   .O+3upBZDDDSDDDSCD",
"SSDZCCSBSSSSs1%45677klzzzzzlllljj76655*O    o$6wdCDDDDSDDSSZDSDS",
"ZSSDCZSSSSSSBu=O*456667j7jj76554*&%O%O. X:0iMDDDDDDDDZDDDSSSSSSS",
"SSSSZCCCCDDCCNy#. %***4:**&%%O. .   :3yhDDDDDDDDDDDDDDZDDSDSSDSS",
"CZBSCCCZDCCBCCBi=+   XXX.      %1tdCDDDDDDDDDVDDDDDDDDDDDSSSDSSD",
"CSZCSCCSCCCDDCCCmt8,1==<;$$;0iVDDDDDDDDDDDDDDDDDDDCDDDSDDSSSSSSD",
"CCCCCZCSSSDCCCDCDDmgMSBnfMDDDDDDDDDDcDDDDDDDDDDDDDDDDDDZDSSDSDSS",
"BAmBmABBBBBBBBBBBBBBBBmABBBBBBSBVDSVDDDDDDDDDcDDDDDDADDDDDDDDDDA",
"BBBBBBBBBBBBBABBBBAmBBBBBBBBBSSSDVSSDDDDDDDVDDDDDDDDDDDDDZDZZDDD",
"BmBBBBBBBBBBBBBBBBBBBBBBBBBBBSSSSSSSDDVDDDDVDDDDDDDDDDDDDDZDADDD",
"BBAmBBmABBBBBBBBBBBBAmBBBBBBBSBSSSSSDVDDDDVDDDDDDDDDDDDDDDDDDDAD",
"BmBBBBBBBBBmBBBBBBBBBBBBBBBBBSSSDmSSVDDDDDDDDDDDDDDDDDDDDDADDDDA",
"ABBBBmBBBBBBBBBBBBBBBBBBBBBBBSSSSSSSDDDVDVDDDDDDDDDDDDDDDDDDDDDD",
"BBBBBABBBBBBmBBBBBBBBBBBBBBBBSSSSSSSDDDDDDDDDDDDDDDDDDDDDADDDDDD",
"BBmABBBmABBBABBBBBBBBBBBBBBBBBBmSSSmMDDVDDDDDDDDDDDDDADDADDADDAD"
};
