/* XPM */
static char *result[] = {
/* columns rows colors chars-per-pixel */
"64 64 74 1 ",
"  c #010101",
". c #060308",
"X c #09050C",
"o c #0B0B0B",
"O c #0D0612",
"+ c #100716",
"@ c #110917",
"# c #140A1B",
"$ c #131313",
"% c #1B1B1B",
"& c #190D24",
"* c #1E0E2B",
"= c #1F102A",
"- c #200E2E",
"; c #201227",
": c #20102E",
"> c #251235",
", c #2B153C",
"< c #242424",
"1 c #2D2D2D",
"2 c #323232",
"3 c #3A3A3A",
"4 c #2F1642",
"5 c #2E1841",
"6 c #311745",
"7 c #331A44",
"8 c #351A4B",
"9 c #381B4E",
"0 c #3A1C53",
"q c #3E1D59",
"w c #3C214C",
"e c #3E2056",
"r c #3F2058",
"t c #401E5C",
"y c #42215D",
"u c #452064",
"i c #4C256C",
"p c #533065",
"a c #522674",
"s c #542A76",
"d c #582D75",
"f c #562A7A",
"g c #592A7E",
"h c #5F317E",
"j c #444444",
"k c #4C4C4C",
"l c #545454",
"z c #5E5E5E",
"x c #636363",
"c c #6C6C6C",
"v c #737373",
"b c #7E7E7E",
"n c #5D2D84",
"m c #602F87",
"M c #632E8F",
"N c #613384",
"B c #65308F",
"V c #662D95",
"C c #662998",
"Z c #663190",
"A c #683393",
"S c #848484",
"D c #9C9C9C",
"F c gray65",
"G c gray68",
"H c #B5B5B5",
"J c #BDBDBD",
"K c gray76",
"L c gray82",
"P c #DDDDDD",
"I c #E3E3E3",
"U c #ECECEC",
"Y c #F2F2F2",
"T c #FDFDFD",
/* pixels */
"MMMMMMMVZZBZZBMBBBMBMMnVVMMMMMMCnMMMMMMMBMMMMMMVnVVnMMMVVMZZVVZC",
"MMMMMMnVBVBBVBBMMBBMMMMMnVMMMMMMCMMMMMMMMBMMMMMVVnVVMMnVBVVZZZZC",
"MMMMMMnVBZBBZBMBBVMBBMMMVVMnMMMMnnCMMMMMBMMMMVnnVnnVnVnMZZZZZVVC",
"MMMMMMVZBBZVZBMBBMBMBMMMnnVVMMMMMCnCZMMMMMMMnVVVVVnVVMVMZVZVZZZC",
"MMMMMMVZBVBBVBBMMZMBMMMMVVMMMMMMMMBBMBBBBMMMMVMMnVMMMMMMZVVAZZVC",
"MMMMMMnBBZZBBBMBBMBMMMMBVnMMMMMMMMMBMZMMMBMMMnMMnVMMMMMMZZZZVZZC",
"MMMMMnVVBBVBZBBMBBBMBMBBMMMMMMMMMMBBBBMZBBMMMMMMVMMMnMMMVZZVVZZC",
"VMMBVBZMMMMMMMMBMBMBBBBAVMBBMVMMMMZZZZZAABBBMVBVVMMBVVVBZZZZZZAA",
"ZBZBZZBVMMnVVVMMBMBBMZBBZBAZBBZBMBBAABABAZZBBBBZBVMZBBVZAZZZAZVA",
"ZZBBZZBVnMMMnVMMMBBMBZABZAZAZZBZMBBA  &dAABBBVBZBZZBZBBZZVZZZZAA",
"BZBZBZZnVVVMMMM  MVaBBBBZZZZBZBBBBBAo   yABBZZBVBBBBZMBBZZAVABAA",
"ZZZBZBZMVnnVMMB     0BBAZZZZZMZBBBBAN    ,nBBBBZBZBVZZBBZZZZBABA",
"ZZZZZBZMMMMMMMMM     =nBZZZZZZZZBBBZZ     &sABZBZBBBBBBBZZZZABAA",
"BZBZZZZMMMMMMMMMM     =nZZZZZAZBBBAZAZ     #gZBBVBZZBVZVZZZBBABA",
"BZBBBZBZVBZBBZMMM      :NZZZNAZZAAABZA      =nZMMBMZZZBVZZZVZZAA",
"BBBBBBBBBBZZZZBMM       wZZZAAZZAAABAZZ      6VBBBVZBBBZZVZVZZZA",
"BBBBBBBZZBBZZZBMMs       fZZZABABAAZZZZ      XtMMBZZZMZZAMZVBVBA",
"BBMVBBBZBZZBZBMMMB        BZBBAAAABBAZ>       .yBBBVZMZMMAZBZZVA",
"ZBZZBBBZZBBZZZBBBMV        my,>>>>eNBB>        6MZBBZZMZAZVBVZBZ",
"BBMZBBBZBBZZZZBBMMB        ....    .#i          MZBBMZZZMZBVBZVA",
"BBBBBBBZZZZZZZMBMM      .oo$$$%%%%$$$o          MZZZVBZMVZnVZVBZ",
"MMMBMMMBBMMMBBBAB     .$<<112223332211<<$.      hMBMMMMZVVCMVVVC",
"MMMMBMMBBBBBBBZByO  $%112213jkzlzzzlkkj32<$      BBMMBMMVVMCVCVV",
"BMMMMMMBBZBBBBB9X  %1123jkzzzzzzzzzzzzzzlj1<.    BMMMMMMVMVCMVVC",
"MMMMBBBBBBBBBBi   %213kzzzzzzzzzzzzzzzzzzzl2<o  .nMMBBBBVCCMCCMC",
"MMMMZmBBMMBBBn.  $12jzzzzzzzzzzzzzzzzzzzzzzzj<o  5BMMMBBCMVMMVVC",
"MMMMZZANBBBn6.  o<2jzzzzzzzzzzzzzzzzzzzzzzzzzj<o  nMBMNZMMCCCVVC",
"MMMMANAABBB6.   %1jzzzzzzzzzzzzzzzzzzzzzzzzzzzj%  =BMMZZVCMVMMCC",
"ZZAANAAAZZso   $13zzzzzzzzzzzzzzzzzzzzzzzzzzzzz3$  BZAZZCVVVCCVC",
"ZZAAAANAAA=   .<2lzzzzzzzzzzzzzzzzz   zzk    zzz1  pZZZZVVCCVVVC",
"AZZNAAAAAfo   %2jzzzzzzzzzzzzzzzz  <v2 z$3S1  zzk$  AZBBVCVVCVVC",
"AZAAANAAZ:.  o<2lzzzzzzzzzzzzzzzz $YTU z.TTY  zzz2o sZZBVVCVVVCC",
"AAAZANAANO   <23zzzzzzzzzzzzzzzz  2TTU z%TTT   zzk%  NZBZVVVCCVC",
"AANAAAABi.  $12jzzzzzzzzzzzzzzzz  $HLj z$KIv    zz1o 6ABVVCVVVVC",
"NAAZAABAr.  <12zzzzzzzzzxzzzzzz        z        zz3$  NBCVVVVVCC",
"ZABBANVV9  o113zzzzzzzzzzzzzzz         z        zzz3. wVVVVVVVVV",
"ZZZBnZVn4  $12jzzzzzzzzzzzzzzz        zzz      ozzzz%  MACVVVVVV",
"NZMZBBBM>  =21kzxzzzzzzxzzzzzz        zzz       zzzzk  8CAVVVVVV",
"BMBMBMBB=  <21lxxzzzzzzzzzzzzz       zzzzz      zzzzz$ OAVVVVVVA",
"BBMBVBBZ: .<12lFczzzzzzzzzzzzz      zzzzzzz     zzzzzj. VVAVVVVV",
"MBBBMBBM> .<22zPGzzxzzzzzzzzzzz    zzzzzzzzz . zzzzzzl$ fVVVVAVV",
"BBBBBMMM,  <13zPPzzzzzzzzzzzzzzzzzzzzzzzzzzzzzzzzzzzzz% iVVVVVVV",
"ZBZBBZZB8  %12lKIczzzzzzzzzzzxzzzzzzzzzzzzxzzzzzzzzzzz< iVVAAVVV",
"ZBBZZZZZi  $22lvIDxzzxzzzzzzzzzzzzzzzzzzzzzzzzzzzzzzzl<oMVVVVVVA",
"ZZZZZZBZN  .<1jzILcxzzzzxzzzzzzzzzzzzzzzzzzzzzz zzzzzl; AVCAVVAA",
"ZMZMZZZZA.  %13zKUJxzzzzzzzzzzzzzz zzzzzz zzzzz zzzzzl% CVACAVVA",
"MZZZZZZZB#  .<2kcUIFxzzzzzzzzzzzzz zzzzzz zzzzz zzzzzj$#ACCACAVA",
"ZZZZBZZBBa.  $<2lxPPDxxzzzzzzzzzzz zzzzxz zzzz zzzzzk1o>AAAVACAA",
"BZZBZZZZZZt.  %12kSPIHvzzzzzzzzzzzz  zz    zz  zzzlj2<.qAVAVVVAA",
"ZZZZZZZAZAZ5   %22jcHUUJxxzzzzzzzzzz    zz    zzzk22<oXmVZBVBBBV",
"ZZZAZAZAAAAM#   $<223kcczzzzzzzzzzzzzzzzzzzzzzzl322<o 7ZBBZZBVBB",
"ZAZZZZAZAAAAa.   o%<12223jlzzzzzzzzzzzzzzzzzzlj21<%  #mZBBMZBZZM",
"AZZAZAAAAAAAZq.    oo$%<<1223jkklllllklkkkj32<<%$   +aZZBBBVBBZM",
"ZZAZZZBAAAAAZZ5.         ooo$<11111<<<<<%%$$ooo    >nBZZABBZBZAB",
"AZZAZZAAAAAAAABe.     o       o$ooo..           ,>dBBBBZMBMBBMMB",
"ZZZZAZZAZAAAAAABdee,@o$$X                  #*ymVAAZZBAABVZAMZABB",
"AAAAAAAAAAAAAAAAAAAAAAAAZZAAZBZZZZZMMnVVMMMVnVMMCnnMnMMMMMMMMMMM",
"AAAAVAAAAAAAAAAAAAAAAAAAZZZAZZZBZZBMMMVnMMnCMMVnMVCMCMMMMMMMMMMM",
"ACCAAAVAAAAAAAAAAAAAANANAAZZZZBZBZZMnVVnVMnMMMMVMMMMVnMMMMMMMMMM",
"AAAAAAAAAAAAAAAAAAcAAAAAANZZZBZZZZZMVnVVnVCMMMnCMMMMMVMCMMMMMMMM",
"AAAAVAAAAAAAAAAAAANAAAZZAANAZZZZZBMVVVnVVMMVnMMMMnCMMMMnMMMMnMMM",
"AAAAAAAAAAAAAANAAAAANAZZAAAAZZZZZBBVnVnVnVVnCMMMMMMMMMMMMCnMCMMM",
"ACCAAAAAAAAAAAAAAANAAAAAAZANZZZZZBVnVnVMnCMMVnMMnMMMVMnMMMMMMMMM",
"AAAAAAAAAAAAAAAAAAAAAZZNZZZAnVVnMMVnVVVnMMMMMVMMCMMMnCCMMMMMMCnM"
};
