/* XPM */
static char *result[] = {
/* columns rows colors chars-per-pixel */
"64 64 83 1 ",
"  c #010101",
". c #060309",
"X c #0A050D",
"o c #0B0B0B",
"O c #0D0612",
"+ c #0F0814",
"@ c #100716",
"# c #120C17",
"$ c #140A1B",
"% c #131313",
"& c #1B1B1B",
"* c #170B21",
"= c #1A0C24",
"- c #1E0E2A",
"; c #1D1027",
": c #200F2E",
"> c #230F30",
", c #241233",
"< c #2A1736",
"1 c #271139",
"2 c #2B153D",
"3 c #242424",
"4 c #2B2B2B",
"5 c #333333",
"6 c #3B3B3B",
"7 c #2E1641",
"8 c #311746",
"9 c #321945",
"0 c #331748",
"q c #35194B",
"w c #3A1E4D",
"e c #3A1C53",
"r c #3E1C59",
"t c #3F2057",
"y c #3F2059",
"u c #401E5C",
"i c #412352",
"p c #41215C",
"a c #431F61",
"s c #452163",
"d c #482564",
"f c #4C246C",
"g c #4F286D",
"h c #50286F",
"j c #4E2470",
"k c #522575",
"l c #522974",
"z c #55267B",
"x c #562A7B",
"c c #592B7D",
"v c #434343",
"b c #4B4B4B",
"n c #545454",
"m c #5E5E5E",
"M c #636363",
"N c #6C6C6C",
"B c #747474",
"V c #7C7C7C",
"C c #572680",
"Z c #5C2C83",
"A c #5F2A89",
"S c #632E8F",
"D c #603185",
"F c #65308F",
"G c #662D95",
"H c #662998",
"J c #663190",
"K c #683492",
"L c #858585",
"P c #8A8A8A",
"I c #939393",
"U c gray61",
"Y c gray65",
"T c #ADADAD",
"R c #B4B4B4",
"E c gray",
"W c gray77",
"Q c #CBCBCB",
"! c #D4D4D4",
"~ c #DCDCDC",
"^ c #E3E3E3",
"/ c #F4F4F4",
"( c #FCFCFC",
/* pixels */
"SSSSSSSJJGFFFGSSFSFSFSSGSSGSASSSSSSSSSSSSFSSSSSSSSSSSSSGGSJGJGJH",
"SSSSGASSFFGJFJSFSFSFSSAGSASSSSSSSSSSSSSSFSSSSSSSSSGASSSAJGJGJJJH",
"SSSSSSSFFGFFFFFSSFSFSAGFSSSASSSGCAHSSFSFSFSSSSSSSASSSSSSJJJJJGGH",
"SSGSSSSFFJFFJFSFFSFSFGSASSSGGj*O>uzSFSFSSSSSSSSSSSSSSSSSGJGJJJJH",
"SSSSSSSGSGFJJJAJSFSFSSSSSASSSz   .:rDSSSSFSSSSSSSSSSSSSSJJJJJJGH",
"GASSSSSFFJJJJFFGFSFSSSSSSGSSSSsX   O-acSFSSSSSSSSSSSSSSSGGJGGJJH",
"SSSSSSSSFFFFJJSFGFFSFSFFSFSSSSA=     O0zFFSSSSSSSSSSSSSSJJGJJGJH",
"SSFJGFFSJAGAGZASFSFFSJFKFFFJGSFZ7     X2lFSFGSFFHGSSSSGFGKKJJJKK",
"JJJJJJJSG7Oaf0exSSSFSFFFFKJJGJFFs@     .,gSJFFFGFSJSFFJFJJKGJJJK",
"JJFJJJFGS7    O=exSFFJKJFFJJFFFGJc      .$pSGJFJFGJJFFGFJJJJJJKK",
"FJFJFJJASz0     X,fSFJFJKFJFFFJJGc.       ,cFFJJFJJJJGFFJGJJKJJK",
"JJFJFJJSSSAz      $fFJJJKJJJJFFFFqX        eFFGSJFFFFSGJJKJJJJKK",
"JJSJJJJGSSSS.      *fFJJFFFFclcSFrX        <FFJJJSFFJGFFJJJJJJJK",
"FJJJJFFASSSS,.      @yFDlp9<--:-22         OfJFFJGJFFFFFJJJJJJKK",
"FFSJFFFFJJJJD2       .,s,$X .o%%%%%%oo       DSSAJJFFFSJGJJJJGJK",
"JFFJFFFFGJFFFf:        Xo%&&3444555544&o.    hFFJJSJGJJJJGFGJJGK",
"SFFFFFFFJJFJJFx      o%&34466vbbbbbnbb64&%.  2xFGJJJJGFFJGFJJJJJ",
"FFFFFFFJJJJJJJe    o&3556vbmmmmmmmmmmmnbv4&o o9FSFSJFFFFJFGJGFGJ",
"FFFFSFFJJFFJJlO   o34556bnmmmmmmmmmmmmmmnb63o XwAJJJFFSJJJJJJJJJ",
"FFFFJFFJJJJFF,  o&456vnmmmmmmmmmmmmmmmmmmmnv3o oAFSJGJJJGFGFGJJG",
"JFFFJFFJJJJSx, o3556bmmmmmmmmmmmmmmmmmmmmmmmb3. tDFFFJKSJGFFJJJJ",
"SSSSSSSFFJSZ2. &45vnmmmmmmmmmmmmmmmmmmmnv4bmmb3..qSFSSSSHSGGGHGH",
"SSSSSSSFFFFg  o45vmmmmmmMmmmmmmmmmnnmn3%&oo4mnb&.;fSSSSFGGHGSSHH",
"SSSSSSSFFFA-  &4vnmmmmmmmmmmmmmm6 o36b4NIM &mmnv& XgSSSSSSHSHGGH",
"SSSSSSSJSCqo .36bmmmmmmmMmmmmmn4&5Vn%n5((!  %mmm5o -CFSSHHGSHGSH",
"SSSSSSSJZq+. %4vmmmmmmmmmmmmmmn 3^(^ M&//Eo &nmmn3o tCJFGGHSSHHH",
"SSSSJJDKh=  .35bmmmmmmMmmmmmmmv 4^(W&b4PYnoo6nmmmv3 OwDFSSHGHSGH",
"SSSSDJJDy.  o45mmmmmmmmmMmmmMm% %PRno64    %bmmmmmb3 *dFHGSHHHSH",
"KKKKDKKK-   &4vmmmmmmmmmmmmmmm& .o   36  o4vmmmmmmmbo.=KGGGHGGGH",
"JJKKKKKD*  .35bmmmmmMmmmmmMmm6%o   o%vmb%5nmmmmmmmmm5o cGHGGGHHH",
"JKKKKKKy+  %45nmmmmmmmmmmmmmmnb66bb65mmmmmmmmmmmmmmmn&.eAHGHGGGH",
"KKDKKDDy.  &56nmmmmmmmmmmmmmmmmmmmmmmmmmmmmmmmmmmmmmm6+,CGGHGGGH",
"KKKKKKDy. .356mmmmmmmmmmmmmmmmMmmmmmmmmmmmmmmmmmmmmmmv&-zGHGGGHH",
"DFKKKKJy  o456mmmmmmmmmmmmMmmmmmmmmmmmmmmmmmmmmmmmmmmn3#GGGGHGGH",
"KKJJKKFpX o45vnmmMmmmmmmmmmmmmmmmmmmmmmmmmmmmmmmmMmmmn4 AGHGGGGH",
"FFFFFDGa$ %45vnmmmmmmMmMmmmmmmmmmmmmmmmmmmmmmmm6nmmmmn4ojHGGGGGG",
"FFFFFSFd$ +456mBMmmmmmmmmmmmmmmmmmmmmmmmmmmmmmM&vmmmmn5#aHKHGGGG",
"FFSFSFGj* o456mRLMmmmmmmmmmMmmmmmmmmmMmmmnnmmmm45mmmnb4#rKHKGGGG",
"FSFSFSFA-  456m!WNmMmmmmmmmmmmmmmmmmmmmmm54mmmn5vmmmn63%fHHGGGGG",
"SFSFFSFJ2..355nR~PMmmMmmmmmmMmmmmmv3mmmmmb%mmmvommmn64&XAGKGKGGG",
"FSSFSFSSrO &46bLWRVmmmmmmmmmmmmmmmnommmmmb 4mm &mmn653o,ZGKGGGGG",
"SFFFFSSSf- o356mI!TNmmmmmMmmmmmmmmm b5mmoo3.%.onmb553%XrGGGGGGGG",
"FFJJFJJJZe  %46bNQ^TNmmmmmmmmmmmmmmm3o&% vmvvnmmb543o.-zGGKGKKGK",
"JJJJJJJJFZ  .356nP^~RVNmmmmmmMmmmmmmmv5vnmmmmmnv53&o *sSGJGGKGGG",
"FFJJJFJJJJ$  o346nVW~EUVNmmmmmmmMmMmmmmmMmmnbv53&o. *aGGHKHKHKHK",
"FJFJJJJJFJw@  %356bNYQQQWIMmmmmmmmmmmmmnbbv54&%o. ,1ZHHGKHKHKHHK",
"JFFSJFFJJJDr#  o&466nNPPLMmnmmmnnnnnnb6543&%o  +,rxGHKKHHKHKKHKK",
"KFJJJJJJJFFZp=  o%3455666666v6v6vv6543&oo    .=rZGGJKHKKHGKKHKHK",
"FJJJJJJJJJJKSj#.  o%&33333333&&3333&ooo  .$2ulFFGGGGGGGGGGGGGGGK",
"JJJJKJJJKJKKKSf*.    .oo.  ...  oo  .;2ixKKFJJJKJFJJFKKFFKFGFFFK",
"JKJJJKJKKGKGKKFg<o             o;9pcKKKKKKKKJJKKKJKFKFFJFFFKFFFF",
"JJJKJKJJKKKKKKJJl9;  XO..X$<qdcKKKKKKKKDKKKJKKFKJSKFFFKJFFFFFGFF",
"KJJKJJKJKKJKKKKKKDgytittgDKKKKKKKKKKKKKKKKKKKKJKKJFJJJJJFFFFFFFF",
"JKJJJJKKKKKKKKKKNKKJKKKKKKKKKKKKKKKKKKKKKKKKKJKKJJJJFJFJFJGFGFFF",
"JJKJKKJKKGKKKKJKKKKKKKDKKKKKKKKKKKKKKKKKKKKKJKFSKJJJJJFJFGFGGFGF",
"KJJJJJJKKKKKKKKKKKKKKKKKKKKKKKKNDKKKKKKKKKKFJJGGKJJJJJJJFJFFFFFF",
"KHKKKKHKKKKKKKKKKKKKKKKKKKKJJJJJKKJFSGAGSSSHSSASSSASSSSSFSSSSSSS",
"KKKKKKKKKKKKKGKKKKKNKJKKDKKKJFJJDKFFAJJAASSSSSSSSSSSSSASSSSSSSSS",
"KKGGKHKKKKKKKKKKKKKKKKKKKKKJJFJFKDKFSSGASSSSSSASHSSSSHSSSSSSSSSS",
"KHKKKKHKGKKKKKKKKKKKKKKDKKJJJJJFKKKDSJAGSSSHSSSSSSSSSSASSSSSSSSS",
"KKKHKKKKKKKKKKKKKDKKKKKKDKKKJFFFJJJSSAGSASSSSSSSSSSASSSSSHSSSSSS",
"KKKKGKKKKKGKKKKKKKKKKKKJKKKDJJJFFJJGSSSSSSSSASSASSSSSHSSSSSSSSSS",
"KKKKKGKKKKKKKKKKKKDKDKJKKJKKJJJJJJJASSSSSSSHSSSSSSSSSSASSSSASSSS",
"HKHKKGKGKGKKKKKKKKKKKKSJDJJDJAGAGASSSSGASSSSSSSSSSHSSSSSSSSSSSSH"
};
