/* XPM */
static char *result[] = {
/* columns rows colors chars-per-pixel */
"64 64 69 1 ",
"  c #010101",
". c #060308",
"X c #09040C",
"o c #0B0B0B",
"O c #0C0611",
"+ c #100717",
"@ c #110817",
"# c #100718",
"$ c #14091C",
"% c #131313",
"& c #1A1A1A",
"* c #190C23",
"= c #1E0E2B",
"- c #201327",
"; c #21112F",
": c #251235",
"> c #271138",
", c #2B153D",
"< c #242424",
"1 c #2D2D2D",
"2 c #333333",
"3 c #3A3A3A",
"4 c #2E1542",
"5 c #301646",
"6 c #341D40",
"7 c #321748",
"8 c #351A4B",
"9 c #3B1C54",
"0 c #3D1C58",
"q c #3B204A",
"w c #411E5D",
"e c #471F68",
"r c #442061",
"t c #4B246C",
"y c #4F286F",
"u c #522E65",
"i c #512575",
"p c #532875",
"a c #582D75",
"s c #55267B",
"d c #57297C",
"f c #582B7C",
"g c #5F317F",
"h c #444444",
"j c #4C4C4C",
"k c #545454",
"l c #5E5E5E",
"z c #636363",
"x c #6C6C6C",
"c c #747474",
"v c #7E7E7E",
"b c #5C2B84",
"n c #5F2C88",
"m c #632D8F",
"M c #613187",
"N c #65308F",
"B c #662E95",
"V c #662998",
"C c #663190",
"Z c #683492",
"A c #9C9C9C",
"S c gray65",
"D c gray68",
"F c gray71",
"G c #BDBDBD",
"H c #C3C3C3",
"J c #DDDDDD",
"K c #E2E2E2",
"L c #EBEBEB",
/* pixels */
"mmmmnBmCmCNNNBnCmNmmNmmmmmmnVmmVmmmm  *pCmmmmmmmmmnBmmmmBBCCBBCV",
"mmmmBnmNNCNNCCN  mNpmmmmmmmmmmnmVnmm.   0mmmmmmmmmmmmmmmCmBCCCCV",
"mmmmBBmCBNNBCNm     9mmmmmmmmmmmmmnmg    ,bBmmmmnmmmmmmmBBCCCBBV",
"mmmmnmmmNNCCCCmN     =bmmmmmmmmmmnnVm     *imBmmBmmmmmmmCCCBCCCV",
"BmmmmmmCCNNNBNmNm     *bmBmmmmmmmmmNNm     $dBmmmmmmmmmmCBBCBBCV",
"mmmmmmmNBCNNNNmNN      =nnmmmmmmmmmNmN      =bmmmmmmmmmmBCCCCCCV",
"mmmmmmmNNNCBCCNNm       9mmmmmmmmmmNNmm      4mmmmmmmmmmCCCBCCBV",
"mmNNCBNmBnBnBnNmma       dCCBmmmmmNNZZZ      XwCBmmmmBNNBCCCCCCZ",
"NCCCCCmmnBnBnmNNNN        NCNmNBmmNZNZ:       .rmCCCCnCNCCCCBCCZ",
"NNNCCCCmBnBnBmNmmNm        Mw,:::>9MZZ:        4CCmNCBCNZCZCCCZZ",
"NNCCmCCmmnBBmmmNNmm        X.. .   .$t          CBNNCCBNCCCCCCCZ",
"NCCCCCCmmBnCmBnNNm       .o%%&&%&&%%%o.         CnNBCCCCCCBCCCZZ",
"CCCCmCCCmmmBmmBnm     .%<1112223333111<&%.      MNNCCBnCCBCCCCCZ",
"CNCNCCCnmmmnmmCCeo  %&111113hjklkllkjjh32<%      NCCCCCCCCCCZCZZ",
"NNNNNNmCCCmCCCn8o .&1113hkllllllllllllllkh2<.   .NNCCCCCCBCCBCBB",
"NNNNNNCCCmCCCCt. .&113kkllllllllllllllllllj2<o   nNBCnBBCCBCCCCZ",
"NNNNNNNCCCnCCb   %11hkllllllllllllzlllllllllh1o  ,ZZBNNNCBNCCCCC",
"NNCNNNNCCCCM8.   12hllllllllllllllllllllllllllj.  MNCCNNCNBCBNBC",
"NNNNNNNCCCC8.   &2hllllllllllzlllllllllllllllll2  -NCmCCCCCCBCCC",
"NNNNNNNCCCyX   %13llllllllllllllllllllllllllllll&  NCCmCBNBNCCCB",
"NNCCNNNCNN=    <2kllllllzllllllll     lllll   llh  umCNNmBmBCCmC",
"mmmmmmmNNp    &1hllllllllllllllll  l   lll  l  ll&  mmmmBBBmVBVV",
"mmmmmmmNN:   o12klllllllllllllll  lllz  lz lll ll3o pmmNBBVBmBBV",
"NmmmmmmNbO   <23llllzlllllllllll llllll   llll  ll&  bmmmBmBVBBV",
"mNnCmmmCtX  %11hllllzlllllllllll llllll l lllll ll2. 5mmVBVmVVmV",
"mmmmmmMC9o .<12llllllllllllllllz llllllllllllll llj%  mNVmmBVmVV",
"mmmmCCMZ9  o113llllllllllllllllllllllllllllllllllll3  qmBmVVBmmV",
"mmmmMCCM4  &12hlllllllllllllllllllllllllllllllllllll<  MmVBmVVBV",
"ZCMZZZZZ:  &22jlllllllllllllllllllllllllllllllllllllj  8VBVBBBBV",
"ZCZZMZZZ; .<21kzlzlllllllllllllllllllllllllllllllllll& OBVBBBVVV",
"CZZZZZZZ;  <12kDxllllllllllllllllllllllllllllllllllllh..mBBVBBBV",
"ZZMZZZMZ: .<12lJDlzllllllzllllllllllllllllllllllllllllo iVVBVVBV",
"ZZMZZMZZ,  <13lKJlllzlllllllllllllzlllllllllllllllllll& rBBVBBBV",
"MZZZZZZZ8  &13kHKxllllllllllllllllllllllllllzlllllllll< tBBVBVVV",
"ZZZZZZNCp  %11kxKAzllzllllllllllllllllllllllllllllllzk< VVBBBBBV",
"NNNNNMmmn   12hlKJxllllllllllzlllllllllllllllll lllllk< BBBBBBBB",
"NNNNNmNmN.  &13lGLFxllllllllllllll llllll lllll lllllk& BBVZBVBB",
"NNCnmNNmm$  .<1hxLKSzlllllllllllll llllll lllll lzlllh%@BBVBBBBB",
"CCCNmNmmBt   %12kxJJAzllllllllllll llllll llll lllllh1.=BBZVBBBB",
"BCnNNmmmBm0   %12jvKKFczlllzlllllll  ll    ll  lllkh2<.9ZZBBBBBB",
"nCCmCCmmmmm4   &12hxFLLGzlllllllllll    ll    lllj311oOnVZVZVZVZ",
"mCCnmmmmNNmM+   %1123jxxlllllllllllllllllllllllk311<o 5BZVZVZVVV",
"CCmCmCCCNNZNyX   o&<11133jklllllllzllllllllllkh31<&. $BBVZVZZVZZ",
"CCCCCCCCZNNZm9.    .o%&&<1123hjjjkkkkjjjjjh321<&%.  #iZVZVZVVZVZ",
"MCNCCNCCCNCNCN4.         ooo%<112111<<<<<&%%oo     :CVZZVZVZZZVZ",
"CCCCCCCNCCCCCCm0.            oo%oo...           4:sBZVBVZVZVVZVZ",
"CCNCNCCCCNCCNCCZp99,@XOoo     o            @=0mCBBBBVZVVVZVZVZZV",
"CCCCCCCNCCNNCCZCZZZCCBNBCNNNZZZMCCCmNNNNNmBBBBmmCBBBZVZZVZZVZVZZ",
"NCCCCCBCCCZCZBCZZZZZZCZZMZCCZMZZNNNNNNNNNNBCCBCZBZBBBBBBBBBBBBBB",
"CCCCCCCZZCBZZZZZZZZZZZZZZZZZZZZZZZZZZZZZZZZNZCZNNNCCCCCCCZNCCCCZ",
"CCCCCZCZZBBZZZZZZZZZZZZZZZZZZZZZZZZZZZZZZZZZCZZZCCCCCCCCNNNBNNCN",
"ZCCCCCCCZZZBZZZZZxZMZZZZZZZZZZZZZZZZZZZZZCNZZNNZCCCCCCCCNNNNNCCN",
"CCZCZCCCZZZBZZZZZZZZZZZZZZZZZZZZZZZZZZZZZZCZCZCNZCZNNZCCNNBNNNBC",
"CZCCCCZCZBZZZCZZZZZZZZZZZZZZZZZZZZMZZZZZZZZNZCZZZCNNNNCCNNNNNNNC",
"CCZZCCCZBZZZZZZZZZZZZZZZZZZZZZZZZZZZZZZZZZZNCZNBCNZZZZNCZNNNNNNN",
"ZCCCCZCZBZBZZZZZZZZZZZZxZZZxZZZZZZZZZZZZZZZZCCCmZNNNNNCCNBCBNNNN",
"VZVZVZVZZZBZZZZZZZZZZMZZZZZZCCCCMZCNmmmmmmmbmmmmmmmVmmmmmmmmmmmm",
"ZZZZZZZZZZZZZZZZZZZZZZZZZMZZCCCCZZCnmmmmmmmVmmmmmmmmmmmVmmmmmmmm",
"ZZZZZZZZZBZZZZZZZZZZZZZZZMCZCCmCZMZNBnnBmmnmmmmmmmmmmmmmmmmmmmmm",
"ZVZVZZZVZZZZZZZZZZZMZZZMZZCCNNCCMZZNmBnBmmmmmmmmmmmnmmmmmmmmmmmm",
"ZZVZZZZZZZZBZZZZZZZZZZZZZZZZCCmCCNCmmBnBmmVmmmmmnmmmmmmnmmmmmmmm",
"ZZZZZZZZZBZZBZZZZZZZZMZZZMZZCmCCCCCBnCBnmmmmVmmmmmVmmmmmmmmmmmmm",
"ZZVZZBBZZZZZZZZZZZZZZZCZZZMZCCCCCnCnCnBnmnmmmmmmmmmmmmmmmnmmmmmm",
"VZVZZBBZBZBZZZZZMZZZZMmmMCMZmmmmmCBnBBnBmmmmmmmmmmbmmmVmmmVmmmmm"
};
