/* XPM */
static char *result[] = {
/* columns rows colors chars-per-pixel */
"64 64 77 1 ",
"  c #010101",
". c #0A0803",
"X c #060309",
"o c #09050C",
"O c #0B0B0B",
"+ c #0D0713",
"@ c #0E0814",
"# c #130C16",
"$ c #140A1B",
"% c #131313",
"& c #161219",
"* c #1C1C1C",
"= c #170C21",
"- c #1A0D24",
"; c #1D0E2A",
": c #1C1022",
"> c #211525",
", c #20102E",
"< c #220F30",
"1 c #251233",
"2 c #291536",
"3 c #2B153C",
"4 c #232323",
"5 c #2C2C2C",
"6 c #333333",
"7 c #3B3B3B",
"8 c #2E1641",
"9 c #311745",
"0 c #321945",
"q c #35194C",
"w c #3B1F4F",
"e c #3B1D53",
"r c #3E1E59",
"t c #3F2059",
"y c #42215D",
"u c #452162",
"i c #492566",
"p c #4C246C",
"a c #4E2570",
"s c #522675",
"d c #532974",
"f c #562A7A",
"g c #592C7D",
"h c #5D327A",
"j c #434343",
"k c #4B4B4B",
"l c #545454",
"z c #5E5E5E",
"x c #636363",
"c c #6D6D6D",
"v c #737373",
"b c gray47",
"n c #5D2D84",
"m c #5F2E88",
"M c #5E3083",
"N c #602F87",
"B c #632D8F",
"V c #613187",
"C c #65308E",
"Z c #662D95",
"A c #662998",
"S c #663190",
"D c #683392",
"F c #838383",
"G c #949494",
"H c #9D9D9D",
"J c #A4A4A4",
"K c #AEAEAE",
"L c #B1B1B1",
"P c #BBBBBB",
"I c #C3C3C3",
"U c #CACACA",
"Y c #D5D5D5",
"T c gainsboro",
"R c #E6E6E6",
"E c #F6F6F6",
"W c #FCFCFC",
/* pixels */
"BBBBmZZBBSCCSCBCCBCBCBBBmmZmBAnBBBBBBBBBCCBBBBBBBABBBBBBZZSSZZSA",
"BBBBBBmZZSCCZCCBZCBCBBBZZZmZBBAmmABBBBBBBCBBBBBBBmBBBBBBZBZSSSSA",
"BBBBBBBSCSBZZSBCCBCBCBBmBAZmBBBBBAmBBBBBBBBBBBBBBBBmBBBBCSSSSZZA",
"BBBZBBBCCCSSCSCBBSBBBBBBBmBZBBBBAmBBCBBBBBZBBBBBmBBABBBBSZSZSSSA",
"mZBBBBBBCZCCCZmSBCBq;iBBBBBBBBBBBBBCBCBCBCBBBBBBZBBBBBBBZSSSZDZA",
"BBBBBBBCCSCCCSCBCBC; <usmmBBmBBBBBBBCBCBCBBBBBBBBBBBBBBBSSZZSSZA",
"BBBBmBBZCSSZCBZCCCZfX   qnBBABBBBBBCCCBCBCBBBBBBmBBBBBBBDZSSSSSA",
"BBZCZCSBZmZmBZSmBBBBe   +emZBZBBBBCCDDDDuimCBBZSZZBBBZBBSSZDSSSD",
"SCSSSSZBmZBBBBBBCBCBu    $pBZCCCBCCDDVDD% $aCCSSCCSCCZBSSSZSSSSD",
"SSSSCCCZBBBBBBBBBCBC8    X1gCSCZZBCDDDDV5  #pZSBSCZCCSSCSSDSSSDD",
"SSSCSCSmBBBBBZZmCBZCyo    +yCCCSCCCDDVDCu   <sCBZCCCCSCCSSSSSDSD",
"CSCCSCSBBBBBBmBZBCCBmX     2nCCCCCCDDDDDio  o3gBCCZSSBZSDZSSSSDD",
"SSBSSSCZBBBBBZmZCBSCm;      fCSZZCCDDDCDD,   oqmSZCSBSSSSSSSSDZD",
"SSSSSSSmBBBBmZBBBCBBBy      ;CSSCCCCDCDCD$    +pmSZSSCSBSSSCSSCD",
"CCBSSBBSSSSSCSBBBBBBu<      XeVMDDCDCCDDDg     1nBCCCCCZSSSZSSSD",
"CCCCCCCSSCSSSCBBBBB8+        -033qyahDDCVy     +uSSCZSCSSZSCZZSD",
"SCCSCBSSCSSCCSBBBnuo    XOOO%%%XX@$:3dCCy$     X3nZBCCSDZCSZCZCS",
"SCBCCCCSSSSSCCBma3@  O*4*455544**%%OX@3f8o      $ymCCZSBZCSCSSZD",
"CSBSSCCSSSSSSCmu;  O&565677667777654**&3X        8nZBCCZCZCZSCSD",
"CCCCBSBSSCSCmu8$  @4567jjkkllkkllkkj755*O        ;mCDCCCSSSSSZSZ",
"CCCCSSCSSSCm0@   X457jllzzzzzxzzzzzzzkj654%      $CCCSCCBBBBZZCS",
"BBBBBBBBBSnqX   O47jlzzzzxzzzzzzzzzzzzllj75%X    2BBBBBBBZZZZBZA",
"BBBBCBBCCme+   O*6jlzzzzzzzzzzzzzzzzzzzzzlj5%X   2nBBBCZABBAZZZA",
"BBBBBBBCBu-   %*6jlzzzzzzzzzzzzzzzzzzzzzzzzj5O    pZBBBCZAZABZZA",
"BBBBSmSSm;X  O*5jlzzzzzzzzzzxzzzzzzzzzzzzzzlj5O  XmSBSBBZBZABBZA",
"BBBBBBBmu+   467lzzzzzzzxzzzzzzzzzzzzzzzzzzzl74X $mSBBBmZAZZZAAA",
"BBBBBBSf8  O*57jzzzzzzxzzzzzzzzzzxzlzzxzzzzzzl6% #umBBCSBBAAAZBA",
"BBBBmSSp;  &56jlzzzzzzzzzzzzzzzzz5jOO4lzzzzzzzk4X tBSBCSAZZBBBAA",
"DSDDDDDt@ %467kzzzzzzzzzxzzxzzzzk %jz47zk%47kzl7% >hSDSDAZZAZZAA",
"SSVDDVD3  *56jzzzzzzxzzzzzzzzzz7%OvETv*j*jj%%zzk*  SSDDVZAZZAZZA",
"DDSDDVh: X466kzzxzzzzzzzzzzzzzz* %HWEv57bTPj 4zl5 &hSSSDZAAZAAZA",
"DDSDDDi* %567lzzzzzzzzzzzzzzzz%  %vUF4j7LWEx 6zz7% tSSSSZZZBAZAA",
"DDDDSDr@X%56jcvxxzzzzzzxzzzzzzj*    % l*KRP4 %kzk*.wCSSSSZAZZZAA",
"DDCDDSqX 467lJGxzzzzzzzzzxzzzzzl64O  Ol Oj6  %zzz4X-hSSSZAZZAZZA",
"VDSDDCq  467lUIczxzzzzzzzzzzzzzzzlk54jkX   O*kzzl6O pSSSZZAZAZZA",
"VCCCCMe O467xYYxzzzzzzzzzzzzzzzzzzzllzz6X*44kzzzzj% 8ZDZZZZZZZZZ",
"DCCCBmq X46jxKIxzxzzzzzzzzzzzzzzzzzzzzzzlklzzzzzzk* 2mZSZZZDZZZD",
"CCCCCB2  *67zJUFzzzzzzzzzzxzzzzzzzzzzzzzzzzzzzzzzz5X:dSZZZZZZZZZ",
"BSCCCC;  %57lLTGxzxzxzzzzzzzzzzzzzzzzzzzzzzzzzzxzzkO pDZZZZZZZZZ",
"CZmCCCu  .56kGRPvzzzzzzzzzzzxzzzzzzxzzzzzzzzzzzzzzlO qZSZZZZZZZZ",
"ZmZCmCs;  *6jcYTGxzzzzxzzzxzzzzzzzzxzzzzzzzzzzzzzzl4 <ASZZDZDADA",
"BSSmSZme+ O57kFTPbzzzzzzzzzzzzzzzzzzzzzzzzzzzzzzzzl6o8SSZDAZADAD",
"SSSCSSSs:  &5jzKYJvzzzzzzzzzzzl5zzzzzzzzzzzzzzzzzzz5OqmAZDADADDD",
"SSSSSSSS8X o*6jcLUJvxzzzzzzzzz74zzzzzzlzzzzzzzzzzzl5XrZZDADADAAD",
"SSSCCSSCd@  O467xHUPvzzzzzzzzz46zzzzx64zzzzj4zzzzzl4+aZSDADAADDD",
"BSSSSCSSM0   O456jxxzzzzzzxzzxk5jzzzz47zxzz55xzzzzj*1CSADDADDAAD",
"SSSSCSCSCp=    %4567jlzzzzzzzzz6 kz46Okzzzk*jzzzzz7%tZADADADADAD",
"BSSSSSSSSCy$    .%*567klzzzzzzxl*XOX5% zz7.lzzzzzk5ofADADADADDAD",
"SSSSSSSSSSmr;+     O%*57jklzzzzzzzljzk %*.*zzzzzk7%$BZZZZZZDZDZD",
"SSSSSDSDDDDmau8@O.   OO%47jjllzlzzzzzzzk67zzllj754%9DCCCCZZCCZCB",
"SDSSSSZDDDDDDDCdt2*O    O*45567jjllllzzzzllkj7664%1sDCCBCCCCCZZC",
"SSSSSSSDDZDZDSDDDDDhi0:X  %%%%***5567jjjjy66654*O-umCCDDCDZCCCCC",
"DSSSSDDDDDSDDDDDDDDDDDDDgy5&. .  .O%%&***44*&%O @uMSSSDCCCSCCCSB",
"DSSSSSSDDDDSDSDDDDDDDDDDDDDDCdt>@      X.. .  o$iCSSSSCBSCZCDBDC",
"SBDDSDSDDDDDDDDDDDDDcDDDDDDDDDDDDVi0;$&;1-&1,9rNCSSSSDCDZCCCDBBC",
"SDSSSSSDDDDDDDDDDDDDDDDDDDDDDDDDDDDDDDMfMSCMgNZBSCSCSSSSCCZCBDCB",
"DDDDDDDDDDDDDDDDDDDDDDDVDDmSSSSSDCSCBBBBBBBmABBBBBBBBBBBBBBBBBBB",
"DADDDZDDDZDDDDDDDDDDDDDDDDDDBSBSCCSSBBBBAmBBBBBABBBBBBmBBBBBBZBB",
"DDDDDZZDDZDZDDDDDcVDDDDDDDDDDBSBCSSmBBBBBBmABBBmBBBBBBABBBBBBBBm",
"DDADDDDDDDDDDDDDDDDDDDVDDVCDCDSSCSSCBBBBBBBBmABBBBmABBmBBBBBmBBA",
"ADDDZDZDDDDDDDDDDDDDDDDVDVDDSBSBSSBBBBBBBBBBBmBBmBBBBmABBBABABBB",
"DDADDZDDDDDDDDDDDDDDDDDDDDDDSSSSSBBBBBBBBBBBABBAABAmBBBBBBmBBBBm",
"DDDDDDZDDDDDDDDDDDDDDVDDDDVDBSSSCSZBBBBBBBBBBBBmAmBBBBBBBBBBBBBB",
"DADDDDDZDZSDDDDDDVDDSDCSMDVDBBBBBBBBBBBBBBBmBBBBBBBBAmBBAmBBBBBB"
};
