/* XPM */
static char *result[] = {
/* columns rows colors chars-per-pixel */
"64 64 57 1 ",
"  c #010101",
". c #060309",
"X c #09050D",
"o c #0B0B0B",
"O c #0D0612",
"+ c #0F0815",
"@ c #100716",
"# c #110817",
"$ c #13091B",
"% c #131313",
"& c #1B1B1B",
"* c #170B20",
"= c #1A0D25",
"- c #1E0F2A",
"; c #200E2E",
": c #201227",
"> c #251234",
", c #2A143C",
"< c #242424",
"1 c #2C2C2C",
"2 c #343434",
"3 c #3C3C3C",
"4 c #2F1742",
"5 c #2E1841",
"6 c #301744",
"7 c #321947",
"8 c #321748",
"9 c #351A4B",
"0 c #3C1D54",
"q c #3E1D59",
"w c #3C214C",
"e c #3E2056",
"r c #3F2058",
"t c #421E5F",
"y c #42215C",
"u c #462263",
"i c #482366",
"p c #4D266D",
"a c #533065",
"s c #512673",
"d c #542A75",
"f c #56297A",
"g c #5A2C7E",
"h c #444444",
"j c #4C4C4C",
"k c #545454",
"l c #5E5E5E",
"z c #606060",
"x c #5D2D84",
"c c #5F2D88",
"v c #632E8F",
"b c #603187",
"n c #65308F",
"m c #662D95",
"M c #662998",
"N c #663190",
"B c #683393",
/* pixels */
"vvvvvvvvNNvNNNcNvnvnnvvvcvcmvvvvvvvvvvvvnvvvvvcmccmvvvvvmmNNmNmM",
"vvvvvvvvvNNNNvnmnvnmvvvmmvvvvvvvMvvvvvvvvnvvvvmvmvcvvvvvNvmNNNNM",
"vvvvvvvvNvNNmncNnnvnvvvccvvcvvvvcvMvvvvvvvvvvvvvvmmvvvvvmmNNmNNM",
"vvvvvvvNNmNvvNmNvvNnnvvvmvvmvvvvvvcvvvvpdnvmvvvvvcvvvvvvNNNmNNmM",
"mvNNnNNvvvvvcNmvvvnvnx>6vnNNNNnnNNNNNBy $nNNnnNnmvNNvNNnNBBNNBNB",
"nnNNNNNvvvvvmcnvNnvnmu .qnnNnNnmNNNNNyo XfNNnnmnvvnnmNnnNNNNNNNB",
"nNNNNNvmvvvvNcnvnvnvn>  .pnnNNNNnNnNp.  .rnmNNnnnNNnnnNnNBNNNNNB",
"NNnNNnNcvvvvvvvnvnvnx+   $xnNNnNNnngX    >nNNvmNNvmnnnmnNmNNNBBB",
"NnNnNNNcvvvvvvvvnvnv0.   .,NnNNbvNm9     =NmnnnnNNnnmNNNNNNNNBNB",
"nNnNNNNvvvvvvvvvvvvb$     odnNNNNNn:     XdnmNnNnNnvvNvNNNNNNNNB",
"nNNNNNNvvvvvmcvNvvv0.      6NnNNnnN@      $gnnNnNmNmnnnNNNNNNBNB",
"NnvNNvvNvvmvNNvvvmfO       $gNBNNNx.       =vnvnvvnNNnnnNmNmNNNB",
"vNvNnNnNNnNvNvvNvv,.       .enNNNNq         qvnvvnnNNvNvnmnmNNmN",
"NNnnnNnNnNNNNNvvvxX         wNBNBN-         OfvnnnNNNNNmnNNNmNmB",
"NnNnvNnNNnvNNNncv8          >BBBNaX          >vvvnNnNvvmNNnNnmNB",
"nnnnNnNnnNNNNNmNcO          #,>>>$           OvnnvmNNnNNNvmNNNmB",
"nnnNnnnNnnNNNNvvt.          . .              .nvvnNNnnNmnnvvNnNN",
"nnnNnnnNnnNnNNvN,         o%%&&%&&%%oo.       vnnnNNnnNNNNmvmvNB",
"mcmvvvvnnnvnnnNN*     .%<113hhhh332221<<%.    nnnvcmvvvnMmmmmMMM",
"cNvvvvvnnnnnnnNb.   o<12hjklllzllllllkkj3<%   xnnvvvvnvvmmmvmNMM",
"vvvvvvvvNvvnnnn6   &2jklllzllllzlllllllllk2<o ,bnvvvvvvnvmmMmvmM",
"vvnvvvvnvnnnnnp.  &hlllllllllllllllllllllll2<o ,svnvvnnnMMvvmmmM",
"nvvvvvvnnnnnnx   &jlllllllllllllllllllllllll3<o +pvvvvnvmvMmmMvM",
"vvnvvvvnnnNc9   %klllllllllllllllllllllllllllh1.  vvvvvvmMvMvvMM",
"vnnbbBNbNbB5   %kllllllllllllllllllllllllllzllh&  :nnnnbmvmmmvvM",
"NNNNBBBBBBdo  .klllllllllllllllllllllllllllllllh%  NNBNNMMMmmmMM",
"NNNBBBBBNN:   3llllllllllllllllllllllzllllllllll1  aNBBNMMmmmmMM",
"NBBBBBBBBdo  &kllllllllllzllllllllllllllllllllllk%  bBBNmmmMmMMM",
"BBbBBBBBB>   klllllllllzlllllllllllllllllllllllll2o dnnNmmmMMMmM",
"bBBBBbBBbo  <lkllllllllzzlllllzllllzlllllzlllllllj&  bBNMMmmmmmM",
"BbBBBBBzpo  hllllllllllllllllllllllllllllllllllllk1o 7NNmmmmMmmM",
"BBBBBbBBe   jlllllllllzllzllllllllllllllllllllllllh%  bnMmMmmmMM",
"nvnvvnvv9  %kllllllllllllzllllzlllllllllllllllllllk3. wmmmmBmmBm",
"vnvnnnvv6  hllllllllllzlllzzlllllllllllllzzlllllllll&  vmNmmmmmm",
"nnnvvnnm>  klllllzllllzllzllzllllllzlllllzllllllllllj  9mmBmBmmm",
"nvnvnvvv;  kllllllllllllllzllllllllllllllllllllllllll% Ommmmmmmm",
"vnvnnvnv;  jlllllllllllzlllzlllllllllllllllllllllllllho BBmmmmmm",
"nvvnnvvv>  hlllllllzlllllzlllzlllllllzllllllllllllllzko fmmMmmmm",
"vnnvvnvv,  1lllllllzllzlllllllllllllllllllllllllllllll& pMMBmMmB",
"NNNNNNNN9 .&llllzlllzlllllllllllllzlllllllzlllllllzllk<.pmBBmBMB",
"NNNNvNnNp  %klllzlllzzlllllllzllllllllllllllllzllzllzk< vmBmBmmB",
"NnNvNNNNv  .klklzlzllllllllllllllllllllllllllllllllllk< mmMBMBmB",
"NNnNnNNNN.  hllllzllllllllllllllllzlzlllzllllllllllllk& NMBmmmmB",
"NNNNNnNNN$  oklllllllllllllllllllllllllllllllllllllzkj%OmBMBBmmB",
"NnNNnnNNNs.  1lllzzzlllllllllllllllzllllllllllllllllj1o:mmBNmmmm",
"NNNnnNNNNNq   3lllzzzlllzllllllllllllllllllllllllllj2: yBBMMmBmm",
"NNNBNNNNBBB5   3kzzllzzlllllllzlllllllllllllllllllj11oXbNNNNnNBB",
"NNBNBNNBBBBb#   <jklllllllllllllllllllllllllzlllk32<o 6nmNNNnNNB",
"BNNNNNNBBBBBsX   o&hlzzlllllllllllllzzllllllzklh2<&  $bNnnNNnvnn",
"NNNBNBBBBNBBBe.    .%1hjklllzzlllllllkjjkkkkj31&%.  @snNNnnnNmnn",
"NBNNNNBBmBBmBN5.         .oo<hjjhh31<<<<<%%ooo     >bvNnNNNnmNnn",
"BNNBBNBBBBBBBNnr.             o%ooo ..          ,>dnNNNnNnmvnNNn",
"NNBBBBmBBBBBBBNBlre,%o%%o                  $-qvvBBnnNNmvvvvmnnnn",
"BBmBBBBBBBBBBBBBBBBBBBbBNNbBBBNNnnnncvvvvvvvvvvvvnvvvvvvvvvvvvvv",
"BBBBBBBBBBBBBBBBBbBBBbBbBBNBNNNNNNNvvvvvvvvvMvvvvvvvvvvvvvvvvvvv",
"BBBBBBmBBBBBBBBBBBBBBBBBNBBNbBNNNNnvvvvvvvvvcvvvvvvvvvvvvvvvvvvv",
"BmBBBBBBBBBBBBBBBzBBBBBbBNNBNNnNNnNmvvvvcMvcvvvvvvvvvvMvvvvvvvvv",
"BBBBBBBBBBBBBBBBBBBBBBBBBNNBvNNNNNNcvvvvvvvvvMvvvcvvvvcvvvvvvvvv",
"BBBmmBBBBBBBBBBBBBBBBBBBbBNBNNNNNnNmvvvvvvvvvvvvvvcMMcvvvvvvvvvv",
"BBBBBmBBBBBBBBBBBBBbBBBBBBNNNNNNNNNcvvvvMcvvcvvvvvvvvvcMvvvvvvvv",
"mMBBBBBBBBBBBBBbbBBBNnnnbbBbvvvvvvvvvvvvvvvcMcvvvvvvvvvvvvcMvvvv",
"BBBBBBBBBBBBBBBBBBBBBNNBBBBBNvNnvvvvvvcvvvvMvvvMvvMvvvvvMvvvvvvv",
"BBBBBBBBBBBBBBBBBBBBBNNNBBBNvNNNNvmvvvMcvvvvvvvccMcvvvvccvvvvvvv",
"BBMBBBBBBBBBBBBBBNNBBbbnnNbNvvvvvvvvvvvvvvvvvcvvvvvvvvvvvvcMvvvv"
};
