/* XPM */
static char *result[] = {
/* columns rows colors chars-per-pixel */
"64 64 67 1 ",
"  c #010101",
". c #060309",
"X c #09050D",
"o c #0B0B0B",
"O c #0D0612",
"+ c #100716",
"@ c #100817",
"# c #13091B",
"$ c #131313",
"% c #1B1B1B",
"& c #170B21",
"* c #1A0C24",
"= c #1E0E2A",
"- c #200F2E",
"; c #201327",
": c #231F26",
"> c #20102D",
", c #241133",
"< c #271238",
"1 c #2A143C",
"2 c #242424",
"3 c #29242C",
"4 c #2C2C2C",
"5 c #342E38",
"6 c #343334",
"7 c #3C3B3C",
"8 c #2E1642",
"9 c #2F1843",
"0 c #311646",
"q c #321847",
"w c #321748",
"e c #34194B",
"r c #3B1C54",
"t c #3F1C5A",
"y c #3C234B",
"u c #3F3A43",
"i c #421F5E",
"p c #41205B",
"a c #431E60",
"s c #472066",
"d c #4B246B",
"f c #512D64",
"g c #50286D",
"h c #4F2571",
"j c #522676",
"k c #532875",
"l c #542779",
"z c #57297C",
"x c #592A7E",
"c c #434344",
"v c #4C4C4C",
"b c #4D4752",
"n c #524D57",
"m c #545455",
"M c #5E5E5E",
"N c #5C5661",
"B c #5F5E61",
"V c #605C62",
"C c #606060",
"Z c #5C2B84",
"A c #5F2E88",
"S c #632D8F",
"D c #65308F",
"F c #662E94",
"G c #662998",
"H c #663190",
"J c #683492",
/* pixels */
"SSSSFFAFSDSHHDSDSDSSDZ,0SFSSGSSGZSSSSSr.&SSSSSSAGSSASAFSFFHFHHHG",
"SSSSASFSHDHHFDDSDDDDSa .rSSSZGSSSSSSSi. .lSSSSSSSSSFSSSSFSHFHFFG",
"SSSSSSSHSFDDHHDADSDDS,  XaSSSSSSGZGSs.  .rSSSSSSSSSSSSSSHHHHFHHG",
"SSSSSSSFHHDDSDFHSDSSAO   +ZSSSSSSSSlX    <SSSSAFSSAGSSSSFDFHHFHG",
"SSSSSSAHDHDFHHSDDDSSr     1SSSSSSSSe.    *SSSSSSSSSSSSSSHHHFHHFG",
"AFSSSSSDHDDDHSDSSDDA&     XlSSSSSSS=     XlSSSSSGASSSSSSFJFHFHHG",
"FSSSSSSFSHFDHHSDDSFr.      8SSSSSSSO      #zSSSSSSSSSSSSHFHFHFHG",
"SFSDSHDSFASSFASDSDzO       @ZSSSFSZ.       &SFDDSSFSSSHFHHFHHHHJ",
"HDDHDDSSSSSSSSSSSD1        .tDHDSSr         rHHDSHSHHHHSHHHHHHHJ",
"HHHHDHHSSSSSSSSSSZO         qHHDSS-         XzHFHHHHHSHHFHJFHHJJ",
"HHDHHDDSSSSSFASSSq          ,HDJHdX          <DFHSHSSHHHJHHHHHHJ",
"HHDJDDHSSSSSSFAFAO          @1,,<+           ODHHHHHSHSHHHHHHHJJ",
"HHHHDHSSSSSSSSSFa             .      .        HDFSHHHSHSHHHHFHHJ",
"HHHHHHHSSSSSSSHA1        .o$$%%%%%$$ooo       DDSHSHHSHFHFHHJHJJ",
"AHAHDHHHSHHSHHFA#     o$2467cccc7766642%$.    HSAHHHHHFHHHFHHFHF",
"HHHHDDSSHHHHHHFA.   o246ccmMMMMMMMCCMmmv64$   ASHHHSHSHHHFHHHHHJ",
"HHDDDDDHDHHHHHD9   %6vmMMMCMMMCMMMCMMCMMMm62. <SFHFDFDDHFDHFDSHH",
"HADDHDDHDHHDHDs.  %cMMMMMMMCCMMMMMMMMMMCMMM62o ,hHSHHHDDHHHFHFHH",
"HDDSDDDHDDHHHZ.  %vMMMMMMMMMMMMMMMMMMMMMMMMMc2o OgHHHSDDFHFHHHHH",
"HSDDDDDDDHDAe.  $mMMMMMMMMMMMMMMMMMMMMMMMMMMMc4.  AHHDDFDHDHFHHF",
"HSHHDDDHDHHq   $mMMMMMMMMMMMMMMMMMMMMMMMMMMMMMc%  ;DDDHHHHHHHHSF",
"SSSSSSSDDSh.  .vMMMMMMMMMMMMMMMMMMMMMMMMMMMMMMMc$  SSSDSGSGSGFFG",
"SSSSHASDDD;   7MMMMMMMMMMMMMMMMMMMMMMMMMMMMMMMMm4  fSSDSGSGGFSFG",
"SSSSSHSDDk.  %mMMMMMCMMMMMMMMMMMMMMMMMMMMMMMMMMMv$  SSSSHGFSGGFG",
"SHSSHAHAH,.  vMMMMMMCMMMMMMMMMMMMMMMMMMMMMMMMMMMM6o kSSSGSSFFFGG",
"SSSSHAHHAo  2MMMMMMMMMMMMMCMMMCMMMMMMMMMMMMMMMMMMv%  ZSDHGGFFFSG",
"SSSSAJJJd.  cMMMMMMMMCMMMMMCMCCMMMMMMMMMMMMMMMMMMM4. 0DSGSGSGFFG",
"SSHAJAAAr  .vMMMMMMMMMMMMCMMCMMCMMMMMMMMMMMMMMMMMMc$  ADSGFGSFGG",
"HHJAJJJJr  $MMMMMMMMMMMMCMCMMMMMMMMMMMMMMMMMMMMMMMm7. yDFFFGFGFG",
"JJJJJJJJ9  cMMMMMMMMMMMMMCMCMMMMMMMMMMMMMMMMMMMMMMMM%  DGFGGGFFG",
"JHHJJJAJ@  mMmMMMMMMMMMMMCMMMMMMMMMMMMMMMMMMMMMMMMMMv .eFFGFGFGG",
"JHJJJJJA  .mMMMMMMMMMMMMMMMMMMMMMMMMMMMMMMMMMMMMMMMMmo #FGFGFGFG",
"JJJDJJJJ   vMMMMMMMMMMMMMMMMMMMMMMMMMMMMMMMMMMMMMMMM7  OFFGFGFGG",
"DDJJJJJD> .7MMMMMMMMMMMMMMMMMMMMMMMMMMMMMMMMMMMMMMMv$  #FGFGFGFG",
"JJJJDJDJzX $7CCMMMMMMMMMMMMMMMMMMMMMMMMMMMMMMMMMMCm%   eFFGFFGFG",
"DDADDDSSSd. o7mCCMMMCMMMMMMMMMMMMMMMMMMMMMMMMMMMMm2   OSFGJGFFFF",
"ADDDFDSSSSd. .6CCCCCMCMMMMMMMMMMMMMMMMMMCMMMMMCCv%   .zFJGJGFFFF",
"DDDDDSDSSSSt.  2mCCMCCCMCCMCMMCCBMMMMMMMVVCMMMn6o    dFFGJGJFFJG",
"DDADSSSSSSSSa.  o6vMCCCMCMCMMCMMMBMMMMMMMVVMb:o    #ZFFHJGGFGJGJ",
"ADDDSSSSSSSSSl.   o27vMCMCMCCMMMBmmbcu542#X..    .8FFFHFGJJGJGJG",
"DDDSDDSSDDSSSSg+    .$26cvvMMmm722o.            ,ZJFFFJGFGGJGJGJ",
"DDDDDSDSDDSSSSDDxe#      .$oo$.             X-iSHJFFFFFJGJFGJGJG",
"DHDHDDDHJDFDSDJJHJHSde-+X.      O;=>,-118rdSFFFDFFJGJFJGJJGJJGGJ",
"DDHHHDDHDDDDSFFJJHJHHHSDDDShddddxHHSDSHSSSFFFDFFFFGJGFGJJGJGGJGJ",
"HHHHDDHHDDJJHHJHJFJHHHHHSDSSHHHHHHHSDDSDDSFFFSDDHGHGJGJGJGJGJJGJ",
"HHHHHHHHJDDDHHJFHJHJJHSFFHDHHHHJHDHDDSDDSDHFFFDFFFFHGJGJGJGJGJGJ",
"HHHDDHDHJDHHHHJJJFFJHSDHSDHHJHJJHHHSSDDSDDFHSSFFFFFFGGJGJGJGGJJJ",
"HHHHHHHHFFDHHHHJHJHJHDSFDSFHHHJJHDDSDSSDDSSHFFFFFFFFJGJJGJJGJGJG",
"AHHHHHHHHHJFJHJJJJJJJJJJJJJDJJJJDDDDDDDDDDHHHDHSFGHFFFFFFJFFFFFJ",
"HHHHHJHHJJFJJFJJJVJJJJJJJJJJJJJVJJJJJJJJJJHJHJHJJJHJJDJDFFDDFJFD",
"HJHHHHHJJFJJJJJJJJJJJJJJJJJJJJJJJJJJJJJJJJHJHJJDHHHHJDDFDDDDDDHD",
"HHHJHHHJJJJFJJJJJJJJJJJJJJJJJJJJJJJJJJJJHJJHJHJHJHHHDDDHDJDDDDDD",
"JHHHHHJHJFFJFJJJJJJJJJJJJJJJJJJJJJJJJJJJJJHJJJJJJHHHHHHHDDHDHDHD",
"HHHHHJHHJJJJJJJJJJJJJJJNJJJJJJJJJJJJJJJJJJJHHJHJHHHHHHHHDDFDHHHD",
"JJHHHHJJFJFJJJJJJJJJJJJJJJVJJJJJJJJJJJJJJJJHHJSFJHHHHHHDHHDDDDFD",
"HHHJJHHJJJHJJJJJJJJJJJJJJJJJJJJJJJJJJJJJJJHJJHHSJHDHHHHHHSFHHDDD",
"JGJJJGGJJFJJGJJJJJJJJJJJJJHJHHHHJJDDDDDSSSSSSSSSSSSSSSSSSSSSSSSS",
"JJJJJJJJJJJJJJJJJJJJJJJJJHHJDHDDDDDAADSSSSSSGASSSSSSSSSSSSSSSSSS",
"JJGJGJJJJJFJJJJJJJNJJJJJJJJJHHHHDJDDAFSSSSGZSSSSSSSSSSGSSSSSSSSS",
"JGJJJJGJJJJJJJJJJJJJJJJJAJHHDHHDAJDDFAFASSSGSSZGSSSSGZSSSSSSSSGS",
"JJGJJJJJJJJJJJJJJJJJJJJJJJJJHHSDHHFSSSSSSSSSSSSSSSSSSSSZSSSSSSSS",
"JJJJJFJJJFJJJJJJJJJJJJJJJJAJHSHHSHSSSSSSSASSSSSSAGSSSSSGSSSSSSSS",
"JJGJJJJJJJJJJJJJJJJJJJJJJJJJHHHHHHSSSSSSSSASSSSSZSASSSSSSSGSSSSS",
"JJGJFFJGJGFJJJJJJJJAJAAHAAJASSSSSASSSSSSSSGSSSSSGSGSSSSZGSZSSSSS"
};
