/* XPM */
static char *result[] = {
/* columns rows colors chars-per-pixel */
"64 64 60 1 ",
"  c #010101",
". c #060309",
"X c #09050C",
"o c #0B0B0B",
"O c #0D0612",
"+ c #100716",
"@ c #100817",
"# c #14091C",
"$ c #131313",
"% c #171718",
"& c #1B1B1B",
"* c #160A20",
"= c #1A0C25",
"- c #1D0E29",
"; c #210F2F",
": c #201327",
"> c #21112F",
", c #241134",
"< c #271238",
"1 c #2A143C",
"2 c #232323",
"3 c #2D2D2D",
"4 c #2E2B31",
"5 c #343434",
"6 c #3C3C3C",
"7 c #2E1543",
"8 c #301645",
"9 c #311846",
"0 c #331749",
"q c #34194A",
"w c #371950",
"e c #3B1C54",
"r c #3C234B",
"t c #421F5E",
"y c #431E60",
"u c #471F68",
"i c #462164",
"p c #482267",
"a c #4B236B",
"s c #512D64",
"d c #50286D",
"f c #4F2671",
"g c #512575",
"h c #532875",
"j c #542779",
"k c #57297D",
"l c #592B7E",
"z c #434343",
"x c #4C4C4C",
"c c #545454",
"v c #5E5E5E",
"b c #606060",
"n c #5C2B84",
"m c #5F2E88",
"M c #632D8F",
"N c #65308F",
"B c #662D95",
"V c #662998",
"C c #663190",
"Z c #683492",
/* pixels */
"MMMMMMMMNNNNNCmBNNMNNn,7MMMMMMMMMMVMMMw.*MMMMMMMMMMMMMMMBBCCCCBV",
"MMMMBmMBNCBCNCMNMNNMMy .eMMMMMMMMMnMMt. .jMMMMMMBmMMMMMMCMBCBCCV",
"BMMMMMMNCNNCCCNBNMNMM,  .uMMMMMMVMMVp.  .eMMMMMMMMMMMMMMBBCCBCCV",
"MMMMMMMNBNNCBCCmNMNNmO.  +nMMMMMnMVgX    <MMMMMMMMMMMMMMCCCBCCBV",
"MMMMMMMBNNBCNCmBMNNMe.    1MMMMMMMMq     =MMMMMMMMMMMMMMBCBCCCBV",
"MMMMMMMNCNNCNNNNNMMm#    .XgMMMMMMM-.    XjMMMMMMMBmBmMMCBZCBCCV",
"mMMMMMMNCBMNCBBmNNBe.      7MMMMMMMO      @kMMMMMmMMMMMMCBCBCBCV",
"BMCCBMNMBmBmBmCCMNkO       @nMMBMBn.       =MMBCMBVBMBMMCCCCCZCZ",
"CNCCCCCMmBmBmBBMNM1         tNCCMCe        .eCCCCCmBCCNNCCCCCCZZ",
"CCCCCMCMBmBmBmMMMnX        .9NBNMM;         OkCMCCCCMNNBZCBCCCCZ",
"CCCCMCCMmMMBMMMMM0          >CNCCaX          ,NNBNNCCCCCCCCZCCZZ",
"CNCMCCCMBMmBMMNMmO          @1,,<@           ONBNNNNNBMCCBCCCZCZ",
"CCNCCCCBMMMMMMMMy.             .     .       .CCCmCCNNNCCCCCCZBZ",
"CNNNCCNmMMMMMMMN1         o%$%&&&&%$oo        NNCBCCBCNCCCCNCCCZ",
"CNCNNNMCCCCCCCMM#      %2356zzzz66553332$     MNmCBNMCNBCCCBCBCZ",
"MNCNNNNCNCNCCCMm.   o236zzcvvvvvvvvvbccz53%   mMBNCNCCNCCBCBCCBZ",
"NNNCmCCMCCCCCCC0   &5xcvvvvvvvvvvvvvvvvvvc52. 1mCBNCNNNCBNNCCCCC",
"NCNNCCCCCCCCCCa   &zvvvvvvvvvvvvvvvvvvvvvvv52o 1fCCNBCNCCCBCBNBC",
"NNCNCCmZCMCCCn   &xvvvvvvvvvvvvvvvvvvvvvbvvvz2o OdBNNCBCBCCCCCCC",
"NNNNmCCCCCCm9.  $cvvvvvvvvvvvvvvvvvvvvvbvvvvvz2.  mNNNNCNCBNBCCB",
"CCmCCCCCCCC0   $cvvvvvvvvvvvvvvvvvvvvvvvbvvvvvz2  :MNNCCMMMMCCCC",
"MMCMBmMCCmf.  .xvvvvvvvvvvvvvvvvvvvvvvvvvvvvvvv6$  MMMMMBBBBVBVV",
"MMMMMMMMNN:   6vvvvvvvvvvvvvvvvvvvvvvvvbvvvvvvvv3  sMMMMBBMVBBBV",
"MMMMMMMCNh.  &cvvvvvvvvvvvvvvvvvvvvvvvbvbvvvvvvvx%  NMMNVBBBBBBV",
"MMMMNNNCm>.  cvvvvvvvvvvvvvvvvvvvvvvvvvvbvvvvvvvv5o hMMMVMVVMBVV",
"MMMCZmmCmo  &vvvvvvvvvvvvvvvvvvvvvvvvvvvvvvvvvvvvx&  nMMMVMVVMMV",
"MNMMmZZma.  zvvvvvvvvvvvbvvvvvvvvvvvvvvvvvvvvvvvvv5. 9NNBVMMVBBV",
"MMMMZmmZe  .xvvvvvvvvvvvvvvvvvvvvvvvvvvvvvvvvvvvvv6$  mNVMMVMMVV",
"CCmZZZZZe  $vvcvvvvvvvvvvvvvvvvvvvvbvbvvvvvvvvvvvvc6  rZVBBVBBVV",
"ZZZZZZmZ9  zvvvvvvvvvvvvvbbvvvvvvvvvvvvvvvvvvvvvvvvc&  NBVBBVBBV",
"ZCZZZmZZ<  cvvvvvvvvvvvvvbvvvvvvvvvvvvvvvvvvvvvvvvvvx .qBVVBBBBV",
"CCZZZZZZ> ocvvvvvvvvvvvvvvvvvvvvvvvvvvvvvvvvvvvvvvvvv% OVBBBVVBV",
"ZZZZZZZZ>  xvvvvvvvvvvvvvvvvvvvvvvvvvvvvvvvvvvvvvvvvvz. BBBBVBVV",
"NZZNNZZN> .6vvvvvvvvvvvvvvvvvvvvvvvvvvvvvvvvvvvvvvvvbco gBVBBVCV",
"mZZZZZZnX  3vvvvvvvvvvvvvvvvvvvvvvvvvvvvvvvvvvvvvvvvvv& pVBVVBVV",
"ZZNmNNMw   &vvvvvvvvvvvvvvvvvvvvvvvvvvvvvvvvvvvvvvvvvv2 aBBBBBBB",
"mNNNMNM7   $cvvvbvbvbbvvvvvvvvvvvvvvvvvvvvvvvvvvvvvvvc2 ZVBZBBBB",
"NNNmNNN7    cvvvbvvbvbvbvvvvvvvvvvvvvvvvvvvvvvvvvvvvvc2 BZVVBZBB",
"NNNNMMC1    cbvbvbbvbvbvbvvvbvbvvvvvvvvvbvvvvvvvvvvvvc& BBVBZBBB",
"mNNNCNN1   5bvbvbvbvvbvbvbvvvbvbvvbvvbvvvvvvvvvvvvvvvz$.BBZBVBBB",
"NNCMCCM7  ovvvvbvbvvvbvbvbvbvbbvbvvvvvvvbvbvbbvvvvvvv3oOBBVBZZVZ",
"NNCmMMMaX Xvvvbvbvvvvvbvbbbvbvvvvvvvvvvbvbvbbbbvbvvvc$ OBBZVVBZV",
"CCCCCCCC#  cvvvbvbvvvvcx66666666o$23556zxxcvbbvvvbvvx. =ZZVZZVVZ",
"CCCNCCCCi  &vvbvvvvvx&                      &6xccvvvv& 0BBZVVZVZ",
"CNNCCCNCN   &xvx665&           .                 .4z3..mVZVZZVZZ",
"NCCCCCCCN9             .+1pnNNNZNNlhpe1>#X        .   -BZVZVVZVZ",
"NCNCCNCNCN-          .#tMMBNZNZZNZNNMNCNMmf8@         eVVZVZVZZZ",
"CNCCCCCCCNN=       #1pMBNMNNZNZZNNNNNMMMBNBMMje#.   .<CZZVZVZVZV",
"NCCCCCCCCCZn@.  .<NZZCZZZZNNZZZbNZNNNNMNNMZMMBZNnt-*kBBBBBBBBBBB",
"CCCCCCCZZZBZZaqebZZZZZZZZNZZZZZZZZZZZZZZZZCZZZCCCNCCNZZNCCCBZCNZ",
"CZCCZCBZZZZZZZZZZZZZNZZZZZZZZZZZZZZZZZZZZZZCCZCZCCCCCCCCCNNNNNCN",
"CCCCCCCZZBBZZZZZZZZZZZZZZZZZZZZZZZZZZZZZZZZNZZZCCCCCCNCCNNNNNCCN",
"ZZZCCCZZBZZZZCZZZZZZZZZZZZZZZZZZZZZZZZZZZZZNZCZZZCCCCCCCNNCBNBCC",
"ZZCCCCZZZZBZZZZZZZZZZbZZZZZZZZZZZZZZZZZZZZZZCZZCCCCCNZCCNNCNNNNN",
"ZZCCCCCZZZCBZZZZZZZZZZZZZZZZZZZZZZZZZZZZZZCZNZMBZCCZNNCCBCNNCBNN",
"NCCCCCCCZBZZZZZZZZZZZZZZZbZZZZZZlZZZZZZZZZCZZZNMCCCCZNCCCCNNCNNN",
"ZZZZZZVZZZZZZZZZZZZZZZmZCZCZCCCCZZNNNNNmMMMMMnMMnMMMnMMMMMMMMMMM",
"ZVZZZZZZZZZBZZZZZZZZZZZZZCZZNCNCZZZNmNMMMMMMMVMMMMMMMMMMMMMMMMMM",
"VZVZVZZZBZZZZZZZZZZZZZZZZmZCCCCCNNNNMMMMMMnMMMMMMMMMMMMMMMMMMMMM",
"VZZZZZZZZZZZZZZZZZZbZZZZZZCCCCMCNNNNMMMMMMVMMMMMVMMMVMMVMMMMMMMM",
"ZZZVVZZZZZZZZZZZZZZZZZZZZZZmCCCCCNBmMMBmMMMMMMMMMMMMMMMMMMVMMMMM",
"ZZZZZZVZZZBZZZZZZZZZZZZmZZZZNNCNCNBMMMmBMVMMMVMMMMMMMMMMMMMMMMVM",
"ZZZZBZZZZZZZZZZZZZZZZZZZZZZZBNCCCCMMmBBmMMMMMMMMMMMnnVMMMMMMMMMM",
"VZZVZZBBBBZBBZZZmZZZZmCCmZmmMBmMBmBmBBmBMMnMMMMMMMMVMMMMMMnMMMMM"
};
