/* XPM */
static char *result[] = {
/* columns rows colors chars-per-pixel */
"64 64 212 2 ",
"   c #000000",
".  c #0D0A03",
"X  c #0A0703",
"o  c #110C04",
"O  c #181307",
"+  c #271B06",
"@  c #36260A",
"#  c #332412",
"$  c #2D1729",
"%  c #351D2C",
"&  c #2E1634",
"*  c #2D163C",
"=  c #2E1833",
"-  c #30163B",
";  c #351B37",
":  c #3B2327",
">  c #3E2235",
",  c #4D3217",
"<  c #442925",
"1  c #43233F",
"2  c #55362A",
"3  c #5B4516",
"4  c #65460F",
"5  c #634413",
"6  c #6A4918",
"7  c #734E17",
"8  c #7C5715",
"9  c #76531A",
"0  c #7B5818",
"q  c #6E5925",
"w  c #7D5A22",
"e  c #7B5828",
"r  c #6B4F2B",
"t  c #2E1642",
"y  c #2F1842",
"u  c #311645",
"i  c #321945",
"p  c #391C45",
"a  c #33174A",
"s  c #35194C",
"d  c #3A1D4C",
"f  c #371950",
"g  c #3A1A54",
"h  c #3E1C5A",
"j  c #3F2152",
"k  c #411E5D",
"l  c #431F52",
"z  c #401E4B",
"x  c #462547",
"c  c #432154",
"v  c #4A2654",
"b  c #43215D",
"n  c #4C265B",
"m  c #4D2957",
"M  c #532C5A",
"N  c #522E4B",
"B  c #441E63",
"V  c #491E6D",
"C  c #471F69",
"Z  c #4C1F72",
"A  c #462164",
"S  c #492365",
"D  c #4B236C",
"F  c #4F286C",
"G  c #552A6D",
"H  c #582B6E",
"J  c #522767",
"K  c #4E2472",
"L  c #512674",
"P  c #542A74",
"I  c #592C73",
"U  c #54267A",
"Y  c #56297B",
"T  c #592B7E",
"R  c #58277F",
"E  c #5D307F",
"W  c #835C19",
"Q  c #8C621C",
"!  c #886517",
"~  c #92661B",
"^  c #95681C",
"/  c #9D6E1D",
"(  c #9D771A",
")  c #A4781E",
"_  c #815C2D",
"`  c #846024",
"'  c #886629",
"]  c #956B26",
"[  c #9C732C",
"{  c #936931",
"}  c #A47423",
"|  c #A77922",
" . c #AC7A24",
".. c #A87A2D",
"X. c #B37E23",
"o. c #A67933",
"O. c #A97D35",
"+. c #907C46",
"@. c #AD841E",
"#. c #B2871F",
"$. c #AC8125",
"%. c #B68024",
"&. c #BA8425",
"*. c #BE8925",
"=. c #B58329",
"-. c #BB8529",
";. c #BE8A2B",
":. c #B28922",
">. c #BC9021",
",. c #BE952A",
"<. c #AF8236",
"1. c #A98736",
"2. c #B18336",
"3. c #BC8C3C",
"4. c #B78934",
"5. c #BE953A",
"6. c #DB951F",
"7. c #C28B25",
"8. c #C98D25",
"9. c #C18C2C",
"0. c #C58B27",
"q. c #C49325",
"w. c #CA9326",
"e. c #CB9A26",
"r. c #C5932C",
"t. c #CA942A",
"y. c #CD9C2C",
"u. c #D39427",
"i. c #D89627",
"p. c #D59C27",
"a. c #D89927",
"s. c #D4952A",
"d. c #D89728",
"f. c #D49C2C",
"g. c #D99B2B",
"h. c #C48E32",
"j. c #C88F30",
"k. c #C69233",
"l. c #CA9336",
"z. c #C59E35",
"x. c #CB9C33",
"c. c #CA953B",
"v. c #CD993C",
"b. c #C5943E",
"n. c #D49A30",
"m. c #DA9E34",
"M. c #D39B3B",
"N. c #D5A427",
"B. c #D8A827",
"V. c #D4A32B",
"C. c #D9A22D",
"Z. c #D9AB2C",
"A. c #D7A92E",
"S. c #CEA135",
"D. c #C8A33A",
"F. c #D3A535",
"G. c #DCA432",
"H. c #D5A934",
"J. c #DBAB34",
"K. c #D3A53B",
"L. c #DAA33E",
"P. c #D5AB3C",
"I. c #DBAC3B",
"U. c #DBB135",
"Y. c #DBB23D",
"T. c #CFA02D",
"R. c #E0A737",
"E. c #E2AD3B",
"W. c #E1AB37",
"Q. c #E3B23E",
"!. c #BFA558",
"~. c #BFAB67",
"^. c #CD9A42",
"/. c #C79541",
"(. c #D39E42",
"). c #D5A145",
"_. c #DAA445",
"`. c #DBAC45",
"'. c #D7A248",
"]. c #DBA549",
"[. c #D6AA45",
"{. c #DCB242",
"}. c #DEBA43",
"|. c #D9B345",
" X c #CFB35C",
".X c #E6B542",
"XX c #E5BB43",
"oX c #E3BE4B",
"OX c #C5AE64",
"+X c #C8B36D",
"@X c #CDB971",
"#X c #EDC451",
"$X c #E8C654",
"%X c #F2CE5A",
"&X c #D9C479",
"*X c #F7D769",
"=X c #E1CD7F",
"-X c #F5DC7F",
";X c #5C2B84",
":X c #5F2B89",
">X c #582483",
",X c #5E3083",
"<X c #602F86",
"1X c #632D8E",
"2X c #603186",
"3X c #65318E",
"4X c #642E91",
"5X c #662998",
"6X c #663190",
"7X c #683393",
"8X c #FBE691",
"9X c #F8E188",
/* pixels */
"1X1X4X1X1X1X4X4X4X1X4X6X3X4X1X3X4X1X6X4X1X4X4X1X4X4X1X1X1X1X1X1X1X1X1X4X1X1X1X1X1X4X1X1X1X4X1X4X1X4X1X1X1X1X1X4X4X4X4X7X4X4X7X5X",
"4X1X4X1X4X1X1X4X6X6X3X4X4X6X1X4X3X1X1X3X1X1X1X1X1X1X1X4X1X1X1X5X<X5X4X1X4X4X1X1X4X1X1X4X1X1X1X1X1X1X5X1X1X1X5X1X4X4X7X4X4X7X4X5X",
"1X1X1X1X4X1X1X6X4X6X3X6X6X4X3X4X3X4X1X4X6X1X1X4X1X1X1X1X1X5X1X1X5X1X1X1X1X6X6X1X4X1X1X1X4X1X4X1X1X1X1X1X1X1X1X1X4X4X7X7X4X4X7X5X",
"4X4X1X4X1X1X4X1X3X4X4X6X6X6X3X1X1X4X3X3X1X4X1X1X1X4X1X1X1X1X1X1X>X1X1X1X6X1X1X6X1X4X1X1X1X1X1X1X1X1X1X1X1X5X1X1X4X7X4X4X7X7X4X5X",
"1X1X1X4X1X1X4X4X6X6X1X6X4X6X1X3X3X1X1X1X1X1X1X1X1X1X1X1X1X1X1X1X1X1X<X1X1X1X<X1X1X1X1X1X1X1X1X4X1X1X1X1X1X1X1X1X4X6X7X6X4X7X4X5X",
"1X1X1X4X1X4X1X3X1X6X6X6X3X4X4X1X1X1X1X3X1X1X:X1X1X1X1X<X1X1X1X1X:X1X1X<X<X1X1X<X<X1X<X1X:X1X1X<X:X5X1X1X1X:X1X1X4X4X4X4X7X4X7X5X",
"1X4X1X1X1X1X4X4X6X6X1X6X3X1XI I I G I G ;X:X1X:X:X:X>XI               H R ;X<X>X;X<XT G L G G P K <X1X<X:X1X1X<X6X4X4X6X7X4X4X5X",
"4X4X4X4X4X4X1X4X1X1X1X1X1XI               ;X<X2X:X:XH   { O.2.2.2.<.{   H <XE <X<X;XM             H >X<X>X<X:X:X<X3X3X4X6X4X7X7X",
"6X6X6X6X6X6X4X4X1X4X4X1Xn   #.#.@.@./ ~ 2   ;X;X;X;X    =.(.].].].(.X.w   I ;XT T v   Q / @.@.@.:.  v ;X;X;X;X,X<X1X1X3X3X6X6X7X",
"6X6X3X6X6X6X3X1X1X1X1X4Xx   p.u.w.) @ 5 Q   n I J   W ^ W w ` ` ` w W ^ 8   S P v   ! 3 + ) q.e.N.  > T Y Y ;X;X:X<X3X1X1X3X3X7X",
"3X6X3X6X3X6X6X1X4X4X1X1Xx   *.u.&.X     ^ /   <   ( :.8               8 :.)   <   / 5     . 9 &.-.  > L L Y Y Y ;X;X;X3X3X3X6X7X",
"4X6X4X6X6X6X4X1X1X1X1X1XJ   ~ X.7.~ + 5 X.%.      B.!                   ! B.      %.X.5 + ) X. .Q   j F K K L Y T ;X;X2X2X3X3X7X",
"6X6X6X1X6X6X3X4X1X1X1X4X<XH       %.X.X.%.;.v.O.  B.                      %X  O.M.9.&.%. .%.      c A S S S K L Y T ;X:X3X3X3X6X",
"3X6X6X6X6X6X6X1X4X4X1X1X1XP @     %.&.%.&.c.'.<.  B.                      9Xq O.].l.x.x.&.%.    @ z k k A S S D K Y T ;X:X3X3X6X",
"6X1X3X6X4X3X3X6X4X3XI G G M   b.(.9.x.-.v./.2.[ 8 #.q.0               +.9X+X  [ O.b.M.I.P.S.K./.  > p ; d h A S F L Y ;X:X:X3X6X",
"3X3X4X3X3X3X4X6X3X;X        h.v.x.P.x.&.4.          >.#.4           e @X@X  '     { 4.x.P.P.{.K./.o       j h A D L P ;X,X:X:X6X",
"4X3X3X4X3X3X1X6X3X  ~ >.$.| k.P.P.r.&.X.    b.h.u.b.  ) q.>. X&X&X&X&XOX  / X.z.4.    %.;.P.P.I.{.K.,.>.!   h A S D Y Y ;X;X:X6X",
"4X3X4X3X3X4X3X<X  ! B.y.x.P.P.q O         ].m.g.R.i.3.  @.B.*X8X8X8X@X  / X.|.U.Y.Y.(     . @   4.x.P.S.B.!   j A S K L Y ;X:X1X",
"3X1X6X3X6X1X3XI   ! q.Y.P.5.O v b z     (.].m.u.h.M.-.}               } -.#XR.G.C.C.p.8   = & =   <.K.P.r.!   j b A D K Y Y ,X:X",
"4X3X3X4X6X6X<X  q @.F.P...e   S S   0 ..(.(.s.0.-.l.h.=.! w 9 7 7 5 , ;.K.g.R.Q.d.J.p.*.  $ t *   e ..P.H.@.7   j b D K L Y ;X:X",
"6X1X3X3X6X3XH   @.Z.Y.4.    F S B   9.m.m.m.j.0.%.%.k.c.v.k.-.%.&.#.$.P.G.R.#Xg.d..XR.g.D.  t t t     4.Y.B.@.  s k B D K Y Y ,X",
"1X1X4X4X1X1X    q.H.z.  m D F b   _ ^._.d.d.9.X.%.%.=.h.`.x.7.&.&.*.T.U.C.R.g.d.d.g.g.G.P.  $ & t * ;   D.P.q.9   h k C D K U >X",
"4X1X6X1X1X1X  @.Z.Y.`   F D S c   ].].m.u.j.9.X.%.%.q.S.Y.Y.V.&.&.&.*.Z.C.g.G.d.d.d.Q.G.G.Y.  & t t t   0 P.Z.@.  h h B C D L >X",
"4X1X1X1X1X1X  @.Z.P.O   D S b j   ]._.m.0.c.c.X.&.*.A.Y.A.$XH.&.%.%.&.H.Z.C.R.d.d.G.#Xu.q.$X  & t t u   7 Y.Z.@.  h h k B V D >X",
"1X1X6X1X4X:X  :.J.F.    S A b d   ].L.g.7.h.l.9.7.N.J.P.*.H.Y.>.%.%.&.*.V.}.E.g.G.*XE.i.&.Y.  & t t i   5 Y.Z.@.  g g h B C Z Z ",
"4X1X1X4X6X:X  :.Y.T.    A A b p   ].i.8.%.%.k.L.g.a.}.*.%.*.}.J.&.&.9.X.&.w.Z.#X*XXXg.W.%.w.  & u t u   6 Y.Z.@.  g g h h C Z Z ",
"1X6X1X4X1X:X  :.Y.y.    A b h p   i.M.j.%.%.&.t.i.I.V.%.%.%.T.Y.Y.{.e.&.#.&.#X#XZ.C.g.XX7.q.  & t u i   9 Y.N.$.  g g g h B V Z ",
"4X1X1X1X1X1X  @.H.S.    b b h p   i.j.9.%.%.*.f.i.I.N.%.%.%.*.J.f.{.V.:.&.*.{.#XW.d.R.G.f.*.o & t u i   9 P.q.@.  g g g h B C Z ",
"6X3X3X7X3X3X  ( k.P.5   A b h p   L.(.h.X.X.q.g.i.C.}.,.%.%.&.J.g.H.Y.q.7.7.g.g.g.g.R.W.y.*.X & i i i   @ P.-./   g h g h B C V ",
"7X6X7X3X3X3X  ( *.P.4._   c j p   ].(.l.&.X.q.g.a.p.oXH.&.%.*.C.f.&.r.C.u.8._.J.g.E.a.Q.q.w.  & t i   _ 4.P.-.~   g g g h h C V ",
"7X3X3X3X3X3XN X / S.P.[   j g p   (.l.l.9.0.M.g.a.7.r.Y.V.w.C.g.*.&.x.U.C.R.g.d.g.R.C.T.&.e.  * t -   [ v.{. .  ; h g g h B C V ",
"7X7X3X7X3X3XH . ^ -.P.D.r   g g ;    .;.n.d.P.g.u.&.&.V.}.I.g.y.&.X.&.7.Y.XX.XC.g.f..X*.k.  $ * u   r 4.K.x.^   a g g f h k B V ",
"7X7X7X3X3X3XT   7 ) r.`.o.  ; ; s   / 7.u.I.Y.g.0.%.&.*.J.g.G.7.X.&.&.*.S.p.Q.R.d.g.x.r.D.  * $ $   ] K.K.| 7   a g g h h k V Z ",
"3X7X7X3X3X3X2X;X    | S.K. .    ;   } X.u.n.C.g.7.%.:.*.C.f.G.e.&.X.%.r.G.i..Xd.g.G.9.f.,.  %     =.P.K.=.5   d g g g g h k B Z ",
"3X7X3X3X3X7X2X2X;X  9 } S.P.;. .    W | M.u.g.Y.N.*.&.T.oXC.g.g.d.*.*.#Xg.g.Q..Xg.g.:.D.1.    =.S.P.S.} 7   s f g g g h h B V Z ",
"2X7X3X3X3X3X1X;X;XU     } K.I.).(.      l.i.g.f.w.;.q.U.}.q.H.J.d.w.&.I.i.i.g.i.i.t.w.      ).Y.P.k.}     a g f f g g g h C V Z ",
"3X3X3X3X3X1X<X:X;XU F   ' v.`.{.`.3.    k.w.d.d.s.oXZ.Y.H.*.e.}.g.8.&.g.g.i.g.s.*.*.U.    /.{.`.'.b.'   i s s f f f g k B C V L ",
"7X3X3X3X1X1X1X:X>X;XU L     X K..X].    X.&.n.R.#XB.B.7.*.&.%.7.G.g.f.C.d.g.%X9.S.$X}.  # {.{.3.      a a a s f g g k k B V Z U ",
"1X4X3X3X1X3X1X1X:X>XU U S l 1 O P.`.2.    %._.R.Q.%XU.r.K.k.%.%.*.f.g.g.i.J.y.;.B.}.1.  D.{.3.  : & - t a a d d g h k k C D L >X",
"3X3X1X4X1X1X1X<X:X;X;XU L D S x 3 Y.^.{   X.;.K.R.Z.#Xk.oX|.*.%.&.w.g.g.N.V.&.e.H.x.' + `.`.  % * t a a a a s g h k B C D L U >X",
"4X1X6X1X6X1X1X1X1X>X>X;XR L F c O }.'.2.  ~ %.;.F.g.R.y.k.P.&.%.t.s.g.G.*.%.&.w.t.]   b.`.`.  & * t u a a a g g h k B D L U R >X",
"1X6X1X1X1X3X1X1X<X<X<X>XR L S   X {.`.'.O.  Q =.k.w.W.g.n.8.8.8.u.s.a.J.;.%.q.9.]   o.[.`.].  : * t u a s f g g k B C L U R >X<X",
"6X6X3X6X6X6X3X3X1X3X<X<X;XP     /.`.{.].].o.  ] h.%.n.I.L.f.g.G.f.d.p.y.;.r.k.o.  o.].].].]./.  : - u a f f g k B C K L R ;X<X<X",
"6X6X6X6X6X6X6X3X6X3X1X<X<XG   3.].].`.].].'.      %.&.-.&.[.[.f.x.&.&.%.%.k.      '.].].].].].3.  - a a f g k k C Z L R >X>X1X1X",
"6X6X6X6X6X4X6X3X3X1X3X3X<XI   O.'.].].].].^.      ) X.X.X.(.h.0.k.%.&.X.X.}       ^.].].].].'.O.  - a a f h B C D L Y >X<X1X1X1X",
"6X1X6X6X3X6X6X6X6X6X6X1X1X2XJ   3.].].].].    P.OX  X.X.X.(.h.c.M.%.X.&.X.+ OXP.8   ].].].].3.  & u a f g k B C K U R :X<X1X4X4X",
"6X1X6X3X6X6X6X3X6X3X6X1X3X<X2XI     O.3.    0 e.Y.-X    4. .} /  .4.]   X -XW.e.0     3.o.    * u u a f g k B D L U >X<X1X4X4X4X",
"6X6X4X6X3X6X6X6X6X6X3X6X3X1X2X;XP J     x   w x.d.G.!.'               ' OXa.a.x.0   :     * * * u a s g h B C K L ;X>X:X1X4X4X7X",
"6X6X6X6X3X6X6X6X6X6X6X6X6X6X:X:X,X,Xj j A X w ^.H.a.H.$./ / ^ / ^ ^ ^ $.F.d.g.^.w   & = * t y y u a g g h A D K Y ;X:X:X6X4X4X7X",
"6X6X6X6X6X6X6X7X7X7X7X6X6X6X7X,X2XE ,XF F X w ^.[.p.f.7.X.&.X.X.%.X.%.&.a.d.L.^.w   t t t y y i a a g g b A D L P ;X:X,X3X6X4X6X",
"6X6X6X6X7X6X7X7X7X7X7X7X7X7X7X,X2X,XE P F   w ^._.p.i.*.X.X.X.&.%.%.%.w.i.N._.^.w   t * t t i i a d g c A S K P >X;X;X:X:X1X3X6X",
"6X6X6X6X6X6X6X7X7X7X7X6X7X7X3X7X2X,XE E P X   ^._.I.a.i.0.X.&.X.%.%.7.a.i.L.`.^.    t t t y i s d g h A S D P Y ;X;X:X:X3X3X6X1X",
"7X6X6X3X3X7X3X7X7X7X7X7X7X7X,X7X2X2X2XE P X X . '._.G.d.t.h.&.X.7.0.u.d.G.].'.      y t i i s f g h b S F K P T ;X;X:X3X6X6X1X6X",
"6X6X7X6X6X7X7X7X7X7X7X7X7X7X3X3X3X2X2XE E E j r   _.g.g.g.f.g.d.i.g.m.(.].].  < = y t i i a s j h b S D K P T ;X;X1X<X1X1X3X4X3X",
"6X6X6X7X3X6X3X7X7X7X7X7X7X7X7X3X3X3X2X2X,XE I N 2   o ^.'.(._._.].].].^.    , & y y y i a d g h b A D K P T T ;X:X3X2X4X3X1X6X1X",
"7X6X6X7X7X7X7X7X7X7X7X7X7X7X7X7X3X3X3X2XE E E H m <     2.2.2.2.O.2.2.    # ; y y i i a d g j b S F F P T ;X;X,X1X2X1X1X6X6X6X6X",
"7X7X7X7X7X7X7X7X7X7X7X7X7X7X7X3X7X2X7X2X2X2XE E F m x                 < % & * t t u a s f h h B S K L U >X>X:X:X:X:X1X:X4X4X1X1X",
"7X7X7X7X7X7X7X7X7X7X7X7X7X7X7X7X7X7X2X7X7X2X2XE Y P P S A h j j g d a i i u u u a a s f h h B C D L U R >X:X:X:X:X4X1X1X4X1X1X1X",
"7X7X7X7X7X7X7X7X7X7X7X7X7X7X7X7X7X7X2X7X2X7X2X2X,XY P F D A h h g g s a a a a s s f g h h B D D L U >X;X:X<X:X1X4X1X1X1X1X5X1X1X",
"7X7X7X7X7X7X7X7X7X7X7X7X7X7X7X7X7X7X7X2X7X2X2X2X,X,XY P F D A b h g g d f f f g g g h k B C D L U >X;X>X:X1X:X1X1X4X1X4X1X1X1X1X",
"7X7X7X7X7X7X7X7X7X7X7X7X7X7X7X7X7X7X3X7X3X3X3X,X,X,X,XY L K D A A A h h g h g h k k B B D K L U Y >X;X:X:X1X5X1X1X1X1X1X1X1X1X1X",
"7X7X5X7X7X7X7X7X7X7X7X7X7X7X7X3X7X7X7X7X7X7X3X3X,X,X,X,XY L L F S A A B B k B B B C D D K L U Y ;X;X:X1X:X1X:X1X5X1X1X1X1X1X1X5X",
"7X7X7X7X7X7X7X7X7X7X7X7X7X7X7X3X7X7X7X7X7X3X6X6X6X,X,X,X;XP Y L K D D D S S S C D D K U L U ;X>X:X:X:X1X1X1X1X1X1X4X5X1X1X1X4X1X",
"7X5X7X7X7X7X7X7X7X7X7X7X7X7X7X3X3X7X3X3X7X3X1X1X:X:X:X,X;X>X;XY P L K K K K K K L L U U U ;X>X:X:X:X:X1X1X1X1X1X4X:X1X1X1X1X1X1X"
};
