/* XPM */
static char *result[] = {
/* columns rows colors chars-per-pixel */
"64 64 167 2 ",
"   c #000100",
".  c #060904",
"X  c #0A0C04",
"o  c #060D09",
"O  c #0E1106",
"+  c #07100A",
"@  c #0B130A",
"#  c #0D1A0F",
"$  c #111407",
"%  c #141907",
"&  c #121608",
"*  c #151A0A",
"=  c #191E0A",
"-  c #0D1C11",
";  c #121F12",
":  c #1D230C",
">  c #0F2215",
",  c #132414",
"<  c #1B2511",
"1  c #172817",
"2  c #1D2B14",
"3  c #132718",
"4  c #142B1A",
"5  c #1D2E19",
"6  c #1B331D",
"7  c #20270D",
"8  c #232A0E",
"9  c #212610",
"0  c #252D12",
"q  c #282F11",
"w  c #253215",
"e  c #2B3414",
"r  c #273817",
"t  c #2D3817",
"y  c #23351A",
"u  c #2B3719",
"i  c #243A1E",
"p  c #2C3C1B",
"a  c #303817",
"s  c #313C1B",
"d  c #1E1924",
"f  c #231928",
"g  c #1E3D24",
"h  c #232427",
"j  c #233C22",
"k  c #25362C",
"l  c #26392F",
"z  c #293B2A",
"x  c #252334",
"c  c #272A31",
"v  c #2E223D",
"b  c #30223C",
"n  c #322A3E",
"m  c #31303C",
"M  c #2C421E",
"N  c #33421F",
"B  c #1E4329",
"V  c #244226",
"C  c #2B4423",
"Z  c #2F4B27",
"A  c #254529",
"S  c #264C2D",
"D  c #2B4D2B",
"F  c #334522",
"G  c #344A25",
"H  c #344E29",
"J  c #2D522D",
"K  c #35542C",
"L  c #37582F",
"P  c #2E4335",
"I  c #2A4E30",
"U  c #2F423A",
"Y  c #2D4D3B",
"T  c #324939",
"R  c #265132",
"E  c #2D5532",
"W  c #2E5A35",
"Q  c #2C5D39",
"!  c #315630",
"~  c #335B33",
"^  c #385E34",
"/  c #31543D",
"(  c #325B3B",
")  c #2E613B",
"_  c #366137",
"`  c #396036",
"'  c #35643B",
"]  c #39663B",
"[  c #36693C",
"{  c #3A6A3D",
"}  c #301F42",
"|  c #371D4B",
" . c #381E4D",
".. c #372647",
"X. c #322F45",
"o. c #3B254D",
"O. c #353442",
"+. c #303A41",
"@. c #373449",
"#. c #3E2553",
"$. c #3F3054",
"%. c #3F3E54",
"&. c #402F56",
"*. c #42265C",
"=. c #462B5D",
"-. c #413355",
";. c #44355C",
":. c #443D5B",
">. c #462263",
",. c #4B2567",
"<. c #462A63",
"1. c #482966",
"2. c #4A2368",
"3. c #4E296C",
"4. c #4D326B",
"5. c #4F2970",
"6. c #502672",
"7. c #522B72",
"8. c #572B7A",
"9. c #582C7D",
"0. c #543172",
"q. c #354946",
"w. c #394A47",
"e. c #36424B",
"r. c #3B4549",
"t. c #345643",
"y. c #3B5245",
"u. c #365F42",
"i. c #3A514E",
"p. c #3C5F48",
"a. c #356243",
"s. c #396245",
"d. c #346B42",
"f. c #3A6E41",
"g. c #3B674C",
"h. c #376848",
"j. c #396D4A",
"k. c #367246",
"l. c #3B7243",
"z. c #367248",
"x. c #3B744B",
"c. c #37794C",
"v. c #3D7B4C",
"b. c #3D7E51",
"n. c #404D52",
"m. c #417949",
"M. c #3E814E",
"N. c #3E8352",
"B. c #428553",
"V. c #418A56",
"C. c #448E5A",
"Z. c #44925D",
"A. c #48935F",
"S. c #479760",
"D. c #4B9761",
"F. c #4D9C65",
"G. c #509F67",
"H. c #529F68",
"J. c #52A169",
"K. c #58A46C",
"L. c #5D2C84",
"P. c #5F3084",
"I. c #632E8E",
"U. c #65308F",
"Y. c #662E93",
"T. c #663290",
"R. c #683492",
/* pixels */
"R.Y.T.T.T.T.T.T.I.I.U.T.T.T.U.U.I.U.I.2.x.F.H.J.K.B.L G G G G F F s s s s a q 7 : * & X X .                                     ",
"R.R.R.R.T.T.Y.T.I.Y.Y.T.T.T.U.U.I.T.T.8.t.G.J.J.D.{ H H H H G F F F s s a a 8 7 : % $ X . .                                     ",
"R.R.Y.Y.T.Y.T.T.I.I.I.T.T.T.U.U.U.T.U.L.l F.F.H.m.K H G H H G G F F s s a 8 7 7 = & O X .                                       ",
"R.Y.R.Y.R.Y.T.Y.I.I.I.T.T.T.U.T.I.T.T.U.} W C.S.] G H G G H F F F s s a 8 7 7 7 % $ X .                                         ",
"R.R.R.R.R.R.R.R.T.U.U.T.T.T.T.T.T.T.I.I.9.v I v.^ H H H H G G F F s e q 7 8 7 = & $ .                                           ",
"R.R.R.R.R.R.Y.Y.U.U.U.U.T.T.T.T.T.I.I.I.Y.8.} E m.^ K H G H F F N a e e q 8 : = $ X .                                           ",
"R.R.R.R.R.R.R.T.U.U.U.T.T.U.T.U.T.I.Y.Y.U.I.9.v Z ] L ! H G F F a a e q q 7 = $ X X                                             ",
"R.R.R.R.R.R.T.T.T.T.T.T.T.T.T.T.T.I.I.L.3.*...h 5 j 0 2 u s s s a a e q 7 = % O X .                                             ",
"R.R.R.R.R.U.U.Y.T.Y.T.T.T.U.T.R.U.8.#.+.y.p.a.^ ! K Z F p 9 = 9 q q q 8 7 = O X .                                               ",
"R.R.R.R.R.Y.I.T.U.U.T.T.T.T.T.P.o.q.h.d.z.v.m.{ { ^ ~ K G z u q 0 7 = = & & X O .   .                                           ",
"R.R.R.R.R.U.T.U.T.T.T.T.U.R.T...t.N.N.b.B.v.v.l.] ^ L H F F F s u u q 0 7 = % & X .                                             ",
"U.R.R.R.R.U.T.T.T.T.T.T.R.R.5.P N.Z.Z.N.B.N.v.l.{ ^ K H F F s s a t a q 9 : % X X   .                                           ",
"U.U.R.R.T.T.T.U.T.R.R.T.T.T...z.S.Z.N.Z.V.N.m.l.{ ` L H F F s s e q 8 7 7 % $ X .                                               ",
"U.R.R.R.T.T.T.T.R.T.T.T.U.T.| B.D.D.S.N.V.B.B.v.f.] ^ K G s s s e q 7 : = & $ X . .                                             ",
"U.R.R.R.T.T.U.U.R.R.T.U.U.U.3./ x.x.j.h.u.u.( [ { d.` L G C s t q 8 7 : = & $ X . .                                             ",
"P.U.R.R.T.U.U.U.R.R.R.I.I.I.I.-.;.n.;.;.;.;.@.k D H ~ K H F F s e q 7 7 = % $ X . .   .                                         ",
";.7.R.R.R.I.U.U.R.R.T.U.U.U.T.L.8.L.L.U.9.>.@.Y [ [ ~ V i C F F s e 9 9 : = & $ X X .                                           ",
"s.n.0.R.T.I.I.Y.T.T.R.U.U.T.T.U.U.U.U.5.%.i.j.S.F.A.b.J j i i i u u a 0 9 7 : % $ X X                                           ",
"F.V.r.9.T.Y.Y.Y.T.T.U.T.U.T.T.Y.U.L.1.e.h.A.G.G.F.D.C.{ ` C y 0 w w w w q q 7 7 % $ X . .                                       ",
"S.S.z.-.I.Y.Y.R.U.U.P.0.4.1.L.T.I.<.q.B.F.G.F.F.F.A.B.a.] ~ K G z y 0 = = : : = & O X X                                         ",
"S.Z.Z.T 8.Y.Y.Y.U.8.$.q.t.U >.I.L.+.A.G.F.F.G.G.D.A.l.] ' ' ~ E Z V i = $ $ & $ X X     .                                       ",
"Z.V.V.' =.Y.Y.Y.L.@.a.N.Z.B.b I.6.t.F.F.F.G.H.H.G.A.f.] ~ E J S j 5 2 < 7 = = $ $ X . X                                         ",
"N.N.V.v.n I.Y.Y.$.[ V.Z.Z.Z.n I.#.h.G.F.G.H.F.D.D.B.f.W V g j j j y w 9 : = % $ X X . . .                                       ",
"v.M.m.m.z 2.Y.7./ M.M.v.M.N.n L.X.Z.F.G.H.B.x.j.c.c.E V S S D C j y 9 < = % $ O X X .     .                                     ",
"l.l.l.v.M d 3.m c.[ [ [ [ { k >.Y F.F.G.G.V Q R B R g Q W D C j w 9 = = & & X X X X     X                                       ",
"{ { { { S < d B l._ J J K [ g x b.F.F.F.V.6 N.N.z.4 4 Q E D j i 5 < = & & O O X X X X                                           ",
"^ ^ ` { J w < B [ Z M M G ~ J B F.D.D.S.v.V b.c.c.) 4 S R V 6 5 1 = * & $ X X X X   .   .       .                               ",
"L K L ` D w w V ! M M M M J [ i C.S.B.b.~ j z.z.d.d.g 4 D V 6 5 ; ; * @ @ X X X   . .       X                                   ",
"G G G L Z w y 6 ! M r r M M _ M ' j.' ] D i d.[ ) Q R - g g 6 , ; # @ + X X . . .   . .   . .     .                             ",
"N s F K C r M ; D M r r M M J M i ] ] ] D i _ ( J R S > @ # # @ @ . . o . . . . . . . . . .                                     ",
"a a s G i r M * V r r r q M M Z 1 ~ ~ ( j p E D A A j 3 @ 3 , - # @   + o o . . . .   X                                         ",
"e a a G 5 r M 2 2 r w 8 q t t M w i K ~ y j D V j 6 6 4 + 4 > - @ . o o o . . . .   .                                           ",
"q e r M : M M q % w w w q e t N u < H ! < j j j y 1 1 , o - - # + . o o   . .                                                   ",
"8 8 e w w M e e O 8 8 8 8 q e a z 9 C I * j y 5 < , ; - . - + o . . . . .   .                                                   ",
"8 8 8 : t e t q % : 8 8 8 8 8 e s 7 y C * y 0 < ; * ; @ . + o .   o   o .                                                       ",
": : : : M e q q : : 8 : 8 8 8 8 u 0 < y ; 2 ; * & @ @ +   . . . .                                                               ",
": : % 0 t e 8 8 % : 8 : : 7 : 7 0 0 = ; 9 = = & $ O + X   . . .   o                                                             ",
": % : t r q : : % : w : : = = : 8 0 % O = = & O X X X . . . .                                                                   ",
"$ $ w e 8 : : : O : : : % = % = : 9 * O = $ O X X . .     . . .                                                                 ",
"O % t w : % % % . % : % $ $ $ & = 9 * O $ O X X . . .   . .                                                                     ",
"X 8 e 8 : % & O X % & X O X X O & = & X O X X . .   .   .                                                                       ",
"X e q : % & X X   $ X X X X X X $ = $ X X X . . X       .                                                                       ",
"& q : % $ O X     X . .   X . X X O X   . . .   X                                                                               ",
"% 7 % $ X X     X     .       . . X X . . . .                                                                                   ",
"% % O X X .                 .   . . .     .                                                                                     ",
"$ O X .                           .                                                                                             ",
"X   .                                                                                                                           ",
"  . .                                                                                                                           ",
"      .                                                                                                                         ",
"  .                                                                                                                             ",
"                                                                                                                                ",
"                                                                                                                                ",
"                                                                                                                                ",
"                                                                                                                                ",
"                                                                                                                                ",
"                                                                                                                                ",
"                                                                                                                                ",
"                                                                                                                                ",
"                                                                                                                                ",
"                                                                                                                                ",
"                                                                                                                                ",
"                                                                                                                                ",
"                                                                                                                                ",
"                                                                                                                                "
};
