/* XPM */
static char *result[] = {
/* columns rows colors chars-per-pixel */
"64 64 167 2 ",
"   c #000100",
".  c #060904",
"X  c #0A0C04",
"o  c #060D09",
"O  c #0E1106",
"+  c #07100A",
"@  c #0B130A",
"#  c #0D1A0F",
"$  c #111407",
"%  c #141907",
"&  c #121608",
"*  c #151A0A",
"=  c #191E0A",
"-  c #0D1C11",
";  c #121F12",
":  c #1D230C",
">  c #0F2215",
",  c #132414",
"<  c #1B2511",
"1  c #172817",
"2  c #1D2B14",
"3  c #132718",
"4  c #142B1A",
"5  c #1D2E19",
"6  c #1B331D",
"7  c #20270D",
"8  c #232A0E",
"9  c #212610",
"0  c #252D12",
"q  c #282F11",
"w  c #253215",
"e  c #2B3414",
"r  c #273817",
"t  c #2D3817",
"y  c #23351A",
"u  c #2B3719",
"i  c #243A1E",
"p  c #2C3C1B",
"a  c #303817",
"s  c #313C1B",
"d  c #1E1924",
"f  c #231928",
"g  c #1E3D24",
"h  c #232427",
"j  c #233C22",
"k  c #25362C",
"l  c #26392F",
"z  c #293B2A",
"x  c #252334",
"c  c #272A31",
"v  c #2E223D",
"b  c #30223C",
"n  c #322B3E",
"m  c #31303C",
"M  c #2C421E",
"N  c #33421F",
"B  c #1E4329",
"V  c #244226",
"C  c #2B4423",
"Z  c #2F4B27",
"A  c #254529",
"S  c #264C2D",
"D  c #2B4D2B",
"F  c #334522",
"G  c #344A25",
"H  c #344E29",
"J  c #2D522D",
"K  c #35542C",
"L  c #37582F",
"P  c #2E4335",
"I  c #2A4E30",
"U  c #2F423A",
"Y  c #2D4D3B",
"T  c #324939",
"R  c #265132",
"E  c #2D5532",
"W  c #2E5A35",
"Q  c #2C5D39",
"!  c #315630",
"~  c #335B33",
"^  c #385E34",
"/  c #31543D",
"(  c #325B3B",
")  c #2E613B",
"_  c #366137",
"`  c #396036",
"'  c #35643B",
"]  c #39663B",
"[  c #36693C",
"{  c #3A6A3D",
"}  c #301F43",
"|  c #371D4B",
" . c #381E4D",
".. c #372647",
"X. c #322F45",
"o. c #3B254D",
"O. c #353442",
"+. c #303A41",
"@. c #373449",
"#. c #3E2553",
"$. c #3F3054",
"%. c #3F3E54",
"&. c #402F56",
"*. c #42255C",
"=. c #462B5D",
"-. c #413355",
";. c #44355C",
":. c #443D5B",
">. c #462263",
",. c #4B2567",
"<. c #462A63",
"1. c #482966",
"2. c #4A2368",
"3. c #4E296C",
"4. c #4D326B",
"5. c #4F2970",
"6. c #502672",
"7. c #522B72",
"8. c #572B7A",
"9. c #582C7D",
"0. c #543172",
"q. c #354946",
"w. c #394A47",
"e. c #36424B",
"r. c #3B4549",
"t. c #345643",
"y. c #3B5245",
"u. c #365F42",
"i. c #3A514E",
"p. c #3C5F48",
"a. c #356243",
"s. c #396245",
"d. c #346B42",
"f. c #3A6E41",
"g. c #3B674C",
"h. c #376848",
"j. c #396D4A",
"k. c #367246",
"l. c #3B7243",
"z. c #367248",
"x. c #3B744B",
"c. c #37794C",
"v. c #3D7B4C",
"b. c #3D7E51",
"n. c #404D52",
"m. c #417949",
"M. c #3E814E",
"N. c #3E8352",
"B. c #428553",
"V. c #418A56",
"C. c #448E5A",
"Z. c #44925D",
"A. c #48935F",
"S. c #479760",
"D. c #4B9761",
"F. c #4D9C65",
"G. c #509F67",
"H. c #529F68",
"J. c #52A169",
"K. c #58A46C",
"L. c #5D2C84",
"P. c #5F3084",
"I. c #632E8E",
"U. c #65308F",
"Y. c #662E93",
"T. c #663290",
"R. c #683492",
/* pixels */
"                                                                                                                                ",
"                                                                                                                                ",
"                                                                                                                                ",
"                                                                                                                                ",
"                                                                                                                                ",
"                                                                                                                                ",
"                                                                                                                                ",
"                                                                                                                                ",
"                                                                                                                                ",
"                                                                                                                                ",
"                                                                                                                                ",
"                                                                                                                                ",
"                                                  .                                                                             ",
"                                                                                                                                ",
"                                                      .                                                                         ",
"                                                        .                                                                       ",
"                                                      .                                                                         ",
"                                                    .   .                                                                       ",
".                                           .           . .                                                                     ",
". . .                           .   .   .   .   .   . . .                                                                       ",
"O O . . .                         . . .     . . .   .     .   .                                                                 ",
"O O O X . .         .   .   .   . . X X . . . .   . .   . . o                                                                   ",
"* * % $ X X X .   . .     .   . . X O O X X . X . . . .   o                                                                     ",
"9 = = * * $ X X . . X . . . . . X $ = % X O X X X X . .   . o                                                                   ",
"9 7 : : = % % O X O $ X X X X X $ = : = & & $ X X X X X . o . o .                                                               ",
"q q 7 7 7 : = % $ X * * $ O $ $ % = 9 = % * % $ $ X X X o   o     .                                                             ",
"a q q 7 8 8 7 : * $ = : = $ % & = 9 q : & = = % $ O X X o . o o . .                                                             ",
"a a a 7 8 q 8 8 7 & 7 8 = = = = = q q = & 7 < = % $ O $ O   o o .                                                               ",
"a s s a q q q q 7 * 0 q 9 7 : 7 9 q 0 < = < 9 < * % $ $ O . + + o . .                                                           ",
"N s N s q a a q q = q t 0 7 7 7 q e 0 2 j 9 w 9 : * ; & @ .   o o o                                                             ",
"N N N N s s a a e 7 e a q 8 q q q s 0 y A 5 y w 9 ; ; ; # o O o   o . .                                                         ",
"N F F F N N a a q 0 u a t e q e a s 0 z D j j i y 2 9 < ; o # @ +     . .   .                                                   ",
"G F G F G F F s 9 q s s a a u s F i 0 Z E A j A j y 5 5 3 @ - - # +   o .                                                       ",
"G F G G G G F s = u F s s s s F G y y K ~ J V D C j g 6 6 # 3 , - + o . o   . .                                                 ",
"G G G G G G G s 9 z F F F F C F C i C ~ ' E g I J A V V 6 - 3 4 > # + . o o o                                                   ",
"G G G H G H H i p G G F F G G H i j _ ] ' ~ V S W E D S V + @ + o . o     .     . .                                             ",
"H H H G G H L 2 F K H G H K L K A E { { ] ] E B W Q S 4 - , 3 3 , ; @ o o . .                                                   ",
"K H H H H K L w Z ~ L L L ^ ` K ~ m.C.m.l.f.f.E g 4 3 B R S g 6 1 ; * @ o X . . .   .                                           ",
"m.] K G H ^ ] i K ` ^ ^ ` ] { J ' A.F.S.C.A.V.v.R 4 ) d.Q D V 6 1 , ; & X X .   .                                               ",
"K.F.m.] ^ f.I 6 ! ] ] ] { f.d.D a.F.F.F.G.G.D.c.B z.c.d.( E A j 5 < * % $ O X . . . .   .                                       ",
"K.K.G.D.m.E v h ( l.l.{ v.v.' l Y A.F.F.G.H.D.j.R N.c.z.[ Q D V y 5 < * & O X X X .                                             ",
"H.H.G.C.I b L...s.v.v.m.v.B.a.O.@.x.F.G.G.J.F.v.Q N.N.z.[ ) E D V y 2 < = & O X X   . .                                         ",
"H.G.G./ v 8.I.#.s.m.V.N.B.M.' ;.<.i.Z.F.F.H.G.B.j i V i i i i j j i y 2 ; = $ O X . .                                           ",
"m./ k } 9.I.Y.6.y.v.N.N.B.B.a.;.9.;.h.F.F.F.G.H.G.B.v.W D D C y < ; & ; 9 = = $ O X X . .                                       ",
"2.8.L.P.Y.I.I.L.+.h.v.N.Z.N.d.<.P.5.e.N.F.F.F.F.G.F.A.M.[ _ _ W ! H C y ; X @ O O X . .                                         ",
"Y.T.T.Y.I.I.I.Y.#.g.N.N.Z.Z.z.4.L.U.1.q.A.F.G.F.F.F.S.C.[ [ L J H C i < = * & % $ O X . . .                                     ",
"Y.U.T.T.T.U.Y.U.7.q.N.S.N.F.x.%.L.T.L.1.+.Y j.A.F.F.F.Z.{ [ ~ M < < 9 0 q 0 0 9 = % O X . .                                     ",
"P.U.U.I.T.T.U.T.T...t.N.S.S.x.%.9.T.U.U.L.6.>.X.Y v.F.Z._ i < w i s p u q 9 < = = O X X                                         ",
"Y.I.T.I.T.T.T.T.T.P.o.Y k.v./ -.P.T.U.T.I.I.I.L.>.x V j M M C M N t e 8 7 7 = $ O X . .                                         ",
"I.Y.I.I.I.T.T.T.R.R.U.5.| o.3.I.T.T.U.L.>.b n n c k E [ _ Z M M t e q 7 7 = % O X . . .                                         ",
"T.R.T.T.T.T.T.T.P.T.R.R.T.T.U.I.U.T.U.3.U B.Z.N.k.' ~ K M M r M e q 8 7 = = = $ X X .   .                                       ",
"R.T.R.R.T.T.T.T.T.T.R.T.U.T.T.I.U.U.U.4.t.Z.Z.M.[ K Z M M M e r q 8 7 7 7 7 % $ X X .                                           ",
"R.R.T.T.T.T.T.T.U.T.R.U.T.T.U.T.T.T.T.3.q.N.Z.v._ J M M r r r 8 q 8 8 8 8 7 = % $ X .   .                                       ",
"T.P.I.I.I.I.I.T.T.T.U.R.T.T.T.T.T.T.T.L.;.' C.M.[ K M M r w w w q 8 8 8 8 q 7 = $ X X                                           ",
"I.I.I.Y.I.T.I.T.T.T.T.R.R.R.T.R.T.T.T.T.8.@.' N.{ ' J M M M r r w 8 7 : : = * % % X . .                                         ",
"I.I.Y.I.I.T.T.I.U.T.T.U.R.R.R.R.T.T.T.U.U.L.&./ c.{ ' ! J J M 2 @ $ % % = & $ X . . .                                           ",
"T.U.T.T.U.R.R.T.T.I.T.T.T.T.Y.U.T.Y.Y.Y.Y.Y.I.6.m V B B 6 - : < w e e 8 8 : : % O X                                             ",
"T.T.T.U.R.T.T.R.I.T.T.T.T.T.U.I.I.U.Y.Y.Y.Y.Y.Y.3.3 7 w w M M M M e r q 8 8 : : $ O X                                           ",
"T.U.T.T.R.U.R.R.T.T.T.T.T.T.I.I.I.Y.Y.I.Y.Y.I.,.f < w w 6 r r r M M w e q q : : * & O . .                                       ",
"T.T.T.T.R.R.R.R.T.T.T.T.T.T.T.T.U.R.R.U.8.=.O.z V D J D D M M 5 8 w r e M e : : = * O X X .                                     ",
"T.R.T.Y.R.R.R.R.R.R.R.R.R.R.R.R.R.R.8.-.T [ v.v.x.l.{ ^ L K G N M 5 : : q t e q 7 7 % O X   .                                   ",
"T.T.R.Y.R.R.R.R.R.R.R.R.R.R.R.R.R.7.r.x.C.V.B.v.l.{ ^ L K N N a t e w : % : w t e q 7 % O X .                                   ",
"R.R.Y.R.R.R.R.R.R.R.R.T.T.T.T.T.0.i.N.A.Z.C.B.v.l.] ^ K N N a e q q 8 : : % O : 0 q q 7 * X . .     .                           ",
"R.R.R.R.R.R.R.R.R.R.T.T.T.T.T.L.;.h.F.A.Z.C.B.v.m.] ^ L G N a e q 8 : : : % O O X X $ * % $ X . .                               "
};
