/* XPM */
static char *result[] = {
/* columns rows colors chars-per-pixel */
"64 64 196 2 ",
"   c #000100",
".  c #060902",
"X  c #090D04",
"o  c #0D1305",
"O  c #0F1A05",
"+  c #0E170A",
"@  c #101607",
"#  c #111B06",
"$  c #121708",
"%  c #151D09",
"&  c #171917",
"*  c #132306",
"=  c #162A06",
"-  c #182E07",
";  c #152209",
":  c #1A2409",
">  c #162C0A",
",  c #1D2B0B",
"<  c #1A3307",
"1  c #1C3907",
"2  c #1D320B",
"3  c #1E3B08",
"4  c #172B11",
"5  c #1A2E11",
"6  c #1C261A",
"7  c #1C3512",
"8  c #1F3A15",
"9  c #212E0C",
"0  c #23340D",
"q  c #243B0D",
"w  c #243C13",
"e  c #293D11",
"r  c #223E1A",
"t  c #253513",
"y  c #241C2D",
"u  c #21162B",
"i  c #291F34",
"p  c #2D1C3D",
"a  c #212423",
"s  c #25242D",
"d  c #262B28",
"f  c #2C382B",
"g  c #2C2535",
"h  c #2B2A33",
"j  c #2E223A",
"k  c #31263E",
"l  c #332A3E",
"z  c #2E3731",
"x  c #333C35",
"c  c #36373D",
"v  c #353E39",
"b  c #313137",
"n  c #1F4008",
"m  c #23430C",
"M  c #244A0E",
"N  c #254413",
"B  c #294413",
"V  c #264B12",
"C  c #2A4B15",
"Z  c #25441B",
"A  c #2B451A",
"S  c #274A1C",
"D  c #2C4C1A",
"F  c #2A5215",
"G  c #2D531B",
"H  c #2E5A1D",
"J  c #30561F",
"K  c #305B1F",
"L  c #2A4622",
"P  c #2A4C22",
"I  c #2D432A",
"U  c #324B2D",
"Y  c #2C5123",
"T  c #2E5921",
"R  c #315624",
"E  c #325C23",
"W  c #34512D",
"Q  c #335B2A",
"!  c #395C2F",
"~  c #3A453D",
"^  c #354A33",
"/  c #3B5537",
"(  c #346325",
")  c #366826",
"_  c #36642A",
"`  c #376929",
"'  c #396C2D",
"]  c #3C702E",
"[  c #3A6432",
"{  c #3A6D31",
"}  c #3E7433",
"|  c #3F7339",
" . c #445C3E",
".. c #406635",
"X. c #456C3C",
"o. c #426639",
"O. c #407636",
"+. c #417936",
"@. c #44743B",
"#. c #437C3B",
"$. c #48783F",
"%. c #2F1C40",
"&. c #3C1E54",
"*. c #3F1F58",
"=. c #371A4E",
"-. c #37214A",
";. c #3A2B4A",
":. c #372846",
">. c #3F354F",
",. c #3C2153",
"<. c #3E2D50",
"1. c #401F5B",
"2. c #413A4E",
"3. c #412A57",
"4. c #41225B",
"5. c #462363",
"6. c #4C256C",
"7. c #482465",
"8. c #4F2671",
"9. c #512774",
"0. c #532975",
"q. c #56297B",
"w. c #582B7E",
"e. c #55277C",
"r. c #434A47",
"t. c #465E41",
"y. c #484A50",
"u. c #4D6748",
"i. c #4D7443",
"p. c #497B41",
"a. c #457A40",
"s. c #527449",
"d. c #527C46",
"f. c #577452",
"g. c #46813E",
"h. c #48833E",
"j. c #468341",
"k. c #4A8543",
"l. c #4D8A46",
"z. c #4D8D49",
"x. c #528D4B",
"c. c #5A894C",
"v. c #548547",
"b. c #53924D",
"n. c #5C8E51",
"m. c #5F8754",
"M. c #559551",
"N. c #5A9551",
"B. c #5B9A54",
"V. c #5E9E59",
"C. c #64835D",
"Z. c #649655",
"A. c #629B57",
"S. c #66945A",
"D. c #629E5A",
"F. c #6A9C5D",
"G. c #64A25C",
"H. c #69A55F",
"J. c #6E9D61",
"K. c #6CA561",
"L. c #6DAA63",
"P. c #66A560",
"I. c #71AC66",
"U. c #76A66A",
"Y. c #74AD68",
"T. c #79AA6C",
"R. c #73A464",
"E. c #76B16A",
"W. c #7BB46D",
"Q. c #7CAD70",
"!. c #7EB770",
"~. c #7EB870",
"^. c #81B472",
"/. c #83BC74",
"(. c #89BF79",
"). c #87C078",
"_. c #8BC37B",
"`. c #90C87F",
"'. c #5D2D85",
"]. c #5E2B88",
"[. c #5F3085",
"{. c #632E8F",
"}. c #64318E",
"|. c #603087",
" X c #652E91",
".X c #663190",
"XX c #93CC83",
"oX c #97D086",
"OX c #9BD58A",
"+X c #9FDA8E",
"@X c #98D087",
"#X c #A1DC8F",
"$X c #A2DD91",
"%X c #A6E395",
"&X c #A8E697",
"*X c #ADED9C",
/* pixels */
"{.{.{.{. X X]..X.X.X.Xq.s _ | [ ( R T H G S Y.I.P.V.j.8 o O o o X . . .     .                                                   ",
"{.{. X{. X]. X.X.X.X.X-.a.V.B.b.l.h.+.] ( 8 a.I.P.Q + + * O o o X X . .                                                         ",
"{.{.{.{. X X{..X.X.X.X:.x.G.M.b.l.g.} ) ( F = < * * = * O O O o X X X . .     .                                                 ",
"{.{.{.{. X].{..X.X.X}.,.@.B.M.b.h.#.] ) H F M n 1 < - * * * O O O X X X . .                                                     ",
"{.{.{.{.{.].{..X}..X}.w.d x.b.x.h.#.] ) H F M q 1 < = * O O + O # + o X                                                         ",
"{.].{.{. X X{.{..X.X.X}.8.6 ` l.k.#.] ' K H M > * > Z S Z Z 7 ; X . .                     .                                     ",
" X X{.{. X{.{. X.X.X}..X{.|.1.h I R E ( H N _ j.b.z.j.| { ` T V G w , % o o o X X X X . .   .                                   ",
" X X X X X{. X{.{.{.{.{.{.{.}.{.q.,.-.6 Q V.L.G.M.z.j.} ) _ Y 7 D D B e 0 0 9 : % $ $ . . .                                     ",
".X.X.X.X.X.X X{.{.{.{.{.{.].e.q.9.0.1.o.W.E.P.V.M.k.#.{ ( E G B A B q q 9 9 9 9 % $ X . .                                       ",
"{..X{..X{..X{.{.{.{.{.8.;.r.u.u.s.X.t ^./.E.L.V.M.k.#.} ` E R C B e 0 0 9 9 : % % $ o . . .                                     ",
".X.X.X{..X.X.X{. X{.,.t.^.$XOXXX(.N.i._./.E.L.V.M.z.j.} { E R D B e 0 0 9 % : : % $ o X .   .                                   ",
"{..X.X.X{..X{.{.{.e.u.%X&X$X@X(./.A.d._./.W.L.H.B.b.l.g.} [ E Y B B 0 0 9 9 9 % % $ $ X X .                                     ",
".X{..X.X.X{..X{.{.e.C.*X&X+XXX).W.L.T T./.!.E.P.G.B.M.z.j.#.{ ( J B e 0 9 9 9 % % $ $ X X X                                     ",
".X.X{..X.X.X.X{.{.].c (.%X+XXX).W.L.x.Z d.P.J.b.a.[ Y 8 7 7 8 Z R R D B t 9 9 9 : % $ $ X . .                                   ",
"}.{.{..X.X{.}.{.{.{.0.k  .T._._.~.E.G.l.Q Z Z M S V P S C N q 2 % @ , A A e t 9 9 & % $ X X X .                                 ",
"{..X{.{.{.}.{.{.{.{.}.{.w.4.g ^ F.W.L.V.z.g.} ` ( ( T F C C M q q 9 * o $ 9 t 0 9 9 : % $ X . .                                 ",
".X{.{.}.{.{..X{.}.{.}.{.|.9.-.a W A c.H.A.x.#.] ( ( H G F C N q 0 , * # X X X X X . . .                                         ",
"}.{.{..X.X{.{.}.{.}..X|.k u.^._._.R.! P x.V.b.#.' E H F C N 0 ; @ % 9 9 : % @ X . .                                             ",
"{.{..X{.{..X.X{.{.{.|.1.J.$X#XXX).W.L.k.S P #.l.#.' H w > > Z D F B q 9 : % @ X .   .                                           ",
".X{.{.}.}.{.}.{.{.{.{.2.`.%X#XXX).W.I.G.M.@.P 8 Y 8 r Y E E Y C B q 9 , ; % @ X . .                                             ",
"{..X{.{.{.{..X{.}.}.}.3.S.%X#XoX_./.E.H.V.x._ % S { } ` E F B q 0 0 , : ; $ @ X . .                                             ",
"{.{.{.{..X{.{..X.X.X.Xw.:.u.R.(._.).!.L.@.P Q a.h.} _ K F C M e q 2 , = ; $ @ X .                                               ",
"{.{.{.{.{.{.{..X.X.X.X.X{.6.4.2.r.r.^ L [ x.M.l.O.( K J D C B m q 0 , , ; $ o X .                                               ",
"{.{.{.{.{.{..X.X.X.X.X.X.X.X{.].4.g ^ n.D.M.l.} ) ( K J F C B m q 0 , : ; # o o . .   .                                         ",
"{.{.{.{.{.{.{. X X|.7.7.7.1.l  .u.A.I.H.M.l.g.] ) K K H F D B m q < 0 , ; % o o . .                                             ",
"{.{.{.{.{.{.{. X X1.C.U.U.R.^.^./.W.H.B.z.g.} ) ) ( H H F D B B e q 0 , : % $ X .                                               ",
"{.{.{.{.{.{. X X.Xy.$X*X&X#XoX(.W.I.G.b.l.g.} ] ) ( H H H G G F q = $ . .                                                       ",
"{.{.{.{.{.{. X X.X-.^.*X&X#XXX(.W.L.G.b.l.h.#.} ' ) _ ( ( S , o X X X .   .                                                     ",
"{.{.{.{.{.{.{.{..Xw.x oX&X#XXX(.!.I.H.B.z.k.g.} } } ) Z * o O O O X . . . .                                                     ",
"{.{.{.{.{.{.{.{..X.X6.z ^.#X#X`.).!.I.H.V.b.z.h._ 7 O * * * # # o o . .                                                         ",
"{.].{.{.{.{.{.{..X.X.Xw.p U Z./._./.!.L.N.@.S * > 1 1 - * * * O o o . . .   .                                                   ",
"{.{.{.{.{.{.{.{..X X X.X{.|.4.j z ^ z & O 8 G F M 3 1 < - * O # O o X . . .                                                     ",
"{.{.{.{.{.{.}..X.X{.}.{.}.{..X}.[.,.6 F ) ( H M m 3 < 1 - = * ; O O o .   . X . .                                               ",
"{.{.{.{.{..X}..X.X.X}.{.8.1.j a Z E } +.) ( F M m 3 3 < - < , = o o # : , ; # o . .   .                                         ",
"].{.{.{.{.{..X.X.X{.{.i ! h.l.z.j.g.+.] ) H F M m 3 1 1 2 * o % 8 B q 0 : % @ X .   .                                           ",
"{.{.{.{. X{.}..X.X.X|./ A.N.b.l.j.g.+.] ) H F M m n 3 - o w G J B q 0 : * $ X X X                                               ",
"{.{. X{.}.}.}..X.X.X|. .A.N.b.l.j.g.} ] ) K H M M 1 O 1 Q ( G B q 0 , : % $ o X .                                               ",
"{. X{. X}.}..X.X.X.X}.g @.N.b.l.h.g.+.] ) K F F - 5 _ } ( F B m 0 < - : % $ X X .   .                                           ",
"{.{. X{..X.X.X.X.X.X}.w.k ! k.k.k.#.} ] ) K F 4 R j.| ) E C B m q 0 , : % $ o X .                                               ",
"{.{.{.{..X.X.X.X.X.X.X.X|.4.g I U W W P f 6 4 a.z.j.} _ K F B q 0 0 , , % $ X X . . . .                                         ",
".X{..X{..X{..X}..X.X.X.X.X.X}.|.q.0.9.0.6.s p.B.z.#.] _ T F V N q , ; ; % % 9 % % $ $ . .     .                                 ",
"{..X{.{.{..X.X}..X.X.X.X.X.X.X{..X}..X'.l p.P.M.z.#.} ' _ G N 5 = , r A e e 9 9 % $ X . .                                       ",
"{.{.{.{.{.{..X}.}..X}.}.}.|.w.|.[.[.}.4.o.I.P.B.z.j.| [ Z 7 7 Y E R D B 9 9 9 : $ o X . .                                       ",
"{.{.{.{.{.{..X.X}.8.3.;. .^ ~ x x b l z I.E.P.V.b.| Y 8 P { { T J A e 0 9 9 9 % % $ X X   .                                     ",
"{.{.{.{.{.{.{.|.-.U @.x.N.b.x.h.+.+.) ! !.E.K.x.Q Z Q | } ` K D B e e 0 9 9 : % $ $ X X . .   .                                 ",
"{.{.{.{.{.{. X1.@.H.G.A.b.z.h.#.+.] ) [ /.K.[ Z a.z.j.} ( J D D A B e e 9 9 9 : $ $ X . .                                       ",
"{.{.{.{.{.{. X4.n.H.G.B.b.l.h.+.] ) ( r X.L X.B.b.j.} ( E J G D B B e 0 9 9 : % $ $ X . . .                                     ",
"{.{.{.{.{.{..X7...G.G.B.b.+.' _ H M 7 L v.D.V.@.{ } _ ( E J F D C B e 0 9 9 : : % $ X .                                         ",
"{.{.{.{.{.{.{.{.p z $.N.` ! d.c.Z.F.U.E.L.V.l.T ' ' _ ( E H F D A B e e q 0 0 , % @ o .   .                                     ",
"{.{.{.{.{.{.{.{.{.e.1.s 5 #X#X#XXX_.!.I.G.N.z.g.+.} ) ( E T J D C D A A 0 % o . . .                                             ",
"{.{.].{.{.{.{. X X{..X|.1.R.#X#XXX_.W.I.G.b.z.h.| } ' ( ( T R T J w % X .                                                       ",
"{.{.{.{.{.{.{. X{..X.X.Xw.s /.#XXX_.W.I.G.B.b.k.g.} } { { _ P > $ o X X X     .                                                 ",
"{.{.{.{.{.{.{. X.X{. X.X.X9.z J.XX`./.W.L.G.B.b.l.j.#._ Z * o O # o o . .                                                       ",
"{.{.{.{.{.{.{.{..X.X.X X.X.Xq.:.W c.I.W.E.L.G.z.| P 4 + + * * * # o o X . .                                                     ",
"{.{.{.{.{.{.{.{..X{..X.X.X.X.X1./ c.@...| [ ( Q Q _ Q 8 * O * * O O o . .   .                                                   ",
"{.{.{.{.{.{.{.{..X.X.X.X.X.Xw.f XXXX/.L.A.n.b.z.j.#.} { T 7 o * * o o o . .                                                     ",
" X X X X X X X.X.X{..X.X.X.Xq.C.@XXX/.W.L.G.M.k.#.O.' ` ( E N # o # o X X .                                                     ",
" X.X X X.X.X.X.X.X.X.X.X.X.Xq.d.@XXX).W.L.V.b.k.#.{ ` E E K G B ; X X . .                                                       ",
".X.X X.X.X.X.X.X.X.X.X.X.X.X|.a XXXX).!.Y.G.M.k.+.' ( E F C C B B q # .                                                         ",
".X X X X X X.X.X.X.X.X.X.X.X.X8.U (._./.E.L.V.z.#.] ( K F C m q m q 0 9 % X . .   .                                             ",
" X X.X.X X X X.X.X.X4.1.w.{.{.{.9.u ^ i.N.H.G.M.l.| ) H F B m 0 0 0 0 9 , ; $ o . .                                             ",
".X.X.X X X X.X.X.X0.f._.f.2.8.|.}..X}.8.=.y f [ k.j.} E F B q q < - , : : $ $ o X                                               ",
" X X.X X.X.X.X}..X1.^.*X&X`.d.^ h j %.%.i y y + o r { ' K B q 1 0 - , ; $ $ o X . . .                                           ",
".X X X X.X.X.X}.}.1.U.*X&X#X@X`./.W.L.G.G.D.V.M.z.{ 4 r E F m 0 9 , = : % @ o X .                                               "
};
