/* XPM */
static char *result[] = {
/* columns rows colors chars-per-pixel */
"64 64 198 2 ",
"   c #000100",
".  c #060903",
"X  c #090D04",
"o  c #0D1305",
"O  c #0E1A05",
"+  c #0E140A",
"@  c #101507",
"#  c #111B06",
"$  c #111508",
"%  c #141C08",
"&  c #181F09",
"*  c #132306",
"=  c #162906",
"-  c #182E07",
";  c #16230A",
":  c #1A240A",
">  c #15290B",
",  c #1D2C0A",
"<  c #1B3307",
"1  c #1D320A",
"2  c #1E3C08",
"3  c #1A2B15",
"4  c #1B2718",
"5  c #1C3413",
"6  c #1F3914",
"7  c #212E0C",
"8  c #23340C",
"9  c #253C0D",
"0  c #283D0F",
"q  c #212F1D",
"w  c #223612",
"e  c #233D14",
"r  c #293D12",
"t  c #223D19",
"y  c #1F1C24",
"u  c #241E2D",
"i  c #291B36",
"p  c #2E1D3D",
"a  c #232925",
"s  c #24252A",
"d  c #262A29",
"f  c #29342A",
"g  c #2B3C28",
"h  c #2A2333",
"j  c #2C2C32",
"k  c #2E213C",
"l  c #322E3B",
"z  c #30213E",
"x  c #2D3133",
"c  c #333E35",
"v  c #353C3B",
"b  c #35373A",
"n  c #1F4011",
"m  c #24430D",
"M  c #24490D",
"N  c #244313",
"B  c #294413",
"V  c #264C13",
"C  c #2A4C15",
"Z  c #25451B",
"A  c #2C4519",
"S  c #274B1B",
"D  c #2B4C1A",
"F  c #295215",
"G  c #2D531C",
"H  c #2E5A1D",
"J  c #305C1E",
"K  c #2A4226",
"L  c #2A4B22",
"P  c #2E4929",
"I  c #324D2D",
"U  c #304929",
"Y  c #2D5323",
"T  c #2F5824",
"R  c #315521",
"E  c #325C23",
"W  c #32542A",
"Q  c #345C2A",
"!  c #395F2C",
"~  c #384837",
"^  c #3B5D33",
"/  c #3A5634",
"(  c #346325",
")  c #366529",
"_  c #39652F",
"`  c #37682A",
"'  c #3A6D2D",
"]  c #366826",
"[  c #3C712F",
"{  c #3B6332",
"}  c #3B6C32",
"|  c #376631",
" . c #3D7333",
".. c #3F7439",
"X. c #426B36",
"o. c #43633A",
"O. c #436C3A",
"+. c #4A6D3F",
"@. c #407635",
"#. c #417936",
"$. c #447D3B",
"%. c #46733D",
"&. c #311945",
"*. c #371D4C",
"=. c #381E4D",
"-. c #3F1F59",
";. c #3B1D54",
":. c #322242",
">. c #362B44",
",. c #39214F",
"<. c #373141",
"1. c #393246",
"2. c #3F384A",
"3. c #3E2354",
"4. c #3D2951",
"5. c #411F5D",
"6. c #423D4D",
"7. c #43225E",
"8. c #46285F",
"9. c #423155",
"0. c #462363",
"q. c #482565",
"w. c #4B256B",
"e. c #4E2670",
"r. c #522675",
"t. c #532975",
"y. c #562A7B",
"u. c #5A2B7E",
"i. c #444F46",
"p. c #434948",
"a. c #445741",
"s. c #4E5A53",
"d. c #4A6344",
"f. c #506D49",
"g. c #4C7C43",
"h. c #4F7544",
"j. c #527349",
"k. c #557B4A",
"l. c #537F47",
"z. c #5C735A",
"x. c #46813D",
"c. c #48833F",
"v. c #478241",
"b. c #4A8543",
"n. c #4C8A45",
"m. c #4D8C49",
"M. c #548349",
"N. c #538D4B",
"B. c #57884A",
"V. c #53924D",
"C. c #5D8D51",
"Z. c #559550",
"A. c #599551",
"S. c #5C9B55",
"D. c #5F9E59",
"F. c #648B5A",
"G. c #619455",
"H. c #619D59",
"J. c #6C9F5E",
"K. c #639A57",
"L. c #65A25C",
"P. c #69A55F",
"I. c #6B9760",
"U. c #709867",
"Y. c #6BA661",
"T. c #6DA963",
"R. c #67A560",
"E. c #71A462",
"W. c #71AD66",
"Q. c #77A66A",
"!. c #74AF68",
"~. c #79A86E",
"^. c #76B16A",
"/. c #7BB46D",
"(. c #7CAB71",
"). c #7EB570",
"_. c #7EB871",
"`. c #84BC75",
"'. c #84B975",
"]. c #87C078",
"[. c #8CC47C",
"{. c #8FC87F",
"}. c #90C87F",
"|. c #5D2D84",
" X c #5F2D88",
".X c #632E8F",
"XX c #64318E",
"oX c #652F91",
"OX c #663190",
"+X c #93CB82",
"@X c #98D187",
"#X c #9BD58A",
"$X c #9FDA8E",
"%X c #97D086",
"&X c #A0DC8F",
"*X c #A2DE91",
"=X c #A6E395",
"-X c #ACEB9B",
/* pixels */
"                                                        . . . . o O O o >  .S.L.T.^.Q S T T E ( `  .} a q.OXOXOXOX.X.X.X.X.X.X.X",
"                                                      .   . . X o o O O O O K D.T.A.6 E '  .c.n.V.A.H.N.l oXOXXXOXXX.X.X.X.X.X.X",
"                                                    . . . . X X o o O * * = * O < = M J ] [ #.c.N.A.H.S.~ oXXXOXXXXX.X.X.X.X.X.X",
"                                                    .   . . o o O O O * * = < < n M F H ] [ #.c.n.A.S.n.l XXOXOXOX.X.X.X.X.X.X.X",
"                                                      . . X O @ O O O O * > < 2 m M V H ( [ #.x.N.V.A.K q.XXOXOXoX.X.X.X.X.X.X.X",
"                                    .                     . X X ; 5 n n n n 5 * * m F J ] [ #.x.c.#.3 0.XXXXOXXXoX.X.X.X.X.X.X.X",
"                                        X X X X X X X X # , w D Y Y | } ..v.m.m.n.{ D C J ( E P f =.u.OXOXOXOXOXoXoX.X.X.X.X.X.X",
"                                    .   . o $ % : 7 8 9 r r A D 6 Z ) )  .$.n.Z.D.T.P.X.3 k 7.e.XXXX.X.XOX.X.X.XoXoX.XoX.X.X.X.X",
"                                        X X $ % : 7 7 7 8 0 r B V D E E ' ..b.m.S.R.^._.M.&.t.t.r.|.|..X.X.X.X.X.XoXOXOX.X.XOXOX",
"                                  . . . . o $ & : : : 7 8 8 r B D G E )  ...b.V.S.R.!._.`.^ W j.f.d.p.1.5. X.X.X.XoXOX.XOXOX.XOX",
"                                    . . X X $ $ & ; : 7 7 9 9 r D G E ` ....m.Z.D.R.!._.].J.{ `.+X%X&X+Xj.,.|..X.XoX.X.XOXOXOXOX",
"                                      . X $ $ & : : 7 7 7 8 0 B G E _  .$.m.m.Z.R.T.^._.[.E.O._.].+X&X=X-XF.0..X.XoX.X.X.XOX.XOX",
"                                  . . . X $ $ & & & 7 7 8 r B R Q ` ..v.n.V.Z.L.R.^.).'._.! H.^.].+X#X=X-X(.0..XXXOXOXOXOX.XOXOX",
"                                    . X $ $ $ & 7 7 7 8 r D R Y S t 6 6 6 L ) %.V.D.R.C.P @.T.^.`.+X$X=X@Xa.r..XoX.XOXOXOXOXOX.X",
"                                . . X X $ $ & 7 7 r r r A 5 O # , 8 N B V S S V n n n Y $.L.T._.[.[.).f.x w.XX.X.XXX.X.X.X.X.X.X",
"                                . . . $ & & 7 7 7 w 7 % O # , 8 9 B V C G H H ] ' ..v.m.S.T./.E.{ j ,.r. X.X.X.X.X.X.XXXOXOX.XOX",
"                                        . . . X X . . X O * , 1 9 B V F F H H ( ` #.n.S.Y.G.W W q :.w. X.XXX.X.XXX.XXX.X.XXX.X.X",
"                                              . X @ & : 7 , : # * - e C F H J ' #.m.S.A.! L K.`.+X'.C.j r.oXXXoXXX.X.XoXOX.X.XOX",
"                                            . . X @ % * 7 8 B D D Z 3 > 6 F ) ..n.n.W Z %.P.^.`.+X#X*X'.l XXOXXXoXoX.XXXXX.XXX.X",
"                                              . . o @ & ; 7 8 0 C G E Q T Z 6 L t Z } N.D.Y.^.`.+X#X*X*Xs..X.XOX.XXXXX.XoX.XoXXX",
"                                              . X o @ & : , 1 8 9 B C J )  . .Y ; L m.S.L.!.).[.+X$X=X).<.OXXXXX.X.X.X.X.XXX.XXX",
"                                          .   . X o # & : - 8 8 9 m V D G ]  .v.v.{ L { J.).`.[.+X(.B.<.t.OXOXOXOX.X.X.X.X.X.XoX",
"                                            . . X o @ & : , , 8 0 B C C F E ]  .v.Z.V.} D U i.i.2.4.w. XOXOXOXOXOX.X.X.XoX.X.X.X",
"                                              . . o # & - , 1 9 m B C F F H T ]  .v.Z.I.G.^ s ;.|.OXOXOXOXOXOXXXOX.X.X.X.X.X.X.X",
"                                            . . o o # ; , , 8 8 0 B C C G H ( ] '  .c.V.L.W.L.g.~ l 3.8.q.q.u.OXOXXX.X.XoX.X.X.X",
"                                              . X o % ; , 8 9 m B B C G G H E ( '  .x.n.Z.P.W.].'.'.Q.Q.~.U.6.XXOXXX.X.X.X.X.X.X",
"                                                          o ; 2 C G G G H E ( ( [  .x.b.V.D.P./.`.%X#X=X-X-Xz..XOXOX.X.X.X.X.X.X",
"                                                .     . . . o . X = N E ] ( ] ` [  .x.n.V.D.P./.'.+X&X=X-X@Xb OXOXXX.X.X.X.X.X.X",
"                                                    .   . . X o # O o O 6 (  ...#.$.c.m.A.L.W./.[.+X&X*X*Xs.0.OX.X.X.X.X.X.X.X.X",
"                                                      . . . o o O O * * * O > T $.m.V.S.L.T./.`.}.%X&X}.~ ;.oXoX.X.X.X X.X.X.X.X",
"                                                    .   . . o o # # * * - < 2 < * t X.N.P./.`.].].J.o.i r..XoXoX.X.X.X.X.X.X.X.X",
"                                                .     . . . o o O * * = - < 2 m F F V # @ f ~ c h 7.y..XoXoXoX.X.X.X.X.X.X.X.X.X",
"                                              . . . . . . o @ & * * ; - < 2 2 m M F ( ] H 4 &.u.XXXXXXOXXXXXXXXXOX.X.X.X.X.X.X.X",
"                                            . . X O & : - # X o = , - < < 1 2 2 M F H ] [  .` S a i =.w.XXOXOXOXOX.X.X.X.X.X.X.X",
"                                              . . @ # : 7 9 B e = o # < < 2 2 m M V H ] [ #.x.c.m.n.b.{ f u.OXOXOX.X.X.X.X.X.X.X",
"                                          .   . . o @ % : 7 8 m D G N @ * 2 2 m M V H ( [  .x.c.n.V.V.L.$.w.OXOXOXXX.X.X.X.X.X.X",
"                                            . . . X $ % * , 7 9 B F E ) N O < M V F H ] ' @.$.c.n.V.A.K.X.w.OXOXOXOX.X.X.X.X.X.X",
"                                          .   . . o @ % : - , 8 9 B D E ' } 6 * V F J ( ' #.$.$.c.N.A.n.f |.OXOXOXOX.XoX.X.X.X.X",
"                                              . X X @ % ; , 1 8 9 m V H ]  .v.| 5 N J ( [ @.$.c.n.b.{ j t.XXOXOXOXOX.X.XoXoX.X.X",
"                                            . . X X O % : , 8 8 9 B S H (  ...m.b.6 , g L U W I I x ,.u.XXXXOXOXOXOX.X.X.XoX.X.X",
"                                      . . X @ % & ; & & % ; , 8 B C C E ( } ..n.Z.m.f 3.t.t.t.y.u.XXXXXXOXOXOXXXOXOXXX.X.X.XOXXX",
"                                      . . o @ & : 7 r r A t 7 , - e D E ]  .$.n.Z.L.A.x y.OXoXOXOXXXXXXXOXOXOXXXOXOXXXXX.X.X.X.X",
"                                        . X o $ & 7 7 8 r A R Q Y t 5 t T ..x.m.Z.L.W.M.>.oX|.XXXXu.XXXXOXOXOXXXOXXXXXXX.X.X.X.X",
"                                  .   . . X o % & : 7 7 9 r A D E ` } Y 6 L | m.Z.R.!./.I >.x f ~ ~ c v 2.6.q..XOXOXXXXX.X.X.X.X",
"                                      . . X + $ & : 7 7 8 8 r B D G ( } $.| K Y b.R.!._.h.T [ x.x.n.N.A.V.c.! k u..X.X.X.X.X.X.X",
"                                .       . . o $ & : : 7 8 0 B B C D H E  .g.m.b.P W K._.M.H ' [ #.c.c.V.A.L.P.B.p .X.X.X.X.X.X.X",
"                                      . . X o % & : 7 7 8 r B B D D G E ( ' $.m.S.v.L { P H ] ' @.x.c.A.S.L.J.J.k .X.X.X.X.X.X.X",
"                                        . . + % & 7 : 8 8 r B B D G G J E ]  . .| S.L.N.W 5 n H ( [ #.N.A.K.P.l.z .X.X.X.X.X.X.X",
"                                      . . X @ % ; 7 7 9 r r B A D G H T T ] [ [ ) $.S.P.!.!.E.G.B.B.X.G A.M.! u u.XX.X.X.X.X.X.X",
"                                            . . . X % 7 r D D D C G H T ( ] [ ..$.n.V.L.E./.[.+X#X&X=XI s z e..XoX.X.X.X.X.X.X.X",
"                                                  .     . O w D E E T ( ] )  ...x.n.V.D.P./.`.}.&X&X@Xz .XXXoXoXoXXX.X.X.X.X.X.X",
"                                                      X . X o o ; t Q ` '  . ...c.m.S.L.T./.].}.@X@XI t.OXXXOXOXoXXX.X.X.X.X.X.X",
"                                                    .   . o o # # O * 6 T ..v.n.V.A.D.T.!.'.[.+X'.I 7.XXoXOXOXXX.X.X.X.X.X.X.X.X",
"                                                  .   . X X o # & # * # O > L | n.D.T.^./.^.G.^ l w.XXoXOXXXoXOX.X.X.X.X.X.X.X.X",
"                                                  .   . . X o # # * * O 5 Y | T T Q _ } X.X.M.h.p .XoXoXoXXXOXXX.X.X.X.X.X.X.X.X",
"                                            .       . . X o # # * o > G ' ....v.m.N.C.S.Y._.[.@Xd.w.oXoXOXoXoXOX.X.X.X.X.X.X.X.X",
"                                                      . X @ # # O 5 R ( ` '  .$.b.V.D.T.^.`.+X@X[.-.OXOXoXOXoXOX.X.XoXoXoXoXoXoX",
"                                                  .   . . . X # e G H J E ) ' @.v.m.D.R.^.`.[.@X'.0.OXOXOXOXOXOXoXoXoXoXoXoXoXoX",
"                                                        . o 7 m V C C F E ( ` #.v.V.H.T./.].+X@XU y.OXOXOXOXOXOXoXoXoXoXoXOXoXoX",
"                                                  . X # , 8 9 9 0 9 B C G ( ` #.m.S.R.!._.[.[.+.;.OXOXOXOXOXOXOXoXoXoXoXOXoXoXoX",
"                                          .   . o @ % : , 7 8 8 2 m B D G (  .v.Z.L.R.K.l./ s 5.oXXXOX|.5.-.oXOXOXOXoXOXOXOXoXoX",
"                                              . X @ % ; : , - 1 8 9 m F E ' x.n.} K s &.w. XoX.X.Xy.9.a.'.I.0.OXOXOXOXOXOXOXOXoX",
"                                            . . . o @ % : : , 1 1 8 B F ` } L O o y u i p &.p j g h.`.=X-X%Xt.OXOXOXOXoXOXOXoXOX",
"                                          .   . . o @ % * : , 1 1 m S ( S > Q n.V.S.L.L.L.P.^.`.[.+X$X=X-X%X2.OXOXoXoXoXoXoXoXoX"
};
