/* XPM */
static char *result[] = {
/* columns rows colors chars-per-pixel */
"64 64 198 2 ",
"   c #000100",
".  c #060903",
"X  c #090D04",
"o  c #0D1305",
"O  c #0E1A05",
"+  c #0E140A",
"@  c #101507",
"#  c #111B06",
"$  c #111508",
"%  c #141C08",
"&  c #181F09",
"*  c #132306",
"=  c #162906",
"-  c #182E07",
";  c #16230A",
":  c #1A240A",
">  c #15290B",
",  c #1D2C0A",
"<  c #1B3307",
"1  c #1D320A",
"2  c #1E3C08",
"3  c #1A2B15",
"4  c #1B2718",
"5  c #1C3413",
"6  c #1F3914",
"7  c #212E0C",
"8  c #23340C",
"9  c #253C0D",
"0  c #283D0F",
"q  c #212F1D",
"w  c #223612",
"e  c #233D14",
"r  c #293D12",
"t  c #223D19",
"y  c #1F1C24",
"u  c #241E2D",
"i  c #291B36",
"p  c #2E1D3D",
"a  c #232925",
"s  c #24252A",
"d  c #262A29",
"f  c #29342A",
"g  c #2B3C28",
"h  c #2A2333",
"j  c #2C2C32",
"k  c #2E213C",
"l  c #322E3B",
"z  c #30213E",
"x  c #2D3133",
"c  c #333E35",
"v  c #353C3B",
"b  c #35373A",
"n  c #1F4011",
"m  c #24430D",
"M  c #24490D",
"N  c #244313",
"B  c #294413",
"V  c #264C13",
"C  c #2A4C15",
"Z  c #25451B",
"A  c #2C4519",
"S  c #274B1B",
"D  c #2B4C1A",
"F  c #295215",
"G  c #2D531C",
"H  c #2E5A1D",
"J  c #305C1E",
"K  c #2A4226",
"L  c #2A4B22",
"P  c #2E4929",
"I  c #324D2D",
"U  c #304929",
"Y  c #2D5323",
"T  c #2F5824",
"R  c #315521",
"E  c #325C23",
"W  c #32542A",
"Q  c #345C2A",
"!  c #395F2C",
"~  c #384837",
"^  c #3B5D33",
"/  c #3A5634",
"(  c #346325",
")  c #366529",
"_  c #39652F",
"`  c #37682A",
"'  c #3A6D2D",
"]  c #366826",
"[  c #3C712F",
"{  c #3B6332",
"}  c #3B6C32",
"|  c #376631",
" . c #3D7333",
".. c #3F7439",
"X. c #426B36",
"o. c #43633A",
"O. c #436C3A",
"+. c #4A6D3F",
"@. c #407635",
"#. c #417936",
"$. c #447D3B",
"%. c #46733D",
"&. c #311945",
"*. c #371D4C",
"=. c #381E4D",
"-. c #3F1F59",
";. c #3B1D54",
":. c #322242",
">. c #362B44",
",. c #39214F",
"<. c #373141",
"1. c #393246",
"2. c #3F384A",
"3. c #3E2354",
"4. c #3D2951",
"5. c #411F5D",
"6. c #423D4D",
"7. c #43225E",
"8. c #46285F",
"9. c #423155",
"0. c #462363",
"q. c #482565",
"w. c #4B256B",
"e. c #4E2670",
"r. c #522675",
"t. c #532975",
"y. c #562A7B",
"u. c #5A2B7E",
"i. c #444F46",
"p. c #434948",
"a. c #445741",
"s. c #4E5A53",
"d. c #4A6344",
"f. c #506D49",
"g. c #4C7C43",
"h. c #4F7544",
"j. c #527349",
"k. c #557B4A",
"l. c #537F47",
"z. c #5C735A",
"x. c #46813D",
"c. c #48833F",
"v. c #478241",
"b. c #4A8543",
"n. c #4C8A45",
"m. c #4D8C49",
"M. c #548349",
"N. c #538D4B",
"B. c #57884A",
"V. c #53924D",
"C. c #5D8D51",
"Z. c #559550",
"A. c #599551",
"S. c #5C9B55",
"D. c #5F9E59",
"F. c #648B5A",
"G. c #619455",
"H. c #619D59",
"J. c #6C9F5E",
"K. c #639A57",
"L. c #65A25C",
"P. c #69A55F",
"I. c #6B9760",
"U. c #709867",
"Y. c #6BA661",
"T. c #6DA963",
"R. c #67A560",
"E. c #71A462",
"W. c #71AD66",
"Q. c #77A66A",
"!. c #74AF68",
"~. c #79A86E",
"^. c #76B16A",
"/. c #7BB46D",
"(. c #7CAB71",
"). c #7EB570",
"_. c #7EB871",
"`. c #84BC75",
"'. c #84B975",
"]. c #87C078",
"[. c #8CC47C",
"{. c #8FC87F",
"}. c #90C87F",
"|. c #5D2D84",
" X c #5F2D88",
".X c #632E8F",
"XX c #64318E",
"oX c #652F91",
"OX c #663190",
"+X c #93CB82",
"@X c #98D187",
"#X c #9BD58A",
"$X c #9FDA8E",
"%X c #97D086",
"&X c #A0DC8F",
"*X c #A2DE91",
"=X c #A6E395",
"-X c #ACEB9B",
/* pixels */
"                                                                                                                                ",
"                                                                                                                                ",
"                                                                                                                                ",
"                                                                                                                                ",
"                                                                                                                                ",
"                                                                                                                                ",
"                                                                                                                                ",
"                                                                                                                                ",
"                                                                                                                                ",
"                                                                                                                                ",
"                                                                                                                                ",
"                                                                                                                                ",
"                                                                                                                                ",
"                                                                                                                                ",
"                                                                                                                                ",
"                                                                                                                                ",
"                                                                                    .     .                                     ",
"                      .   . .                                                                                                   ",
"            .     . . . X . X .                                                 .         .                                     ",
"          .   . . . . . X X X $                                                   . .   .   .   .                               ",
"            . . . . X X X X $ $ .     .   .                                 .   . X . . . . . . .                             . ",
"            X X + X X $ $ $ & & .                 .             .     .       . X X X X X X X X X                               ",
"            X $ $ X $ $ $ & & 7 X           .                         .       . $ $ + X o o X o $                       .   .   ",
"            X & & & $ & & & 7 7 X . . . . . . . . .         .   . . . . . . .   % % % % $ % % % % .           .         . . . . ",
"            X : : & & : : : 7 8 X X X X X X . . X X         .   . X X . . . X . & : & & & & & : : .                     o X X X ",
"    .       X 7 7 : : : : 7 w w . @ @ @ o o @ o @ o             X @ @ X X @ o X & 7 7 : : : : : , o     .   .     .   . @ o o o ",
"  .   .     X 8 7 : : , , 7 r 7 . & @ @ # @ @ % # # .   .   .   . & # @ @ @ $ @ & r 7 7 7 : 7 7 8 %   .   . .   . .   X % $ $ o ",
"      . .   @ w 8 7 , 7 7 w A # X : : & % & & * & :   .   .   . . : * & # % % % % A 8 7 7 7 7 7 8 7   . . .   . .     # : : % % ",
"  . . . .   $ r 8 8 7 8 8 r A o @ , 7 : : : : : : ,   . . . . . . , 7 : : * : : % A r 8 8 8 8 8 r r X X X . X X X .   7 7 : * * ",
". . . X o . : B r 8 8 8 r A w % * , 9 , , - - , 7 8 o X . . . . X % 9 7 : , , , : t D r 8 r r r r D $ X X o X o o . @ 8 8 : , : ",
". X X X o . e C r 0 0 0 B R % , , ; B 8 8 < 7 < 8 9 : X X X o o @ o B 8 < < , 8 , 5 R B r B B B B D w o o o O o % X 8 9 7 < , , ",
"X X X o O X C D B B B B G R $ 8 8 # D 0 8 8 8 8 8 m w X o o o O # o e B 9 8 8 8 8 , Q D B B B B A D D o # O # # # # m 9 8 7 7 - ",
"o o o o O # T n B D S D Q S - 9 9 ; D C m 9 9 9 m m C X # # O # * * ; G N 9 9 m N , Y E D C D D D D R : O * # * o N B 9 9 2 8 1 ",
"o o O O O 5 Y n D G R E ' t 8 m m , Z G B m B B B B G ; O # # # : - o G D B m B D n t ) G D D G G G E N o * * o 5 G C m 9 9 8 9 ",
"O O O O O 6 | ( E E E ` ..w N S C e , E D V V C C C G S o * * * * - * e J G C C S S 5 } ) G G G G G E Q * * * > H G C N B m m F ",
"o O * * O S } ` Q ) `  .v.6 N F C C ; ( J C G F G D G E O * * = - < < # ( E G J T Q n Q  .Q E J E E E ' 5 * O Y ( E G C F C G ( ",
"> O * = * n $.} ` '  .$.m.6 S G F G 1 T ) G G G G G H ( n * - < - < < * Z } ( ( ( ` T n $.} ( ( ( ( ( } T O 5 ' ` T H H G J ` D ",
"..O = = > n v.v.$.$.g.b.m.L S H H H G Z  .( H H H H H ] ( O < < < 2 2 2 O '  .' '  ...n | $.} ) ) ) ` [ ..; T ..[ ( ( ( ( ' } > ",
"D.n * - > 5 m.m.v.n.b.m.Z.) V ( H ( ] 6 }  .( E ( E ( ]  .> 2 2 2 2 2 2 < n g.$...$.g.} Z m.$. .' ' } ..v.Z _ .. .' [ '  .$.L Q ",
"R.S.* < 2 O V.Z.m.m.Z.S.L.%.V ( ( ` ..L Y c.' ] ] ( ] ) ..T - m m m m n M * | m.n.b.m.m.Y b.m. .' @.#.$.n.} T v.........v.n.O m.",
"T.T.5 n m * c.S.S.S.D.L.R.N.N ` ' ..n.t ; g.v.} ] [ ] [ #.x.* V M M M M M F 5 b.Z.Z.Z.S.g.L S.| ( $.x.v.N.n.E n.n.c.c.n.Z.} + Z.",
"/.S.= M m m ' R.P.P.P.T.^.H.N  .#.n.b.S Y { Z.v.#.@.#.#.x.n.N F F F V V F F V 5 N.R.L.R.R.W b.S.$.n.n.m.S.D.Q N.V.m.V.S.D.L y S.",
"W 5 n F F H S P.^.^.^.^./.Y.Z $.m.S.E } n.L Z.V.c.c.c.c.x.V.} N J H H H H J J > f Z.T.W.!.K.S L.S.Z.V.S.D.T._ N.D.D.D.P.R.u u D.",
"L ( J J H J S } /./.'.`.`.C.L m.S.A.t V.S.{ } L.A.c.c.c.m.S.V.* ] ] ] ] ( ] ] g 7.x M./._._.{ C.R.L.D.L.Y.!.X.K.P.T.T.^.D.&.i L.",
"H ' ] ( ( ] J 5 M.`.`.[.`.L $.S.Y.! %.H.R.H.L S.L.A.V.V.V.L.J.@ H [ [ [ ' [ ' K t.y.>.~ g.l.L W !.T.Y.T.!./.X.P.^.^./._.M.w.p L.",
"H @.[ [ ' [ ( k :.^ E.U.Q %.H.T.G.L L.T.W.).U ^ W.P.K.S.L.E.'.f 4  .#. . .[ ..U r.OXXX>.H H H 5 !./././.'.^.X.'.].].].[./  X&.Y.",
"E x.x.#...$.T 3.t.W _ O.H.T.T.).W K.^.^._.`.p.h E.^.T.P.T.'.`.~ &.` $.x.x.x.x.W r.OXXXj [ ' ] m T.`.`.].[.G.M.[.[.[.{.[.s OXh ^.",
"( b.c.c.x.v.U e.t.j.`._.^.^._.E.R ].`.`.[.[.p.;.%.`.^.^.^.`.[.c u.S b.c.x.x.x.W y.XX|.c $.[ ' G G.+X+X+X+X{ h.@X@X#X@Xd.-.OXh `.",
"} V.V.m.m.n.j XXt.f.+X[.`.`.[.o.7 }.}.}.%X}.6.u.i.'.`.`.[.}.`.h OXq N.n.n.n.c.U u.OXXXc c.$.@.] C.#X@X#X/.l &.O.}.'.I ;..X.Xg [.",
"} A.A.V.V.$.*.XXu.d.@X+X+X+X[.d z '.&X#X@X'.9..Xl '.}.}.}.}.E.7.OXi n.V.V.B.c.d XXOXu.c n.c.x.' M.&X&X%X~ w.XXe.5.5.y.OXOXy.+.%X",
"} H.S.S.V.3 y.oX|.i.*X&X#X#X'.*.q.F.*X*X*Xk.w..X5.U.&X&X&X&Xo.u.OX=.c.A.A.A.X.9.OXOXu.~ N.n.c.#.O.=X@XI 7.XXoXOX.XOXOXOX.X4.].&X",
"a N.K.n.K 0.OX.X.X1.[.=X=X=Xf.r.XXj '.&X'.l XX.X7.'.=X=X=X[.i XXoXw.' K.K.n.x u.OXOXXXv V.V.V.n.R U :.r..XOXXXXXXXXXOXOX.Xd.=X=X",
"q.x ~ l q.oXOX.X.X0.j.-X-X#Xj .X.Xr.>.s.<.t.OXOX7.'.-X-X*X/ r.XXoXXXa O.$.g t.OXOXOXXXp.V.S.A.A.C.a  XOXoXOXOXoXOXOXOXOX7.'.-X=X",
"OXXXXXXXoXoXOX.X.X X4.F.(.a.q..XXXXXXX.XOXOXOXOX5.I.-X@Xo.5.OXoXoXOXy.w.t.u.XXOXOXOXXX9.v.L.L.H.M.:.OXOXoXOXoXOXOXOXOXOX;.J.+X}.",
"OXOXOXOXOXOXOX.X.X.X|.5.7.r..XXX.XoXXXXXXXOXOXOXu.6.z.b q.oXOXOXOXOXoXOXOXOXXXOXOXOXXXq./ L.L.L.^ w.OXOXXXXXoXXXOXOXOXOXXX8.1.>.",
"OXOXXXOXOXOXOX.XoX.X.X.XoX.X.XoXXXXXoXXXXXOXOXOXoX.XXXXXOXOXoXOXXXoXOXOXOXOXOXOXOXXXXXXX:.B.L.M.u .XOXOXoXOXOXoXOXOXOXOXOXOXOXOX",
"OXOXXXoXOXOXOX.X.X.X.X.X.X.X.X.XoX.XoXoX.XOXOXOXoXoX.X.X.X.X.X.XoXOX.X.XOXOXOXOX.XoXoXoX|.p k &.|..X.XoXoXoXoXoXOXOXOXOXOXOXOXOX",
".X.X.XoXXX.X.XoX.XoXoXOXoX.XoXXX.X.X.X.XOX.X.X.XoX.X.X.X.X.X.X.XXXXX.X.XOXOXOXOXoX.XoXoX.X.X.X.X.X.X.XoXoXoXoXoXoXOXoXOXOXOXoXOX",
".X.X.X.X.X.X.XXXoXoXXX.XOXOX.X.X.X.XoXoX.XXX.X.XoX.X.X.X.X.X.X.X.X.X.X.X.XXXOXOX.X.X.X.X.X.X.X.X.X.X.X.XoXoXoXoXoXOXoXOXOXOXOXoX",
".X.X.X.X.X.X.XoX.XoXoXOXoXOX.XXX.XoXoX.X.XoX.X.X.X.X.X.X.X.X.X.X.X.X.X.XXXXXXXXX.X.X.X.X.X.X.X.X.X.X.X.XoXoXoXoXoXOXOXoXoXoXOXoX",
".XoX.X X.X.X.XoXXXOXoXOXXXOX.X.XoXoX.X.X.X.X.X.X.X.X.X.X.X.X.X.X.X.X.X.X.XOX.X.X.X.X.X.X.X.X.X.X.X.X.X.XoXoXoXoXoXOXoXoXOXOXoXoX",
".X.XoXoX.X.X.XoXoXoXXXOXOXoX.XXXoXoX.X.X.X.X.X.X.X.X.X.X.X.X.X.X.X.X.X.XXX.X.X.X.X.X.X.X.X.X.X.X.X.X.X.XoXoXoXoXoXoXoXoXoXOXOXoX",
".X.XoX X.X.X.XOXOXoXXXoXOXoXXXoX.X.X.X.X.X.X.X.X.X.X.X.X.X.X.X.X.X.X.X.XOX.X.X.X.X.X.X.X.X.X.X.X.X.X.X.XoXoXoXoXoXoXOXOXoXoXOXoX",
".X.X.X.X.X.X.XoXOXXXOXOX.XOXXX.X.X.X.X.X.X.X.X.X.X.X.X.X.X.X.X.X.X.X.X.X.XOX.X.X.X.X.X.X.X.X.X.X.X.X.X.XoXoXoXoXoXoXOXOXOXoXoXoX"
};
