/* XPM */
static char *result[] = {
/* columns rows colors chars-per-pixel */
"64 64 196 2 ",
"   c #000100",
".  c #060902",
"X  c #090D04",
"o  c #0D1305",
"O  c #0F1A05",
"+  c #0E170A",
"@  c #101607",
"#  c #111B06",
"$  c #121708",
"%  c #151D09",
"&  c #171917",
"*  c #132306",
"=  c #162A06",
"-  c #182E07",
";  c #152209",
":  c #1A2409",
">  c #162C0A",
",  c #1D2B0B",
"<  c #1A3307",
"1  c #1C3907",
"2  c #1D320B",
"3  c #1E3B08",
"4  c #172B11",
"5  c #1A2E11",
"6  c #1C261A",
"7  c #1C3512",
"8  c #1F3A15",
"9  c #212E0C",
"0  c #23340D",
"q  c #243B0D",
"w  c #243C13",
"e  c #293D11",
"r  c #223E1A",
"t  c #253513",
"y  c #241C2D",
"u  c #21162B",
"i  c #291F34",
"p  c #2D1C3D",
"a  c #212423",
"s  c #25242D",
"d  c #262B28",
"f  c #2C382B",
"g  c #2C2535",
"h  c #2B2A33",
"j  c #2E223A",
"k  c #31263E",
"l  c #332A3E",
"z  c #2E3731",
"x  c #333C35",
"c  c #36373D",
"v  c #353E39",
"b  c #313137",
"n  c #1F4008",
"m  c #23430C",
"M  c #244A0E",
"N  c #254413",
"B  c #294413",
"V  c #264B12",
"C  c #2A4B15",
"Z  c #25441B",
"A  c #2B451A",
"S  c #274A1C",
"D  c #2C4C1A",
"F  c #2A5215",
"G  c #2D531B",
"H  c #2E5A1D",
"J  c #30561F",
"K  c #305B1F",
"L  c #2A4622",
"P  c #2A4C22",
"I  c #2D432A",
"U  c #324B2D",
"Y  c #2C5123",
"T  c #2E5921",
"R  c #315624",
"E  c #325C23",
"W  c #34512D",
"Q  c #335B2A",
"!  c #395C2F",
"~  c #3A453D",
"^  c #354A33",
"/  c #3B5537",
"(  c #346325",
")  c #366826",
"_  c #36642A",
"`  c #376929",
"'  c #396C2D",
"]  c #3C702E",
"[  c #3A6432",
"{  c #3A6D31",
"}  c #3E7433",
"|  c #3F7339",
" . c #445C3E",
".. c #406635",
"X. c #456C3C",
"o. c #426639",
"O. c #407636",
"+. c #417936",
"@. c #44743B",
"#. c #437C3B",
"$. c #48783F",
"%. c #2F1C40",
"&. c #3C1E54",
"*. c #3F1F58",
"=. c #371A4E",
"-. c #37214A",
";. c #3A2B4A",
":. c #372846",
">. c #3F354F",
",. c #3C2153",
"<. c #3E2D50",
"1. c #401F5B",
"2. c #413A4E",
"3. c #412A57",
"4. c #41225B",
"5. c #462363",
"6. c #4C256C",
"7. c #482465",
"8. c #4F2671",
"9. c #512774",
"0. c #532975",
"q. c #56297B",
"w. c #582B7E",
"e. c #55277C",
"r. c #434A47",
"t. c #465E41",
"y. c #484A50",
"u. c #4D6748",
"i. c #4D7443",
"p. c #497B41",
"a. c #457A40",
"s. c #527449",
"d. c #527C46",
"f. c #577452",
"g. c #46813E",
"h. c #48833E",
"j. c #468341",
"k. c #4A8543",
"l. c #4D8A46",
"z. c #4D8D49",
"x. c #528D4B",
"c. c #5A894C",
"v. c #548547",
"b. c #53924D",
"n. c #5C8E51",
"m. c #5F8754",
"M. c #559551",
"N. c #5A9551",
"B. c #5B9A54",
"V. c #5E9E59",
"C. c #64835D",
"Z. c #649655",
"A. c #629B57",
"S. c #66945A",
"D. c #629E5A",
"F. c #6A9C5D",
"G. c #64A25C",
"H. c #69A55F",
"J. c #6E9D61",
"K. c #6CA561",
"L. c #6DAA63",
"P. c #66A560",
"I. c #71AC66",
"U. c #76A66A",
"Y. c #74AD68",
"T. c #79AA6C",
"R. c #73A464",
"E. c #76B16A",
"W. c #7BB46D",
"Q. c #7CAD70",
"!. c #7EB770",
"~. c #7EB870",
"^. c #81B472",
"/. c #83BC74",
"(. c #89BF79",
"). c #87C078",
"_. c #8BC37B",
"`. c #90C87F",
"'. c #5D2D85",
"]. c #5E2B88",
"[. c #5F3085",
"{. c #632E8F",
"}. c #64318E",
"|. c #603087",
" X c #652E91",
".X c #663190",
"XX c #93CC83",
"oX c #97D086",
"OX c #9BD58A",
"+X c #9FDA8E",
"@X c #98D087",
"#X c #A1DC8F",
"$X c #A2DD91",
"%X c #A6E395",
"&X c #A8E697",
"*X c #ADED9C",
/* pixels */
"{.{.{.{. X{.{. X X}..X.X X.X{.}.{.}. X X{.{.{.{.{.{.{.{.{.{.{.{.{.{.{.{.{.{.{.{.{. X{.{.{.{.{.{.{.{.{.{.{.{.{.{.{. X X X X X X X",
"{.{. X{. X X{. X.X X X}.}. X X{. X}.{.}.}.{.{.{.{.{.{.{.{.{.{.].{.{.{.{.{.{.{.{.}.{.{.{.{.{.{.{.{.{.{.{.{.{.{.{. X X X X X X X X",
"{.{.{.{. X]. X.X.X.X.X.X X.X}.{.}.{.{. X{.{.{.{.{.{.{.{.{.{.{.{.{.{.{.{.{. X{.{.}. X{.{.{.{.{. X{.{.{.{.{.{. X{. X X X X X X X X",
"{.{.{.{. X X]..X{..X{..X.X.X}.{.{. X}.}.}. X{.{.{.{.{.{.{.{.{.{.{.{.{.{.{. X X{.{.{.{.{.{.{.{.{.{.{.{.{.{.{.{.{. X X X X X X X X",
"{.{.{.{.{.]. X.X.X}.}. X.X.X{.{.{.}.{.{.{.{.}. X{.{.{.{.{.{.{.{.{.{.{.{.{. X X{.}. X}.{.{.{.{.{.{.{.{.{.{.{.{.{. X X X.X.X.X.X X",
"{.].{.{. X X]..X X X.X.X X}.}.{. X}.}. X}. X{.}.{.{.{.{.{.{.{.{.{.{.{.{.{. X{. X}.}.{. X{.{.{. X{.{.{.{.{.{.{.{. X.X.X X.X.X X X",
" X X{.{. X{.{.{..X X X.X.X.X X}. X{.}.}.{.{.}.}.{.{.{. X{.{.{.{.{.{..X.X X X{.{..X.X}.{.{.{.}.}.{.{.{.{.{.{.{.{. X X.X X.X.X X.X",
" X X X X X{..X X{.{. X X].{.{. X}.{. X X}. X.X.X{. X X X X X X{.{.{..X.X.X X X X.X.X X}.{.1.3.4.].{.{. X X{. X{..X.X.X.X.X.X.X.X",
"}..X.X.X.X.X.X{.]. X X X{.{.{. X{.}.}.}.{. X.X.X.X.X.X}..X.X.X.X{..X.X.X.X.X.X.X.X.X.X.X-.X.n...p {..X X}. X X}..X.X.X.X.X.X.X.X",
".X.X.X.X}..X.X{. X X].].e.]. X].{.{.}.{.}. X.X.X|.;.y.-.w..X{.}. X.X.X.X.X.X.X.X.X.X}.0.U H.H.G.U q. X}..X.X.X.X X.X.X.X.X X4.6.",
".X.X}.}..X.X.X{.].].,.u.C.c e.{.{.{.{.{.}.{.}..X6.C.$X^.x 6.{.{.{.{.{.w.|.}..X.X.X.X}.2.$.G.A.G.k.,.}..X X}..X X.X.X.X.X7.f.^.U.",
"q.-.;.,.q..X}.{. X8.t.%X*X).j ].{.'.&.2.,.|.}..X7.T.*X*XoXz '..X{.{.p  ./ g |.}..X.X}.2.b.A.B.B.b.s {..X X.X}. X.X.X.X.X1._.*X*X",
"s a.x.X.d 9.{.{.{.3.^.&X&X%X .e.{.p J.XXS.;.}..X7.U.&X%X&XW.%..X.X9.E D.A.O.k |..X.X|.c N.N.b.x.[ 5 1.|.}.}. X.X.X.X.X}.w.s.&X%X",
"_ V.V.V.x.6 |.{.'.r.#X#X$X+XU.4.9.i.$X%X$Xi.6.}.3.U.#X#X+X#XW ].|.1.h.N.N.N.! 4..X.X|.x b.l.l.+.! #XJ.d 9.}.}. X.X.X.X{. X;.XX#X",
"O.B.N.N.b.' 1..Xq.u.OXoXoXXX).g -.^.OX#X#XU.3.}.:.^.XXXX@XOXZ.5.}.p h.N.b.b.h.g .X.X}.^ l.h.h.O.v.#X#X(.z q.}.'.0.w.{.{.{.9.v.@X",
"' b.b.z.x.l.h }.0.u.XX_.(.)._./ a `.XXXXoX`.2.{.v /.).).).`./.j .Xa c.v.l.l.l.I w..Xw. .h.#.+.) c.OXOX#XJ.:.1.f C.d.d 8. X|.^ `.",
"Q l.k.h.h.h.I 0.9.s.).~.!.W./.F.W ).(.(._._.r.4.i./.W.W.~./._.z ].Z h.h.h.g.k.U q.}.].x g.} ] T m.`.XXXXXXW  .XXOX@XXXU 9.{.h /.",
"E h.g.+.g.#.R 4.9.u.B.A.L.L.Y.W.P H.W.W./.).r.i D.E.I.L.Y.~./.~ &.) g.g.g.g.#.W 0.}.|.b } ' ) V R._.(.`._.c.c.`.XX`.XX/.u .Xg W.",
"E +.} ] ] ] ( -.*.t i.k.Y x.G.I.c.! I.I.E.W.^ W I.H.G.V.H.I.~.z & +.g.+.} } } W 0.}.}.l ) ) K 7 I./.^.^./.I.@./.).).)._.^ {.p I.",
"H ' ' ) ) ) ( 6 [ !.XX_.T.S k.D.H.P k.D.H.I.L c.H.B.b.M.B.G.L.% S O.] ] ] ] ] P 0.|.4.f _ ..r L E.L.L.L.W.W.o.L.W.W.~./.i.0.p G.",
"F ( K H K K F Q W.~././.).d.T z.V.x.L M.V.$.! G.M.z.l.l.b.V.M.o ' ) ) ) ) ) ) f 6.l o.R.~.~.u.v.H.G.G.G.L.E.| S.L.L.I.E.Z.=.i D.",
"S 8 F F F H C A.W.E.E.W.!.P.Z g.z.B.P @.b.S x.B.l.h.h.h.j.M.@.8 ( K H H K ( ( 5 s p.I.E.!.L.L V.G.N.M.B.G.L.[ N.G.V.G.L.H.y i D.",
"E.p.= M M V Q L.L.P.L.I.E.D.Z } #.b.a.Y _ Q N.k.} } #.} g.b.P F H F F F F F F 4 p.H.P.L.P.[ | B.h.l.x.b.B.G.( x.M.b.b.V.G.f y V.",
"L.L.7 n n = k.G.V.V.V.G.L.n.N ` { #.z.8 ; a.k.} ] ] ] ] } g.* F M M M M M F 5 @.B.M.B.B.z.Z B.| ( g.g.h.b.b.T z.l.j.k.z.M.[ + b.",
"P.P.> 1 1 * b.M.M.M.M.V.P.a.S ) ) ' #.Y Z k.} ' ) ) ) ` } _ - V M n m m M - T z.z.z.z.z.Q a.b.{ { } } j.l.| Q k.g.} #.#.l.k.o z.",
"V.Q * - < 5 z.l.j.j.z.M.B._ S K T ( ' 8 { } _ E K ( ( ` } 2 3 3 3 3 3 n 1 - k.j.#.g.g.| P z.j.} } { } } j.P _ #.} } { ' } k.Z { ",
"k.O = = > 8 k.#.| #.#.z.M.P D K T H G Z O.) K K T H E ) ' O 1 < 1 1 3 q O _ | } ] } | P Q j.} ` _ ) ' { | 4 Q } ] _ ( ) _ } ' 4 ",
"8 O * * * S | } } } | #.l.Z C G G G 3 Y ) K G J H G H ( Z * - < < < 3 = 7 } _ ( _ ' _ 8 | } _ ( ( ( _ { _ O 8 } ` ( H H H T { 8 ",
"o O * * O S } _ ( ` ' | j.7 V C F F > Q T G F G D F H E * * = = - - < O ( _ T T E E Z P } ( E E K T ( { Z O # T ) K G G F F T ( ",
"O O O O O N ' _ E E _ ' | 7 N C C N : E F C C C C C G D o * * * = - = 7 E G D F G G 7 { _ J G G H T T _ ; * O 7 E H C B V N N G ",
"+ o O O o 7 T H T T T T } 8 8 m N 0 N H N B B B B B G , O # # * = , o G G B V N C N r ' E D G G G G E S O ; * o N D C m m q q m ",
"o o o O O * S 7 N S D G _ Z 2 q q * S D m q m m m B G o O O O # * : % J B m q m B , S E D D D C D G E 4 # # * * # B B q q 0 1 0 ",
". o o o # o D G B B B B J Y % 0 0 # C e q 0 q 0 q m n X o o O o % O w B q q q 0 q : Q J B B A B C D J $ # # # # # = B e 0 0 < , ",
". . . o + . e A B e e e A R # 9 - : B q 0 < 0 9 0 w > X X o X o # . B q 2 , < 0 9 5 R B e B B e B D e X o O o @ % . q q 0 - , , ",
". . . X o . 9 e e 0 q q e D 6 : * , q 9 , , , 9 9 0 o X . X . o O # q 0 , - , , 9 t D e e e e e B A % o o o X @ O . # 0 9 , - : ",
". . . X .   % e q 0 0 0 0 e e $ # , 9 , : = , , , 9 . . . . . . . : 9 : : : : , % A e t 0 q 0 q e B X . . X X . X . . , , = : : ",
"  . . . .   @ q 0 9 9 9 9 t e $ X 9 : % % ; ; % ; :   . .   . . . , : % % % % % % A e 9 9 9 9 9 t 0 . . .   . . . .   : : : % % ",
"            X 0 9 9 9 9 9 9 e 9 . ; % % @ % # # % %       .   . . : % $ @ @ # @ % t 9 9 : 9 9 9 0 % .     . .   .     X : % @ O ",
"      .     X 9 9 9 % : 9 9 t t . $ @ o @ o o o @ o   .         . @ @ o o o o X % t 9 9 : 9 9 9 9 X   .   .   .   .   . # @ o o ",
"          . X : % : % : : : 9 9 X o X X X X X X o o       .     . X X X . . X X % 9 % % % % % % 9 .                     o X X . ",
"            X ; % % % % % : 9 9 X . . . . . . . X .             . . .   . . . . % % % % $ % % % % .                     . . . . ",
"            X $ $ $ $ $ % % : 9 . . . .   .       .             . .   .   .   . @ @ @ @ o $ o $ # .                     . .     ",
"            X o X o X $ $ $ & : . .       .   .                 .     .       . o o X X X X X X X                     . .     . ",
"            . . X X X X X $ $ $                                               . . . . . X . . . .                               ",
"          .   . . . . X X X o o                                                 . .   . .   . . .                               ",
"            .       .   . . . X                                                     .         . .                               ",
"          .       . .     . X .                                                                                                 ",
"                        .                                                           .     .                                     ",
"                                                                                                                                ",
"                                                                                                                                ",
"                                                                                                                                ",
"                                                                                                                                ",
"                                                                                                                                ",
"                                                                                                                                ",
"                                                                                                                                ",
"                                                                                                                                ",
"                                                                                                                                ",
"                                                                                                                                ",
"                                                                                                                                ",
"                                                                                                                                ",
"                                                                                                                                ",
"                                                                                                                                ",
"                                                                                                                                ",
"                                                                                                                                "
};
